/* XPM */
static char *result[] = {
/* columns rows colors chars-per-pixel */
"48 48 156 2 ",
"   c #050606",
".  c #060606",
"X  c #161005",
"o  c #211400",
"O  c #221500",
"+  c #231700",
"@  c #251903",
"#  c #271A02",
"$  c #261A03",
"%  c #271A03",
"&  c #261A04",
"*  c #261A05",
"=  c #261B05",
"-  c #271B05",
";  c #493001",
":  c #493101",
">  c #493102",
",  c #493103",
"<  c #4B3302",
"1  c #4A3203",
"2  c #4C3303",
"3  c #4D3500",
"4  c #4C3401",
"5  c #4D3401",
"6  c #4F3601",
"7  c #4F3701",
"8  c #4D3502",
"9  c #4C3403",
"0  c #4E3502",
"q  c #4E3703",
"w  c #4D3708",
"e  c #4B370C",
"r  c #4A360E",
"t  c #4A360F",
"y  c #4E3808",
"u  c #513800",
"i  c #503802",
"p  c #503803",
"a  c #543B01",
"s  c #543C00",
"d  c #553C00",
"f  c #543E02",
"g  c #503805",
"h  c #543C09",
"j  c #553D0A",
"k  c #503E0F",
"l  c #4B3E1D",
"z  c #4D3F1E",
"x  c #493E24",
"c  c #493E25",
"v  c #483E26",
"b  c #493E26",
"n  c #5A4101",
"m  c #5A4201",
"M  c #5A4307",
"N  c #544213",
"B  c #5D4718",
"V  c #5D4719",
"C  c #5A4C1E",
"Z  c #5A4D1E",
"A  c #624A01",
"S  c #634B02",
"D  c #644C03",
"F  c #624E0B",
"G  c #634F0C",
"H  c #644E12",
"J  c #6A4F1B",
"K  c #645417",
"L  c #6A5418",
"P  c #5E5228",
"I  c #4B4739",
"U  c #4B473A",
"Y  c #4A473B",
"T  c #504930",
"R  c #564F38",
"E  c #5F5430",
"W  c #5C5137",
"Q  c #5F5436",
"!  c #5F5339",
"~  c #5B543D",
"^  c #655127",
"/  c #665127",
"(  c #6E5421",
")  c #6F5522",
"_  c #6F5523",
"`  c #695429",
"'  c #6A562E",
"]  c #6A562F",
"[  c #6C572E",
"{  c #6C582E",
"}  c #6D592F",
"|  c #6E592E",
" . c #705621",
".. c #725927",
"X. c #745A27",
"o. c #735A28",
"O. c #735A29",
"+. c #755A28",
"@. c #745B2A",
"#. c #755B2A",
"$. c #755C29",
"%. c #775C28",
"&. c #765C29",
"*. c #685731",
"=. c #6B5730",
"-. c #605439",
";. c #60543A",
":. c #7C6725",
">. c #7D6826",
",. c #6E6238",
"<. c #7D6D31",
"1. c #504D41",
"2. c #514E40",
"3. c #524E40",
"4. c #514E42",
"5. c #6F6446",
"6. c #806F41",
"7. c #847244",
"8. c #83714C",
"9. c #8A744B",
"0. c #8C774E",
"q. c #8D784F",
"w. c #8F7A50",
"e. c #97864B",
"r. c #8F8461",
"t. c #9D8B67",
"y. c #9C8E70",
"u. c #9D8F71",
"i. c #A5986B",
"p. c #A6986C",
"a. c #A99E75",
"s. c #A99E87",
"d. c #AA9F88",
"f. c #AFA488",
"g. c #ACA18C",
"h. c #ACA28C",
"j. c #B9AE86",
"k. c #BFB493",
"l. c #BFB498",
"z. c #C0B49C",
"x. c #C0B49D",
"c. c #C0B59D",
"v. c #C1B59D",
"b. c #C3B8A0",
"n. c #CEC6B1",
"m. c #D3CDB9",
"M. c #D9D2BE",
"N. c #E2DED4",
"B. c #E3DFD6",
"V. c #E6E3DC",
"C. c #E9E5DB",
"Z. c #E9E6DC",
"A. c #EAE6DD",
"S. c #ECE9E1",
"D. c #EDEAE2",
"F. c None",
/* pixels */
"F.F.F.F.F.F.F.F.F.F.F.F.F.F.F.F.F.F.F.F.F.F.F.F.F.F.F.F.F.F.F.F.F.F.F.F.F.F.F.F.F.F.F.F.F.F.F.F.",
"F.F.F.F.F.F.F.F.F.F.F.F.F.F.F.F.F.F.F.F.F.F.F.F.F.F.F.F.F.F.F.F.F.F.F.F.F.F.F.F.F.F.F.F.F.F.F.F.",
"F.F.F.F.F.F.F.F.F.F.F.F.F.F.F.F.F.F.F.F.F.F.F.F.F.F.F.F.F.F.F.F.F.F.F.F.F.F.F.F.F.F.F.F.F.F.F.F.",
"F.F.F.F.F.F.F.F.F.F.F.F.. .                                         . . F.F.F.F.F.F.F.F.F.F.F.F.",
"F.F.F.F.F.F.F.F.F.F.F.F.. X - * $ # # # % & = - - = & % # # # $ * - X . F.F.F.F.F.F.F.F.F.F.F.F.",
"F.F.F.F.F.F.F.F.F.F.F.F.  - 9 p y r r t e q 8 1 1 0 g e r r r w 7 2 -   F.F.F.F.F.F.F.F.F.F.F.F.",
"F.F.F.F.F.F.F.F.F.F.F.F.  * p D Z U U Y T F n 1 1 m G T Y U U C S i *   F.F.F.F.F.F.F.F.F.F.F.F.",
"F.F.F.F.F.F.F.F.F.F.F.F.  $ y Z E -.-.W 5.a.7.> > N P Q ;.! ! r.p.V +   F.F.F.F.F.F.F.F.F.F.F.F.",
"F.F.F.F.F.F.F.F.F.F.F.F.  # r U -.#.#.) q.A.d.; ; c 3.} &.o.o.c.B.] o   F.F.F.F.F.F.F.F.F.F.F.F.",
"F.F.F.F.F.F.F.F.F.F.F.F.  # r U -.#.#.) q.A.d.; ; c 3.} &.o.o.v.B.] o   F.F.F.F.F.F.F.F.F.F.F.F.",
"F.F.F.F.F.F.F.F.F.F.F.F.  # r I -.@.@._ q.C.s.; ; x 3.} $.o.O.z.N.' o   F.F.F.F.F.F.F.F.F.F.F.F.",
"F.F.F.F.F.F.F.F.F.F.F.F.  # r I -.@.@._ q.C.s.; ; x 3.} $.o.O.z.N.' o   F.F.F.F.F.F.F.F.F.F.F.F.",
"F.F.F.F.F.F.F.F.F.F.F.F.  # r I -.@.@._ q.C.s.; ; x 3.} $.o.O.z.N.' o   F.F.F.F.F.F.F.F.F.F.F.F.",
"F.F.F.F.F.F.F.F.F.F.F.F.  # r I -.@.@._ q.C.s.; ; x 3.} $.o.O.z.N.' o   F.F.F.F.F.F.F.F.F.F.F.F.",
"F.F.F.F.F.F.F.F.F.F.F.F.  # r I -.@.@._ q.C.s.; ; x 3.} $.o.O.z.N.' o   F.F.F.F.F.F.F.F.F.F.F.F.",
"F.F.F.F.F.F.F.F.F.F.F.F.  # r I -.@.@._ q.C.s.; ; x 3.} $.o.O.z.N.' o   F.F.F.F.F.F.F.F.F.F.F.F.",
"F.F.F.F.F.F.F.F.F.F.F.F.  # r I -.@.@._ q.C.s.; ; x 3.} $.o.O.z.N.' o   F.F.F.F.F.F.F.F.F.F.F.F.",
"F.F.F.F.F.F.F.F.F.F.F.F.  # r I -.@.@._ q.C.s.; ; x 3.} $.o.O.z.N.' o   F.F.F.F.F.F.F.F.F.F.F.F.",
"F.F.F.F.F.F.F.F.F.F.F.F.  # r I -.@.@._ q.C.s.; ; x 3.} $.o.O.z.N.' o   F.F.F.F.F.F.F.F.F.F.F.F.",
"F.F.F.F.F.F.F.F.F.F.F.F.  # t Y W ) ) J 9.S.h.; ; b 1.`  .( ( x.V.=.o   F.F.F.F.F.F.F.F.F.F.F.F.",
"F.F.F.F.F.F.F.F.F.F.F.F.  % e T 5.q.q.9.t.M.y.: : l ~ 8.w.0.0.l.n.^ O   F.F.F.F.F.F.F.F.F.F.F.F.",
"F.F.F.F.F.F.F.F.F.F.F.F.  & q F a.A.A.S.M.e.H , , f <.m.D.A.Z.j.:.h @   F.F.F.F.F.F.F.F.F.F.F.F.",
"F.F.F.F.F.F.F.F.F.F.F.F.  = 8 n 7.d.d.h.y.H 3 1 1 u L u.g.d.d.6.s 4 =   F.F.F.F.F.F.F.F.F.F.F.F.",
"F.F.F.F.F.F.F.F.F.F.F.F.  - 1 1 > ; ; ; : , 1 1 1 1 , : ; ; ; > 1 1 -   F.F.F.F.F.F.F.F.F.F.F.F.",
"F.F.F.F.F.F.F.F.F.F.F.F.  - 1 1 > ; ; ; : , 1 1 1 1 , : ; ; ; > 1 1 -   F.F.F.F.F.F.F.F.F.F.F.F.",
"F.F.F.F.F.F.F.F.F.F.F.F.  = 0 m N c c b l f u 1 1 a M z v c c k d 5 =   F.F.F.F.F.F.F.F.F.F.F.F.",
"F.F.F.F.F.F.F.F.F.F.F.F.  & g G P 3.3.1.~ <.L , , M K R 4.2.3.,.>.j @   F.F.F.F.F.F.F.F.F.F.F.F.",
"F.F.F.F.F.F.F.F.F.F.F.F.  % e T Q } } ` 8.m.u.: : z R *.| [ { f.n./ O   F.F.F.F.F.F.F.F.F.F.F.F.",
"F.F.F.F.F.F.F.F.F.F.F.F.  # r Y ;.&.&. .w.D.g.; ; v 4.| %.X.+.b.V.=.o   F.F.F.F.F.F.F.F.F.F.F.F.",
"F.F.F.F.F.F.F.F.F.F.F.F.  # r I -.@.@._ q.C.s.; ; x 3.} $.o.O.z.N.' o   F.F.F.F.F.F.F.F.F.F.F.F.",
"F.F.F.F.F.F.F.F.F.F.F.F.  # r I -.@.@._ q.C.s.; ; x 3.} $.o.O.z.N.' o   F.F.F.F.F.F.F.F.F.F.F.F.",
"F.F.F.F.F.F.F.F.F.F.F.F.  # r I -.@.@._ q.C.s.; ; x 3.} $.o.O.z.N.' o   F.F.F.F.F.F.F.F.F.F.F.F.",
"F.F.F.F.F.F.F.F.F.F.F.F.  # r I -.@.@._ q.C.s.; ; x 3.} $.o.O.z.N.' o   F.F.F.F.F.F.F.F.F.F.F.F.",
"F.F.F.F.F.F.F.F.F.F.F.F.  # r I -.@.@._ q.C.s.; ; x 3.} $.o.O.z.N.' o   F.F.F.F.F.F.F.F.F.F.F.F.",
"F.F.F.F.F.F.F.F.F.F.F.F.  # r I -.@.@._ q.C.s.; ; x 3.} $.o.O.z.N.' o   F.F.F.F.F.F.F.F.F.F.F.F.",
"F.F.F.F.F.F.F.F.F.F.F.F.  # r I -.@.@._ q.C.s.; ; x 3.} $.o.O.z.N.' o   F.F.F.F.F.F.F.F.F.F.F.F.",
"F.F.F.F.F.F.F.F.F.F.F.F.  # r I -.@.@._ q.C.s.; ; x 3.} $.o.O.z.N.' o   F.F.F.F.F.F.F.F.F.F.F.F.",
"F.F.F.F.F.F.F.F.F.F.F.F.  # r I -.@.@._ q.C.s.; ; x 3.} $.o.O.z.N.' o   F.F.F.F.F.F.F.F.F.F.F.F.",
"F.F.F.F.F.F.F.F.F.F.F.F.  # r U ! o.o.( 0.A.d.; ; c 2.[ X.....z.B.] o   F.F.F.F.F.F.F.F.F.F.F.F.",
"F.F.F.F.F.F.F.F.F.F.F.F.  # r U ! o.o.( 0.Z.d.; ; c 3.{ +.....z.B.] o   F.F.F.F.F.F.F.F.F.F.F.F.",
"F.F.F.F.F.F.F.F.F.F.F.F.  $ w C r.c.v.x.l.j.6.> > k ,.f.b.z.z.k.i.B +   F.F.F.F.F.F.F.F.F.F.F.F.",
"F.F.F.F.F.F.F.F.F.F.F.F.  * 7 S p.B.B.V.n.:.s 1 1 d >.n.V.B.B.i.A 6 *   F.F.F.F.F.F.F.F.F.F.F.F.",
"F.F.F.F.F.F.F.F.F.F.F.F.  - 2 i V ] ] =.^ h 4 1 1 5 j / =.] ] B 6 < -   F.F.F.F.F.F.F.F.F.F.F.F.",
"F.F.F.F.F.F.F.F.F.F.F.F.. X - * + o o o O @ = - - = @ O o o o + * - X . F.F.F.F.F.F.F.F.F.F.F.F.",
"F.F.F.F.F.F.F.F.F.F.F.F.. .                                         . . F.F.F.F.F.F.F.F.F.F.F.F.",
"F.F.F.F.F.F.F.F.F.F.F.F.F.F.F.F.F.F.F.F.F.F.F.F.F.F.F.F.F.F.F.F.F.F.F.F.F.F.F.F.F.F.F.F.F.F.F.F.",
"F.F.F.F.F.F.F.F.F.F.F.F.F.F.F.F.F.F.F.F.F.F.F.F.F.F.F.F.F.F.F.F.F.F.F.F.F.F.F.F.F.F.F.F.F.F.F.F.",
"F.F.F.F.F.F.F.F.F.F.F.F.F.F.F.F.F.F.F.F.F.F.F.F.F.F.F.F.F.F.F.F.F.F.F.F.F.F.F.F.F.F.F.F.F.F.F.F."
};
