/* XPM */
static char *result[] = {
/* columns rows colors chars-per-pixel */
"80 80 4 1 ",
"  c #413531",
". c #423532",
"X c #423632",
"o c None",
/* pixels */
"XXXXXXXXXXXXXXXXXXXXXXXXXXXXXXXXXXXXXXXXXXXXXXXXXXXXXXXXXXXXXXXXXXXXXXXXXXXXXXXX",
"XXXXXXXXXXXXXXXXXXXXXXXXXXXXXXXXXXXXXXXXXXXXXXXXXXXXXXXXXXXXXXXXXXXXXXXXXXXXXXXX",
"XXXXXXXXXXXXXXXXXXXXXXXXXXXXXXXXXXXXXXXXXXXXXXXXXXXXXXXXXXXXXXXXXXXXXXXXXXXXXXXX",
"XXXXXXXXXXXXXXXXXXXXXXXXXXXXXXXXXXXXXXXXXXXXXXXXXXXXXXXXXXXXXXXXXXXXXXXXXXXXXXXX",
"oooooXXXXXooooooXXXXXooooooXXXXXooooooXXXXXooooooXXXXXooooooXXXXXooooooXXXXXoooo",
"oooooXXXXXooooooXXXXXooooooXXXXXooooooXXXXXooooooXXXXXooooooXXXXXooooooXXXXXoooo",
"oooooXXXXXooooooXXXXXooooooXXXXXooooooXXXXXooooooXXXXXooooooXXXXXooooooXXXXXoooo",
"oooooXXXXXooooooXXXXXooooooXXXXXooooooXXXXXooooooXXXXXooooooXXXXXooooooXXXXXoooo",
"oooooXXXXXooooooXXXXXooooooXXXXXooooooXXXXXooooooXXXXXooooooXXXXXooooooXXXXXoooo",
"oooooXXXXXooooooXXXXXooooooXXXXXooooooXXXXXooooooXXXXXooooooXXXXXooooooXXXXXoooo",
"oooooXXXXXooooooXXXXXooooooXXXXXooooooXXXXXooooooXXXXXooooooXXXXXooooooXXXXXoooo",
"oooooXXXXXooooooXXXXXooooooXXXXXooooooXXXXXooooooXXXXXooooooXXXXXooooooXXXXXoooo",
"XXXXXXXXXXXXXXXXXXXXXXXXXXXXXXXXXXXXXXXXXXXXXXXXXXXXXXXXXXXXXXXXXXXXXXXXXXXXXXXX",
"XXXXXXXXXXXXXXXXXXXXXXXXXXXXXXXXXXXXXXXXXXXXXXXXXXXXXXXXXXXXXXXXXXXXXXXXXXXXXXXX",
"XXXXXXXXXXXXXXXXXXXXXXXXXXXXXXXXXXXXXXXXXXXXXXXXXXXXXXXXXXXXXXXXXXXXXXXXXXXXXXXX",
"XXXXXXXXXXXXXXXXXXXXXXXXXXXXXXXXXXXXXXXXXXXXXXXXXXXXXXXXXXXXXXXXXXXXXXXXXXXXXXXX",
"XXXXXXXXXXXXXXXXXXXXXXXXXXXXXXXXXXXXXXXXXXXXXXXXXXXXXXXXXXXXXXXXXXXXXXXXXXXXXXXX",
"oooooXXXXXooooooXXXXXooooooXXXXXooooooXXXXXooooooXXXXXooooooXXXXXooooooXXXXXoooo",
"oooooXXXXXooooooXXXXXooooooXXXXXooooooXXXXXooooooXXXXXooooooXXXXXooooooXXXXXoooo",
"oooooXXXXXooooooXXXXXooooooXXXXXooooooXXXXXooooooXXXXXooooooXXXXXooooooXXXXXoooo",
"oooooXXXXXooooooXXXXXooooooXXXXXooooooXXXXXooooooXXXXXooooooXXXXXooooooXXXXXoooo",
"oooooXXXXXooooooXXXXXooooooXXXXXooooooXXXXXooooooXXXXXooooooXXXXXooooooXXXXXoooo",
"oooooXXXXXooooooXXXXXooooooXXXXXooooooXXXXXooooooXXXXXooooooXXXXXooooooXXXXXoooo",
"oooooXXXXXooooooXXXXXooooooXXXXXooooooXXXXXooooooXXXXXooooooXXXXXooooooXXXXXoooo",
"XXXXXXXXXXXXXXXXXXXXXXXXXXXXXXXXXXXXXXXXXXXXXXXXXXXXXXXXXXXXXXXXXXXXXXXXXXXXXXXX",
"XXXXXXXXXXXXXXXXXXXXXXXXXXXXXXXXXXXXXXXXXXXXXXXXXXXXXXXXXXXXXXXXXXXXXXXXXXXXXXXX",
"XXXXXXXXXXXXXXXXXXXXXXXXXXXXXXXXXXXXXXXXXXXXXXXXXXXXXXXXXXXXXXXXXXXXXXXXXXXXXXXX",
"XXXXXXXXXXXXXXXXXXXXXXXXXXXXXXXXXXXXXXXXXXXXXXXXXXXXXXXXXXXXXXXXXXXXXXXXXXXXXXXX",
"XXXXXXXXXXXXXXXXXXXXXXXXXXXXXXXXXXXXXXXXXXXXXXXXXXXXXXXXXXXXXXXXXXXXXXXXXXXXXXXX",
"oooooXXXXXooooooXXXXXooooooXXXXXooooooXXXXXooooooXXXXXooooooXXXXXooooooXXXXXoooo",
"oooooXXXXXooooooXXXXXooooooXXXXXooooooXXXXXooooooXXXXXooooooXXXXXooooooXXXXXoooo",
"oooooXXXXXooooooXXXXXooooooXXXXXooooooXXXXXooooooXXXXXooooooXXXXXooooooXXXXXoooo",
"oooooXXXXXooooooXXXXXooooooXXXXXooooooXXXXXooooooXXXXXooooooXXXXXooooooXXXXXoooo",
"oooooXXXXXooooooXXXXXooooooXXXXXooooooXXXXXooooooXXXXXooooooXXXXXooooooXXXXXoooo",
"XXXXXXXXXXXXXXXXXXXXXXXXXXXXXXXXXXXXXXXXXXXXXXXXXXXXXXXXXXXXXXXXXXXXXXXXXXXXXXXX",
"XXXXXXXXXXXXXXXXXXXXXXXXXXXXXXXXXXXXXXXXXXXXXXXXXXXXXXXXXXXXXXXXXXXXXXXXXXXXXXXX",
"XXXXXXXXXXXXXXXXXXXXXXXXXXXXXXXXXXXXXXXXXXXXXXXXXXXXXXXXXXXXXXXXXXXXXXXXXXXXXXXX",
"XXXXXXXXXXXXXXXXXXXXXXXXXXXXXXXXXXXXXXXXXXXXXXXXXXXXXXXXXXXXXXXXXXXXXXXXXXXXXXXX",
"XXXXXXXXXXXXXXXXXXXXXXXXXXXXXXXXXXXXXXXXXXXXXXXXXXXXXXXXXXXXXXXXXXXXXXXXXXXXXXXX",
"oooooXXXXXooooooXXXXXooooooXXXXXooooooXXXXXooooooXXXXXooooooXXXXXooooooXXXXXoooo",
"oooooXXXXXooooooXXXXXooooooXXXXXooooooXXXXXooooooXXXXXooooooXXXXXooooooXXXXXoooo",
"oooooXXXXXooooooXXXXXooooooXXXXXooooooXXXXXooooooXXXXXooooooXXXXXooooooXXXXXoooo",
"oooooXXXXXooooooXXXXXooooooXXXXXooooooXXXXXooooooXXXXXooooooXXXXXooooooXXXXXoooo",
"oooooXXXXXooooooXXXXXooooooXXXXXooooooXXXXXooooooXXXXXooooooXXXXXooooooXXXXXoooo",
"oooooXXXXXooooooXXXXXooooooXXXXXooooooXXXXXoooooXXXXXXooooooXXXXXooooooXXXXXXXXo",
"XXXXXXXXXXXXXXXXXXXXXXXXXXXXXXXXXXXXXXXXXXXXXXXXXXXXXXXXXXXXXXXXXXXXXXXXXXXXXXXX",
"XXXXXXXXXXXXXXXXXXXXXXXXXXXXXXXXXXXXXXXXXXXXXXXXXXXXXXXXXXXXXXXXXXXXXXXXXXXXXXXX",
"XXXXXXXXXXXXXXXXXXXXXXXXXXXXXXXXXXXXXXXXXXXXXXXXXXXXXXXXXXXXXXXXXXXXXXXXXXXXXXXX",
"XXXXXXXXXXXXXXXXXXXXXXXXXXXXXXXXXXXXXXXXXXXXXXXXXXXXXXXXXXXXXXXXXXXXXXXXXXXXXXXX",
"XXXXXXXXXXXXXXXXXXXXXXXXXXXXXXXXXXXXXXXXXXXXXXXXXXXXXXXXXXXXXXXXXXXXXXXXXXXXXXXX",
"XXXXXXXXXXXXXXXXXXXXXXXXXXXXXXXXXXXXXXXXXXXXXXXXXXXXXXXXXXXXXXXXXXXXXXXXXXXXXXXX",
"oooooXXXXXooooooXXXXXooooooXXXXXooooooXXXXXooooooXXXXXooooooXXXXXooooooXXXXXoooo",
"oooooXXXXXooooooXXXXXooooooXXXXXooooooXXXXXooooooXXXXXooooooXXXXXooooooXXXXXoooo",
"oooooXXXXXooooooXXXXXooooooXXXXXooooooXXXXXooooooXXXXXooooooXXXXXooooooXXXXXoooo",
"oooooXXXXXooooooXXXXXooooooXXXXXooooooXXXXXooooooXXXXXooooooXXXXXooooooXXXXXoooo",
"oooooXXXXXXXXXXXXXXXXXXXXXXXXXXXXXXXXXXXXXXXXXXXXXXXXXXXXXXXXXXXXXXXXXXXXXXXXXXX",
"XXXXXXXXXXXXXXXXXXXXXXXXXXXXXXXXXXXXXXXXXXXXXXXXXXXXXXXXXXXXXXXXXXXXXXXXXXXXXXXX",
"XXXXXXXXXXXXXXXXXXXXXXXXXXXXXXXXXXXXXXXXXXXXXXXXXXXXXXXXXXXXXXXXXXXXXXXXXXXXXXXX",
"XXXXXXXXXXXXXXXXXXXXXXXXXXXXXXXXXXXXXXXXXXXXXXXXXXXXXXXXXXXXXXXXXXXXXXXXXXXXXXXX",
"XXXXXXXXXXXXXXXXXXXXXXXXXXXXXXXXXXXXXXXXXXXXXXXXXXXXXXXXXXXXXXXXXXXXXXXXXXXXXXXX",
"XXXXXXXXXXXXXXXXXXXXXXXXXXXXXXXXXXXXXXXXXXXXXXXXXXXXXXXXXXXXXXXXXXXXXXXXXXXXXXXX",
"oooooXXXX ooooooXXXXXooooooXXXXXooooooXXXXXooooooXXXXXooooooXXXXXooooooXXXXXoooo",
"oooooXXXX ooooooXXXXXooooooXXXXXooooooXXXXXooooooXXXXXooooooXXXXXooooooXXXXXoooo",
"oooooXXXX.ooooooXXXXXooooooXXXXXooooooXXXXXooooooXXXXXooooooXXXXXooooooXXXXXoooo",
"oooooXXXXXooooooXXXXXooooooXXXXXooooooXXXXXooooooXXXXXooooooXXXXXooooooXXXXXoooo",
"XXXXXXXXXXXXXXXXXXXXXXXXXXXXXXXXXXXXXXXXXXXXXXXXXXXXXXXXXXXXXXXXXXXXXXXXXXXXXXXX",
"XXXXXXXXXXXXXXXXXXXXXXXXXXXXXXXXXXXXXXXXXXXXXXXXXXXXXXXXXXXXXXXXXXXXXXXXXXXXXXXX",
"XXXXXXXXXXXXXXXXXXXXXXXXXXXXXXXXXXXXXXXXXXXXXXXXXXXXXXXXXXXXXXXXXXXXXXXXXXXXXXXX",
"XXXXXXXXXXXXXXXXXXXXXXXXXXXXXXXXXXXXXXXXXXXXXXXXXXXXXXXXXXXXXXXXXXXXXXXXXXXXXXXX",
"oooooXXXXXXXXXXXXXXXXXXXXXXXXXXXXXXXXXXXXXXXXXXXXXXXXXXXXXXXXXXXXXXXXXXXXXXXXXXX",
"oooooXXXXXooooooXXXXXooooooXXXXXooooooXXXXXooooooXXXXXooooooXXXXXooooooXXXXXoooo",
"oooooXXXXXooooooXXXXXooooooXXXXXooooooXXXXXooooooXXXXXooooooXXXXXoooooooXXXXoooo",
"oooXXXXXXXXXooXXXXXXXXXooXXXXXXXXXooXXXXXXXXXooXXXXXXXXXooXXXXXXXXXooXXXXXXXXXoo",
"ooooXXXXXXXooooXXXXXXXooooXXXXXXXooooXXXXXXXooooXXXXXXXooooXXXXXXXooooXXXXXXXooo",
"oooooXXXXXooooooXXXXXooooooXXXXXooooooXXXXXooooooXXXXXooooooXXXXXooooooXXXXXoooo",
"oooooXXXXXooooooXXXXXooooooXXXXXooooooXXXXXooooooXXXXXooooooXXXXXooooooXXXXXoooo",
"ooooooXXXoooooooXXXXooooooooXXXooooooooXXXooooooooXXXooooooooXXXooooooooXXXooooo",
"ooooooXXXooooooooXXXooooooooXXXooooooooXXXooooooooXXXooooooooXXXooooooooXXXooooo",
"oooooooXooooooooooXooooooooooXooooooooooXooooooooooXooooooooooXooooooooooXoooooo",
"oooooooXooooooooooXooooooooooXooooooooooXooooooooooXooooooooooXooooooooooXoooooo"
};
