/* XPM */
static char *result[] = {
/* columns rows colors chars-per-pixel */
"80 80 54 1 ",
"  c #696731",
". c #656232",
"X c #636032",
"o c #686631",
"O c #625F32",
"+ c #656230",
"@ c #656330",
"# c #5D5B2D",
"$ c #666330",
"% c #5F5E2E",
"& c #57562B",
"* c #605F2F",
"= c #5A592C",
"- c #55542A",
"; c #5B5A2D",
": c #58562B",
"> c #58572B",
", c #676531",
"< c #666232",
"1 c #696631",
"2 c #62602F",
"3 c #56552A",
"4 c #56552B",
"5 c #63612F",
"6 c #61602F",
"7 c #5E5D2D",
"8 c #5B5A2C",
"9 c #5C5A2D",
"0 c #656131",
"q c #5B592C",
"w c #57552B",
"e c #59582B",
"r c #636131",
"t c #62612F",
"y c #5E5C2D",
"u c #5F5D2E",
"i c #656231",
"p c #59572B",
"a c #5D5C2D",
"s c #54532A",
"d c #63622F",
"f c #615F2F",
"g c #5C5B2D",
"h c #686531",
"j c #605E2E",
"k c #54542A",
"l c #605F2E",
"z c #676631",
"x c #65622F",
"c c #5A582C",
"v c #59582C",
"b c #666530",
"n c #686731",
"m c #666531",
/* pixels */
"      .Xo     .Xo     .Xo     .Xo     .Xo     .Xo  o  .Xo     .Xo  o  .Xo     .O",
"  o+  .Xo     .Xo o+  .Xo     .Xo o+  .Xo     .Xo @#$ .Xo     .Xo @#$ .Xo     .O",
"  %&* .Xo     .Xo %&* .Xo     .Xo %&* .Xo     .Xoo=-;o.Xo     .Xoo=-;o.Xo     .O",
" $:->,<Xo     .Xo$:->,<Xo     .Xo$:->,<Xo     .X123-45<Xo     .X123-45<Xo     .O",
" *---6<Xo     .X1*---6<Xo     .X1*---6<Xo     .Xo7---%.Xo     .Xo7---%.Xo     .O",
"o8-&-90Xo     .X,q-&-90Xo     .X,q-&-90Xo     .X,>w#4erXo     .X,>w#4erXo     .O",
",=;5q8rXo     .X,=;5q8rXo     .X,=;5q8rXo     .Xo65 t20Xo     .Xo65 t20Xo     .O",
" o,,,o.Xo     .Xoo,,,o.Xo     .Xoo,,,o.Xo     .Xo +7+ .Xo     .Xo +7+ .Xo     .O",
" oy&u .Xo     .Xooy&u .Xo     .Xooy&u .Xo     .Xo5>->+.Xo     .Xo5>->+.Xo     .O",
"oy4e37iXo     .Xoy4e37iXo     .Xoy4e37iXo     .X,=p*>80Xo     .X,=p*>80Xo     .O",
"oau,770Xo     .X,au,770Xo     .X,au,770Xo     .Xo$, $$iXo     .Xo$, $$iXo     .O",
"      .Xo     .Xo     .Xo     .Xo     .Xo     .Xo     .Xo     .Xo     .Xo     .O",
"      .Xo     .Xo     .Xo     .Xo     .Xo     .Xo     .Xo     .Xo     .Xo     .O",
"      .Xo  ,  .Xo     .Xo  ,  .Xo     .Xo  ,  .Xo     .Xo ,*o .Xo     .Xo ,*o .O",
"      .Xo t=5 .Xo     .Xo t=5 .Xo     .Xo t=5 .Xo     .Xo #-y .Xo     .Xo #-y .O",
"      .Xo,es=o.Xo     .Xo,es=o.Xo     .Xo,es=o.Xo     .Xodw-&+<Xo     .Xodw-&+<O",
"      .X16--32<Xo     .X16--32<Xo     .X16--32<Xo     .Xo%---*<Xo     .Xo%---*<O",
"      .Xo#---yiXo     .Xo#---yiXo     .Xo#---yiXo     .X,e-e-=0Xo     .X,e-e-=0O",
"      .X,>>%:erXo     .X,>>%:erXo     .X,>>%:erXo     .X,au,770Xo     .X,au,770O",
"      .Xo+$ $+iXo     .Xo+$ $+iXo     .Xo+$ $+iXo     .Xo ,5, .Xo     .Xo ,5, .O",
"      .Xo 6q2 .Xo     .Xo 6q2 .Xo     .Xo 6q2 .Xo     .Xo,=-;,<Xo     .Xo,=-;,<O",
"      .Xofw4&2.Xo     .Xofw4&2.Xo     .Xofw4&2.Xo     .X,8wg4g0Xo     .X,8wg4g0O",
"      .X,885=90Xo     .X,885=90Xo     .X,885=90Xo     .Xh65o220Xo     .Xh65o220O",
"      .Xooo oo.Xo     .Xooo oo.Xo     .Xooo oo.Xo  o  .Xo     .Xo  o  .Xo     .O",
"  o5o .Xo     .Xo o5o .Xo     .Xo o5o .Xo     .Xo +9@ .Xo     .Xo +9@ .Xo     .O",
"  uwj .Xo     .Xo uwj .Xo     .Xo uwj .Xo     .Xoo=kqo.Xo     .Xoo=kqo.Xo     .O",
" $&->$<Xo     .Xo$&->$<Xo     .Xo$&->$<Xo     .X123-45<Xo     .X123-45<Xo     .O",
" l---6<Xo     .X1l---6<Xo     .X1l---6<Xo     .Xoy---u.Xo     .Xoy---u.Xo     .O",
"o=-&-;0Xo     .X,=-&-;0Xo     .X,=-&-;0Xo     .X,>&awerXo     .X,>&awerXo     .O",
"z8g+;90Xo     .X,8g+;90Xo     .X,8g+;90Xo     .Xotx 550Xo     .Xotx 550Xo     .O",
" oz$oo.Xo     .Xooz$oo.Xo     .Xooz$oo.Xo     .Xo 5#x .Xo     .Xo 5#x .Xo     .O",
" o#4yo<Xo     .Xoo#4yo<Xo     .Xoo#4yo<Xo     .Xot&->5.Xo     .Xot&->5.Xo     .O",
"o#4c3y0Xo     .Xo#4c3y0Xo     .Xo#4c3y0Xo     .X,=v6e80Xo     .X,=v6e80Xo     .O",
"o7j,%u0Xo     .X,7j,%u0Xo     .X,7j,%u0Xo     .Xob, ,,iXo     .Xob, ,,iXo     .O",
"      .Xo     .Xo     .Xo     .Xo     .Xo     .Xo     .Xo     .Xo     .Xo     .O",
"      .Xo     .Xo     .Xo     .Xo     .Xo     .Xo     .Xo     .Xo     .Xo     .O",
"      .Xo  ,  .Xo     .Xo  ,  .Xo     .Xo  ,  .Xo     .Xo ,j, .Xo     .Xo ,j, .O",
"      .Xo 2et .Xo     .Xo 2et .Xo     .Xo 2et .Xo     .Xong-a .Xo     .Xong-a .O",
"      .Xo,psvz<Xo     .Xo,psvz<Xo     .Xo,psvz<Xo     .X154-&+<Xo     .X154-&+<O",
"      .X1f---2<Xo     .X1f---2<Xo     .X1f---2<Xo     .Xo%---l<Xo     .Xo%---l<O",
"      .Xog-3-a0Xo     .Xog-3-a0Xo     .Xog-3-a0Xo     .X,e3=-crXo     .X,e3=-crO",
"      .X,ee*>crXo     .X,ee*>crXo     .X,ee*>crXo     .X,7jo%u0Xo     .X,7jo%u0O",
"      .Xo$mo$$iXo     .Xo$mo$$iXo     .Xo$mo$$iXo     .Xo m6, .Xo     .Xo m6, .O",
"      .Xo *c6 .Xo     .Xo *c6 .Xo     .Xo *c6 .Xo     .Xo$c-=,<Xo     .Xo$c-=,<O",
"      .Xoj4&4f.Xo     .Xoj4&4f.Xo     .Xoj4&4f.Xo     .X,q&aw;0Xo     .X,q&aw;0O",
"   ,  .X,;g+;g0Xo  ,  .X,;g+;g0Xo  ,  .X,;g+;g0Xo ,*o .Xo2d 5t0Xo ,*o .Xo2d 5t0O",
"  t=5 .Xooo oo.Xo t=5 .Xooo oo.Xo t=5 .Xooo oo.Xo #-y .Xo     .Xo #-y .Xo     .O",
" ,es=o.Xo     .Xo,es=o.Xo     .Xo,es=o.Xo     .Xodw-&+<Xo     .Xodw-&+<Xo     .O",
" 6--32<Xo     .X16--32<Xo     .X16--32<Xo     .Xo%---*<Xo     .Xo%---*<Xo     .O",
"o#---yiXo     .Xo#---yiXo     .Xo#---yiXo     .X,e-e-=0Xo     .X,e-e-=0Xo     .O",
",p>%:erXo     .X,>>%:erXo     .X,>>%:erXo     .X,au,770Xo     .X,au,770Xo     .O",
" +$ $+iXo     .Xo+$ $+iXo     .Xo+$ $+iXo     .Xo ,5, .Xo     .Xo ,5, .Xo     .O",
"  6q2 .Xo     .Xo 6q2 .Xo     .Xo 6q2 .Xo     .Xo,=-;,<Xo     .Xo,=-;,<Xo     .O",
" fw4&2.Xo     .Xofw4&2.Xo     .Xofw4&2.Xo     .X,8wg4g0Xo     .X,8wg4g0Xo     .O",
"o885=90Xo     .X,885=90Xo     .X,885=90Xo     .Xh65o220Xo     .Xh65o220Xo     .O",
" oo oo.Xo     .Xooo oo.Xo     .Xooo oo.Xo     .Xo     .Xo     .Xo     .Xo     .O",
"      .Xo     .Xo     .Xo     .Xo     .Xo     .Xo     .Xo     .Xo     .Xo     .O",
"      .Xo     .Xo     .Xo     .Xo     .Xo     .Xo     .Xo o+  .Xo     .Xo o+  .O",
"      .Xo $yb .Xo     .Xo $yb .Xo     .Xo $yb .Xo     .Xo %&* .Xo     .Xo %&* .O",
"      .Xoo8-9n.Xo     .Xoo8-9n.Xo     .Xoo8-9n.Xo     .Xo$:->,<Xo     .Xo$:->,<O",
"      .X1t4-45<Xo     .X1t4-45<Xo     .X1t4-45<Xo     .X1*---6<Xo     .X1*---6<O",
"      .Xo7---%.Xo     .Xo7---%.Xo     .Xo7---%.Xo     .X,q-&-90Xo     .X,q-&-90O",
"      .X,>493erXo     .X,>493erXo     .X,>493erXo     .X,=;5q8rXo     .X,=;5q8rO",
"      .X,*2o6f0Xo     .X,*2o6f0Xo     .X,*2o6f0Xo     .Xoo,,,o.Xo     .Xoo,,,o.O",
"      .Xo @%$ .Xo     .Xo @%$ .Xo     .Xo @%$ .Xo     .Xooy&u .Xo     .Xooy&u <O",
"      .Xo+>-e@.Xo     .Xo+>-e@.Xo     .Xo+>-e@.Xo     .Xoy4e37iXo     .Xoy4e37iO",
"      .X,=>%:80Xo     .X,=>%:80Xo     .X,=>%:80Xo     .X,au,770Xo     .X,au,770O",
"      .Xo+$ $+iXo     .Xo+$ $+iXo     .Xo+$ $+iXo     .Xo     .Xo     .Xo     .O",
"      .Xo     .Xo     .Xo     .Xo     .Xo     .Xo  ,  .Xo     .Xo  ,  .Xo     .O",
"  ,*o .Xo     .Xo ,*o .Xo     .Xo ,*o .Xo     .Xo 2et .Xo     .Xo 2et .Xo     .O",
"  #-y .Xo     .Xo #-y .Xo     .Xo #-y .Xo     .Xo,psvz<Xo     .Xo,psvz<Xo     .O",
" dw-&+<Xo     .Xodw-&+<Xo     .Xodw-&+<Xo     .X1f---2<Xo     .X1f---2<Xo     .O",
" %---*<Xo     .Xo%---*<Xo     .Xo%---*<Xo     .Xog-3-a0Xo     .Xog-3-a0Xo     .O",
"ze-e-=0Xo     .X,e-e-=0Xo     .X,e-e-=0Xo     .X,ee*>crXo     .X,ee*>crXo     .O",
"oyu,770Xo     .X,au,770Xo     .X,au,770Xo     .Xo$mo$$iXo     .Xo$mo$$iXo     .O",
"  ,5, .Xo     .Xo ,5, .Xo     .Xo ,5, .Xo     .Xo *c6 .Xo     .Xo *c6 .Xo     .O",
" ,=-;,<Xo     .Xo,=-;,<Xo     .Xo,=-;,<Xo     .Xoj4&4f.Xo     .Xoj4&4f.Xo     .O",
"o;wg4g0Xo     .X,8wg4g0Xo     .X,8wg4g0Xo     .X,;g+;g0Xo     .X,;g+;g0Xo     .O",
"o65o220Xo     .Xh65o220Xo     .Xh65o220Xo     .Xooo oo.Xo     .Xooo oo.Xo     .O",
"      .Xo     .Xo     .Xo     .Xo     .Xo     .Xo     .Xo     .Xo     .Xo     .O"
};
