/* XPM */
static char *result[] = {
/* columns rows colors chars-per-pixel */
"80 80 60 1 ",
"  c #8D8B53",
". c #898750",
"X c #98955F",
"o c #8C8A52",
"O c #97945F",
"+ c #99975C",
"@ c #99985C",
"# c #929057",
"$ c #9A985C",
"% c #949359",
"& c #8C8B54",
"* c #95945A",
"= c #9C9A5D",
"- c #8F8E56",
"; c #8A8953",
": c #908F57",
"> c #8D8B55",
", c #8D8C55",
"< c #9B995D",
"1 c #9A975F",
"2 c #9D9A5E",
"3 c #97955A",
"4 c #8B8A53",
"5 c #8B8A54",
"6 c #98965B",
"7 c #96955A",
"8 c #939258",
"9 c #908F56",
"0 c #918F57",
"q c #99965E",
"w c #9B995E",
"e c #908E56",
"r c #8C8A54",
"t c #8E8D55",
"y c #98965E",
"u c #97965B",
"i c #939158",
"p c #949259",
"a c #99975E",
"s c #8E8C55",
"d c #929158",
"f c #898853",
"g c #98975B",
"h c #97955B",
"j c #8D8B54",
"k c #96945A",
"l c #919057",
"z c #9C995E",
"x c #959359",
"c c #898953",
"v c #959459",
"b c #9B9A5D",
"n c #99975B",
"m c #929058",
"M c #8F8D56",
"N c #8E8D56",
"B c #9A995C",
"V c #9C9B5E",
"C c #9A995D",
"Z c white",
/* pixels */
"      .Xo     .Xo     .Xo     .Xo     .Xo     .Xo  o  .Xo     .Xo  o  .Xo     .O",
"  o+  .Xo     .Xo o+  .Xo     .Xo o+  .Xo     .Xo @#$ .Xo     .Xo @#$ .Xo     .O",
"  %&* .Xo     .Xo %&* .Xo     .Xo %&* .Xo     .Xo=-;:o.Xo     .Xo=-;:o.Xo     .O",
" $>;,<1Xo     .Xo$>;,<1Xo     .Xo$>;,<1Xo     .X234;561Xo     .X234;561Xo     .O",
" *;;;71Xo     .X2*;;;71Xo     .X2*;;;71Xo     .Xo8;;;%.Xo     .Xo8;;;%.Xo     .O",
"=9;&;0qXo     .Xwe;&;0qXo     .Xwe;&;0qXo     .X<,r#5tyXo     .X<,r#5tyXo     .O",
"<-:6e9yXo     .X<-:6e9yXo     .X<-:6e9yXo     .Xo76 u3qXo     .Xo76 u3qXo     .O",
" =<<<=.Xo     .Xo=<<<=.Xo     .Xo=<<<=.Xo     .Xo +8+ .Xo     .Xo +8+ .Xo     .O",
" oi&p .Xo     .Xooi&p .Xo     .Xooi&p .Xo     .Xo6,;,+.Xo     .Xo6,;,+.Xo     .O",
"oi5t48aXo     .Xoi5t48aXo     .Xoi5t48aXo     .X<-s*,9qXo     .X<-s*,9qXo     .O",
"=dp<88qXo     .X<dp<88qXo     .X<dp<88qXo     .Xo$< $$aXo     .Xo$< $$aXo     .O",
"      .Xo     .Xo     .Xo     .Xo     .Xo     .Xo     .Xo     .Xo     .Xo     .O",
"      .Xo     .Xo     .Xo     .Xo     .Xo     .Xo     .Xo     .Xo     .Xo     .O",
"      .Xo  <  .Xo     .Xo  <  .Xo     .Xo  <  .Xo     .Xo <*= .Xo     .Xo <*= .O",
"      .Xo u-6 .Xo     .Xo u-6 .Xo     .Xo u-6 .Xo     .Xo #;i .Xo     .Xo #;i .O",
"      .Xo<tf-=.Xo     .Xo<tf-=.Xo     .Xo<tf-=.Xo     .Xogr;&+1Xo     .Xogr;&+1O",
"      .X27;;4h1Xo     .X27;;4h1Xo     .X27;;4h1Xo     .Xo%;;;*1Xo     .Xo%;;;*1O",
"      .Xo#;;;iaXo     .Xo#;;;iaXo     .Xo#;;;iaXo     .X<t;t;-qXo     .X<t;t;-qO",
"      .X<,,%jtyXo     .X<,,%jtyXo     .X<,,%jtyXo     .X<dp<88qXo     .X<dp<88qO",
"      .Xo+$ $+aXo     .Xo+$ $+aXo     .Xo+$ $+aXo     .Xo <6< .Xo     .Xo <6< .O",
"      .Xo 7eh .Xo     .Xo 7eh .Xo     .Xo 7eh .Xo     .Xo<-;:<1Xo     .Xo<-;:<1O",
"      .Xokr5&3.Xo     .Xokr5&3.Xo     .Xokr5&3.Xo     .Xw9rl5lqXo     .Xw9rl5lqO",
"      .X<996-0qXo     .X<996-0qXo     .X<996-0qXo     .Xz76oh3qXo     .Xz76oh3qO",
"      .Xo== ==.Xo     .Xo== ==.Xo     .Xo== ==.Xo  =  .Xo     .Xo  =  .Xo     .O",
"  o6o .Xo     .Xo o6o .Xo     .Xo o6o .Xo     .Xo +0@ .Xo     .Xo +0@ .Xo     .O",
"  prx .Xo     .Xo prx .Xo     .Xo prx .Xo     .Xo=-ce=.Xo     .Xo=-ce=.Xo     .O",
" $&;,$1Xo     .Xo$&;,$1Xo     .Xo$&;,$1Xo     .X234;561Xo     .X234;561Xo     .O",
" v;;;71Xo     .X2v;;;71Xo     .X2v;;;71Xo     .Xoi;;;p.Xo     .Xoi;;;p.Xo     .O",
"=-;&;:qXo     .X<-;&;:qXo     .X<-;&;:qXo     .X<,&drtyXo     .X<,&drtyXo     .O",
"b9l+:0qXo     .X<9l+:0qXo     .X<9l+:0qXo     .Xoun 66qXo     .Xoun 66qXo     .O",
" ob$=o.Xo     .Xoob$=o.Xo     .Xoob$=o.Xo     .Xo 6mn .Xo     .Xo 6mn .Xo     .O",
" =m5io1Xo     .Xo=m5io1Xo     .Xo=m5io1Xo     .Xou&;,6.Xo     .Xou&;,6.Xo     .O",
"om5M4iqXo     .Xom5M4iqXo     .Xom5M4iqXo     .X<-N7t9qXo     .X<-N7t9qXo     .O",
"=8x<%pqXo     .Xw8x<%pqXo     .Xw8x<%pqXo     .XoB< <<aXo     .XoB< <<aXo     .O",
"      .Xo     .Xo     .Xo     .Xo     .Xo     .Xo     .Xo     .Xo     .Xo     .O",
"      .Xo     .Xo     .Xo     .Xo     .Xo     .Xo     .Xo     .Xo     .Xo     .O",
"      .Xo  <  .Xo     .Xo  <  .Xo     .Xo  <  .Xo     .Xo <x< .Xo     .Xo <x< .O",
"      .Xo 3tu .Xo     .Xo 3tu .Xo     .Xo 3tu .Xo     .XoVl;d .Xo     .XoVl;d .O",
"      .Xo<sfNb1Xo     .Xo<sfNb1Xo     .Xo<sfNb1Xo     .X265;&+1Xo     .X265;&+1O",
"      .X2k;;;31Xo     .X2k;;;31Xo     .X2k;;;31Xo     .Xo%;;;v1Xo     .Xo%;;;v1O",
"      .Xol;4;dqXo     .Xol;4;dqXo     .Xol;4;dqXo     .X<t4-;MyXo     .X<t4-;MyO",
"      .X<tt*,MyXo     .X<tt*,MyXo     .X<tt*,MyXo     .Xw8x=%pqXo     .Xw8x=%pqO",
"      .Xo$Co$$aXo     .Xo$Co$$aXo     .Xo$Co$$aXo     .Xo C7< .Xo     .Xo C7< .O",
"      .Xo *M7 .Xo     .Xo *M7 .Xo     .Xo *M7 .Xo     .Xo$M;-<1Xo     .Xo$M;-<1O",
"      .Xox5&5k.Xo     .Xox5&5k.Xo     .Xox5&5k.Xo     .Xwe&dr:qXo     .Xwe&dr:qO",
"   <  .X<:l+:lqXo  <  .X<:l+:lqXo  <  .X<:l+:lqXo <*= .Xohg 6uqXo <*= .Xohg 6uqO",
"  u-6 .Xo=o o=.Xo u-6 .Xo=o o=.Xo u-6 .Xo=o o=.Xo #;i .Xo     .Xo #;i .Xo     .O",
" <tf-=.Xo     .Xo<tf-=.Xo     .Xo<tf-=.Xo     .Xogr;&+1Xo     .Xogr;&+1Xo     .O",
" 7;;4h1Xo     .X27;;4h1Xo     .X27;;4h1Xo     .Xo%;;;*1Xo     .Xo%;;;*1Xo     .O",
"om;;;iaXo     .Xo#;;;iaXo     .Xo#;;;iaXo     .X<t;t;-qXo     .X<t;t;-qXo     .O",
"<s,%jtyXo     .X<,,%jtyXo     .X<,,%jtyXo     .X<dp<88qXo     .X<dp<88qXo     .O",
" +$ $+aXo     .Xo+$ $+aXo     .Xo+$ $+aXo     .Xo <6< .Xo     .Xo <6< .Xo     .O",
"  7eh .Xo     .Xo 7eh .Xo     .Xo 7eh .Xo     .Xo<-;:<1Xo     .Xo<-;:<1Xo     .O",
" kr5&3.Xo     .Xokr5&3.Xo     .Xokr5&3.Xo     .Xw9rl5lqXo     .Xw9rl5lqXo     .O",
"=996-0qXo     .X<996-0qXo     .X<996-0qXo     .Xz76oh3qXo     .Xz76oh3qXo     .O",
" == ==.Xo     .Xo== ==.Xo     .Xo== ==.Xo     .Xo     .Xo     .Xo     .Xo     .O",
"      .Xo     .Xo     .Xo     .Xo     .Xo     .Xo     .Xo     .Xo     .Xo     .O",
"      .Xo     .Xo     .Xo     .Xo     .Xo     .Xo     .Xo o+  .Xo     .Xo o+  .O",
"      .Xo $iB .Xo     .Xo $iB .Xo     .Xo $iB .Xo     .Xo %&* .Xo     .Xo %&* .O",
"      .Xo=9;0V.Xo     .Xo=9;0V.Xo     .Xo=9;0V.Xo     .Xo$>;,<1Xo     .Xo$>;,<1O",
"      .X2u5;561Xo     .X2u5;561Xo     .X2u5;561Xo     .X2*;;;71Xo     .X2*;;;71O",
"      .Xo8;;;%.Xo     .Xo8;;;%.Xo     .Xo8;;;%.Xo     .Xwe;&;0qXo     .Xwe;&;0qO",
"      .X<,504tyXo     .X<,504tyXo     .X<,504tyXo     .X<-:6e9yXo     .X<-:6e9yO",
"      .Xw*3o7kqXo     .Xw*3o7kqXo     .Xw*3o7kqXo     .Xo=<<<=.Xo     .Xo=<<<=.O",
"      .Xo @%$ .Xo     .Xo @%$ .Xo     .Xo @%$ .Xo     .Xooi&p .Xo     .Xooi&p 1O",
"      .Xo+,;t@.Xo     .Xo+,;t@.Xo     .Xo+,;t@.Xo     .Xoi5t48aXo     .Xoi5t48aO",
"      .X<-,%j9qXo     .X<-,%j9qXo     .X<-,%j9qXo     .X<dp<88qXo     .X<dp<88qO",
"      .Xo+$ $+aXo     .Xo+$ $+aXo     .Xo+$ $+aXo     .Xo     .Xo     .Xo     .O",
"      .Xo     .Xo     .Xo     .Xo     .Xo     .Xo  <  .Xo     .Xo  <  .Xo     .O",
"  <*= .Xo     .Xo <*= .Xo     .Xo <*= .Xo     .Xo 3tu .Xo     .Xo 3tu .Xo     .O",
"  #;i .Xo     .Xo #;i .Xo     .Xo #;i .Xo     .Xo<sfNb1Xo     .Xo<sfNb1Xo     .O",
" gr;&+1Xo     .Xogr;&+1Xo     .Xogr;&+1Xo     .X2k;;;31Xo     .X2k;;;31Xo     .O",
" %;;;*1Xo     .Xo%;;;*1Xo     .Xo%;;;*1Xo     .Xol;4;dqXo     .Xol;4;dqXo     .O",
"bt;t;-qXo     .X<t;t;-qXo     .X<t;t;-qXo     .X<tt*,MyXo     .X<tt*,MyXo     .O",
"=ip<88qXo     .X<dp<88qXo     .X<dp<88qXo     .Xo$Co$$aXo     .Xo$Co$$aXo     .O",
"  <6< .Xo     .Xo <6< .Xo     .Xo <6< .Xo     .Xo *M7 .Xo     .Xo *M7 .Xo     .O",
" <-;:<1Xo     .Xo<-;:<1Xo     .Xo<-;:<1Xo     .Xox5&5k.Xo     .Xox5&5k.Xo     .O",
"=:rl5lqXo     .Xw9rl5lqXo     .Xw9rl5lqXo     .X<:l+:lqXo     .X<:l+:lqXo     .O",
"o76oh3qXo     .Xz76oh3qXo     .Xz76oh3qXo     .Xo=o o=.Xo     .Xo=o o=.Xo     .O",
"      .Xo     .Xo     .Xo     .Xo     .Xo     .Xo     .Xo     .Xo     .Xo     .O"
};
