/* XPM */
static char *result[] = {
/* columns rows colors chars-per-pixel */
"80 80 38 1 ",
"  c #000000",
". c #0B0001",
"X c #0B0B0B",
"o c #140001",
"O c #1B0001",
"+ c gray8",
"@ c #1B1B1B",
"# c #230002",
"$ c #2C0002",
"% c #330002",
"& c #3B0003",
"* c #232323",
"= c #2C2C2C",
"- c #333333",
"; c #440003",
": c #4C0004",
"> c #540004",
", c #5C0004",
"< c #630005",
"1 c #6B0005",
"2 c #730005",
"3 c #7C0006",
"4 c #840006",
"5 c #8B0007",
"6 c #920007",
"7 c #9C0007",
"8 c #A20008",
"9 c #AC0008",
"0 c #B40008",
"q c #BC0009",
"w c #C30009",
"e c #CC000A",
"r c #D3000A",
"t c #DC000A",
"y c #E3000B",
"u c #EB000B",
"i c #F4000B",
"p c #FE000C",
/* pixels */
"                                                                                ",
"                                                                                ",
"                                                                                ",
"                                                                                ",
"                                                                                ",
"                                                                        O404#   ",
"                                                                       Owppp4   ",
"       &wyr,                                                          oqpppp9   ",
"       6pppi,                                                        .9ppppp3   ",
"       8ppppi>                                                      .7pppppeo   ",
"       :ippppi1       XXX X X XX XX X  X XX X  XX X X X X XX X     .5pppppr#    ",
"        2pppppp<      +=----------------------------------=--@X    1pppppy#     ",
"         3ippppp2      +=-----------------------------------*X    1pppppy&      ",
"          <pppppp<      +=---------------------------------@X    <pppppi&       ",
"           <pppppp2.     +=-------------------------------@X    ;ippppi;        ",
"            <ippppp4     X+=----------------------------=@X    :uppppp<         ",
"             :ippppp4      @----------------------------@X    #uppppp,          ",
"              <ippppp5.     +=------------------------=@     %tppppp3           ",
"         X     ;ippppp6      +-----------------------=+X    Otppppp5.           ",
"         ++     >uppppp6.     +=---------------------+X    orppppp6             ",
"         +=+     :ippppp6      @--------------------+X    owppppp7.     X       ",
"         +-=+     &uppppp8.     @-----------------=+     oqpppppq.     X*       ",
"         @---+     :uppppp8o     +=---------------+      8pppppqo     X*-       ",
"         +---=X     $yppppp9.     @-------------=+X    .7pppppeO     X@--X      ",
"         +----=+     ;yppppp9o     @=----------=+      4pppppt#     X*---       ",
"         +-----=+     $uppppp0o    X@---------=+      2pppppy#     X=----X      ",
"         +------=+     %ypppppqo     @=------=X      1pppppu;     X=-----X      ",
"         @-------=+     %tppppp0o    X+-----=+      >pppppi%     X*------       ",
"         +--------=X     #tpppppwo     @---=X      :ippppi>     X*-------X      ",
"         @---------=+     $tpppppqO     @-=X      ;uppppp<     X*--------X      ",
"         @----------=X     Orpppppe#     @X      #yppppp<     +=---------X      ",
"         +-----------*+     #eppppprO    X      %tppppp4     X=----------X      ",
"         +------------=X     Oepppppr$         Orppppp5.    +=-----------XX     ",
"         @-------------=X     OeppppprO       owppppp7     +=------------X      ",
"         +--------------=+     Owpppppt#     .qppppp0o    +=-------------X      ",
"         +---------------*X     owpppppt%   o9pppppqo    +=--------------X      ",
"         @----------------=X     oqpppppt#  7pppppeo    +=---------------X      ",
"         @-----------------=X     o9pppppy;5pppppr#    @=----------------X      ",
"         +------------------=X     o0pppppppppppy#    @=-----------------X      ",
"         @-------------------=X     .8pppppppppy$    @=------------------+      ",
"         @--------------------*X     o9pppppppp>    +=-------------------X      ",
"         @--------------------@X      <ppppppppeO   *--------------------+      ",
"         +------------------=@X      2ppppppppppeO  X@=------------------+      ",
"         @------------------@      .5ppppppppppppqo   *------------------+      ",
"         @-----------------@X     O0ppppppwpppppppqo  X@-----------------+      ",
"         +---------------=@X     Owpppppi<.4ppppppp9.  X@----------------+      ",
"         +---------------@X     &tpppppu:   3ppppppp9.  X*---------------+      ",
"        X@--------------+      ;upppppt#    .3ppppppp7.  X*--------------@      ",
"         @-------------@     .<ipppppe$       2ppppppp7   X@-------------@      ",
"         +-----------=@      3pppppp9o        .3ppppppp5.  X*------------@      ",
"         @----------=+     .8pppppp6.           <ppppppp5   X*=----------@      ",
"         @---------=+X    o0pppppp3.    X+X      <ppppppp4.  X*----------@      ",
"         +--------=+     $rpppppi>     X*-*X      <ppppppp3.  X*---------@      ",
"         @-------=+     $ypppppy;     X*---*X      >ipppppp<   X*--------*      ",
"         @------=+     ,upppppt%     X=-----*X      <ppppppp2   X*-------*      ",
"         @-----=+     1ipppppwO     X*-------@X      ;ipppppp<   X*------@      ",
"         +----*+    .5pppppp9o     X*---------*X      ,ipppppp,   X*-----*      ",
"         @---=X    o9pppppp5.     X=-----------*X      :ppppppp<   X*----*X     ",
"         @--=X    Owpppppp2      X=-------------@X      ;ipppppi&   X*---@      ",
"         +-=+    $tpppppu,      +=---------------*X      :ipppppi,   X*--=      ",
"         @*X    ;upppppy#      X=-----------------@X      $ipppppp;   X*-*X     ",
"         +X    :ipppppe$      +=-------------------@X      ;ipppppp;   X=*      ",
"         X   .3pppppp0o     XX=---------------------@X      %ipppppi:   X*X     ",
"            .6pppppp7o      +=-----------------------@X      %ipppppp%   X      ",
"           o9pppppp3       +--------------------------=X      &ipppppi;         ",
"          $epppppi1       +=---------------------------*X      $ipppppi%        ",
"         #tpppppu;       @=-----------------------------*X      %ipppppi%       ",
"        :upppppy&       @=-------------------------------@       $ipppppi&      ",
"       $tpppppeO      X+----------------------------------@X      $ipppppt      ",
"       <ppppp0o       @------------------------------------@X      $uppppp      ",
"       >ippp6.      X@=------------------------------------=@       #ipppu      ",
"       o5rr1.      X@=---------------------------------------*X      $epu1      ",
"                  X*------------------------------------------@X                ",
"                  @--------------------------------------------@X               ",
"                X@----------------------------------------------@               ",
"               X@=-----------------------------------------------@X             ",
"              X*--------------------------------------------------@             ",
"             X*----------------------------------------------------@            ",
"            X*-----------------------------------------------------=@X          ",
"           X@-------------------------------------------------------=@          "
};
