/* XPM */
static char *result[] = {
/* columns rows colors chars-per-pixel */
"80 80 6 1 ",
"  c #5E5D8D",
". c #4E4D7B",
"X c #34335C",
"o c #25244B",
"O c #201F45",
"+ c #121227",
/* pixels */
"           ..                          ..                          ..           ",
"           ..                          ..                          ..           ",
"           ..                          ..                          ..           ",
"           ..                          ..                          ..           ",
"           ..                          ..                          ..           ",
"           ..                          ..                          ..           ",
"      ....................................................................      ",
"      ....................................................................      ",
"      ....................................................................      ",
"      ....................................................................      ",
"      ....................................................................      ",
"      ....................................................................      ",
"      ....................................................................      ",
"      ....................................................................      ",
"      ....................................................................      ",
"      ....................................................................      ",
"      ....................................................................      ",
"      ....................................................................      ",
"      ....................................................................      ",
"      ....................................................................      ",
"      ....................................................................      ",
"      ....................................................................      ",
"      ....................................................................      ",
"      ....................................................................      ",
"      ....................................................................      ",
"................................................................................",
"................................................................................",
"      ....................................................................      ",
"      ....................................................................      ",
"      ....................................................................      ",
"      ....................................................................      ",
"      ....................................................................      ",
"      ....................................................................      ",
"      ....................................................................     .",
"      ....................................................................     .",
"      ....................................................................     .",
"      ....................................................................     .",
"      ....................................................................     .",
"      ....................................................................     .",
"      ....................................................................     .",
"      ....................................................................     .",
"      ....................................................................      ",
"      ....................................................................      ",
"      ....................................................................      ",
"      ....................................................................      ",
"      ....................................................................      ",
"      ....................................................................      ",
"      ....................................................................      ",
"      ....................................................................      ",
"      ....................................................................      ",
"      ....................................................................      ",
"      ....................................................................      ",
"      ....................................................................      ",
"................................................................................",
"................................................................................",
"      ....................................................................      ",
"      ....................................................................      ",
"      ....................................................................      ",
"      ....................................................................      ",
"      ....................................................................      ",
"      ....................................................................      ",
"      ....................................................................      ",
"      ....................................................................      ",
"            ..                          ..                         ..           ",
"            ..                          ..                         ..           ",
"            ..                          ..                         ..           ",
"            ..                          ..                         ..           ",
"            ..                          ..                         ..           ",
"            ..                          ..                         ..           ",
"XXXXXXXXXXXXXXXXXXXXXXXXXXXXXXXXXXXXXXXXXXXXXXXXXXXXXXXXXXXXXXXXXXXXXXXXXXXXXXXX",
"ooooooooooooXXooooooooooooooooooooooooooXXoooooooooooooooooooooooooXXooooooooooo",
"ooooooooooooXXooooooooooooooooooooooooooXXoooooooooooooooooooooooooXXooooooooooo",
"ooooooooooooXXooooooooooooooooooooooooooXXoooooooooooooooooooooooooXXooooooooooo",
"ooooooooooooXXooooooooooooooooooooooooooXXoooooooooooooooooooooooooXXooooooooooo",
"ooooooooooooXXooooooooooooooooooooooooooXXoooooooooooooooooooooooooXXooooooooooo",
"ooooooooooooXXooooooooooooooooooooooooooXXoooooooooooooooooooooooooXXooooooooooo",
"OOOOOOOOOOOOOOOOOOOOOOOOOO++OOOOOOOOOOOOOOOOOOOOOOOOOO++OOOOOOOOOOOOOOOOOOOOOOOO",
"OOOOOOOOOOOOOOOOOOOOOOOOOO++OOOOOOOOOOOOOOOOOOOOOOOOOO++OOOOOOOOOOOOOOOOOOOOOOOO",
"OOOOOOOOOOOOOOOOOOOOOOOOOO++OOOOOOOOOOOOOOOOOOOOOOOOOO++OOOOOOOOOOOOOOOOOOOOOOOO",
"OOOOOOOOOOOOOOOOOOOOOOOOOO++OOOOOOOOOOOOOOOOOOOOOOOOOO++OOOOOOOOOOOOOOOOOOOOOOOO"
};
