/* XPM */
static char *result[] = {
/* columns rows colors chars-per-pixel */
"80 80 7 1 ",
"  c #9C9E80",
". c #999C7E",
"X c #9FA083",
"o c #949779",
"O c #8B9072",
"+ c #7B8468",
"@ c #5C6C56",
/* pixels */
"o.  ..    XOO ..   ......  OOX....o oo ..  .. . +O .       .     .XOO .. ......o",
"    X ..   .O      .. .  .XOo  X..  ooXXX.   X.X+o    X X  ....  .X+OX..  .    o",
"XX   ...    oo..   X      XO... ... o.X  ...  XOOX.  ... ......  XO+oo    ..X .o",
"XX .. XX. .X.o  .    .  .XooX.   .. oo    X .o++.. ..  ..     ..  O. oo.....X  o",
" X  . X    Xo.X  .   . .. oo . .  . o. .     +oX  ..      XX  .  .O .  ...     .",
"X .     .. X.       X   .XOOX.   .. o. .... o+    ....  ..X      OoX.X .   .   .",
"X ...   .. ..XX.          +.X .  .. o.X. X Xoo   ... .     .    .+X . . XX.    .",
"XXX  .. .. .    X      . oOX. .. X  o.   .XO+X ..... X.  X .   XOOX. . X    .. o",
"ooo.  ..  .   .   .. ... oO . .     o.X . .+X . .... X XXX. ... +o .  X  ..o.. .",
"ooOOoo.   .     .    .....OX  .   .Xo.X.  +OX......  ..  .    X+oX ...  X..   X.",
"o.X oOOO         XX  . . O. ..  .o  ooXXo+OX  ... . ...    ..XOOXXX...   .   ..O",
"..    .O    ..   XX  .  oo  .... .o ooX++oX.. . ..    .  X . .O...  .    .  .O.o",
"  .   XoOXX.       ..X.oo . .. .  oOOO@+ X.. X  ..X.  .. X .XooX....X.  . .oo. o",
"X       OO X       . ooX .       . O@@OX..  .X .  X   ..  XX O    ..X ...oO. X o",
"   ..X .XO+.  . X  .Xo. .. .  ..   X@+X.  ..XX XX   X   .. Xoo . ...  ..oo . . o",
"   .   .. o+.X     ..O     .. .  .X+@. X. .     X .   . . XXo.X.  .X . .oX  X  o",
"   X .. . XoO ..   XoOX  ....   .Xo@O X . .    . .....  X  ..X   .. .  o.X   . .",
"X . ....  . O. . X  Oo  ...  .  .X++ oX       X....X .   . Xo.. .. ...   . .   .",
" ..........XOOX    .OX .. ... . .X@O o .    .. .  .X  .   Xoo.. . .   .  . ..X .",
"    ..    . .+.  ..oO ..X.. ....XO@.oo .   .  .   .. .   .o.      ..     . X  .o",
"       X  . XOO   XOo ..X..X...X+@oXooX X      X  ..  ..oo.  XX  X    . X   X..o",
"    .... ...XX+.X o+. X.X.  .XX+@OOoO.X.   X    .X    oo. .  X.   . ... X  . . o",
"    ...  .. XXo+Xo+..      .Xo@@ XXX+Oo.XX .    . .   .X .o.    . ... .  .  .. o",
"  .  .    .....o@+X..  ...  +@+X .  oo.ooo   X.      ..  ..X    ...   X        o",
" X.. .   X..... ++X.    . XO@OX.... o.X.oooo X .    .o .     X..  ...    XX..  o",
"     .  .  . .. O+X.  .  XX@+X  . . oo .. XOoX    X.o.X.  X  X...   .  .. ..   .",
"   X .. .......X+OX.X . . X@o   .  X......X Oo   .ooX   . ..    .  ..XX..   ...o",
"  .        .. ..+.X .    XO@ X..    .o .  .. oOooo     . Xo. .      .  ..  X . .",
" .  .  X       .+.   ...oo@+X .. .. o. .  ..  . O. .  .. X    ..X ... ...  .   .",
"   .. ...  .. . +o.ooooooO@OoO. . . o. ...   X Xoo    .         X .. X  . ....X.",
"o......  X ....X+o... XXX+@XX.o..  Xo.X ... . . o.   X      .X     .   ...  oooo",
" ooo. . .   X .o+..  . X @O XX ..  XooX....  . oo .  X    ...  .   .... XXoO.  .",
"X ..o. ....  XOOO..    X+@          oo .X .   XOoX   X  X ..   .   .  .. oO X .o",
"     o X .  XoOX+OX...  @+X. .  .  X..   ...  XOoXX   .X ...  X    .  . oO X..X.",
"XXX...   . .X+ XO+  XX.@@X  X... ..X..   . .. .+.  ..  .  .... .. . .  oO .    o",
" ... ...   XOOX. +..O+@@OX X .. .o.Xo.X  .. .XO. .X .. .X ..  ..... X XoO . .  .",
"X.o  .o  . .+  .X+@@@@@+oX X   . .. o.  . ..XOOX. X.  .   o.   X   . X Oo   .  .",
"  .X  .  .XOoX. XO@@@+XO+     .  .. o.X.. . X+o . X.  ... .....  ..  o+o ..X.. o",
"XXXX   XXX.OX. XX+@@+OooOO.    X  .Xo.X....XO+X.. XXX X       X    X.O  .  XX  o",
"oooooOOOooOOoOOoO@@++oOo.+OooOooOOOoOOOooOo.++oOOOooOOoOOOoOOOOooooo+OooOooooOOO",
".     .. ooX .. o@++OX  Xo. ....    oO . ...@o.... ....... .. .. ..oO...  .  ..o",
"X     X  O  ..X X++o    .o.  .  X  XOoX . XO+X.  XX                +. X  . XX  .",
"X   .   .O.o.. X.+o..  ..o.      .. Oo .X +@@O ..  ......o .XX   .+OX.   ..    o",
"    .X X.o o.  XOOX..    o.        XooXXO@@++@@oX ........ . XX.O+O .    .     o",
"    .  XoO     X+. ..  ..  X .   X XOo +@+XXXXO++oXXXX     .  .O.  ..  ..   ..X.",
"    .. .oOo   XoOX. .  .  X   .. X Xo@@+ X.. .XX+@OOOOo. XX  XO.X.    . ..   . o",
" XX . Xo. o... O X  .  X  X        X+@.X........XO@OOOOOooooOOo . ..   ...   . o",
"XX    o. .X..oOOX..X.   . X   . . XX@oX.  ....  .Xo.XXX oOOOO+.X.....      ..  o",
"  X oOo. X ..XOOX...    .. . ..  XX@@o ..  ..     .OX   X X X.O    .     X.. ..o",
"X.oOoX.. . . XO+X....    ...  .  X@@Oo    .o. ..  XO.X......  OOo  .   . ..  ..o",
"O+o. . X..  .  +   X  . X..    XX@+XooX.   .  .  .X.o.  ....    o ...    ..X  .o",
"O ........   . OO   .  .    XXoO@@XXooX..  ..  .XX...o  .  .    oo..  XX  ..X.OO",
"X ..  .  .. X..XO.X .. ... XO@@@+X XooX    ..  .     o..   .   ..O.....   ..oo..",
" .  ...   .   .XO...  . XXo+@+o+OX.Xo. .  ..   ...   o.        . oO.  .  XoO. .o",
"XX XX .   XX  .X+o..X.Xo+@+@OXXOOX Xo. . ..    .  ..Xoo X  ..  .  oOo. X.Oo.   .",
"X o.X . X     .X+oXXXXO@@O XX. OOX  o. ..     X.XX  X o.   .. X. . .oOOoO.X    o",
"X.o  .    .  ..X+@++++@OXX.. X .+X  o.X.....X .. .... ...   X.  . ..   OoX..   o",
"X.. .   .   ...X@@@@@@oX....   X+o  o.X . ..  ...... Xoo . ..   .....  .o .... o",
"X.o.    . X ..X.@oX  Oo ... .  X+O  o. .     .   .  .Xoo ....X o ...    o... X o",
"XX .  ..      X+@ . .O.     .  X++o o. .X ... .     . .OX..  X..  .....X....  .o",
"X  . X..       @O .  o    .... +O Oo.. ..  .. ..  . ...ooX  . .......o...  ....o",
"  .   ... ..  O@X. X.......   .+. XoO.X.....        ...oO . . ...   .o ... .. ..",
"XX .... ... XX@+X.  ...  .... .O  .XOOo ...  ...  X.....O .. .....   .   .. .  .",
"XX.....  ..XO@@ . .  .. X   .XoO    ooOoX ..   .    ... O  . .....    ... . .. .",
"XX ..     X+@++ .. .   ..  .  O ... o.XooX.o.   X..  .. O .. .. ....    .  . . .",
"X X   . Xo@@ XO. ..     .   .oo  ..Xo. .ooX    ..   .   O... .. . .o  .     X  .",
"    ..  X+@X  oO .   ..  .  Xo.     o..o.o  X    .....  + .....    ..... X.    .",
"  X......@OX...ooXX   ....  ..X.....o.X..o..  ... .. . X+. .. ..  ... .   .  . .",
" . .. .X+@X ... Oo. .. .. . ooX.  ..oo   oo  ....XX.... O+OO...  ...   ..... . .",
"  ..XX O@oX  .  .o...XX  . ..O.X .. o.  ..oo  ..  .. ...Oo oOX ..  .   .    .. .",
"X   O+@@+X..  .  ..X X.... . ooX  .Xo.X ...oo. ..    ..oo  XoOXX   .        .. .",
"  .+@+O . ..  .. .o.. ... .  oo  ..Xo.X .   .o . ..X ..o ....OOoX  ..  . ...  .o",
" X++XXX OX .X  . . .o   ..   o.X    o.X. ....OXX .o.  o.X. ..X.OOX.X .     ..  .",
"Xo@o   .oX . X ... X.. . ..X o  ... oo .  . .o.  .....o ..   .  OX.. . X X     .",
"+@O .X  .. . X   .... .... .XO . .. o.X.  .......    ooX...   . OO .. X   ..   o",
"+.Xo     oo      ...  . ..  oO    . o.X. X  X..  .  .o. .  ..  . oooXX    ..X OO",
"XX. . ..  .o  .....   ......O   . . o. .   ....   .OoX .   .. . . .OOOo.  . .oo.",
"..  .. ... .  .  ..  . ... OO ..... ooX.  .  ... .OoX ... .      .Xo+ooo... ooXo",
"   .    .  .X     . X.  X XOo. X  . ooX X   XX   O X    XX XX   X  .+X  ..XooX.o",
"..oo.oo.oooOo.ooo..o.oo.ooo+ooooooooOo.oooo..o. Oo oooooooo.oooooo.o+ooo.ooOoooo"
};
