/* XPM */
static char *result[] = {
/* columns rows colors chars-per-pixel */
"80 80 18 1 ",
"  c #958554",
". c #8F7F4D",
"X c #8C7B49",
"o c #847444",
"O c #817140",
"+ c #887848",
"@ c #928251",
"# c #988958",
"$ c #7D6D3D",
"% c #7A6838",
"& c #746233",
"* c #9B8C5B",
"= c #6F5C2D",
"- c #9F9060",
"; c #655327",
": c #584821",
"> c #8E743A",
", c #856B32",
/* pixels */
";;&,o&;%o,&=::::%OO;;:::=&:==;%.+%+XX+$;&oXoOX+O&%+O=;;%,OO=%o$.XOO%&=::===;;=&;",
"==%> >=O@>X,=;;;,++=%;:=>>=,>=,# o #.@X&o...@#...X@ X==.XX &$.+##@@.+,;;,>O==&,=",
"=,O. .&+  @>&===>@@%+==,.#,,>&,##X * # %o.@ ## ## ##@%;  @@&O#@### @.,=O>XX=,%,=",
"&,OX@#X@#-@>,&&=, #$.,&,@*>.>,>**@#-## %O #-XX##@.* >>, @# &o* -** .@>=>>XX=>,>=",
"&,+X@#X@*#@.,,,,>@#$.,,> *.#@>@*-* #*##%o##-  #-*####>,## *$o* -***## ,X. .O.,@%",
",,o.**X#-###>,,,X *$#,>X -. *. #**# *-*$+##*-# -*# #*>,*#*-$+* -  ****>  *XX.>#O",
",>X.#-.#*-*#>>>&X *%#>X.*-.*-##**#*****O.----##***--->>--**$X- -*#**##.*--@@X>#o",
"&,.@*-.#-*-*X>>, #*$*> @#-.***##---** #+X**-*--**--**X>*##*o+-#*-*-**#@-**##X,#O",
",>o@**>@--**>>>,*--$-X@.#-. *#*----  *-++ @##-*-****-X>--**++-#**-*#-*.#*###X>#o",
"O.X.#-. -#@ >>>> --$#>@X -.**@#--**-**-Oo* @#*## *-**>>***-XX-  #--#  X#-# *.>*O",
"O  #**.#-#@X>>>>#*-O*>@X*-@*-.#-* --***O+***-*--*--- >>##--XX-*# --*  .** #*X>*O",
"$@ ###X -**.,>X>*-*%#X@.*-.#*#**-#*##@ O.*#**---*---*.>#---XX--.+ #X+ @**##*X>*o",
"$@@  *X@-*-#>>>>@*#%#. @#*X@# *--*@#@@#OX-*-*---**-** @*---OX--O&@.=$@ #**--.> $",
"O. ##*. **-*>>.>#--$#@   #. *@**-* X+#*O+-*------#---##**--Xo-#&=@+;O#+o ##-.> ,",
"O.###-@ -@**>.@X*--%#   #*  *@ *****.@*O+-#*----- #--#*--**+o**&=.o;o#&=.##*@>.,",
"o+####. *#*#>. > -*%# #@ #@@ # #**#*#X*+o---****-#.--  -*#-+o#-&% $&X+;% #*- >@%",
"o+#*##.#*-# >X@> ##%*.... X@###  *# # .O+-*-------*#*#@**##++*#&&@$%.%;o ###.>.$",
"+X@ . X@#@XX,X.+#**$ +.X. X #@ #.@ ### %X-**#----**###@##.O$o#@&&X%oX==. @@ X>.%",
"oo+ @.+.+$@.&O..*# &@##.@*X *@@#@+ **##%+**#. ***# ##@@**.=;+*@&&o=O$;%@@OX +XX&",
"=&%$$%=&&&%%=&%&$$&;$%&=$$%$$&$OO$&%$$%=&%$%$$%O$$$%%%%%%&::;%&::;:=;:=%&;=%&&=;",
"%+oO+O&O+OXX%OO&X X=O%%&.@o@@+XX..@@@X#%%.Oo..X.@ ..@.$OXX;:=+$::::;;=$$;=o+O%%;",
"oXX.+.$+@+..X@X>  #%.+.,#*#**###****# *%$ .#  @##* @  XX #O;=$=;:::::&O&&+@ X,o&",
"%o#.+.$X.+@#X.X>## &..@> #*#**  ##*#+.@%$X  @ #**#@#@ @@##X=::;;::;::;=&X.  OOX%",
"OX@@X@++..@#XX+,X  &.@@>#****  *#**##.@$%@* @*##*# # #.#*#X&:::::;::::=o@   +>+$",
"+@    @X.###>X+&+@ % #@X#-***@ ++@@*#@#%% *@#-## *### .#*# &:;::::;;::=X@##.XXXO",
"+. ### @X###>XX,  #% *..*-*# ++ooOO*   %&#*.**  X*# ##@**#*%;;::::;::;%.@##..X.o",
"oX.### #.@#@>@.>###&##.X#-- @oO+X$X@# @OO#***@. @*##- X*##@%;;:::::::&o. @ @..@$",
"+..@##@#@ # X @X## %@*.X*** @@Oo.+.O@X.O+-# #.X  #*#* >#*# O&;::::::;&o@..#  X O",
"o@.@##. @ *#.  X# @%@#@.#**##.XOX@++ ..$+-  #.+X ###*#>#**#o%%::;:::;O+ X@   .#O",
".#   *.@@#*#@ @.##*%@# X#*@@@oO&&o+@   $O    #.+ ##**#>#*##O%O;;&;;;$X@ +.@ @.#O",
" #  ##@ ##*#@ X>***%X# @#*o+ X&=;=O#@ #OO .@#-##*##*##>  *#O$+;=%;;;o@##.X.# .#+",
"##  #*@ @@## #.> *#$. . **+o X&===O @.*Oo ..  ###*####> ###OO+=&$==;%X # ..  . o",
"##    .@. ## #X>*-#%@#>X*# @X%===&+@.+ $o# # #####   *X # #OO.&%O&&=o@  ..#* +X$",
" ##  ..#@ ##@#X>#*#%.@@.#@# o=;;;%@  @ $O . ##*#### # X#*.@$o@$o+%%$.  #@. *@+ O",
" ##@.  #*#@@   .#*@&X@@@** #@%=;;%X #@#oO. @@ ###* @ @X#-# $O.O+X$$oX @.@@.*#@@$",
"@@@.  . *#    ..# .&o# @ .###o%&=$+   #OO@X.@X #@# @##X #. $o OX.OOo.   @X. @.@$",
"@@+$o.+@#@@   .+##*%o   # ## XO$&OX@   %$@,>.>.#@   ##.#+$X$O O@@oo+@  #X+ #.X.$",
".@+%$XX@ .@   +X###%+ @.@   @XOo%+...@ %$@.+XXX  ##. #.#X$X$O $.@,O.@@.XX@.@X+X%",
". @o+.. #  ##.X@*##&X#.X #  @XX.O@@@@.@%$.XX. @.@### @X  . $O +. Oo. #.X@@.  oo&",
"&$$%%%%$OO$O%%%%ooO;%o%%o$O$$%$$&%%$$%&;;&&$$$$$%%OO%&=%%$o==$&%O&%$$$%O$%%O$&=;",
"&&$O++$OX.+X+O$$X.O;$+O+X++O$%%$%OoOOO$=;;&O$O$+O$XoOO=OoO.==o%$o&%$o$$%$%$X$%=;",
"X+.+X .+.@.@..>,@@.=...   . .OoX+..X+..&;&$X.+X# . @.@O@ @#$$.o+X,OX XX+@.+#.+O&",
"XX... .+@++oX.+X@..;$@ @@@.@.>X.+XXooX+&%oOX++...... @,X.X.OO.OXX%o......X.X+@X&",
"+X+@@ @. +$O...@ @X=O##  @@ @.X@X@ X.@.%$o$..++XX...  >+@@ %$Xo..%oX.@.@@. Xo@X&",
"+X... . @$;O +%+@@+=+@ ..@.# ..@X  .X  $OOo..o%OXX.@. >XX@#O%oO.@%o+@ @..@ .Xo.%",
"X@@@@ .o.+;=.X;%..o&. @.@@ # @..X  @@@@$oX+.XO&%o+@@.@,.. *O&oo  $+.. .+X.@..Oo%",
"X.  @ @&&.O=++;=..+%+..    ..@@ .@   @ O%OoX+O$%%o@.XX,X@#*O&++  ,o.@@XoX.@..X+&",
"... @@.%;O.&$X&;XX.$XX@#..+O+.. @.@##  O$OOX+Oo$&o..XX,.@  $&o+  O+.@ X+...@@.X&",
"X+X  .Xo=&@$=@o=X+X%@+X@@.oOoX.#    #.@$%+%OXoo$oX.@ X,.@@ $%.+@@OX@ @.XX.X.@.+&",
"X.@. @..O=++&o+=OXX&O=O+Xo%$oX. @ #@X++%$.O$.++oXX@@.o&X@@ $$@X .O+.@@.o+++...+=",
".@@.XO. .$&.$$+=&..%&:%+++OX+X......Xoo&$.oo.+++..  X%%o+  $$@. @O$X.@.O$&&+.X+%",
".@..o;&XXX%$%;;:;o.%=;O++XoXXX@XO..@XX.&%Xo+.++X@@@X%&&O+ #$$.@@ ,%.@@+%=;;%+++%",
"X..XX&:$.X$:;::::$X===+XX+O+X+..X....X.&%.o+.+++..X+&==$+..%$@@@.OOX.X$=;::=Oo+&",
".X.X+o=;O@$:::::;&&;&$X+XX+o..XoX..XXXX%%+$X.+oXXX.+&=;%O@@O$# .@oOX.+%%=;;=OOO=",
"XX...XO$%O&;:::::;::&O+oO+.+.@.XX...X.X%&OO..X+XXX.+%==&o@ O$ @@.%o.@XoO===%ooo&",
"XX+X.+O.O=;;;;::::::&O+OOX....++..o+oo+&&++X...X...XO&&$X.@$$@@.X&oX.XXo&&%o+o+&",
"+++..+ooo%;:;:::::::=$oo+XXX.XoX..X.Oo.&&+oXX.+XoO++O&%oX..$O..@X$o+o+X+$$%o+$O&",
"OO+X++Oooo&;;;::::::=OOoX++XX.++XoXXo++&&Xoo+X++Oo+XO$%Oo+.%$.X.o%OOo+oO$$%o$=$=",
"o$$X..$o+Xo=;:::::::&O+oX++...>+X+++o.+=%+o++++oOoXX++$+XX.&%XX.X$OoXXo$OOOX+oO;",
"=&&&$$&=%%&;::::::::=&%=&%%$$%&&%%&==%&;=&=&&%&&=&%&&&=&%&=;=&&%%===&&==;==&%&=:",
"=%&=$$&%%%%=;::::::;=&%=&%%%%%%%%$$=&%=:;%&=$$&&%%&$&&=$O$$=;%&&&;&%$%&&&&=&&&=:",
"&$ooO+Ooo+O%%;:;;:&=$OOO+OO+X+X+XX+ooOo&=$%o+o+oO+oXoo$+X+X%&O$O$%oXXo+O$$%OO$%;",
"%ooO$O$o+ooO$=;;;;$=%Oo+++$%O++XXX+++o$=&$O+oo++o+oooO$+X+o&&ooO$$+++o+o$O%ooO$;",
"$oOOOO$+X+OO$====&O=$%+XooO$+.oOXXX+XX$=%+oo+X+++OOoO$OoX++&%Xo+o%++o++O$+OooO$=",
"$oo%OXOo++X+O&%&%&o&OoX+Ooo+..X+X+O+XX+&%Xoo+ooo+OooOOO$o++&%Xo+o$oOOo++OoOOoOO&",
"$Oo%$XOo++X+$%%%O%O&oo++OO$+...X.+oXX++&%o+++o%&%$++Oooo++o&&o$oX$%$+o$oOoOooOo&",
"$$OOOoO+o+Oo$%%%OO+=Ooo+oo++..XX+XXX+XX&&+++Xo=&&&%$oOO+oX+&&oOoo$oo++oO$oOO$oo%",
"$$oOO%%O+oO+O%%%oo.&+XXX+o.@.@.XOoXX+..$&+o$+o&&&%=&ooO+oo+&&XOoo$+oo+++ooO+o$o%",
"%OO$$&&$oo++O,$%+OO&+X.+ooXX..X++XXX+oX$%o$OoO&&&$&=ooo+oOo=&o%oO%ooo+X+oOoooOo&",
"%$%%&&&$o+++O&$,oOo=OXXooO++XXX++XX+X++%=OOo+$&&&$=&ooOoo$O&&o$%%o+o+++o&%oo$%O&",
"&%OO&&=%Oo+Xo&%,++X&+..XoOOo++++OO+oo++&&Ooo+o&=%$%$oooo$Oo&%O%%$OoooOo$%$ooO$$=",
"=$OO=&&%$oo+o%%,++o&+.++Xo$O+X+o%%O+X++&%oOo++&&$%$ooOo+$OO=%O&Oo+ooOOO%$%%O$$%;",
"&$%%=%$%%$oOO%$%o++&OoooX+O%+X..Ooo+++X&%O$$$o%%$%$OOoo++oo&&%o+o+ooooO%$%%%%$$=",
"%$oO%$$&%OO$$%$%Oo+&$o++Xo%Oo+XXoooo+oo&&oOOO%%%$$O%%OOo+oo%=$++o+OO+oO$O$$O$O$;",
"&$O$%$$%OO$%$&$%ooo=%o++oo$$+o++oooOOO+==$%O%%&$$$O%$O%%OoO==oo+O$ooooo$$%%oOO$=",
"&$$%%$$$$%%&%=%&OOO;%$OO$O%$+$o+o$$OOoo=&O&Ooo%$O$OOoo&=%oo=&+o+o$ooO$$$%%$O$%%=",
"&O$%%$%%O$$&%==;%$$;=&&=%%;&%&$OO$$OOOo=&O%$$O$OO$oOOO%&O+$;&Xo+oOoOO$%&%%&&;&$;",
"=&$$&%%&&%O%=;;;%%$;:;=;&=;&%=%$$%$o$$O=&%&OO$$$$$Ooo$%OOO&=%oooOOO$$O%;&%&=;=%;",
"=&%%%&;;=&&&=::;%%&:;:::=;:==;=OO$OoO%%=&%$ooo$OO$ooO%&$o%%=&oOOO$%%&%=;=&&==;;:",
";;;;=;::;;::::::;=;:::::::::::;&&;=&&=;:;==&%&&&&=&&=;;==;=;;&====;;:;::;;;;;:::"
};
