/* XPM */
static char *result[] = {
/* columns rows colors chars-per-pixel */
"80 80 30 1 ",
"  c #87845E",
". c #84815B",
"X c #817E58",
"o c #8B8862",
"O c #7F7B55",
"+ c #6B6845",
"@ c #6F6D49",
"# c #7C7953",
"$ c #8D8A64",
"% c #73714C",
"& c #76744F",
"* c #30432A",
"= c #797651",
"- c #5B5E3D",
"; c #646340",
": c #344A31",
"> c #303C24",
", c #908D67",
"< c #375137",
"1 c #595737",
"2 c #39583F",
"3 c #406044",
"4 c #4F5032",
"5 c #2D361F",
"6 c #414227",
"7 c #484A2D",
"8 c #495738",
"9 c #42684D",
"0 c #5C6A48",
"q c #45775E",
/* pixels */
"$o$  X+22*7+=;==0:4;%=OXX..X X.   .   o&=  .. .=%;7><5<*5<*51@=XXOXXXX+11*::>1%%",
",,oo, =4<*4%X@O=26;=. .o  ooo#o$o$,oo$,X.ooo$$o  X;725>2**>6;O.   .   +<3<*54%.#",
",,o,$oX+:2:+X@@0:4#.ooo$o$$.# o$,$$$o,,O ,$o,,oo$oO-2:5<2*57%.    ...#09<>67+Xo.",
",$$,$$oO73<7%;32>+X oo$$o, O o o,,$$$$,OO,,,$,,$$o.%82*529>4&..    .X+3*57;-#., ",
",$,,$$,.-:22433*7=X.$o$oooO$,$,,$$$$$$,OX,,,$,,,,$.#@<25<9*4&XX   X=+9:54+#@  ,o",
",$$,$$oX=4:9:3*>;O#o,ooooX%o,$,$$$$$,,,=.,$$$oo$oo XX4*<:9<*+#X.%@+03254@OX=oo,o",
",$,,o   X+:<29*7@%&# oo$,X&,,,$,$$$$$$,O ,,$$$ ooo$. @1:292>1++09232*>>;O..X o$o",
",$,,o $$ #1>32>-@%ooOO$o,&@,o,$o$   $o,O.,$,$,$$$$$  X=4*32*1+893**>77:%XX .oo$ ",
",$$, $ooo.+63*51+ oo$O oo%-oo$$o=X$o o,OX,$$,,$,o$$oo..+792>6892>>71%-7@XOo.oo$ ",
",$$o ,ooo @72561+ oo$Xoo %2=  X0+$$,oo,=X,oo$,$$ oo  ..+732>3q2>>1%&#@:+.Xo o$, ",
",,$o$$$$o =4257&+X$o$Oo &92<<<8-Oo,,$$,#X,$,,,$oo,$o ..+<9::9<*51=..O&88=X$ oo,.",
"$  ooo   X=4<>7%&= .X= =0<>41-+X     . &#    o  oooo .O;29<2<*56-&O.#=+:-=o.#.oX",
"@%%&&=&@%@+72:>1;-;;;+@;2>7;++@@%@+@@@+;;@++@%@+@+++++;49q3*>5641;;;+;-4:1@@+++;",
"$,,,,,$.ooo;32*;&@X%O .0:4=.  $,$,$o$,,#O,$,o$$=X,X. .@8qq<>561&X .O  &&-8Oo ooO",
",,,,$,$ ,  +<9<7++;%. &36@X. .oo$o$ooo,#.,  o $$%&## #;qq:>571@O.. O  ##%<+. . =",
",$,,,,$ ooo=439:788=X=0:4#..  o$$$o$$o,XX,o$oooo -8&.+3q2>56-+=. o . o.. +- o  &",
",$,,$$ o$oo.-*<2<77+@3<>;X..  ooo$oo$$,O.$ ,,,o $=<-O-39<>6-@#&.  o  o   O8% . =",
",$oo    $ooO8**:3<679<>*8# o. $oooo,,,,X ,$,$,$.#028+89:*57+&X%X  o oo . =83@&.=",
"$ooo X#    ;14:::2>29*7-180&=  ooo o,o,#.,,,oo .#+728:2**>4@# %Xoo .  =03<:::2-+",
"#o$oo #$ O+%.%1**2>2:>-&X+---#.o$$.Xoo,=.,,,,,oo X+6299>5*7@##@&oo   O0<664;-4:<",
"90XO.o##X.=  O@6*9:<>7@O #OX+.o.o$.=,$,O.,$$$$oo .#1<q3>5*6+&@ %#o oo&26+%#o.=+:",
":<230.&#  =  .#1*<<*6-#. # o%X,ooo.0o$,&X,$o o  ..O@422*5**1;# .%  o.0:1.#Oo #X-",
"144:<-%  #=o XX-<3*54+X .&o XX$ oo$0@$,%X,o .XXX=%@+123:5:*6-=Xo&=.X&26@ O.o.Xo+",
"##%;42;#O#& .O=4:3>51%X.+=ooo. ooo$=3%.@=ooX%03333386:3<>:*6+#X =O&93*;= ..oo  &",
" o .+<390+%XXO+<3*56;#X0+o$o$ooooo =:<9830&3<:*293<2<5<<>:*6+XO.=O03*1#X.o  oooO",
"ooo X-2:22-OO#822557@O;8 ,ooo$oo .&;-17>*::*4;32>>55*:22>::6+## ##0<6@..X   oo$.",
"$o   %746:28+@82*5>7++<; ooo$o$$oooo,.%1;;;@&0:571176*292:*6;=O.##0:4# X..   ooX",
"$oo @-;O+7:2<4925><<:**;   oo$ooooo oX.@# X#@:61+&#;165:22<*1@=X#%9:4O.#X   o $.",
"$$$%;O. X&1*<<q**:>>6188X  $,$oo$$ X.  %O O&36;&#X.%+;6>*<3<6+&#O+9*-..X.o  oo,.",
"@&@8;@+@++-6292*>5661;-:-@@&=&=&&==%+@+-;++-*4+@%%@%+-465:2<>7-;-92>1%@++@@%%%&@",
". +%%=#O#=+793*55711+%%+<=O oo o o.X  o@@.%:7%#X.OXXO+--66:<:61+13*7%OO==O##OO.#",
", @O.   XX@2q2>57;@@XXX.-8&o,,oo$o ,$o,&OX3*;X . oo$$%&=;1><3*413<>;X. . o.Xoo$.",
",&%..  .O&132*56-=#%. ..=8-oooo$o# o .o%&371@  .  o$ #oX%@7<9<*:<>7@..X=X o. o =",
"O#   .  @892*>>4;XX=.   XO-=o oo0=ooooo%84;+#o$  o$$OX$.=&1*922:56-%. OO.   .. X",
"ooo .. #03:>:561%.X#.    o@0o X--X o$ o;1+#=#oo  o$ &.o.XO1622:5>1;OX.#=  .o  oO",
"o .. .X+9:5<:5>-#.XXX    .=3%%8-#. o o=-@XO X oo  $..  XX@;723>561-@%%@X..  . oX",
"$ X .X%025>:55>4%. XX  oo X-3<1#... oXO%% X o oooo .o  .;@+7935>:<::::8&..  . o.",
"o . .X;9<5<5>777<= XX      @<:;O.. ...o&=o. $o oo$.O.X %&X;29<>*>>6417:8;@&## $X",
"   .X@89<*>641-&88OOX  .. .O-:-XXX#=OX %= . $  ...#  .@&.=893*5>74+#O%-*8O. .O O",
"O.O=+82<>56-;;;.@4-#. . ....+<-00033-@X&=  oo oo.O.$  %O&-93*561++#XX#.;4%  oXX#",
";;-332>>>61+&+@ =@8;X    ..=33:****6::-+# .    o    ..@&;33*5>1+%+OX.#.O@-=  .X+",
"8992*>5:>7;%#@% O=@<&....#&09*>411;%;-18;XX.o  ooo .XO;132>>>7;&&@XX.O.O.#@X.X#-",
"9<*5564<>7+%X%=o.##<8=O#OO-9261%X&%X#=%--&#.      X=+-8225>*7-@##%&X.O.XX##&XX+3",
":5>7411<61@&.%O$ XX-<30%#&33>-+#...  . @@O@O     X=-299<>5*>1+&XOXX@#.. .#X&&+32",
"5>4-;-4<61@#X%=..O#@7:281;9<6;@&#XXO&#O+@=#&XXXX#@-332:>56*6-;@=#=X%+OO##==%-39*",
">41;-44:*4;+%+;&%@;++1*32<3*6--;@%%@+++-;&&%&&%%+423:>5>67*61;;@%%%%-;@+;+;833*5",
"1@O.&@@4*1X o=#ooXOo.O1:392>1=&.o$$$$o,=%o.....O+33*556718*1+#=.  ..=& O##;99>>6",
"%X. #%X;:7O. =O  O. .O=1><2*4%%X.    oo=#.O#=@+-22>5>*7<<:51@&#..XXX%%X#&;39*544",
"=. oOO.%8<;. #OooO..  =@4*3<7@&. o$oo o=O XO;33<*55>**>*6*:4&&#   .X#@X%;33*56;-",
"X  XX .X;<28##=  X.X  O=%7:<*-&. o$ . o=# O+3<>55>>>>67-;7:<;=#..#OX.+;32<*571@;",
"    X   =4::10&  .   .OXO;*3:7@#X.  . o== &82>>5>>711;+=#%4<2;&O=#.XO;32*>56;+=%",
"X   .. XO+-<;+;#. o  .#O=%4<2*;=X..   o%%X;2<*>5*64;;&&OXX%7<298+.#O=-9**561@%O#",
"X    ....%O;8+@    ..=0098<:2:6-%#.. .o%&&8<>567*7;&+=#O..#@47<<4&==+32*561;%=X=",
"o  o ..  #. ;8& ooOOO9<*:***<29328@XX. +@-2*54-:71&O%#O.  O.&%1:<-@@-2:561++==X&",
"ooooo .  #.oO-+.OX&@0:7--416>>:22<4%#O%;83<57+-*-;=XOOX.  X O==837-;83*54-%%##.#",
"$o  o  o.X#Xo@& XX02:4%&#&O;7765><<4+@;73256;%87%@#..XX.  X X%&1:227:2>61;=OO# =",
"o  o    X..#.%O  @:71%## #X%+%;46*2:7182<5>4@=<4=@#..X   XX XOX#7*33*<>6-+&OX#.&",
"o.. . ...   X%X #87%&==  #O#%X#+-6*2:2325>41@=84==#.....X.O&. ..+7>:3<>>4+&##=.%",
"oX=O. . . o #@. +:;X&%. .#X.#XX=+15<32*557-;%#-4=#X....XXo.% .XX#+7*3255:8@OXO.%",
"  X%=...    X;X @*;X%X . X..OXX#;8:*>>5561+@=#-8=OXXX..O  O&  .XO%1::<5617<-&##%",
"+@@+---+@@@@@1-@;*4;;+@@@+++;+;42:>5555*>4-1-;4*1;;+;;-;+++-+++;-47<:>5>117*:1-1",
"X .X %-O. ..o;&o&:4+OX...O..XX@2*611446:*-@%=O->1=OXX =O.. #. O#+%12:>>6+%=+7-&+",
". .OX.;@..X  %XX%8:+OO..XXXOO%9<6;%%++16*4@#O%-8-#OOX.X#  .# .X&@+-25>*4@==#;<+@",
"  XXXX@-X.X  %..&8:%X#X.XXO%03*51%#O&=%16:8@O;@-8%OXOX.O  .= .O=@83>56*7@XXO=88+",
"# .#OXO8@..  %..@:7&XXXO@%03<*644@OX#X.@;1*4-+X+78%.XX.#. X=.XO%-2>514*4%OX##@48",
"80&00@&+8%X. %X.0:4=XXO@22:*>61&%;@X#X @&&1:7&O&;4<=OO =# @#.O@33>>4@+*4@O..##%<",
"*::::<8%:-.. %.O3*-=##;3:>64+&;@XO==X. %&X+:<+==%+:-O=..+%@&@082*6-+&&7*8%O=X.X;",
";--114:1<8X..@OO-*+XO%3<54%#O X@&X.O.. &=X-7:8---@84OOX.=--2::*<>1%&#O1448%XXOX%",
"=#O##+:6:1X..@XO-*-#+-3>6;==#XXO&.XX.X &#@1&4*:<33<*@##O&8<>67::6;O#OO--%<&..XX&",
"O###O%:*:;X. @OX;:7-33:>::;=#X. OX.X . &;;=X%47>*2<*1%&#+<>4-8*57&XOX=@;O1-..O.=",
"XXX.X&<:6+XX %=X+2*32*>66>*-#OX....X.  &+X.X#@%116<2*-%=;:6-3*641=XX#X=+.&-%...=",
"%XX.#=1<*@XX.+%#@32:561-@+4<@XXXXX.X..o&O ...==%=1:3*7++-:>2*>1+;#XOO =+ #%@%X#+",
"O&%X##;2>-.#O@=#@3<561@%=O%88=. ...XXX %O .. ##O#%72:>---<<*56+=+OX . =@ X#O&=#%",
"XOO@&O-:>1%=.@O#;2*>1;%%##=%4<0&&#.... %O ...=XOO=-*:54183:544+X%X.X..#%o.XXX.X%",
"#OO&+;-<*1&#.@O#-256;@%==XO#@44744+OX. %# ...##X&08*::64825>-+-%=X .. O% .#XXXO%",
"=O&+;++2*4&#X@O@1<56+%%#=OXOX%&@&+4+XO.@#o.. O#@8::><9*><356;&&+#. .. #@..OXX##@",
"0;8<<;83*4%=X%;--<>7888-%==##=#=X.%-#X.%# .XO@-411;7:3<><257+=#&#X.XX.=@.X=O==%-",
"77476*<3*7%##--%-<**>617-&=###O&OXX@+# %=.X.%-;;%&&;6:<*<<54@=O#OX.XX.#+X##=03<*",
";@%%+4><*6;&@-%@-<56;;@+;#OO##OOXXX### %#..#%#O#O##+6*:*2<>7%#O=..X...=@X=%-2*66",
"-+;;+;6*:>71;1182:57;;++-;+@@@%%%%%@@%%++@+;@%%%%%@16*<5:<>7-+++&%&&%%+1+-82*611"
};
