/* XPM */
static char *result[] = {
/* columns rows colors chars-per-pixel */
"80 80 25 1 ",
"  c #916C31",
". c #936F35",
"X c #5A1C0A",
"o c #8C682F",
"O c #967239",
"+ c #92682A",
"@ c #621F0A",
"# c #916324",
"$ c #854611",
"% c #692409",
"& c #702A09",
"* c #884E14",
"= c #8E5E20",
"- c #89622A",
"; c #813E0D",
": c #7B370B",
"> c #76310A",
", c #8A5418",
"< c #8D591C",
"1 c #835C25",
"2 c #51190A",
"3 c #7E5520",
"4 c #7A4D18",
"5 c #99763D",
"6 c #774312",
/* pixels */
"%@&;6>>>&;&@X222@%%X@&%@&$<,$,*;,<=#+++3-5.##+o#<*66;:&&@XX2222@X2X@>%&:$:64*34>",
">%&;$>;&:$:%@XXX@%&@%@@%>:<##;;<=+  +.5-.5. .O+##,=,;$>%@XX222XX@XX@>&:$,<,==--6",
":&&:&>;%:$%%@XX@%&>%%%@%;*<#=<*+   . O5-.5O.OO +<<+*%>@XXX22XXX@@@X%:>,,,$<<#o=4",
";>>:%;,>%:%%@@@@%>&%%%@&:$$***= O++OOO51 555... ,;;&@@%&XX22XX@X&@%>>$,;;$==+#+4",
";:;$&&&&:>&%@%@@&&%X%@&&>>$<;$,<O+#OOO5- 555.++ *:&X@@@;%XXX2X&%%@%&&;*;;<##++.1",
"*:;=$&&&>&@@@@X@>&&@%@>:>;;,#<*<O +55551 5. .,,+*:%@@X@%@XX2XX@&%&%&$$:>;,,<# .1",
",$$=:>:;%@%@X%@X%%@2@%>;:::= +<+O .55.5- 5O= #=#=>%@@X@%%@XXX@@@@@>$:$;>$,,++ .1",
"#,,#*&;,&@%@@%XXX@@2X@&&&%&,+.++O5555++-o5 <,##<*&%%%@%%XX2XXX@X@><$:$;$=,<.  .1",
" =< =$*:&&%%%@XXXXX2XXX@&%:,##=+O555555-+5+++ ++;&%&%@%%XXXXX%@X@$,;$;,<+<=... 1",
" +# =,,::&&>@XXXX@X2XXXX%:*=,## OOO5555-o5. O.<=,;&;&%&@XXXX@%X@@;*$$*=*++=.OO.1",
".+ .,,<*$:>&@XXXX@X2@X@XX&;$;# + O5OO55- 5O55O,<<$:*%&%@XXX2XXX@@>$,$,##+ +.. O1",
".++ #=#=,:&@%@XXXX22@X@X@@&;:##=#O5.O55-.555O5++#$,<&:&XXXX22XXX@@&**$<#.O..  O-",
"O.=#+.<,<;&X@@XXX@X2%@@@@@@&>;$=O .O555- 555O5.++,#<::&XXXX2XXX@@%&;,;+##.OO.O.1",
"5O.+# =*=$%%@XXXX%%@%@@X@%%%*,$<.=#.O55- 5O5O5 ++##=$&%@XXXXXXX@@%%><<# + .O.OO1",
"O5O+==#*+$%&&@XX@@@X&@@X@%>&=+<+.+ OO55- 5O55OOO.+=<;%%%XXXXX@@@@@&:;:,++    OO3",
"5OOO.*,$>%>&%%@2@@X2%@@@%&;&;+<=. +OOO5-o5O5O++.+<:,:%X@@XXXX%&%%&>,>%* +.O.#.O3",
"5O55O<;*;>;>@%@2@@X2@X@&>>;:$#<<.+=..O5-o5O5OO +#<$>&&@@@X@@X%:;%&$,:$<.# .OO..1",
"55OO+,&:<,:>%@X2@@X2&XX&;:$$*,#+O#<O .5- 5OO.O.===*;>&&@XX@@X>;*&><#*,=+ + O.O.1",
"555 =$:;**;&@X22XX@2&%X>*$;<###OO. 55O5- 555 O#<#=$*$>>@@@@X%;$,:$,=*$,+.+ 5O5.3",
"11134446::&%@2222222%@2%6>>44631113331-43-1111314$:&%@&X2222X&:664446:6433111336",
"-# +=o=**,:>%XX22@@X&>%&$;$*$,=-oo -ooO1-. ++. #$<;:&@@XX%XXX%;*:$,<$;*,1 oo -=6",
"5OO#<5<:*<;&&@@2XX@@$;::*;==$=.O555O.551 555O5O $#*;:@@@@&@XX@:#$*#+;$< OO OO+ 4",
"OOO,$,:$*$>&%XX2@@X%,*::*;##,#+.O.O5o.51 5OO.OO.#<;:>%%@%%XX2@>=$*##,,<+O.OO++.4",
"O #*:>:,*;>%@X22X%X@*$;:*:# ##+O5OOOO O-o55. O+++=;:%%@@>&%@X::,;*=##=< .OOOOO.3",
"OO $>&;=*$>%@X22X%X@,=,$,;+.  OOO++O.OO4-OO .5.+<*;>XXX@;:>%X,:,;,==o#< .OO .OO1",
"5O.#;&$#*,;>:@22%%@@,=,,#*+O=+OOO##OOO541O..55O *:>:&@%%;$$&@*$+*=+  =<..OO .OO1",
"5O +$;*+*$$:;%X2%>%@*$,=#,#.==OOOOO55O 3- O5OOO <;;**>>&;*$&%$=+$< + += . .....3",
"5O.#*,,+<=<$*&X2&:&%$$<=+<#. +..OOOOO++3-5OOOOO+<$$,*;>%;*;%&:<+;*+   =  +.OO O1",
"OOO#,+#++ =*<:%X>;$>;*==+,#OO+ .OOO....4-O..OO =<*$,*;&%>;;%&$=+*<# . # -- .O..3",
"OOO#<+#++.=<#$>@;*=:$<=<#*=O. .O...... 4,#+..O ++=*=,$>%&;$%%$#.*=+- .+o31oo  O1",
"55. +++...+==*:&*,,:*#+  =+OOO.O#+ #+ #6*+#+ O O #<=**>@>,$&&*#.,= ooo -11--. .1",
"5O....+ . #=#,;>*<*6##+OO  .OO..+##=.#<>*=,*  . + <+=$>@$,:;:<#.<=  .oo  =<-...1",
"5OOO.O  . ###,;%*<=4 ## .++.O  O #,==::>*=,*=.    <+=<:%***66=+ <= o. ,*<-++o  3",
"O. .O....+# +*;>$=#4 =#+ + ..++#-=++=:&@;<$>$  ...#+<,:&**<66=+ ,= o ,>%;,;,<#.1",
"55O o...O+# +$;>,+<4.#=+.  OO+ -,==**:>%:;$;;<#++ #+,$&&<<=*>$ o<=o.<::%&;&*   3",
"OOOO. ...=+  *$&,+=4  + O+   =#O**<;&::>;:>$$#O.++++<*&&<=#36,  #-o #;;>%%&:< +3",
"5O.OOO   =+++,,:*##4+++..+ ###<=$>>&&::&;>%:$+OO  + =<::*,#44#+.#o -o<;%@%>>*oo3",
"O..OOO. Ooo  <<$*=+4###o ++#<#$:&%%@@>:%>&:**,, + #+==;:,<+33+# #oo 1<:&@%:$*- 3",
"555OOO .5.#..=+,++#4#+#+.  ##*;;>%%%%@%@&%:$;,,##. O+#$:<<.13+  #++ 1,$>&%$,,<+4",
"1-131341114334363136313113333>>>%@@XX2XX%@>:>433441144:>64146331333444&&%@>66646",
"1-----=--o1--4-6*o363=--o-1136;>%%&XXX22@%%&&$4-11-3*1::,4-66----134*&&%%%>66646",
"OOOOOOO.  +  =#$+.#6  ..O =#+,$>&@@X2X@2X@@%%>*+ .O.+ $$#= *3...#+=<#;;>:&;,=<=4",
"O..... ..##=+#=*+ +6#. +. #,#=;:;@XX22X2X@XXX:<-#   ++$$<<+11.  ###=-$;;;%6<=,=4",
"...O.O...++=+#+,+. 4   .  +$*+$$$&@@2X@XX@XX@$#o+   ##**#= 13.. #o =-*;$$>*=-<=4",
".   +.o ###+++#,+ +3 #   #==*<*$$>%@@%%X%%%@%*+  #+O#+**#=.13   #o -o<*$$$,#-=+4",
"O ##+ +==,#++#<*o #3O    +# #,<$$:@@%&>%>>&%><=+## .++$*##O13  O   oo=,,;;<oo- 3",
"..+#= =<=$= o=,*+#=4++# .  ####$$:%%&:*6>:&>:===#+. #+**+ O-4 ... o-o=,,$;=#oo+3",
"O.#+*,=,#<<-+=#, <=3+=<<o# ## <$*$>:>;*4$*>;;= +=+..#+*,+ .-4+.O.. o-<<=*$=#o  3",
"    ,*<*=#,,=+#*+$*6 #$:<# oo #,<*::&;,43<:$$=++#  O #:$= O-1 oO..  o=#=**#=o +4",
".. -##,;,<*>,#<6<,,6,<<:*#<*# +<=<;:&$<43#;$*<+++...#<:;, O-1.-    oo##<$,+#  o4",
"O. +===*==,:&*,$o#*6***$*+*,+  #+,;,:,#43#$*<=+ ..OO =;**- 11. .. --#o+=*=o  o 3",
".+*,-,;>;;$:&&&%*,;&:;;$$#*<   o+,$=$<-63=$,= ..OO   #$*#  31OO.. =-o  #,=oo o 3",
".=*,**%&&&:&>%@%&$:@&:;<=,<<#+++ ,$#*, 31+,<# . . = o=$$#OO1-O. o #-=oo+,=oo   3",
".  =&>&%&&>&&%@@%:%X>:>*,<<*=++##,*#*#.31+,=+ .. oo o+$*#OO-1O.oo=*-#oo =#    o4",
"## =;:>&&&>&%@XXX%%X&>:$>:;&,<<=+#<+<+ 31#,= ...oo..  ;$+.O-1.   **oooo =- o . 4",
".o-==;%>&X@XX22X2%&@&>$$::&&;;;*o+#+<+ 31+=#..O. .... $$+.O13+ -,**ooooo=-oo o 3",
".o-o-6>:&@XX22222X@X%&$$>&&>$,,+ += =+.31+#+.O..+ .. o**+.O13#=o<<,-oooo-oooo-o3",
".<==,=$:>%XX22222XX2@%&&%X@:,#<oo=< # .31 ## .. - ..o#;$# .34#<-*$=-oo-o-oooo-o3",
".36<,,:%&&%X22222XX2XX@%@%&$==<+++# +.O3-.+ ..O -... =$$# .64<<**==o .#oooo    4",
"336446&X@%%XX222222222@X@&>6464343313116313111113111334:3346666>6444434133333336",
"1-343;&%@@%@X2222222@X@@%>&>:6464313111441331111111-114:3336&:>>6:64134131333346",
"oo-==,:%%%@XX2222222XXXX&;$:;$-=#+++  .11#==oO. o#. o.,;<<#46*:::$$o.-,ooo---o=6",
"o -*,,>%XXX@@X2222X222X@&,*&>$=o-==oooo11o1-. o -ooooo*$=,,64*>%&>$-o3,oo------4",
"ooo$>;>@@X@@XXX22XX2X2XX%$$>:#=<o#=oo  1- 1 .  . o#o-o,$=#363*%>::$<<,*-- o-o-o4",
",-o$>$;@@XXXXXXX2XXX%XX%%;*;$o--oo--o O1- oo  . O-1ooo,$=<344*&;:;;,<**o-oo---o3",
"#-o=$=:%%@@@XXXX2XXX%@%&%>;$$o<-ooo o O1o ..   oo+=1-=<;,*4>6*%$,**1*;6 <,ooo-o3",
"o---*,;&&&>&@@XXX@%X%&&%&>::,-<ooooo  .1-  .  o o-o1,<<$$;;&>*>$*,=,>;*=;$-oooo3",
"---<;$;&>&>&@X2X@%>X&;;>>:*$$#-o--ooo.O1-  o  oooooo1-,**;;&&;>:$*1*;$13;;*o-1o3",
"=--1**;&:::&XXXX>&&@&$*:>*,$;<<-oooo o.1- ooooo*= o-o3;6$>*>%%@&$$*:;,13$:*oo=-4",
"-1-1**$>;$;:>2@@&>>X>,<:>*=*$,*ooo  . .1- ooo o,=o-1-,%6*:$&@@%:*<$;$:*64*-oo--4",
",1oo*$*;;;:;:@%%%>:%>,<;:,<<<<,   o . O11 .-o o-oo=,,,::*;>%XX%$$*:;$:$>*-ooo-<4",
",-oo;$<6$$$;>%%@&;:%>*=$;=<<,=<oooooooO1- oo  o-o,$,;::%>:>X2X@:;;>::&>>;$1-o-14",
" o--$<-*:;$>>&&%>;$>:*=*;-=<,<-.o  .ooO31-o o---o*$*>&&%::%@X@X>>>>;&@%>;41331-4",
" -o=,--*6;:&&&%@%:*::*3*;11=<<-  o ooo.31.oo-,--=*$;&&:%:$%X@%X&;;%%%@%>*-o-3-16",
"---3,--*,$;&%&%@&;$>6,$*;--1<<=ooooo  .31 oo1=1--,$;%&&%&>@2X@2@>&XX&&>:$1113--3",
"--1*<--3*;;:%&&X%&:&$,$*:3---=-o---ooo.3-.oooo,1o,1$&&%@%@X22XXXX@%@:&:$$11111-4",
"o-1,311,<$$:&>&2@%&&$*$;:,111--o-1ooo  3-.oo1-=--1-*&%&%@XX22X2X@X@%;>6;414343-4",
"-111,33336*;&%@X%&:>::$::1-11-1----oooo3-oo-,1-11-1*:>&@%@X2222X%X@>,>6>6133*416",
"111313;*,:;$>X@X>>%%>%;;;1-1<11=-o-oo1o3-ooo-o-1<,1*>$>%&@22222X@XX>$>6*43111336",
"646>44:66&&&@XX2X&@2@%&>&664446433334334433313344444&6>@%@22222222X@%@>66646666>"
};
