/* XPM */
static char *result[] = {
/* columns rows colors chars-per-pixel */
"80 80 113 2 ",
"   c #2D3F38",
".  c #393E34",
"X  c #4E382B",
"o  c #563626",
"O  c #583727",
"+  c #543825",
"@  c #5A3927",
"#  c #563628",
"$  c #553D28",
"%  c #5E3C29",
"&  c #443E33",
"*  c #4A3D31",
"=  c #603D2B",
"-  c #1F403A",
";  c #544329",
":  c #5D452B",
">  c #564C2C",
",  c #5B4D2C",
"<  c #65422F",
"1  c #654330",
"2  c #6B4734",
"3  c #6D4936",
"4  c #714D39",
"5  c #76523E",
"6  c #616F3A",
"7  c #014342",
"8  c #024D4C",
"9  c #00504F",
"0  c #015151",
"q  c #0C5350",
"w  c #045D5D",
"e  c #03605F",
"r  c #057372",
"t  c #34766E",
"y  c #7F5944",
"u  c #805844",
"i  c #845F4B",
"p  c #89624E",
"a  c #8D6652",
"s  c #906B57",
"d  c #956F5A",
"f  c #986E59",
"g  c #96715C",
"h  c #9B735D",
"j  c #967A5C",
"k  c #9B7B5E",
"l  c #A1765F",
"z  c #9E7560",
"x  c #9E7B62",
"c  c #9C7C6C",
"v  c #A17761",
"b  c #A57B64",
"n  c #AA7D66",
"m  c #A77D68",
"M  c #AA7E68",
"N  c #7C8777",
"B  c #758879",
"V  c #7A8C7C",
"C  c #96826D",
"Z  c #9C826D",
"A  c #818E7E",
"S  c #938471",
"D  c #A3806A",
"F  c #AC8069",
"G  c #A58170",
"H  c #A6887A",
"J  c #058C8E",
"K  c #019E9F",
"L  c #169A97",
"P  c #129A9A",
"I  c #189E9D",
"U  c #31958F",
"Y  c #249791",
"T  c #3A9E97",
"R  c #36A099",
"E  c #019EA0",
"W  c #02A3A4",
"Q  c #02A7A9",
"!  c #01ACAD",
"~  c #09ADAD",
"^  c #1BA7A4",
"/  c #1AA8A5",
"(  c #01AFB0",
")  c #518F84",
"_  c #4C9086",
"`  c #55978C",
"'  c #5D9489",
"]  c #439C94",
"[  c #718E80",
"{  c #9F8A85",
"}  c #AA8F86",
"|  c #AE9085",
" . c #AC938E",
".. c #AC9592",
"X. c #A2969B",
"o. c #AC999B",
"O. c #B09C9C",
"+. c #A499A0",
"@. c #F6FB86",
"#. c #FBFF86",
"$. c #F7FB8B",
"%. c #FBFF8C",
"&. c #F7FB91",
"*. c #FBFF93",
"=. c #FBFF9B",
"-. c #FCFFA3",
";. c #FDFFAB",
":. c #FCFEB4",
">. c #FCFEBB",
",. c #B3C5EC",
"<. c #FDFEC3",
"1. c #FDFECA",
"2. c None",
/* pixels */
"2.2.2.2.2.2.2.2.2.2.2.2.2.2.2.2.2.2.2.2.2.2.2.2.2.2.2.2.2.2.2.2.2.2.2.2.2.2.2.2.2.2.2.2.2.2.2.2.2.2.2.2.2.2.2.2.2.2.2.2.2.2.2.2.2.2.2.2.2.2.2.2.2.2.2.2.2.2.2.2.",
"2.2.2.2.2.2.2.2.2.2.2.2.2.2.2.2.2.2.2.2.2.2.2.2.2.2.2.2.2.2.2.2.2.2.2.2.2.2.2.2.2.2.2.2.2.2.2.2.2.2.2.2.2.2.2.2.2.2.2.2.2.2.2.2.2.2.2.2.2.2.2.2.2.2.2.2.2.2.2.2.",
"2.2.2.2.2.2.2.2.2.2.2.2.2.2.2.2.2.2.2.2.2.2.2.2.2.2.2.2.2.2.2.2.2.2.2.2.2.2.2.2.2.2.2.2.2.2.2.2.2.2.2.2.2.2.2.2.2.2.2.2.2.2.2.2.2.2.2.2.2.2.2.2.2.2.2.2.2.2.2.2.",
"2.2.2.2.2.2.2.2.2.2.2.2.2.2.2.2.2.2.2.2.2.2.2.2.2.2.2.2.2.2.2.2.2.2.2.2.2.2.2.2.2.2.2.2.2.2.2.2.2.2.2.2.2.2.2.2.2.2.2.2.2.2.2.2.2.2.2.2.2.2.2.2.2.2.2.2.2.2.2.2.",
"2.2.2.2.2.2.2.2.2.2.2.2.2.2.2.2.2.2.2.2.2.2.2.2.2.2.2.2.2.2.2.2.2.2.2.2.2.2.2.2.2.2.2.2.2.2.2.2.2.2.2.2.2.2.2.2.2.2.2.2.2.2.2.2.2.2.2.2.2.2.2.2.2.2.2.2.2.2.2.2.",
"2.2.2.2.2.2.2.2.2.2.2.2.2.2.2.2.2.2.2.2.2.2.2.2.2.2.2.2.2.2.2.2.2.2.2.2.2.2.2.=.*.*.*.*.*.=.-.2.2.2.2.2.2.2.2.2.2.2.2.2.2.2.2.2.2.2.2.2.2.2.2.2.2.2.2.2.2.2.2.2.",
"2.2.2.2.2.2.2.2.2.2.2.2.2.2.2.2.2.2.2.2.2.2.2.2.2.2.2.2.2.2.2.2.2.2.2.=.*.*.%.*.*.*.*.*.*.*.%.*.=.=.2.2.2.2.2.2.2.2.2.2.2.2.2.2.2.2.2.2.2.2.2.2.2.2.2.2.2.2.2.2.",
"2.2.2.2.2.2.2.2.2.2.2.2.2.2.2.2.2.2.2.2.2.2.2.2.2.2.2.2.2.2.2.2.2.2.*.%.%.*.*.=.=.=.=.=.=.=.=.*.*.%.*.=.2.2.2.2.2.2.2.2.2.2.2.2.2.2.2.2.2.2.2.2.2.2.2.2.2.2.2.2.",
"2.2.2.2.2.2.2.2.2.2.2.2.2.2.2.2.2.2.2.2.2.2.2.2.2.2.2.2.2.2.2.2.=.#.*.*.=.=.-.-.-.;.;.;.;.;.-.=.=.=.*.%.=.2.2.2.2.2.2.2.2.2.2.2.2.2.2.2.2.2.2.2.2.2.2.2.2.2.2.2.",
"2.2.2.2.2.2.2.2.2.2.2.2.2.2.2.2.2.2.2.2.2.2.2.2.2.2.2.2.2.2.2.*.%.*.*.=.-.;.;.:.:.:.>.:.:.:.:.;.-.-.=.=.%.*.2.2.2.2.2.2.2.2.2.2.2.2.2.2.2.2.2.2.2.2.2.2.2.2.2.2.",
"2.2.2.2.2.2.2.2.2.2.2.2.2.2.2.2.2.2.2.2.2.2.2.2.2.2.2.2.2.2.*.%.*.*.-.;.;.:.:.:.:.=.=.=.=.:.>.:.:.;.-.=.=.*.*.-.2.2.2.2.2.2.2.2.2.2.2.2.2.2.2.2.2.2.2.2.2.2.2.2.",
"2.2.2.2.2.2.2.2.2.2.2.2.2.2.2.2.2.2.2.2.2.2.2.2.2.2.2.2.2.*.%.%.=.-.;.:.>.-.&.@.@.@.@.@.@.@.@.&.;.>.:.;.=.=.%.*.2.2.2.2.2.2.2.2.2.2.2.2.2.2.2.2.2.2.2.2.2.2.2.2.",
"2.2.2.2.2.2.2.2.2.2.2.2.2.2.2.2.2.2.2.2.2.2.2.2.2.2.2.2.*.%.*.=.-.;.>.<.=.@.@.@.@.@.@.@.@.@.@.@.@.=.<.:.;.=.=.*.*.2.2.2.2.2.2.2.2.2.2.2.2.2.2.2.2.2.2.2.2.2.2.2.",
"2.2.2.2.2.2.2.2.2.2.2.2.2.2.2.2.2.2.2.2.2.2.2.2.2.2.2.2.%.%.*.-.;.>.>.$.@.@.@.@.@.@.@.@.@.@.@.@.@.@.$.>.:.;.=.=.*.=.2.2.2.2.2.2.2.2.2.2.2.2.2.2.2.2.2.2.2.2.2.2.",
"2.2.2.2.2.2.2.2.2.2.2.2.2.2.2.2.2.2.2.2.2.2.2.2.2.2.2.*.%.*.=.;.<.>.$.@.@.@.@.@.@.@.@.@.@.@.@.@.@.@.@.$.<.:.;.=.*.%.2.2.2.2.2.2.2.2.2.2.2.2.2.2.2.2.2.2.2.2.2.2.",
"2.2.2.2.2.2.2.2.2.2.2.2.2.2.2.2.2.2.2.2.2.2.2.2.2.2.2.#.*.=.-.>.<.=.@.@.@.@.@.@.@.@.@.@.@.@.@.@.@.@.@.@.=.>.;.-.*.*.=.2.2.2.2.2.2.2.2.2.2.2.2.2.2.2.2.2.2.2.2.2.",
"2.2.2.2.2.2.2.2.2.2.2.2.2.2.2.2.2.2.2.2.2.2.2.2.2.2.*.#.*.-.:.<.-.@.@.@.@.@.@.@.@.@.@.@.@.@.@.@.@.@.@.@.@.;.>.-.=.&.*.2.2.2.2.2.2.2.2.2.2.2.2.2.2.2.2.2.2.2.2.2.",
"2.2.2.2.2.2.2.2.2.2.2.2.2.2.2.2.2.2.2.2.2.2.2.2.2.2.%.%.=.-.>.>.$.@.@.@.@.@.@.@.@.@.@.@.@.@.@.@.@.@.@.@.@.&.>.;.-.=.*.=.2.2.2.2.2.2.2.2.2.2.2.2.2.2.2.2.2.2.2.2.",
"2.2.2.2.2.2.2.2.2.2.2.2.2.2.2.2.2.2.2.2.2.2.2.2.2.2.#.%.=.;.<.>.@.@.@.@.@.@.@.@.@.@.@.@.@.@.@.@.@.@.@.@.@.@.>.:.-.=.%.=.2.2.2.2.2.2.2.2.2.2.2.2.2.2.2.2.2.2.2.2.",
"2.2.2.2.2.2.2.2.2.2.2.2.2.2.2.2.2.2.2.2.2.2.2.2.2.*.%.*.=.:.1.-.@.@.@.@.@.@.@.@.@.@.@.@.@.@.@.@.@.@.@.@.@.@.;.>.;.=.*.*.2.2.2.2.2.2.2.2.2.2.2.2.2.2.2.2.2.2.2.2.",
"2.2.2.2.2.2.2.2.2.2.2.2.2.2.2.2.2.2.2.2.2.2.2.2.2.*.%.*.-.>.1.=.@.@.@.@.@.@.@.@.@.@.@.@.@.@.@.@.@.@.@.@.@.@.=.>.;.=.*.*.2.2.2.2.2.2.2.2.2.2.2.2.2.2.2.2.2.2.2.2.",
"2.2.2.2.2.2.2.2.2.2.2.2.2.2.2.2.2.2.2.2.2.2.2.2.2.%.%.*.=.<.1.&.@.@.@.@.@.@.@.@.@.@.@.@.@.@.@.@.@.@.@.@.@.@.&.>.;.=.*.*.2.2.2.2.2.2.2.2.2.2.2.2.2.2.2.2.2.2.2.2.",
"2.2.2.2.2.2.2.2.2.2.2.2.2.2.2.2.2.2.2.2.2.2.2.2.2.*.%.*.-.>.1.&.@.@.@.@.@.@.@.@.@.@.@.@.@.@.@.@.@.@.@.@.@.@.*.<.;.-.*.%.2.2.2.2.2.2.2.2.2.2.2.2.2.2.2.2.2.2.2.2.",
"2.2.2.2.2.2.2.2.2.2.2.2.2.2.2.2.2.2.2.2.2.2.2.2.2.%.%.&.=.<.1.&.@.@.@.@.@.@.@.@.@.@.@.@.@.@.@.@.@.@.@.@.@.@.=.<.;.=.*.%.2.2.2.2.2.2.2.2.2.2.2.2.2.2.2.2.2.2.2.2.",
"2.2.2.2.2.2.2.2.2.2.2.2.2.2.2.2.2.2.2.2.2.2.2.2.2.*.#.*.=.>.1.=.@.@.@.@.@.@.@.@.@.@.@.@.@.@.@.@.@.@.@.@.@.@.;.>.;.=.*.%.2.2.2.2.2.2.2.2.2.2.2.2.2.2.2.2.2.2.2.2.",
"2.2.2.2.2.2.2.2.2.2.2.2.2.2.2.2.2.2.2.2.2.2.2.2.2.*.#.*.=.:.<.:.@.@.@.@.@.@.@.@.@.@.@.@.@.@.@.@.@.@.@.@.@.@.:.:.-.=.%.*.2.2.2.2.2.2.2.2.2.2.2.2.2.2.2.2.2.2.2.2.",
"2.2.2.2.2.2.2.2.2.2.2.2.2.2.2.2.2.2.2.2.2.2.2.2.2.2.#.%.*.;.<.>.$.@.@.@.@.@.@.@.@.@.@.@.@.@.@.@.@.@.@.@.@.$.>.:.-.=.%.=.2.2.2.2.2.2.2.2.2.2.2.2.2.2.2.2.2.2.2.2.",
"2.2.2.2.2.2.2.2.2.2.2.2.2.2.2.2.2.2.2.2.2.2.2.2.2.2.%.#.*.-.>.1.=.@.@.@.@.@.@.@.@.@.@.@.@.@.@.@.@.@.@.@.@.-.<.;.=.*.%.=.2.2.2.2.2.2.2.2.2.2.2.2.2.2.2.2.2.2.2.2.",
"2.2.2.2.2.2.2.2.2.2.2.2.2.2.2.2.2.2.2.2.2.2.2.2.2.2.%.#.*.=.;.<.>.$.@.@.@.@.@.@.@.@.@.@.@.@.@.@.@.@.@.@.&.>.:.-.=.*.%.2.2.2.2.2.2.2.2.2.2.2.2.2.2.2.2.2.2.2.2.2.",
"2.2.2.2.2.2.2.2.2.2.2.2.2.2.2.2.2.2.2.2.2.2.2.2.2.2.2.#.%.*.-.:.1.:.@.@.@.@.@.@.@.@.@.@.@.@.@.@.@.@.@.$.<.>.;.=.*.%.*.2.2.2.2.2.2.2.2.2.2.2.2.2.2.2.2.2.2.2.2.2.",
"2.2.2.2.2.2.2.2.2.2.2.2.2.2.2.2.2.2.2.2.2.2.2.2.2.2.2.%.#.*.=.-.:.1.;.@.@.@.@.@.@.@.@.@.@.@.@.@.@.@.@.:.<.;.-.=.%.#.2.2.2.2.2.2.2.2.2.2.2.2.2.2.2.2.2.2.2.2.2.2.",
"2.2.2.2.2.2.2.2.2.2.2.2.2.2.2.2.2.2.2.2.2.2.2.2.2.2.2.2.#.#.%.=.-.>.1.:.$.@.@.@.@.@.@.@.@.@.@.@.@.$.:.<.;.-.=.*.#.*.2.2.2.2.2.2.2.2.2.2.2.2.2.2.2.2.2.2.2.2.2.2.",
"2.2.2.2.2.2.2.2.2.2.2.2.2.2.2.2.2.2.2.2.2.2.2.2.2.2.2.2.*.#.%.*.&.;.:.<.>.=.@.@.@.@.@.@.@.@.@.$.=.>.<.;.-.=.*.%.*.2.2.2.2.2.2.2.2.2.2.2.2.2.2.2.2.2.2.2.2.2.2.2.",
"2.2.2.2.2.2.2.2.2.2.2.2.2.2.2.2.2.2.2.2.2.2.2.2.2.2.2.2.2.%.#.%.&.=.-.;.>.<.>.;.=.&.$.$.$.=.;.>.<.>.;.-.=.*.#.%.2.2.2.2.2.2.2.2.2.2.2.2.2.2.2.2.2.2.2.2.2.2.2.2.",
"2.2.2.2.2.2.2.2.2.2.2.2.2.2.2.2.2.2.2.2.2.2.2.2.2.2.2.2.2.2.#.#.$.*.=.-.-.;.:.>.<.1.1.1.1.<.>.:.;.-.=.=.*.%.#.=.2.2.2.2.2.2.2.2.2.2.2.2.2.2.2.2.2.2.2.2.2.2.2.2.",
"2.2.2.2.2.2.2.2.2.2.2.2.2.2.2.2.2.2.2.2.2.2.2.2.2.2.2.2.2.2.2.%.@.%.%.*.=.-.-.-.;.;.;.;.;.;.;.-.-.=.*.%.%.#.=.2.2.2.2.2.2.2.2.2.2.2.2.2.2.2.2.2.2.2.2.2.2.2.2.2.",
"2.2.2.2.2.2.2.2.2.2.2.2.2.2.2.2.2.2.2.2.2.2.2.2.2.2.2.2.2.2.2.2.%.#.#.#.&.*.=.=.-.-.-.-.-.=.=.*.*.*.%.#.%.2.2.2.2.2.2.2.2.2.2.2.2.2.2.2.2.2.2.2.2.2.2.2.2.2.2.2.",
"2.2.2.2.2.2.2.2.2.2.2.2.2.2.2.2.2.2.2.2.2.2.2.2.2.2.2.2.2.2.2.2.2.2.#.#.#.%.%.*.*.*.*.*.*.*.*.%.%.%.%.*.2.2.2.2.2.2.2.2.2.2.2.2.2.2.2.2.2.2.2.2.2.2.2.2.2.2.2.2.",
"2.2.2.2.2.2.2.2.2.2.2.2.2.2.2.2.2.2.2.2.2.2.2.2.2.2.2.2.2.2.2.2.2.2.2.*.%.#.#.#.#.%.%.%.#.%.#.%.%.%.2.2.2.2.2.2.2.2.2.2.2.2.2.2.2.2.2.2.2.2.2.2.2.2.2.2.2.2.2.2.",
"2.2.2.2.2.2.2.2.2.2.2.2.2.2.2.2.2.2.2.2.2.2.2.2.2.2.2.2.2.2.2.2.2.2.2.2.2.2.*.%.%.#.#.#.%.%.=.2.2.2.2.2.2.2.2.2.2.2.2.2.2.2.2.2.2.2.2.2.2.2.2.2.2.2.2.2.2.2.2.2.",
"2.2.2.2.2.2.2.2.2.2.2.2.2.2.2.2.2.2.2.2.2.2.2.2.2.2.2.2.2.2.2.2.2.2.2.2.2.2.2.2.2.2.2.2.2.2.2.2.2.2.2.2.2.2.2.2.2.2.2.2.2.2.2.2.2.2.2.2.2.2.2.2.2.2.2.2.2.2.2.2.",
"2.2.2.2.2.2.2.2.2.2.2.2.2.2.2.2.2.2.2.2.2.2.2.2.2.2.2.2.2.2.2.2.2.2.2.2.2.2.2.2.2.2.2.2.2.2.2.2.2.2.2.2.2.2.2.2.2.2.2.2.2.2.2.2.2.2.2.2.2.2.2.2.2.2.2.2.2.2.2.2.",
"2.2.2.2.2.2.2.2.2.2.2.2.2.2.2.2.2.2.2.2.2.2.2.2.2.2.2.2.2.2.2.2.2.2.2.2.2.2.2.2.2.2.2.2.2.2.2.2.2.2.2.2.2.2.2.2.2.2.2.2.2.2.2.2.2.2.2.2.2.2.2.2.2.2.2.2.2.2.2.2.",
"2.2.2.2.2.2.2.2.2.2.2.2.2.2.2.2.2.2.2.2.2.2.2.2.2.2.2.2.2.2.2.2.2.2.2.2.2.2.2.2.2.2.2.2.2.2.2.2.2.2.2.2.2.2.2.2.2.2.2.2.2.2.2.2.2.2.2.2.2.2.2.2.2.2.2.2.2.2.2.2.",
"2.2.2.2.2.2.2.2.2.2.2.2.2.2.2.2.2.2.2.2.2.2.2.2.2.2.2.2.2.2.2.2.2.2.2.2.2.2.2.2.2.2.2.2.2.2.2.2.2.2.2.O.| G g g g g X.2.2.2.2.2.2.2.2.2.2.2.2.2.2.2.2.2.2.2.2.2.",
"2.2.2.2.2.2.2.2.2.2.2.2.2.2.2.2.2.2.2.2.2.2.2.2.2.2.2.2.2.2.2.2.2.2.2.2.2.2.2.2.2.2.2.2.2.2.2.c x M F F F F z g g h v o.2.2.2.2.2.2.2.2.2.2.2.2.2.2.2.2.2.2.2.2.",
"2.2.2.2.2.2.2.2.2.2.2.2.2.2.2.2.2.2.2.2.2.2.2.2.2.2.2.2.2.2.2.2.2.2.2.2.2.2.2.2.+.{ c z z g z g g h M M M n M n M n n n o.2.2.2.2.2.2.2.2.2.2.2.2.2.2.2.2.2.2.2.",
"2.2.2.2.2.2.2.2.2.2.2.2.2.2.2.2.2.2.2.2.2.2.2.2.2.2.2.2.2.2.2.2.2.2.2.2.2.2.2.2.i z d d g g g g g g g M n n n n n n n n M o.2.2.2.2.2.2.2.2.2.2.2.2.2.2.2.2.2.2.",
"2.2.2.2.2.2.2.2.2.2.2.2.2.2.2.2.2.2.2.2.2.2.2.2.2.2.2.2.2.2.2.2.2.2.2.2.2.2.2.2.% d h h b n l f g d d h n n n n n n n n n n  .2.2.2.2.2.2.2.2.2.2.2.2.2.2.2.2.2.",
"2.2.2.2.2.2.2.2.2.2.2.2.2.2.2.2.2.2.2.2.2.2.2.2.2.2.2.2.2.2.2.2.2.2.2.2.2.2.2.2.o 3 n n n n n h g g h h b n n n n n n n n n n ..,.2.2.2.2.2.2.2.2.2.2.2.2.2.2.2.",
"2.2.2.2.2.2.2.2.2.2.2.2.2.2.2.2.2.2.2.2.2.2.2.2.2.2.2.2.2.2.2.2.2.2.2.2.2.2.2.2.o o p n n n l F b b n n n n n n n n n n n n n n  .2.2.2.2.2.2.2.2.2.2.2.2.2.2.2.",
"2.2.2.2.2.2.2.2.2.2.2.2.2.2.2.2.2.2.2.2.2.2.2.2.2.2.2.2.2.2.2.2.2.2.2.2.2.2.2.2.# o % d n n F F n n n n n n n n n n n n n n n n n } 2.2.2.2.2.2.2.2.2.2.2.2.2.2.",
"2.2.2.2.2.2.2.2.2.2.2.2.2.2.2.2.2.2.2.2.2.2.2.2.2.2.2.2.2.2.2.2.2.2.2.2.2.2.2.2.% # o 2 F l F F n n n n n n n n n n n n n n n n n n H A 2.2.2.2.2.2.2.2.2.2.2.2.",
"2.2.2.2.2.2.2.2.2.2.2.2.2.2.2.2.2.2.2.2.2.2.2.2.2.2.2.2.2.2.2.2.2.2.2.2.2.2.2.2.% @ o % y l l l l h b n n n n n n n n n n n n n n n n j 6 2.2.2.2.2.2.2.2.2.2.2.",
"2.2.2.2.2.2.2.2.2.2.2.2.2.2.2.2.2.2.2.2.2.2.2.2.2.2.2.2.2.2.2.2.2.2.2.2.2.2.2.2.% % @ % @ p d d d d f n n n n n n n n n n n n n n n n n x 2.2.2.2.2.2.2.2.2.2.2.",
"2.2.2.2.2.2.2.2.2.2.2.2.2.2.2.2.2.2.2.2.2.2.2.2.2.2.2.2.2.2.2.2.2.2.2.2.2.2.2.2.% % % % < < a d d d d g n n n n n n n n n n n n n n n n n k 2.2.2.2.2.2.2.2.2.2.",
"2.2.2.2.2.2.2.2.2.2.2.2.2.2.2.2.2.2.2.2.2.2.2.2.2.2.2.2.2.2.2.2.2.2.2.2.2.2.2.2.% % = = % % 4 f d d d d h n n n n n n n n n n n n n n n n n k 2.2.2.2.2.2.2.2.2.",
"2.2.2.2.2.2.2.2.2.2.2.2.2.2.2.2.2.2.2.2.2.2.2.2.2.2.2.2.2.2.2.2.2.2.2.2.2.2.2.2.% @ % % % = = y d d d d d l n n n n n n n v h f f h n n n n n b 6 2.2.2.2.2.2.2.",
"2.2.2.2.2.2.2.2.2.2.2.2.2.2.2.2.2.2.2.2.2.2.2.2.2.2.2.2.2.2.2.2.2.2.2.2.2.2.2.2.% @ @ % % = = = a f d d d d n n n n n n z f f d d d g n n n n n D 2.2.2.2.2.2.2.",
"2.2.2.2.2.2.2.2.2.2.2.2.2.2.2.2.2.2.2.2.2.2.2.2.2.2.2.2.2.2.2.2.2.2.2.2.2.2.2.2.% @ O % = @ = @ 3 s d d d d g n n n n n M h d d d d g l n n n n F k 2.2.2.2.2.2.",
"2.2.2.2.2.2.2.2.2.2.2.2.2.2.2.2.2.2.2.2.2.2.2.2.2.2.2.2.2.2.2.2.2.2.2.2.2.2.2.2.% @ + % % = = % = 5 g d d d d g n n n n M n f d d d d d l n n n n n n 2.2.2.2.2.",
"2.2.2.2.2.2.2.2.2.2.2.2.2.2.2.2.2.2.2.2.2.2.2.2.2.2.2.2.2.2.2.2.2.2.2.2.2.2.2.2.% % O % % % % % % = p d d d d d z n n n n n n g d d d d g l n n n n F b 2.2.2.2.",
"2.2.2.2.2.2.2.2.2.2.2.2.2.2.2.2.2.2.2.2.2.2.2.2.2.2.2.2.2.2.2.2.2.2.2.2.2.2.2.2., = % % = % % o % % < a d g f h v n n n n n n b g d d d d g l F n n b F l 2.2.2.",
"2.2.2.2.2.2.2.2.2.2.2.2.2.2.2.2.2.2.2.2.2.2.2.2.2.2.2.2.2.2.2.2.2.2.2.2.2.2.2.2.2.@ % % = % % + % % % 5 v n n n n n n n n n n n b d d d d d h l n n n n n D 2.2.",
"2.2.2.2.2.2.2.2.2.2.2.2.2.2.2.2.2.2.2.2.2.2.2.2.2.2.2.2.2.2.2.2.2.2.2.2.2.2.2.2.2.2.% % % = % # o @ % % i n n n n n n n n n n n n l l n n n n n n n n n n n b 2.",
"2.2.2.2.2.2.2.2.2.2.2.2.2.2.2.2.2.2.2.2.2.2.2.2.2.2.2.2.2.2.2.2.2.2.2.2.2.2.2.2.2.2.: % % = % o o @ % % < h n n n n n n n n n n n n n n n n n n n n n n n n n b ",
"2.2.2.2.2.2.2.2.2.2.2.2.2.2.2.2.2.2.2.2.2.2.2.2.2.2.2.2.2.2.2.2.2.2.2.2.2.2.2.2.2.2.2.% % % % @ o o @ % = 2 n n n n n n n n n n n n n n n n n n F n n n Z A B L ",
"2.2.2.2.2.2.2.2.2.2.2.2.2.2.2.2.2.2.2.2.2.2.2.2.2.2.2.2.2.2.2.2.2.2.2.2.2.2.2.2.2.2.2., @ @ = % # o o % % = u n n n n n n n n n n n n n n n n c N ' R I K K K K ",
"2.2.2.2.2.2.2.2.2.2.2.2.2.2.2.2.2.2.2.2.2.2.2.2.2.2.2.2.2.2.2.2.2.2.2.2.2.2.2.2.2.2.2.2.% o @ % % o o O % = @ a n n n n n n n m n F D C V ` R / ~ ( ( ( W K K K ",
"2.2.2.2.2.2.2.2.2.2.2.2.2.2.2.2.2.2.2.2.2.2.2.2.2.2.2.2.2.2.2.2.2.2.2.2.2.2.2.2.2.2.2.2.> o @ % % O o o O = O = b n n n n n m C B ] / ~ ( ( ( ( ( ( ( ( ( W K K ",
"2.2.2.2.2.2.2.2.2.2.2.2.2.2.2.2.2.2.2.2.2.2.2.2.2.2.2.2.2.2.2.2.2.2.2.2.2.2.2.2.2.2.2.2.2.$ O @ % % o o o % O o 3 m C B ) U P W ( ( ( ( ( ( ( ( ( ( ( ( ( ! W K ",
"2.2.2.2.2.2.2.2.2.2.2.2.2.2.2.2.2.2.2.2.2.2.2.2.2.2.2.2.2.2.2.2.2.2.2.2.2.2.2.2.2.2.2.2.2.2.+ # @ = O o o O o o o t L K K K K W Q ( ( ( ( ( ( ( ( ( ( ( ( ( ! Q ",
"2.2.2.2.2.2.2.2.2.2.2.2.2.2.2.2.2.2.2.2.2.2.2.2.2.2.2.2.2.2.2.2.2.2.2.2.2.2.2.2.2.2.2.2.2.2.; o O = % O o o @ o o q J K K E K K W ! ! ( ( ( ( ( ( ( ( ( ( ( ( ( ",
"2.2.2.2.2.2.2.2.2.2.2.2.2.2.2.2.2.2.2.2.2.2.2.2.2.2.2.2.2.2.2.2.2.2.2.2.2.2.2.2.2.2.2.2.2.2.2.o @ = % % o o = o o 8 w K K K K K K K ! ( ( ( ( ( ( ( ( ( ( ( ( ( ",
"2.2.2.2.2.2.2.2.2.2.2.2.2.2.2.2.2.2.2.2.2.2.2.2.2.2.2.2.2.2.2.2.2.2.2.2.2.2.2.2.2.2.2.2.2.2.2.> O % = % @ O % % # 9 9 r E E K W W Q ! ( ( ( ( ( ( ( ( ( ( ( ( ( ",
"2.2.2.2.2.2.2.2.2.2.2.2.2.2.2.2.2.2.2.2.2.2.2.2.2.2.2.2.2.2.2.2.2.2.2.2.2.2.2.2.2.2.2.2.2.2.2.2.% % = % = O = % * 9 9 9 J Q ! ( ( ( ( ( ( ( ( ( ( ( ( ( ( ( ( ( ",
"2.2.2.2.2.2.2.2.2.2.2.2.2.2.2.2.2.2.2.2.2.2.2.2.2.2.2.2.2.2.2.2.2.2.2.2.2.2.2.2.2.2.2.2.2.2.2.2.2.% % = % % = % & 8 0 0 w W ( ( ( ( ( ( ( ( ( ( ( ( ( ( ( ( ! ! ",
"2.2.2.2.2.2.2.2.2.2.2.2.2.2.2.2.2.2.2.2.2.2.2.2.2.2.2.2.2.2.2.2.2.2.2.2.2.2.2.2.2.2.2.2.2.2.2.2.2.: = % % = % % . 7 8 9 8 r ! ( ( ( ( ( ( ( ( ( ( ( ( ( ( ! ! ! ",
"2.2.2.2.2.2.2.2.2.2.2.2.2.2.2.2.2.2.2.2.2.2.2.2.2.2.2.2.2.2.2.2.2.2.2.2.2.2.2.2.2.2.2.2.2.2.2.2.2.2.% % % % = =   7 8 8 8 0 J ! ( ( ( ( ( ! ( ( ( ( ( ( ( ( Q Q ",
"2.2.2.2.2.2.2.2.2.2.2.2.2.2.2.2.2.2.2.2.2.2.2.2.2.2.2.2.2.2.2.2.2.2.2.2.2.2.2.2.2.2.2.2.2.2.2.2.2.2., % = % % % - 7 7 8 0 9 0 K ( ( ! ! Q W W ! ( ( ( ( ( ( ! Q "
};
