/* XPM */
static char *result[] = {
/* columns rows colors chars-per-pixel */
"80 80 150 2 ",
"   c #2D3F38",
".  c #393E34",
"X  c #4E382B",
"o  c #563626",
"O  c #583727",
"+  c #543825",
"@  c #5A3927",
"#  c #553628",
"$  c #553D28",
"%  c #5E3C29",
"&  c #4A3D31",
"*  c #443E33",
"=  c #603D2B",
"-  c #1F403A",
";  c #5D432C",
":  c #564C2C",
">  c #5B4D2C",
",  c #544329",
"<  c #64412E",
"1  c #664531",
"2  c #664936",
"3  c #6D4936",
"4  c #6C4D38",
"5  c #6B4633",
"6  c #714D39",
"7  c #76523E",
"8  c #616F3A",
"9  c #014342",
"0  c #024D4C",
"q  c #00504F",
"w  c #015151",
"e  c #0C5350",
"r  c #045D5D",
"t  c #03605F",
"y  c #057372",
"u  c #34766E",
"i  c #715741",
"p  c #7D5A44",
"a  c #765A44",
"s  c #7E664D",
"d  c #805844",
"f  c #855F4B",
"g  c #846049",
"h  c #80684E",
"j  c #8C6651",
"k  c #8E6854",
"l  c #906B57",
"z  c #956F5A",
"x  c #96715B",
"c  c #9B725D",
"v  c #937B5E",
"b  c #9B7B5E",
"n  c #A1765F",
"m  c #9E7560",
"M  c #9E7C62",
"N  c #A17761",
"B  c #A57B64",
"V  c #AA7D66",
"C  c #AB7F68",
"Z  c #7C8777",
"A  c #758879",
"S  c #7A8C7C",
"D  c #9C826D",
"F  c #96826D",
"G  c #818E7E",
"H  c #938471",
"J  c #A3806A",
"K  c #AD826B",
"L  c #A4896D",
"P  c #B0866E",
"I  c #AE8C73",
"U  c #A6887A",
"Y  c #B38B73",
"T  c #AF9077",
"R  c #AB9A78",
"E  c #B69177",
"W  c #B3947A",
"Q  c #B9947A",
"!  c #BB9A7F",
"~  c #B3987B",
"^  c #058C8E",
"/  c #019E9F",
"(  c #169A97",
")  c #189E9D",
"_  c #129A9A",
"`  c #31958F",
"'  c #249791",
"]  c #3A9E97",
"[  c #36A099",
"{  c #019EA0",
"}  c #02A3A4",
"|  c #02A7A9",
" . c #01ACAD",
".. c #09ADAD",
"X. c #1BA7A4",
"o. c #1AA8A5",
"O. c #01AFB0",
"+. c #518F84",
"@. c #4C9086",
"#. c #55978C",
"$. c #5D9489",
"%. c #439C94",
"&. c #718E80",
"*. c #AA8F86",
"=. c #AC938E",
"-. c #B69D81",
";. c #BD9D81",
":. c #AD9997",
">. c #B19D9D",
",. c #BBA286",
"<. c #BFA88A",
"1. c #B4A6A7",
"2. c #C1A085",
"3. c #C4A68A",
"4. c #C3AC8F",
"5. c #C9AB8F",
"6. c #C5AF91",
"7. c #C9AD90",
"8. c #CBB596",
"9. c #CDBA9A",
"0. c #D3BC9E",
"q. c #D0C39E",
"w. c #F6FB86",
"e. c #F7FB8B",
"r. c #F7FB91",
"t. c #F8FC96",
"y. c #F8FC9B",
"u. c #D3C4A2",
"i. c #DAC6A5",
"p. c #D8CAA7",
"a. c #DACDAB",
"s. c #DFD3AD",
"d. c #E0D0AE",
"f. c #F9FCA4",
"g. c #FAFDAC",
"h. c #EAE2B4",
"j. c #EEE8B7",
"k. c #F3EEBA",
"l. c #FCFEB4",
"z. c #F5F3BC",
"x. c #F8F7BE",
"c. c #FEFFBE",
"v. c #B3C5EC",
"b. c #E7DFC0",
"n. c #F6F6C6",
"m. c #FEFFC3",
"M. c #F4F1C8",
"N. c #FEFFCB",
"B. c #FEFED1",
"V. c None",
/* pixels */
"V.V.V.V.V.V.V.V.V.V.V.V.V.V.V.V.V.V.V.V.V.V.V.V.V.V.V.V.V.V.V.V.V.V.V.V.V.V.V.V.V.V.V.V.V.V.V.V.V.V.V.V.V.V.V.V.V.V.V.V.V.V.V.V.V.V.V.V.V.V.V.V.V.V.V.V.V.V.V.V.",
"V.V.V.V.V.V.V.V.V.V.V.V.V.V.V.V.V.V.V.V.V.V.V.V.V.V.V.V.V.V.V.V.V.V.V.V.V.V.V.V.V.V.V.V.V.V.V.V.V.V.V.V.V.V.V.V.V.V.V.V.V.V.V.V.V.V.V.V.V.V.V.V.V.V.V.V.V.V.V.V.",
"V.V.V.V.V.V.V.V.V.V.V.V.V.V.V.V.V.V.V.V.V.V.V.V.V.V.V.V.V.V.V.V.V.V.V.V.V.V.V.V.V.V.V.V.V.V.V.V.V.V.V.V.V.V.V.V.V.V.V.V.V.V.V.V.V.V.V.V.V.V.V.V.V.V.V.V.V.V.V.V.",
"V.V.V.V.V.V.V.V.V.V.V.V.V.V.V.V.V.V.V.V.V.V.V.V.V.V.V.V.V.V.V.V.V.V.V.V.V.V.V.V.V.V.V.V.V.V.V.V.V.V.V.V.V.V.V.V.V.V.V.V.V.V.V.V.V.V.V.V.V.V.V.V.V.V.V.V.V.V.V.V.",
"V.V.V.V.V.V.V.V.V.V.V.V.V.V.V.V.V.V.V.V.V.V.V.V.V.V.V.V.V.V.V.V.V.V.V.V.V.V.V.V.V.V.V.V.V.V.V.V.V.V.V.V.V.V.V.V.V.V.V.V.V.V.V.V.V.V.V.V.V.V.V.V.V.V.V.V.V.V.V.V.",
"V.V.V.V.V.V.V.V.V.V.V.V.V.V.V.V.V.V.V.V.V.V.V.V.V.V.V.V.V.V.V.V.V.V.V.V.V.V.V.V.V.V.V.V.V.V.V.V.V.V.V.V.V.V.V.V.V.V.V.V.V.V.V.V.V.V.V.V.V.V.V.V.V.V.V.V.V.V.V.V.",
"V.V.V.V.V.V.V.V.V.V.V.V.V.V.V.V.V.V.V.V.V.V.V.V.V.V.V.V.V.V.V.V.V.V.V.V.V.V.V.V.V.V.V.V.V.V.V.V.V.V.V.V.V.V.V.V.V.V.V.V.V.V.V.V.V.V.V.V.V.V.V.V.V.V.V.V.V.V.V.V.",
"V.V.V.V.V.V.V.V.V.V.V.V.V.V.V.V.V.V.V.V.V.V.V.V.V.V.V.V.V.V.V.V.V.V.V.V.V.V.V.V.V.V.V.V.V.V.V.V.V.V.V.V.V.V.V.V.V.V.V.V.V.V.V.V.V.V.V.V.V.V.V.V.V.V.V.V.V.V.V.V.",
"V.V.V.V.V.V.V.V.V.V.V.V.V.V.V.V.V.V.V.V.V.V.V.V.V.V.V.V.V.V.V.V.V.V.V.V.V.V.V.V.V.V.V.V.V.V.V.V.V.V.V.V.V.V.V.V.V.V.V.V.V.V.V.V.V.V.V.V.V.V.V.V.V.V.V.V.V.V.V.V.",
"V.V.V.V.V.V.V.V.V.V.V.V.V.V.V.V.V.V.V.V.V.V.V.V.V.V.V.V.V.V.V.V.V.V.V.V.V.V.V.V.V.V.V.V.V.V.V.V.V.V.V.V.V.V.V.V.V.V.V.V.V.V.V.V.V.V.V.V.V.V.V.V.V.V.V.V.V.V.V.V.",
"V.V.V.V.V.V.V.V.V.V.V.V.V.V.V.V.V.V.V.V.V.V.V.V.V.V.V.V.V.V.V.V.V.V.V.V.V.V.c.c.c.c.c.c.c.c.c.c.V.V.V.V.V.V.V.V.V.V.V.V.V.V.V.V.V.V.V.V.V.V.V.V.V.V.V.V.V.V.V.V.",
"V.V.V.V.V.V.V.V.V.V.V.V.V.V.V.V.V.V.V.V.V.V.V.V.V.V.V.V.V.V.V.V.V.V.V.c.c.c.c.c.c.c.c.c.c.c.c.c.c.c.c.V.V.V.V.V.V.V.V.V.V.V.V.V.V.V.V.V.V.V.V.V.V.V.V.V.V.V.V.V.",
"V.V.V.V.V.V.V.V.V.V.V.V.V.V.V.V.V.V.V.V.V.V.V.V.V.V.V.V.V.V.V.V.V.c.c.c.c.c.c.c.c.c.c.c.c.c.c.c.c.c.c.c.c.V.V.V.V.V.V.V.V.V.V.V.V.V.V.V.V.V.V.V.V.V.V.V.V.V.V.V.",
"V.V.V.V.V.V.V.V.V.V.V.V.V.V.V.V.V.V.V.V.V.V.V.V.V.V.V.V.V.V.V.V.c.c.c.c.c.c.c.c.c.c.c.c.c.m.c.c.c.c.c.c.c.c.V.V.V.V.V.V.V.V.V.V.V.V.V.V.V.V.V.V.V.V.V.V.V.V.V.V.",
"V.V.V.V.V.V.V.V.V.V.V.V.V.V.V.V.V.V.V.V.V.V.V.V.V.V.V.V.V.V.c.c.c.c.c.c.c.c.c.m.c.c.c.c.c.m.c.m.c.c.c.c.c.c.c.c.V.V.V.V.V.V.V.V.V.V.V.V.V.V.V.V.V.V.V.V.V.V.V.V.",
"V.V.V.V.V.V.V.V.V.V.V.V.V.V.V.V.V.V.V.V.V.V.V.V.V.V.V.V.V.c.c.c.c.c.c.c.c.c.c.c.c.c.c.m.c.c.c.c.c.c.c.c.c.c.c.c.c.V.V.V.V.V.V.V.V.V.V.V.V.V.V.V.V.V.V.V.V.V.V.V.",
"V.V.V.V.V.V.V.V.V.V.V.V.V.V.V.V.V.V.V.V.V.V.V.V.V.V.V.V.c.c.c.c.c.c.c.c.c.c.c.c.c.m.c.m.c.m.c.m.c.c.m.c.m.c.c.c.c.c.V.V.V.V.V.V.V.V.V.V.V.V.V.V.V.V.V.V.V.V.V.V.",
"V.V.V.V.V.V.V.V.V.V.V.V.V.V.V.V.V.V.V.V.V.V.V.V.V.V.V.c.c.c.c.c.c.m.c.c.c.c.c.c.g.y.y.y.y.g.c.c.m.c.c.c.c.c.c.c.c.c.V.V.V.V.V.V.V.V.V.V.V.V.V.V.V.V.V.V.V.V.V.V.",
"V.V.V.V.V.V.V.V.V.V.V.V.V.V.V.V.V.V.V.V.V.V.V.V.V.V.V.c.c.c.c.c.c.m.c.m.c.f.r.w.w.w.w.w.w.w.w.r.f.m.m.c.c.c.c.c.c.c.c.V.V.V.V.V.V.V.V.V.V.V.V.V.V.V.V.V.V.V.V.V.",
"V.V.V.V.V.V.V.V.V.V.V.V.V.V.V.V.V.V.V.V.V.V.V.V.V.V.c.c.c.c.c.c.c.c.N.m.t.w.w.w.w.w.w.w.w.w.w.w.w.t.m.m.m.c.c.m.c.c.c.l.V.V.V.V.V.V.V.V.V.V.V.V.V.V.V.V.V.V.V.V.",
"V.V.V.V.V.V.V.V.V.V.V.V.V.V.V.V.V.V.V.V.V.V.V.V.V.V.c.c.c.m.c.m.m.n.c.w.w.w.w.w.w.w.w.w.w.w.w.w.w.w.e.c.m.c.c.c.c.c.c.c.V.V.V.V.V.V.V.V.V.V.V.V.V.V.V.V.V.V.V.V.",
"V.V.V.V.V.V.V.V.V.V.V.V.V.V.V.V.V.V.V.V.V.V.V.V.V.c.c.c.c.c.c.m.N.c.e.w.w.w.w.w.w.w.w.w.w.w.w.w.w.w.w.r.m.c.c.c.c.c.c.c.c.V.V.V.V.V.V.V.V.V.V.V.V.V.V.V.V.V.V.V.",
"V.V.V.V.V.V.V.V.V.V.V.V.V.V.V.V.V.V.V.V.V.V.V.V.V.c.c.c.c.c.c.m.N.t.w.w.w.w.w.w.w.w.w.w.w.w.w.w.w.w.w.w.y.m.m.m.c.c.c.c.c.V.V.V.V.V.V.V.V.V.V.V.V.V.V.V.V.V.V.V.",
"V.V.V.V.V.V.V.V.V.V.V.V.V.V.V.V.V.V.V.V.V.V.V.V.c.c.c.c.c.m.N.N.f.w.w.w.w.w.w.w.w.w.w.w.w.w.w.w.w.w.w.w.w.f.m.c.c.c.c.c.c.c.V.V.V.V.V.V.V.V.V.V.V.V.V.V.V.V.V.V.",
"V.V.V.V.V.V.V.V.V.V.V.V.V.V.V.V.V.V.V.V.V.V.V.V.c.c.c.c.c.m.N.m.e.w.w.w.w.w.w.w.w.w.w.w.w.w.w.w.w.w.w.w.w.e.c.c.c.m.c.c.c.c.V.V.V.V.V.V.V.V.V.V.V.V.V.V.V.V.V.V.",
"V.V.V.V.V.V.V.V.V.V.V.V.V.V.V.V.V.V.V.V.V.V.V.V.c.c.c.c.m.m.N.l.w.w.w.w.w.w.w.w.w.w.w.w.w.w.w.w.w.w.w.w.w.w.c.m.c.c.m.c.c.c.V.V.V.V.V.V.V.V.V.V.V.V.V.V.V.V.V.V.",
"V.V.V.V.V.V.V.V.V.V.V.V.V.V.V.V.V.V.V.V.V.V.V.V.c.c.c.c.c.m.B.f.w.w.w.w.w.w.w.w.w.w.w.w.w.w.w.w.w.w.w.w.w.w.l.c.c.c.c.c.c.c.V.V.V.V.V.V.V.V.V.V.V.V.V.V.V.V.V.V.",
"V.V.V.V.V.V.V.V.V.V.V.V.V.V.V.V.V.V.V.V.V.V.V.V.c.c.c.c.m.N.B.t.w.w.w.w.w.w.w.w.w.w.w.w.w.w.w.w.w.w.w.w.w.w.y.m.c.m.c.c.c.c.V.V.V.V.V.V.V.V.V.V.V.V.V.V.V.V.V.V.",
"V.V.V.V.V.V.V.V.V.V.V.V.V.V.V.V.V.V.V.V.V.V.V.V.c.l.c.c.c.N.B.r.w.w.w.w.w.w.w.w.w.w.w.w.w.w.w.w.w.w.w.w.w.w.t.m.c.m.c.m.c.c.V.V.V.V.V.V.V.V.V.V.V.V.V.V.V.V.V.V.",
"V.V.V.V.V.V.V.V.V.V.V.V.V.V.V.V.V.V.V.V.V.V.V.V.c.c.c.m.m.N.B.e.w.w.w.w.w.w.w.w.w.w.w.w.w.w.w.w.w.w.w.w.w.w.t.N.c.c.c.c.c.c.V.V.V.V.V.V.V.V.V.V.V.V.V.V.V.V.V.V.",
"V.V.V.V.V.V.V.V.V.V.V.V.V.V.V.V.V.V.V.V.V.V.V.V.c.c.c.c.c.N.B.t.w.w.w.w.w.w.w.w.w.w.w.w.w.w.w.w.w.w.w.w.w.w.t.N.c.c.c.c.c.c.V.V.V.V.V.V.V.V.V.V.V.V.V.V.V.V.V.V.",
"V.V.V.V.V.V.V.V.V.V.V.V.V.V.V.V.V.V.V.V.V.V.V.V.c.l.c.c.m.N.B.y.w.w.w.w.w.w.w.w.w.w.w.w.w.w.w.w.w.w.w.w.w.w.f.m.c.m.c.c.c.c.V.V.V.V.V.V.V.V.V.V.V.V.V.V.V.V.V.V.",
"V.V.V.V.V.V.V.V.V.V.V.V.V.V.V.V.V.V.V.V.V.V.V.V.c.l.c.c.c.N.B.l.w.w.w.w.w.w.w.w.w.w.w.w.w.w.w.w.w.w.w.w.w.w.x.m.c.c.m.c.c.c.V.V.V.V.V.V.V.V.V.V.V.V.V.V.V.V.V.V.",
"V.V.V.V.V.V.V.V.V.V.V.V.V.V.V.V.V.V.V.V.V.V.V.V.c.c.c.c.m.m.N.c.w.w.w.w.w.w.w.w.w.w.w.w.w.w.w.w.w.w.w.w.w.e.c.m.c.c.c.c.c.c.V.V.V.V.V.V.V.V.V.V.V.V.V.V.V.V.V.V.",
"V.V.V.V.V.V.V.V.V.V.V.V.V.V.V.V.V.V.V.V.V.V.V.V.c.c.c.c.c.m.N.B.y.w.w.w.w.w.w.w.w.w.w.w.w.w.w.w.w.w.w.w.w.f.N.c.c.c.c.c.c.c.V.V.V.V.V.V.V.V.V.V.V.V.V.V.V.V.V.V.",
"V.V.V.V.V.V.V.V.V.V.V.V.V.V.V.V.V.V.V.V.V.V.V.V.V.c.c.c.c.c.m.B.c.e.w.w.w.w.w.w.w.w.w.w.w.w.w.w.w.w.w.w.e.c.m.m.m.c.c.c.c.V.V.V.V.V.V.V.V.V.V.V.V.V.V.V.V.V.V.V.",
"V.V.V.V.V.V.V.V.V.V.V.V.V.V.V.V.V.V.V.V.V.V.V.V.V.c.l.c.m.c.c.m.B.l.w.w.w.w.w.w.w.w.w.w.w.w.w.w.w.w.w.e.n.m.c.c.c.c.c.c.c.V.V.V.V.V.V.V.V.V.V.V.V.V.V.V.V.V.V.V.",
"V.V.V.V.V.V.V.V.V.V.V.V.V.V.V.V.V.V.V.V.V.V.V.V.V.c.c.c.c.c.c.m.N.B.g.e.w.w.w.w.w.w.w.w.w.w.w.w.w.w.w.g.N.m.c.c.c.c.c.c.V.V.V.V.V.V.V.V.V.V.V.V.V.V.V.V.V.V.V.V.",
"V.V.V.V.V.V.V.V.V.V.V.V.V.V.V.V.V.V.V.V.V.V.V.V.V.V.c.l.c.m.c.c.m.n.B.g.e.w.w.w.w.w.w.w.w.w.w.w.w.e.l.N.c.m.c.m.c.c.c.c.V.V.V.V.V.V.V.V.V.V.V.V.V.V.V.V.V.V.V.V.",
"V.V.V.V.V.V.V.V.V.V.V.V.V.V.V.V.V.V.V.V.V.V.V.V.V.V.V.c.l.c.m.c.c.m.m.N.m.y.w.w.w.w.w.w.w.w.w.w.y.m.N.c.c.c.c.c.c.c.c.V.V.V.V.V.V.V.V.V.V.V.V.V.V.V.V.V.V.V.V.V.",
"V.V.V.V.V.V.V.V.V.V.V.V.V.V.V.V.V.V.V.V.V.V.V.V.V.V.V.c.c.l.m.c.c.c.c.m.m.N.c.g.y.e.e.e.r.t.g.c.N.m.m.c.c.c.c.c.c.c.c.V.V.V.V.V.V.V.V.V.V.V.V.V.V.V.V.V.V.V.V.V.",
"V.V.V.V.V.V.V.V.V.V.V.V.V.V.V.V.V.V.V.V.V.V.V.V.V.V.V.V.c.c.l.c.c.m.c.c.c.c.m.m.N.N.N.B.N.N.N.m.m.c.c.c.c.c.c.c.c.c.V.V.V.V.V.V.V.V.V.V.V.V.V.V.V.V.V.V.V.V.V.V.",
"V.V.V.V.V.V.V.V.V.V.V.V.V.V.V.V.V.V.V.V.V.V.V.V.V.V.V.V.V.c.l.c.m.c.c.c.c.c.c.m.c.c.m.c.c.m.c.c.c.c.c.m.c.c.c.c.c.V.V.V.V.V.V.V.V.V.V.V.V.V.V.V.V.V.V.V.V.V.V.V.",
"V.V.V.V.V.V.V.V.V.V.V.V.V.V.V.V.V.V.V.V.V.V.V.V.V.V.V.V.V.V.c.c.l.c.c.m.m.c.c.c.m.c.m.c.c.c.m.c.c.m.c.c.c.c.c.m.V.V.V.V.V.V.V.V.V.V.V.V.V.V.V.V.V.V.V.V.V.V.V.V.",
"V.V.V.V.V.V.V.V.V.V.V.V.V.V.V.V.V.V.V.V.V.V.V.V.V.V.V.V.V.V.V.c.c.l.c.c.c.c.c.c.c.c.c.c.c.c.c.c.c.m.c.M.b.d.9.6.,.~ 1.V.V.V.V.V.V.V.V.V.V.V.V.V.V.V.V.V.V.V.V.V.",
"V.V.V.V.V.V.V.V.V.V.V.V.V.V.V.V.V.V.V.V.V.V.V.V.V.V.V.V.V.V.V.V.V.c.c.l.c.c.c.c.c.c.c.c.m.c.c.m.z.k.h.d.i.0.3.-.~ I I 1.V.V.V.V.V.V.V.V.V.V.V.V.V.V.V.V.V.V.V.V.",
"V.V.V.V.V.V.V.V.V.V.V.V.V.V.V.V.V.V.V.V.V.V.V.V.V.V.V.V.V.V.V.V.V.V.c.c.c.l.c.l.n.n.x.z.z.k.j.h.s.p.i.0.8.7.2.;.Q E Y P >.V.V.V.V.V.V.V.V.V.V.V.V.V.V.V.V.V.V.V.",
"V.V.V.V.V.V.V.V.V.V.V.V.V.V.V.V.V.V.V.V.V.V.V.V.V.V.V.V.V.V.V.V.V.V.V.V.V.c.c.c.q.a.a.s.a.p.u.q.9.8.6.7.3.2.;.Q E P P K K >.V.V.V.V.V.V.V.V.V.V.V.V.V.V.V.V.V.V.",
"V.V.V.V.V.V.V.V.V.V.V.V.V.V.V.V.V.V.V.V.V.V.V.V.V.V.V.V.V.V.V.V.V.V.V.V.V.V.V.V.R 8.9.q.0.q.8.4.<.,.-.-.2.Q E Y P P C C V C =.V.V.V.V.V.V.V.V.V.V.V.V.V.V.V.V.V.",
"V.V.V.V.V.V.V.V.V.V.V.V.V.V.V.V.V.V.V.V.V.V.V.V.V.V.V.V.V.V.V.V.V.V.V.V.V.V.V.V.v L 5.7.5.5.3.! ~ W T I Y Y Y P P P P C V V V :.v.V.V.V.V.V.V.V.V.V.V.V.V.V.V.V.",
"V.V.V.V.V.V.V.V.V.V.V.V.V.V.V.V.V.V.V.V.V.V.V.V.V.V.V.V.V.V.V.V.V.V.V.V.V.V.V.V.s s I ! ;.;.! Q E E Y Y Y P P P V C V V V V V V =.V.V.V.V.V.V.V.V.V.V.V.V.V.V.V.",
"V.V.V.V.V.V.V.V.V.V.V.V.V.V.V.V.V.V.V.V.V.V.V.V.V.V.V.V.V.V.V.V.V.V.V.V.V.V.V.V.7 7 7 P E E E E Y Y Y P P C C C V V C V V V V V V *.V.V.V.V.V.V.V.V.V.V.V.V.V.V.",
"V.V.V.V.V.V.V.V.V.V.V.V.V.V.V.V.V.V.V.V.V.V.V.V.V.V.V.V.V.V.V.V.V.V.V.V.V.V.V.V.4 2 2 a K P P P P K P K C C C V V V V V V V V V V V U G V.V.V.V.V.V.V.V.V.V.V.V.",
"V.V.V.V.V.V.V.V.V.V.V.V.V.V.V.V.V.V.V.V.V.V.V.V.V.V.V.V.V.V.V.V.V.V.V.V.V.V.V.V.> 2 < 2 g K K J B N B C C C C V V V V V V V V V V V V v 8 V.V.V.V.V.V.V.V.V.V.V.",
"V.V.V.V.V.V.V.V.V.V.V.V.V.V.V.V.V.V.V.V.V.V.V.V.V.V.V.V.V.V.V.V.V.V.V.V.V.V.V.V.= < % ; < j z c x z x B C V V V V V V V V V V V V V V V M V.V.V.V.V.V.V.V.V.V.V.",
"V.V.V.V.V.V.V.V.V.V.V.V.V.V.V.V.V.V.V.V.V.V.V.V.V.V.V.V.V.V.V.V.V.V.V.V.V.V.V.V.% = % = = 5 j z z z z m V V V V V V V V V V V V V V V V V b V.V.V.V.V.V.V.V.V.V.",
"V.V.V.V.V.V.V.V.V.V.V.V.V.V.V.V.V.V.V.V.V.V.V.V.V.V.V.V.V.V.V.V.V.V.V.V.V.V.V.V.= = = @ = = 6 z z z z z n V V V V V V V V V V V V V V V V V b V.V.V.V.V.V.V.V.V.",
"V.V.V.V.V.V.V.V.V.V.V.V.V.V.V.V.V.V.V.V.V.V.V.V.V.V.V.V.V.V.V.V.V.V.V.V.V.V.V.V.= @ = = = @ % d z z z z z N V V V V V V V n n z z c V V V V C N 8 V.V.V.V.V.V.V.",
"V.V.V.V.V.V.V.V.V.V.V.V.V.V.V.V.V.V.V.V.V.V.V.V.V.V.V.V.V.V.V.V.V.V.V.V.V.V.V.V.= o @ = @ % % = j z z z z z B V V V V V n z z z z z c V V V V V B V.V.V.V.V.V.V.",
"V.V.V.V.V.V.V.V.V.V.V.V.V.V.V.V.V.V.V.V.V.V.V.V.V.V.V.V.V.V.V.V.V.V.V.V.V.V.V.V.= o + = = = % % 5 l z z z z z V V V V V V c z z z z z n V V V V K b V.V.V.V.V.V.",
"V.V.V.V.V.V.V.V.V.V.V.V.V.V.V.V.V.V.V.V.V.V.V.V.V.V.V.V.V.V.V.V.V.V.V.V.V.V.V.V.% @ + = = = @ = = 7 z z z z z c V V V V V V z z z z z z n V V V V V B V.V.V.V.V.",
"V.V.V.V.V.V.V.V.V.V.V.V.V.V.V.V.V.V.V.V.V.V.V.V.V.V.V.V.V.V.V.V.V.V.V.V.V.V.V.V.= = o @ @ = = = = = f z z z z z n V V V V V V c z z z z z n V V V V V B V.V.V.V.",
"V.V.V.V.V.V.V.V.V.V.V.V.V.V.V.V.V.V.V.V.V.V.V.V.V.V.V.V.V.V.V.V.V.V.V.V.V.V.V.V.> @ @ = = = = O = = < l z z z c n V V V V V V N x z z z z x n V V V V K B V.V.V.",
"V.V.V.V.V.V.V.V.V.V.V.V.V.V.V.V.V.V.V.V.V.V.V.V.V.V.V.V.V.V.V.V.V.V.V.V.V.V.V.V.V.= = @ = = @ o @ = = 6 N V V V V V V V V V V V B z z z z z c B V V V B V V V.V.",
"V.V.V.V.V.V.V.V.V.V.V.V.V.V.V.V.V.V.V.V.V.V.V.V.V.V.V.V.V.V.V.V.V.V.V.V.V.V.V.V.V.V.= % = @ = o O % = = f V V V V V V V V V V V V N n V V V V V V V V V V V B V.",
"V.V.V.V.V.V.V.V.V.V.V.V.V.V.V.V.V.V.V.V.V.V.V.V.V.V.V.V.V.V.V.V.V.V.V.V.V.V.V.V.V.V.; = % = @ + o O @ = = n V V V V V V V V V V V V V V V V V V V V V V V V V B ",
"V.V.V.V.V.V.V.V.V.V.V.V.V.V.V.V.V.V.V.V.V.V.V.V.V.V.V.V.V.V.V.V.V.V.V.V.V.V.V.V.V.V.V.% @ = = O o o O % = 5 V V V V V V V V V V V V V V V B V V V V V K D Z @.' ",
"V.V.V.V.V.V.V.V.V.V.V.V.V.V.V.V.V.V.V.V.V.V.V.V.V.V.V.V.V.V.V.V.V.V.V.V.V.V.V.V.V.V.V.> % O % % o o O % = @ d V V V V V V V V V V V V V V C C M S $.] ) / / / / ",
"V.V.V.V.V.V.V.V.V.V.V.V.V.V.V.V.V.V.V.V.V.V.V.V.V.V.V.V.V.V.V.V.V.V.V.V.V.V.V.V.V.V.V.V.% + % % % o o o @ = @ j C V V V V V V V V C C H &.$.] o...O.O. .} / / / ",
"V.V.V.V.V.V.V.V.V.V.V.V.V.V.V.V.V.V.V.V.V.V.V.V.V.V.V.V.V.V.V.V.V.V.V.V.V.V.V.V.V.V.V.V.: + O = % O o o @ = @ = N C V V V V V H &.] o...O.O.O.O.O.O.O.O. .} / / ",
"V.V.V.V.V.V.V.V.V.V.V.V.V.V.V.V.V.V.V.V.V.V.V.V.V.V.V.V.V.V.V.V.V.V.V.V.V.V.V.V.V.V.V.V.V.$ + @ % % o o o % O o 5 C F A +.` _ } O.O.O.O.O.O.O.O.O.O.O.O.O.O.} / ",
"V.V.V.V.V.V.V.V.V.V.V.V.V.V.V.V.V.V.V.V.V.V.V.V.V.V.V.V.V.V.V.V.V.V.V.V.V.V.V.V.V.V.V.V.V.V.# # % % % o o O o o + u ( / { / { { | O.O.O.O.O.O.O.O.O.O.O.O.O. .| ",
"V.V.V.V.V.V.V.V.V.V.V.V.V.V.V.V.V.V.V.V.V.V.V.V.V.V.V.V.V.V.V.V.V.V.V.V.V.V.V.V.V.V.V.V.V.V., + o % = o o o O o o e ^ / / { / / { | O.O.O.O.O.O.O.O.O.O.O.O.O.O.",
"V.V.V.V.V.V.V.V.V.V.V.V.V.V.V.V.V.V.V.V.V.V.V.V.V.V.V.V.V.V.V.V.V.V.V.V.V.V.V.V.V.V.V.V.V.V.V.+ @ = = % @ o = o o 0 r / / { / / / { | O.O.O.O.O.O.O.O.O.O.O.O.O.",
"V.V.V.V.V.V.V.V.V.V.V.V.V.V.V.V.V.V.V.V.V.V.V.V.V.V.V.V.V.V.V.V.V.V.V.V.V.V.V.V.V.V.V.V.V.V.V.: o = % % @ o = @ # w 0 y { { { { } | O.O.O.O.O.O.O.O.O.O.O.O.O.O.",
"V.V.V.V.V.V.V.V.V.V.V.V.V.V.V.V.V.V.V.V.V.V.V.V.V.V.V.V.V.V.V.V.V.V.V.V.V.V.V.V.V.V.V.V.V.V.V.V.@ = @ = = @ = = & q 0 0 ^ |  .O.O.O.O.O.O.O.O.O.O.O.O.O.O.O.O.O.",
"V.V.V.V.V.V.V.V.V.V.V.V.V.V.V.V.V.V.V.V.V.V.V.V.V.V.V.V.V.V.V.V.V.V.V.V.V.V.V.V.V.V.V.V.V.V.V.V.V.= = = @ = = @ * 0 w q r } O.O.O.O.O.O.O.O.O.O.O.O.O.O.O.O.O. .",
"V.V.V.V.V.V.V.V.V.V.V.V.V.V.V.V.V.V.V.V.V.V.V.V.V.V.V.V.V.V.V.V.V.V.V.V.V.V.V.V.V.V.V.V.V.V.V.V.V.; = @ = = = = . 9 0 w 0 y ..O.O.O.O.O.O.O.O.O.O.O.O.O.O.|  .| ",
"V.V.V.V.V.V.V.V.V.V.V.V.V.V.V.V.V.V.V.V.V.V.V.V.V.V.V.V.V.V.V.V.V.V.V.V.V.V.V.V.V.V.V.V.V.V.V.V.V.V.= = = = = =   9 0 0 q q ^ O.O.O.O.O.O.O.O.O.O.O.O.O.O.O.| | ",
"V.V.V.V.V.V.V.V.V.V.V.V.V.V.V.V.V.V.V.V.V.V.V.V.V.V.V.V.V.V.V.V.V.V.V.V.V.V.V.V.V.V.V.V.V.V.V.V.V.V.> = @ = = @ - 9 9 0 q q w / O.O.O...} } } O.O.O.O.O.O.O. .| "
};
