/* XPM */
static char *result[] = {
/* columns rows colors chars-per-pixel */
"80 80 144 2 ",
"   c #2D3F38",
".  c #393E34",
"X  c #4E382B",
"o  c #563626",
"O  c #583727",
"+  c #543825",
"@  c #5A3927",
"#  c #553628",
"$  c #553D28",
"%  c #5E3C29",
"&  c #4A3D31",
"*  c #443E33",
"=  c #603E2B",
"-  c #1F403A",
";  c #5D452B",
":  c #564C2C",
">  c #5B4D2C",
",  c #544329",
"<  c #65432F",
"1  c #6D4B37",
"2  c #6E4E38",
"3  c #6B4633",
"4  c #74523D",
"5  c #616F3A",
"6  c #014342",
"7  c #024D4C",
"8  c #00504F",
"9  c #015151",
"0  c #0C5350",
"q  c #045D5D",
"w  c #03605F",
"e  c #057372",
"r  c #34766E",
"t  c #7C5D45",
"y  c #7D6147",
"u  c #805844",
"i  c #855F4B",
"p  c #8D6651",
"a  c #906B57",
"s  c #956F5A",
"d  c #8F7A5C",
"f  c #96705B",
"g  c #9B735D",
"h  c #947B5D",
"j  c #9B7B5E",
"k  c #A1765F",
"l  c #9D7560",
"z  c #9D7B62",
"x  c #A17761",
"c  c #A47C64",
"v  c #AA7D66",
"b  c #AA7F68",
"n  c #7C8777",
"m  c #758879",
"M  c #7A8C7C",
"N  c #9C826D",
"B  c #96826D",
"V  c #818E7E",
"C  c #938471",
"Z  c #A3826B",
"A  c #AD826A",
"S  c #A68C6E",
"D  c #B0866E",
"F  c #A6887A",
"G  c #AD8B72",
"H  c #B08770",
"J  c #B38C73",
"K  c #AE9E79",
"L  c #B59177",
"P  c #BA957B",
"I  c #058C8E",
"U  c #019E9F",
"Y  c #169A97",
"T  c #189E9D",
"R  c #129A9A",
"E  c #31958F",
"W  c #249791",
"Q  c #3A9E97",
"!  c #36A099",
"~  c #019EA0",
"^  c #02A3A4",
"/  c #02A7A9",
"(  c #01ACAD",
")  c #09ADAD",
"_  c #1BA7A4",
"`  c #1AA8A5",
"'  c #01AFB0",
"]  c #518F84",
"[  c #4C9086",
"{  c #55978C",
"}  c #5D9489",
"|  c #439C94",
" . c #718E80",
".. c #AA8F86",
"X. c #AC948E",
"o. c #BF9D82",
"O. c #AC9592",
"+. c #B09E9E",
"@. c #B6A480",
"#. c #B6A4A3",
"$. c #C09E83",
"%. c #C2A286",
"&. c #C5A68A",
"*. c #C6AB8E",
"=. c #C8AA8E",
"-. c #CBAF92",
";. c #CDB294",
":. c #D0B799",
">. c #D2BB9C",
",. c #C1B4B0",
"<. c #D0C79B",
"1. c #D2C89C",
"2. c #F6FB86",
"3. c #F7FB8B",
"4. c #F7FB91",
"5. c #F8FC96",
"6. c #F8FC9B",
"7. c #D7C2A2",
"8. c #DAC6A6",
"9. c #DFCEAD",
"0. c #DDD1AE",
"q. c #E4DFAD",
"w. c #E3D5B2",
"e. c #E5D8B5",
"r. c #E6DDB8",
"t. c #E9DDBA",
"y. c #F9FCA4",
"u. c #FAFDAC",
"i. c #E7E1B3",
"p. c #ECE4BD",
"a. c #FBFDB3",
"s. c #F6F5BA",
"d. c #FEFFBE",
"f. c #B3C5EC",
"g. c #D2CCC1",
"h. c #EDE4C0",
"j. c #EEE8C1",
"k. c #F1EBC4",
"l. c #F5F2C2",
"z. c #F8F6C1",
"x. c #FEFFC3",
"c. c #FEFFCB",
"v. c #FEFED1",
"b. c None",
/* pixels */
"b.b.b.b.b.b.b.b.b.b.b.b.b.b.b.b.b.b.b.b.b.b.b.b.b.b.b.b.b.b.b.b.b.b.b.b.b.b.b.b.b.b.b.b.b.b.b.b.b.b.b.b.b.b.b.b.b.b.b.b.b.b.b.b.b.b.b.b.b.b.b.b.b.b.b.b.b.b.b.b.",
"b.b.b.b.b.b.b.b.b.b.b.b.b.b.b.b.b.b.b.b.b.b.b.b.b.b.b.b.b.b.b.b.b.b.b.b.b.b.b.b.b.b.b.b.b.b.b.b.b.b.b.b.b.b.b.b.b.b.b.b.b.b.b.b.b.b.b.b.b.b.b.b.b.b.b.b.b.b.b.b.",
"b.b.b.b.b.b.b.b.b.b.b.b.b.b.b.b.b.b.b.b.b.b.b.b.b.b.b.b.b.b.b.b.b.b.b.b.b.b.b.b.b.b.b.b.b.b.b.b.b.b.b.b.b.b.b.b.b.b.b.b.b.b.b.b.b.b.b.b.b.b.b.b.b.b.b.b.b.b.b.b.",
"b.b.b.b.b.b.b.b.b.b.b.b.b.b.b.b.b.b.b.b.b.b.b.b.b.b.b.b.b.b.b.b.b.b.b.b.b.b.b.b.b.b.b.b.b.b.b.b.b.b.b.b.b.b.b.b.b.b.b.b.b.b.b.b.b.b.b.b.b.b.b.b.b.b.b.b.b.b.b.b.",
"b.b.b.b.b.b.b.b.b.b.b.b.b.b.b.b.b.b.b.b.b.b.b.b.b.b.b.b.b.b.b.b.b.b.b.b.b.b.b.b.b.b.b.b.b.b.b.b.b.b.b.b.b.b.b.b.b.b.b.b.b.b.b.b.b.b.b.b.b.b.b.b.b.b.b.b.b.b.b.b.",
"b.b.b.b.b.b.b.b.b.b.b.b.b.b.b.b.b.b.b.b.b.b.b.b.b.b.b.b.b.b.b.b.b.b.b.b.b.b.b.b.b.b.b.b.b.b.b.b.b.b.b.b.b.b.b.b.b.b.b.b.b.b.b.b.b.b.b.b.b.b.b.b.b.b.b.b.b.b.b.b.",
"b.b.b.b.b.b.b.b.b.b.b.b.b.b.b.b.b.b.b.b.b.b.b.b.b.b.b.b.b.b.b.b.b.b.b.b.b.b.b.b.b.b.b.b.b.b.b.b.b.b.b.b.b.b.b.b.b.b.b.b.b.b.b.b.b.b.b.b.b.b.b.b.b.b.b.b.b.b.b.b.",
"b.b.b.b.b.b.b.b.b.b.b.b.b.b.b.b.b.b.b.b.b.b.b.b.b.b.b.b.b.b.b.b.b.b.b.b.b.b.b.b.b.b.b.b.b.b.b.b.b.b.b.b.b.b.b.b.b.b.b.b.b.b.b.b.b.b.b.b.b.b.b.b.b.b.b.b.b.b.b.b.",
"b.b.b.b.b.b.b.b.b.b.b.b.b.b.b.b.b.b.b.b.b.b.b.b.b.b.b.b.b.b.b.b.b.b.b.b.b.b.b.b.b.b.b.b.b.b.b.b.b.b.b.b.b.b.b.b.b.b.b.b.b.b.b.b.b.b.b.b.b.b.b.b.b.b.b.b.b.b.b.b.",
"b.b.b.b.b.b.b.b.b.b.b.b.b.b.b.b.b.b.b.b.b.b.b.b.b.b.b.b.b.b.b.b.b.b.b.b.b.b.b.b.b.b.b.b.b.b.b.b.b.b.b.b.b.b.b.b.b.b.b.b.b.b.b.b.b.b.b.b.b.b.b.b.b.b.b.b.b.b.b.b.",
"b.b.b.b.b.b.b.b.b.b.b.b.b.b.b.b.b.b.b.b.b.b.b.b.b.b.b.b.b.b.b.b.b.b.b.b.d.d.d.d.d.d.d.d.d.d.d.d.b.b.b.b.b.b.b.b.b.b.b.b.b.b.b.b.b.b.b.b.b.b.b.b.b.b.b.b.b.b.b.b.",
"b.b.b.b.b.b.b.b.b.b.b.b.b.b.b.b.b.b.b.b.b.b.b.b.b.b.b.b.b.b.b.b.b.d.d.d.d.d.d.d.d.d.d.d.a.d.d.d.d.d.d.b.b.b.b.b.b.b.b.b.b.b.b.b.b.b.b.b.b.b.b.b.b.b.b.b.b.b.b.b.",
"b.b.b.b.b.b.b.b.b.b.b.b.b.b.b.b.b.b.b.b.b.b.b.b.b.b.b.b.b.b.b.d.d.d.d.a.d.d.d.d.d.d.d.d.d.d.d.d.d.d.d.d.d.b.b.b.b.b.b.b.b.b.b.b.b.b.b.b.b.b.b.b.b.b.b.b.b.b.b.b.",
"b.b.b.b.b.b.b.b.b.b.b.b.b.b.b.b.b.b.b.b.b.b.b.b.b.b.b.b.b.b.d.d.d.d.d.d.d.d.d.d.d.d.d.d.a.d.d.d.d.d.d.d.d.d.b.b.b.b.b.b.b.b.b.b.b.b.b.b.b.b.b.b.b.b.b.b.b.b.b.b.",
"b.b.b.b.b.b.b.b.b.b.b.b.b.b.b.b.b.b.b.b.b.b.b.b.b.b.b.b.d.d.d.d.d.d.d.d.d.d.d.d.d.d.d.d.d.d.d.d.d.d.d.d.d.d.d.b.b.b.b.b.b.b.b.b.b.b.b.b.b.b.b.b.b.b.b.b.b.b.b.b.",
"b.b.b.b.b.b.b.b.b.b.b.b.b.b.b.b.b.b.b.b.b.b.b.b.b.b.b.d.d.d.a.d.d.d.d.d.d.d.d.d.d.d.d.d.d.d.x.d.d.d.a.d.d.d.d.d.d.b.b.b.b.b.b.b.b.b.b.b.b.b.b.b.b.b.b.b.b.b.b.b.",
"b.b.b.b.b.b.b.b.b.b.b.b.b.b.b.b.b.b.b.b.b.b.b.b.b.b.d.d.d.d.d.d.d.d.d.d.x.d.x.d.d.d.d.d.d.d.d.d.d.d.d.d.d.d.d.d.d.d.b.b.b.b.b.b.b.b.b.b.b.b.b.b.b.b.b.b.b.b.b.b.",
"b.b.b.b.b.b.b.b.b.b.b.b.b.b.b.b.b.b.b.b.b.b.b.b.b.d.d.d.d.d.d.d.d.x.d.x.d.d.d.d.x.d.x.d.d.d.x.d.d.d.d.d.d.d.d.d.d.a.d.b.b.b.b.b.b.b.b.b.b.b.b.b.b.b.b.b.b.b.b.b.",
"b.b.b.b.b.b.b.b.b.b.b.b.b.b.b.b.b.b.b.b.b.b.b.b.b.d.d.d.d.d.d.d.d.d.d.d.d.d.x.x.d.d.x.d.x.d.d.d.d.d.x.d.d.d.d.d.d.d.d.b.b.b.b.b.b.b.b.b.b.b.b.b.b.b.b.b.b.b.b.b.",
"b.b.b.b.b.b.b.b.b.b.b.b.b.b.b.b.b.b.b.b.b.b.b.b.d.d.d.a.d.d.d.d.z.d.d.x.x.a.a.u.6.6.6.y.a.a.d.x.d.x.d.d.d.d.d.d.d.d.d.d.b.b.b.b.b.b.b.b.b.b.b.b.b.b.b.b.b.b.b.b.",
"b.b.b.b.b.b.b.b.b.b.b.b.b.b.b.b.b.b.b.b.b.b.b.d.d.d.d.d.d.d.x.d.d.x.x.a.y.4.3.2.2.2.2.2.2.2.4.u.d.d.d.d.d.d.d.d.d.a.d.d.d.b.b.b.b.b.b.b.b.b.b.b.b.b.b.b.b.b.b.b.",
"b.b.b.b.b.b.b.b.b.b.b.b.b.b.b.b.b.b.b.b.b.b.b.d.d.d.d.d.x.d.d.d.x.x.c.5.2.2.2.2.2.2.2.2.2.2.2.2.6.x.x.x.x.d.d.d.d.d.d.d.d.b.b.b.b.b.b.b.b.b.b.b.b.b.b.b.b.b.b.b.",
"b.b.b.b.b.b.b.b.b.b.b.b.b.b.b.b.b.b.b.b.b.b.d.d.d.d.d.d.d.d.d.d.c.d.3.2.2.2.2.2.2.2.2.2.2.2.2.2.2.4.d.d.d.x.d.x.d.d.d.d.d.d.b.b.b.b.b.b.b.b.b.b.b.b.b.b.b.b.b.b.",
"b.b.b.b.b.b.b.b.b.b.b.b.b.b.b.b.b.b.b.b.b.b.d.d.d.d.d.d.x.d.x.c.d.2.2.2.2.2.2.2.2.2.2.2.2.2.2.2.2.2.3.x.d.d.d.d.d.d.d.d.d.d.b.b.b.b.b.b.b.b.b.b.b.b.b.b.b.b.b.b.",
"b.b.b.b.b.b.b.b.b.b.b.b.b.b.b.b.b.b.b.b.b.b.d.d.d.d.d.d.d.d.x.c.5.2.2.2.2.2.2.2.2.2.2.2.2.2.2.2.2.2.2.6.x.d.d.d.d.d.d.d.d.d.b.b.b.b.b.b.b.b.b.b.b.b.b.b.b.b.b.b.",
"b.b.b.b.b.b.b.b.b.b.b.b.b.b.b.b.b.b.b.b.b.d.d.d.d.d.d.d.x.x.v.y.2.2.2.2.2.2.2.2.2.2.2.2.2.2.2.2.2.2.2.2.y.x.x.d.d.d.d.d.d.d.d.b.b.b.b.b.b.b.b.b.b.b.b.b.b.b.b.b.",
"b.b.b.b.b.b.b.b.b.b.b.b.b.b.b.b.b.b.b.b.b.d.d.d.d.d.d.d.x.c.x.3.2.2.2.2.2.2.2.2.2.2.2.2.2.2.2.2.2.2.2.2.4.d.d.d.d.d.d.d.d.d.d.b.b.b.b.b.b.b.b.b.b.b.b.b.b.b.b.b.",
"b.b.b.b.b.b.b.b.b.b.b.b.b.b.b.b.b.b.b.b.b.d.d.a.d.d.d.x.x.v.a.2.2.2.2.2.2.2.2.2.2.2.2.2.2.2.2.2.2.2.2.2.2.d.x.x.d.x.d.d.d.d.d.b.b.b.b.b.b.b.b.b.b.b.b.b.b.b.b.b.",
"b.b.b.b.b.b.b.b.b.b.b.b.b.b.b.b.b.b.b.b.b.d.d.d.d.d.d.x.x.v.y.2.2.2.2.2.2.2.2.2.2.2.2.2.2.2.2.2.2.2.2.2.2.u.x.d.d.d.d.d.d.d.d.b.b.b.b.b.b.b.b.b.b.b.b.b.b.b.b.b.",
"b.b.b.b.b.b.b.b.b.b.b.b.b.b.b.b.b.b.b.b.b.d.d.d.d.d.d.d.c.v.5.2.2.2.2.2.2.2.2.2.2.2.2.2.2.2.2.2.2.2.2.2.2.5.x.x.d.d.d.d.d.d.d.b.b.b.b.b.b.b.b.b.b.b.b.b.b.b.b.b.",
"b.b.b.b.b.b.b.b.b.b.b.b.b.b.b.b.b.b.b.b.d.d.d.d.d.d.d.x.c.v.4.2.2.2.2.2.2.2.2.2.2.2.2.2.2.2.2.2.2.2.2.2.2.5.x.d.d.d.d.d.d.d.d.b.b.b.b.b.b.b.b.b.b.b.b.b.b.b.b.b.",
"b.b.b.b.b.b.b.b.b.b.b.b.b.b.b.b.b.b.b.b.d.d.d.d.d.x.d.d.c.v.4.2.2.2.2.2.2.2.2.2.2.2.2.2.2.2.2.2.2.2.2.2.2.5.c.d.x.d.d.d.d.d.d.b.b.b.b.b.b.b.b.b.b.b.b.b.b.b.b.b.",
"b.b.b.b.b.b.b.b.b.b.b.b.b.b.b.b.b.b.b.b.b.d.d.d.d.x.d.x.c.v.4.2.2.2.2.2.2.2.2.2.2.2.2.2.2.2.2.2.2.2.2.2.2.6.c.d.d.d.x.d.d.d.d.b.b.b.b.b.b.b.b.b.b.b.b.b.b.b.b.b.",
"b.b.b.b.b.b.b.b.b.b.b.b.b.b.b.b.b.b.b.b.b.a.d.d.d.d.d.d.c.v.y.2.2.2.2.2.2.2.2.2.2.2.2.2.2.2.2.2.2.2.2.2.2.u.x.x.x.d.d.x.d.d.d.b.b.b.b.b.b.b.b.b.b.b.b.b.b.b.b.b.",
"b.b.b.b.b.b.b.b.b.b.b.b.b.b.b.b.b.b.b.b.b.d.d.d.d.d.d.d.x.v.a.2.2.2.2.2.2.2.2.2.2.2.2.2.2.2.2.2.2.2.2.2.2.a.x.d.d.x.d.a.d.d.d.b.b.b.b.b.b.b.b.b.b.b.b.b.b.b.b.b.",
"b.b.b.b.b.b.b.b.b.b.b.b.b.b.b.b.b.b.b.b.b.d.d.d.d.d.d.x.x.v.d.2.2.2.2.2.2.2.2.2.2.2.2.2.2.2.2.2.2.2.2.2.3.d.x.d.d.d.d.d.d.d.d.b.b.b.b.b.b.b.b.b.b.b.b.b.b.b.b.b.",
"b.b.b.b.b.b.b.b.b.b.b.b.b.b.b.b.b.b.b.b.b.d.d.d.d.d.d.d.x.c.c.6.2.2.2.2.2.2.2.2.2.2.2.2.2.2.2.2.2.2.2.2.y.c.x.d.d.d.d.d.d.d.d.b.b.b.b.b.b.b.b.b.b.b.b.b.b.b.b.b.",
"b.b.b.b.b.b.b.b.b.b.b.b.b.b.b.b.b.b.b.b.b.d.d.d.d.d.d.x.d.x.v.d.3.2.2.2.2.2.2.2.2.2.2.2.2.2.2.2.2.2.2.4.s.x.d.d.d.d.d.d.d.d.b.b.b.b.b.b.b.b.b.b.b.b.b.b.b.b.b.b.",
"b.b.b.b.b.b.b.b.b.b.b.b.b.b.b.b.b.b.b.b.b.b.d.d.d.d.d.d.d.x.x.v.s.2.2.2.2.2.2.2.2.2.2.2.2.2.2.2.2.2.3.d.x.d.d.d.d.d.d.d.d.d.b.b.b.b.b.b.b.b.b.b.b.b.b.b.b.b.b.b.",
"b.b.b.b.b.b.b.b.b.b.b.b.b.b.b.b.b.b.b.b.b.b.d.d.d.d.d.d.x.d.x.c.c.u.2.2.2.2.2.2.2.2.2.2.2.2.2.2.2.2.a.c.x.x.d.x.d.d.d.d.d.d.b.b.b.b.b.b.b.b.b.b.b.b.b.b.b.b.b.b.",
"b.b.b.b.b.b.b.b.b.b.b.b.b.b.b.b.b.b.b.b.b.b.b.d.d.d.d.d.d.d.d.d.c.v.a.3.2.2.2.2.2.2.2.2.2.2.2.2.3.a.c.x.x.d.x.d.d.d.d.d.d.b.b.b.b.b.b.b.b.b.b.b.b.b.b.b.b.b.b.b.",
"b.b.b.b.b.b.b.b.b.b.b.b.b.b.b.b.b.b.b.b.b.b.b.d.d.a.d.d.d.d.x.d.d.x.c.d.6.2.2.2.2.2.2.2.2.2.3.6.x.c.d.d.d.d.d.d.d.d.d.d.d.b.b.b.b.b.b.b.b.b.b.b.b.b.b.b.b.b.b.b.",
"b.b.b.b.b.b.b.b.b.b.b.b.b.b.b.b.b.b.b.b.b.b.b.b.d.d.d.d.d.d.x.d.d.x.x.x.c.a.u.5.4.3.3.4.5.u.a.c.x.x.d.x.d.d.d.d.d.d.d.d.b.b.b.b.b.b.b.b.b.b.b.b.b.b.b.b.b.b.b.b.",
"b.b.b.b.b.b.b.b.b.b.b.b.b.b.b.b.b.b.b.b.b.b.b.b.d.d.d.d.d.d.d.d.d.d.d.x.x.x.z.c.c.c.v.v.c.c.x.d.d.d.d.d.d.x.d.d.d.d.d.b.b.b.b.b.b.b.b.b.b.b.b.b.b.b.b.b.b.b.b.b.",
"b.b.b.b.b.b.b.b.b.b.b.b.b.b.b.b.b.b.b.b.b.b.b.b.b.d.d.d.d.d.d.d.d.x.d.d.d.x.x.d.x.d.d.d.d.x.x.d.x.d.x.d.c.k.j.j.j.0.g.b.b.b.b.b.b.b.b.b.b.b.b.b.b.b.b.b.b.b.b.b.",
"b.b.b.b.b.b.b.b.b.b.b.b.b.b.b.b.b.b.b.b.b.b.b.b.b.b.d.d.d.d.d.d.d.d.d.x.d.d.d.d.d.d.x.d.d.d.d.d.d.d.d.l.k.k.k.h.0.>.*.,.b.b.b.b.b.b.b.b.b.b.b.b.b.b.b.b.b.b.b.b.",
"b.b.b.b.b.b.b.b.b.b.b.b.b.b.b.b.b.b.b.b.b.b.b.b.b.b.b.d.d.d.d.d.d.d.d.d.d.d.d.d.x.d.x.d.d.d.d.x.d.x.l.j.k.k.k.w.8.;.%.P #.b.b.b.b.b.b.b.b.b.b.b.b.b.b.b.b.b.b.b.",
"b.b.b.b.b.b.b.b.b.b.b.b.b.b.b.b.b.b.b.b.b.b.b.b.b.b.b.b.a.d.d.d.d.d.d.d.x.d.x.d.d.d.d.d.d.x.s.l.s.k.j.k.k.h.9.1.;.%.P J H +.b.b.b.b.b.b.b.b.b.b.b.b.b.b.b.b.b.b.",
"b.b.b.b.b.b.b.b.b.b.b.b.b.b.b.b.b.b.b.b.b.b.b.b.b.b.b.b.b.d.d.d.d.a.d.d.d.d.d.d.s.z.z.l.z.l.s.k.h.j.j.j.t.9.>.-.$.P J D A D X.b.b.b.b.b.b.b.b.b.b.b.b.b.b.b.b.b.",
"b.b.b.b.b.b.b.b.b.b.b.b.b.b.b.b.b.b.b.b.b.b.b.b.b.b.b.b.b.b.b.d.d.d.d.d.d.d.d.d.q.i.k.k.k.k.k.p.j.j.r.0.8.:.=.$.P J D D v v v O.f.b.b.b.b.b.b.b.b.b.b.b.b.b.b.b.",
"b.b.b.b.b.b.b.b.b.b.b.b.b.b.b.b.b.b.b.b.b.b.b.b.b.b.b.b.b.b.b.b.b.d.d.d.d.d.d.d.q.q.p.k.k.k.p.p.e.0.8.>.-.&.$.L J D D v v v v v X.b.b.b.b.b.b.b.b.b.b.b.b.b.b.b.",
"b.b.b.b.b.b.b.b.b.b.b.b.b.b.b.b.b.b.b.b.b.b.b.b.b.b.b.b.b.b.b.b.b.b.b.d.d.d.d.d.1.1.1.w.e.w.w.8.>.:.-.&.$.P J H D b v v v v v v v ..b.b.b.b.b.b.b.b.b.b.b.b.b.b.",
"b.b.b.b.b.b.b.b.b.b.b.b.b.b.b.b.b.b.b.b.b.b.b.b.b.b.b.b.b.b.b.b.b.b.b.b.b.b.b.b.K K K @.<.:.:.-.=.&.o.o.J H D D A v v v v v v v v v F V b.b.b.b.b.b.b.b.b.b.b.b.",
"b.b.b.b.b.b.b.b.b.b.b.b.b.b.b.b.b.b.b.b.b.b.b.b.b.b.b.b.b.b.b.b.b.b.b.b.b.b.b.b.h h h h S %.o.P L G G G H D A b v v v v v v v v v v v h 5 b.b.b.b.b.b.b.b.b.b.b.",
"b.b.b.b.b.b.b.b.b.b.b.b.b.b.b.b.b.b.b.b.b.b.b.b.b.b.b.b.b.b.b.b.b.b.b.b.b.b.b.b.y y t y 4 Z Z Z z z z b b b b b v v v v v v v v v v v v z b.b.b.b.b.b.b.b.b.b.b.",
"b.b.b.b.b.b.b.b.b.b.b.b.b.b.b.b.b.b.b.b.b.b.b.b.b.b.b.b.b.b.b.b.b.b.b.b.b.b.b.b.2 2 2 2 2 2 s k z l l l b b b v v v v v v v v v v v v v v j b.b.b.b.b.b.b.b.b.b.",
"b.b.b.b.b.b.b.b.b.b.b.b.b.b.b.b.b.b.b.b.b.b.b.b.b.b.b.b.b.b.b.b.b.b.b.b.b.b.b.b.< < < < < < 4 g g s s s g v v v v v v v v v v v v v v v v v j b.b.b.b.b.b.b.b.b.",
"b.b.b.b.b.b.b.b.b.b.b.b.b.b.b.b.b.b.b.b.b.b.b.b.b.b.b.b.b.b.b.b.b.b.b.b.b.b.b.b.= @ = = = = % u s s s s s k v v v v v v v k g f f g v v v v v c 5 b.b.b.b.b.b.b.",
"b.b.b.b.b.b.b.b.b.b.b.b.b.b.b.b.b.b.b.b.b.b.b.b.b.b.b.b.b.b.b.b.b.b.b.b.b.b.b.b.= @ O = = % % = p s s s s s c v v v v v k f f f s s f v v v v v c b.b.b.b.b.b.b.",
"b.b.b.b.b.b.b.b.b.b.b.b.b.b.b.b.b.b.b.b.b.b.b.b.b.b.b.b.b.b.b.b.b.b.b.b.b.b.b.b.@ O O = @ = % % 3 a s s s s g v v v v v v g s s s s f k v v v v A j b.b.b.b.b.b.",
"b.b.b.b.b.b.b.b.b.b.b.b.b.b.b.b.b.b.b.b.b.b.b.b.b.b.b.b.b.b.b.b.b.b.b.b.b.b.b.b.= + + = = = = = = 4 s s s s s g v v v v v v f s s s s s k v v v v v c b.b.b.b.b.",
"b.b.b.b.b.b.b.b.b.b.b.b.b.b.b.b.b.b.b.b.b.b.b.b.b.b.b.b.b.b.b.b.b.b.b.b.b.b.b.b.; % + = @ O = = = = i s s s s s g v v v v v v f s s s s s k v v v v A c b.b.b.b.",
"b.b.b.b.b.b.b.b.b.b.b.b.b.b.b.b.b.b.b.b.b.b.b.b.b.b.b.b.b.b.b.b.b.b.b.b.b.b.b.b.< % @ % = @ @ O = = = a s f g g x v v v v v v c f f s s s f k v v v c v c b.b.b.",
"b.b.b.b.b.b.b.b.b.b.b.b.b.b.b.b.b.b.b.b.b.b.b.b.b.b.b.b.b.b.b.b.b.b.b.b.b.b.b.b.b.= = % % = = o @ = = 4 x c v v v v v v v v v v c s s s s f g c v v v v v c b.b.",
"b.b.b.b.b.b.b.b.b.b.b.b.b.b.b.b.b.b.b.b.b.b.b.b.b.b.b.b.b.b.b.b.b.b.b.b.b.b.b.b.b.b.% = = % % o o % % % i v v v v v v v v v v v v x k c v v v v v v v v v v c b.",
"b.b.b.b.b.b.b.b.b.b.b.b.b.b.b.b.b.b.b.b.b.b.b.b.b.b.b.b.b.b.b.b.b.b.b.b.b.b.b.b.b.b.; % % % % o o o = % = g v v v v v v v v v v v v v v v v v v v v v v v v b c ",
"b.b.b.b.b.b.b.b.b.b.b.b.b.b.b.b.b.b.b.b.b.b.b.b.b.b.b.b.b.b.b.b.b.b.b.b.b.b.b.b.b.b.b.% = = = O o o O % = 3 v v v v v v v v v v v v v v v b v v v v v b N n [ W ",
"b.b.b.b.b.b.b.b.b.b.b.b.b.b.b.b.b.b.b.b.b.b.b.b.b.b.b.b.b.b.b.b.b.b.b.b.b.b.b.b.b.b.b.> @ O % = o o o % = = u v v v v v v v v v v v v v v b b z M } Q T U U ~ U ",
"b.b.b.b.b.b.b.b.b.b.b.b.b.b.b.b.b.b.b.b.b.b.b.b.b.b.b.b.b.b.b.b.b.b.b.b.b.b.b.b.b.b.b.b.% + % % @ o o o @ = O p b v v v v v v v v v b C M { Q ` ) ' ' ( ^ U U U ",
"b.b.b.b.b.b.b.b.b.b.b.b.b.b.b.b.b.b.b.b.b.b.b.b.b.b.b.b.b.b.b.b.b.b.b.b.b.b.b.b.b.b.b.b.: + + % = O o o @ = O = x v v v v v v C  .| ` ) ' ' ' ' ' ' ' ' ( ^ U U ",
"b.b.b.b.b.b.b.b.b.b.b.b.b.b.b.b.b.b.b.b.b.b.b.b.b.b.b.b.b.b.b.b.b.b.b.b.b.b.b.b.b.b.b.b.b.$ # % = = O o o % O o 1 v B m ] E R ^ ' ' ' ' ' ' ' ' ' ' ' ' ' ' ^ U ",
"b.b.b.b.b.b.b.b.b.b.b.b.b.b.b.b.b.b.b.b.b.b.b.b.b.b.b.b.b.b.b.b.b.b.b.b.b.b.b.b.b.b.b.b.b.b.+ # O = @ o o O o o + r Y U U ~ ~ ~ / ' ' ' ' ' ' ' ' ' ' ' ' ' ( / ",
"b.b.b.b.b.b.b.b.b.b.b.b.b.b.b.b.b.b.b.b.b.b.b.b.b.b.b.b.b.b.b.b.b.b.b.b.b.b.b.b.b.b.b.b.b.b., + O = = o o o @ o o 0 I U U ~ U U ~ ( ' ' ' ' ' ' ' ' ' ' ' ' ' ' ",
"b.b.b.b.b.b.b.b.b.b.b.b.b.b.b.b.b.b.b.b.b.b.b.b.b.b.b.b.b.b.b.b.b.b.b.b.b.b.b.b.b.b.b.b.b.b.b.+ O = = = o o = o o 7 q U U U U U ~ ~ ( ' ' ' ' ' ' ' ' ' ' ' ' ' ",
"b.b.b.b.b.b.b.b.b.b.b.b.b.b.b.b.b.b.b.b.b.b.b.b.b.b.b.b.b.b.b.b.b.b.b.b.b.b.b.b.b.b.b.b.b.b.b.: O = O = @ o = @ # 8 7 e ~ ~ U ^ ^ / ( ' ' ' ' ' ' ' ' ' ' ' ' ' ",
"b.b.b.b.b.b.b.b.b.b.b.b.b.b.b.b.b.b.b.b.b.b.b.b.b.b.b.b.b.b.b.b.b.b.b.b.b.b.b.b.b.b.b.b.b.b.b.b.@ @ = = = O = = & 8 7 9 I / ( ' ' ' ' ' ' ' ' ' ' ' ' ' ' ' ' ' ",
"b.b.b.b.b.b.b.b.b.b.b.b.b.b.b.b.b.b.b.b.b.b.b.b.b.b.b.b.b.b.b.b.b.b.b.b.b.b.b.b.b.b.b.b.b.b.b.b.b.= % % = % % % * 7 9 9 q ^ ' ' ' ' ' ' ' ' ' ' ' ' ' ' ' ' ( ' ",
"b.b.b.b.b.b.b.b.b.b.b.b.b.b.b.b.b.b.b.b.b.b.b.b.b.b.b.b.b.b.b.b.b.b.b.b.b.b.b.b.b.b.b.b.b.b.b.b.b.< = % % % = % . 6 7 9 7 e ( ' ' ' ' ' ' ' ' ' ' ' ' ' ' ( ( / ",
"b.b.b.b.b.b.b.b.b.b.b.b.b.b.b.b.b.b.b.b.b.b.b.b.b.b.b.b.b.b.b.b.b.b.b.b.b.b.b.b.b.b.b.b.b.b.b.b.b.b.% % = = % %   6 7 7 7 9 I ( ' ' ' ' ' ' ' ' ' ' ' ' ' ' / / ",
"b.b.b.b.b.b.b.b.b.b.b.b.b.b.b.b.b.b.b.b.b.b.b.b.b.b.b.b.b.b.b.b.b.b.b.b.b.b.b.b.b.b.b.b.b.b.b.b.b.b.> % % % % = - 6 6 7 9 8 9 U ' ' ( / / ^ ~ ' ' ' ' ' ' ' ( / "
};
