/* XPM */
static char *result[] = {
/* columns rows colors chars-per-pixel */
"80 80 50 1 ",
"  c #464646",
". c #474847",
"X c #4C4D4C",
"o c #4F514F",
"O c #4F4F50",
"+ c #504F50",
"@ c #4F5150",
"# c #535454",
"$ c #565857",
"% c #575758",
"& c #585758",
"* c #575958",
"= c #5A5B5B",
"- c #5E615E",
"; c #5F6360",
": c #626462",
"> c #666966",
", c #676768",
"< c #676A68",
"1 c #6B6D6C",
"2 c #6E716E",
"3 c #6F6F70",
"4 c #6F7070",
"5 c #747474",
"6 c #777877",
"7 c #777778",
"8 c #787779",
"9 c #777878",
"0 c #7B7B7B",
"q c #7F807F",
"w c #7F7F80",
"e c #807F80",
"r c #7F8280",
"t c #838383",
"y c #878887",
"u c #878788",
"i c #888788",
"p c #878888",
"a c #8B8B8C",
"s c #8F908F",
"d c #8F8F90",
"f c #908F91",
"g c #8F9090",
"h c #939394",
"j c #979798",
"k c #989798",
"l c #9B9B9B",
"z c #9F9FA0",
"x c #A2A2A2",
"c c #A9A8A9",
/* pixels */
"hpfhhfshapittittiiiattatdhhattpfhaaah: #aashhssdayyitituituattaudhhaitphhaaah:.+",
"plxhlxllhkhhhhdhfkddhhfklllzlhazzlhke=X&ilzklxllkkhhfhdhhkadhhfklkkzlhalllhhe=X#",
"thlhlxcxllhljahhfffhkhfljhhjzlkkllh01&X+ekzskzczkkkkhdhhdhfhjhflkdkkzlkkllh03&X+",
"tha5tptt0e0005885878e0085000ptt0tt053&X#qhd5tayt0qq905885777w0w76600itt0tte55#X#",
"thhtpatttt05053855867ee557000w00tt053&+#qhhtpptttt05055855057w0555ee0e00tt055&++",
"thlaat500w5557758555155570tete3<5ee85&X&thkdat500e5536658555155560eeee3,5ee05#X#",
"tlxpae5080555805585533530t0tht015te07-##qlzaae5060685805585833558t0tke815te05=##",
"ahlt021580ttttp0751353550535515031ee3=&=ykktq11568tetta8851333550625526021ee5=&=",
"tah0925977t00et0e851755557q5126t05t03=&&eaf0625066t0eet00031735756q5318t05e83=&#",
"thd569qq50810050853173555513555q0t053-+=ekf566q06061606685310373551355500te73=#&",
"thq<2122541,505075565831,1150q5621508:#=ehe12222353,505067577711>,22005651500:+&",
"tdt5511255560008085678805315000q2>200=X#eft36<2235585e08805870805335e00q2:100-X#",
"eft35<<50066411111312600000562560t692$X#wft35,<500883211111135800q6562660q995#X#",
"thi56<<600005555325350ttttp0655<qat01&#&tht55<<60e085553335550etttyq665<qat01&##",
"phe321>2855955552555et0005900022666q2##&ih0251>2525025555555ete0q2666q2260001###",
"qq>:::>::-;>:>,:>>>>1>>>:;:>>1<><><2>&=#0t1::>>-:-::>>>>:,:>1<>,:::><<<<<>>2,==#",
"t<--=----=----------:-;------=--=--->=&&q>--==-=-=----=-----:-;--=---=--=---,=%#",
"-##ooX..XX##oXoXXooooX#o@Xo@o##oo#+o&-,1-##o#XXXXo###ooXoooooX##@o@@o#@oooo#%-,<",
"-&&$$... o=&$#$XXoo#o.=&%###@###$$##&::,;$$#$. ..o=$&#&X.o##+.$$%####$##$$#$&::,",
":&==-==$#&:=-&-$$#$$=#--:=%%==**=&&=::,,:$==-==$o&;===-#$#$$=#--:=%&*=$$=$$=-,,,",
"yitiyayttahaietyi:O&aataatettttwqteqadaaaytyiaittphayetti:O%aataatteutt0rtweadaa",
"hlhhahlzhllklkkhw&X#ikllkfhfhhffshaafhhlhlhhddlzhllklkkhw&X#ukllkffhhhffhadahhhl",
"ttpfshzclxxkkhd03=X#thlhfaahhhffhhhdshzketasdkzxlxzllhde3=X#thlhfaajhfffhhhddfzj",
"61500tisaittt0057=X#tha0e7507088000560q051590tadaattt0957=X#tha0e7308088900570w0",
"56065ydatieti0055&.&pfa0w55888555058705059065ihatyetp0055&.&ada8e558685550555000",
"etp066ytyieeeyq53&+=tda55<,5e0,,370550080ia099ytiyetttq53&+=tda55,,5e0,,17055905",
"pyttayq6eatyytt03&+%taf555<8e5,38we50050yyttaie9tatpttt63&+&tad55517e6,300e00000",
"etydhkhyeyta01821&+&ihw,155511555870600tqtyshkstqtip0102,=+&ihw,175511557860500t",
"0qhhkhha95te05e2:##=eht35006,<0553368tpdeeshkhha06et0502-#&=tdt15007,,0355350tta",
"iyshkssy855558t2:&#=eka085033,3855515tttyyshhssi655557t5:&&=tjd075033,3753515ttt",
"ydatyytt86,>50e61%X-ila75110e858755,1925ydstyatt88,<50081=+=ila751,0e830075,1055",
"etitassty05356te3&#=azi80538e055733150550titasftt05350iw1&#=plu70530e05773312955",
"6655q6665212<2551&$=ihsqq9q52352575355005556066652111256<$#=ikdqt905224157555600",
"66q662<552<<<2<43=#=skhye609322255558wii60q66115221<<1<22=#=fkht05001525555560ty",
"0qqq622602<<2<<4,=#=hkyt09095525553550ttqqqq6226q2<11<<22=#=hkieq6065555551750tt",
">222>><<>>>>>>:<,#+#qt<;>:>1>,<>:-::>><1<1111>1<>>>>:>:>>++&0y>::>>1<,>>;-::><11",
"-;;-;-;-::--=-=;>&+=q2;>:-;;;;;-==--:----;;;;;-;;;;----;<&o=q1:::-:-----==--;---",
"######$#@###@@#Xo##=&oooo#ooo##ooo##$#$##$#o####o##ooooX#+$&=oooo#oo###oXo##$$##",
"-=-$$==$##$$##%X.+###o#oo=#o#&&$$$##=:--====$==&$#$$##$X.o#####o#$o##$&$$$$#--:-",
"-$-:-===-=*$%%=###&&==&&=-==$$=:-==&---=-&->===--==$$==###$$==$$=-==#$=:-==$=--=",
"syassaasputtttetietattitphdat0tasayyd:.#aiafdaaapiutetetiqtaetitphdat0tafaiif:X#",
"plzklczljjhhhhdhhkffhhfklllzlkazzkhke=X&ilxhlczlkkfhhhfhhkdfkhdklllzlhdlzlhke&X#",
"tklskxclkljjhdhhffhhhhflkdhkzkhkllh03&X#ekzflzclkkjjhdhhdhfhkfflkdhjxlhlklf03&X+",
"ths5tyti0w0005805858e0e78000iit0tt053&X+tha5tpit0w0007885666e0e68000iiq0tte53#X+",
"thhtaatitt05055055078e0556e00ee8tt055=+#0hhtpatitt07055855056ee558008e08tt053&++",
"thlsaq59005758558555155580eeee3,5ee03&X&thlaaq500w5536558555155550ttte5<5ee05&X&",
"qlzaye5080755505585833550e0tkq615tt05=#&0lzaae5600575605585813530e0tht015te06=#&",
"aklt031580tettp05513315786356166210q5=&=pllte12570tetta86513535505555158510t3=&&",
"qah0825899t00et80053735558w7119i05e05=#&eah0922677t00tt0003173775606118t05t03&&&",
"thd656eq68818q8885118355531355600t063=#&qhd566tq7981005085318353553155500t053-+&",
"tfq12222552>505887557711,1150q2651508:#%ehe12<25251,505055575711>115e05621508:#&",
"tdt352<252555qq8888780805333q00q2>100-X&eft262<255587000007770005215e80e2>200-X+",
"edt33<<6q888522111115500000562690t695#X#eft15<<60856513111113500q06502560t662$X#",
"ihi56<<90e085533315550ttttye652<0at01##&eki56<<60w005515315550etttyq662<qat02$##",
"adq251>25555555525550t0005500022696q2##=yse32<>2525955555555ete065600022666q2###",
"eq>:::>;:-::>>>>>>>>2<>,:::><1<1<>>2,$=#0t>::>>-,-:>:>:>:,>>1>>,::;<<<1><><2>&=#",
"q>--==-==----------:;;:=---=-=;=---->=$$q<--=--=--=-;==;----:-:-----=------->=&&",
"-##o#XXXXX##oXXXXX++XX##oooo@##Xo##o$-:<-##ooXX.Xo###oXXoo#XXX#o@Ooo@@@oooo##-,<",
"-$&$$. ..o=$$#$XXO#+O.=&$###@####$##&:,>:$&#$X X o=*$#=X.+###.=$%####$###$##&:,,",
":===-&=$+=:=-$-$%#=%=#--;=%*===&==$=->,,:&==-&=#o$:==*=%=##=&&=-;=%%*=**==&=-,,,",
"yytyaaitqahatttti:O%aptdatrttuewteetadaaaptipapttyhateuui:O%aptfatetuuewqt0tadpa",
"hlhhahlzhllklkkhw=X#uklkjhdhhjfdffdafhklhlhhahllhllkzkkfw&X%tlllkfhffhfdhdaahhhl",
"teysdhzczxxlkhsq3=X#thlhfaahfffdhhffdhzhttpfhhzczxxllff03=X#thlhfadhjdffhhhdahzk",
"6258eqisayett0955=X#thd0w7507080000550e051500tysaytte0057=.#tha0w7307070000570t0",
"55095ysataqeiq055$X&ada8e53888555858606856065yhataeeae055&.&adp0t538685550588050",
"eia090yeyaqeete52$X=eda551,5e0,:36855806eii099yeyiqqqte53&+=taa55<,5e0,:16855008",
"yyttatq8eaeaiye95&+$edd55515e5118ee80e60iittayq9eaeayyt63=+#edf55516e5<38ee80008",
"0taahkhyetya0,05,=+&ihe>265531556888680t0tydhkhtetyy8,95>=#&ihe,185531558888580t",
"qqskkkha85ee65q2-$#=tft350e5,,8555355qasqeskhhka86ee85e2:##=tht15e05,,8553356eyd",
"yyshhssy856566t2:$&&ekd865853,5535515yqeyyshkssy856568t2:#&=tks055053,3635535ytt",
"ysatyate66,,50q62&X-ild65110e855855,2855iaayyytt88,,58q63&+-tla95110e858855,1952",
"qeytassty05256tq1&#=ali68530e055555,5855etitasstt05356yq1&#=aly98538e05563513055",
"5555q6662211<2661&#&yjsqe80533515552558q52556q6653,11256<&$=yjs0e8e5225155555500",
"5qe861>651<11<>22=#=sksye8e6333556556eyy6qq662<5521<<1<22=+=sksie6e6122555559qyy",
"qqqqq125q51<11<21=o=hkyt06q65555552650tyqqqq625502<21<<21=#=sjyt05065555551720tt",
",22<>>1<>>>>:>:>:###qy<:>:>,>:>>;;:;>><<<<22>><<<>>>:>:>>#+&qy<:>:,1<><<:-::><1<",
"-::-:-:;-------:1&+=q1:::-;-:-;-==--;----;:-----;:;;---;1&+=02:::--;;;--==------",
"o$#o#o#oo#$ooooXo##&=ooXo#oo##ooXoo#$#$$#$#o####o$##oooXoo&&=oooo#oo##ooXo#o$*$#",
"-======$$o=$$o=X.+####$o#=###=$$=$$$---=-=-====&$#$$##$XX+#######=###&=$$*$$----",
"-$=:=$==-$$#$$$o+##&&$##$=$&##&-==$$=-;--$=;=%===$&##$&#+###&###$=#=##&-===#=-:-"
};
