/* XPM */
static char *result[] = {
/* columns rows colors chars-per-pixel */
"80 80 136 2 ",
"   c #43532E",
".  c #434B37",
"X  c #444C3A",
"o  c #455432",
"O  c #485735",
"+  c #4B5C35",
"@  c #47503C",
"#  c #49533D",
"$  c #4D5C39",
"%  c #515F3D",
"&  c #4E6036",
"*  c #4F6039",
"=  c #526637",
"-  c #53643C",
";  c #58673F",
":  c #56693D",
">  c #596B3E",
",  c #5D713F",
"<  c #464646",
"1  c #474847",
"2  c #494E44",
"3  c #474649",
"4  c #474848",
"5  c #4C4D4C",
"6  c #4D5543",
"7  c #4E5942",
"8  c #4F514E",
"9  c #505747",
"0  c #515C44",
"q  c #51544F",
"w  c #535B49",
"e  c #4F4F50",
"r  c #504F50",
"t  c #4F5150",
"y  c #535454",
"u  c #575856",
"i  c #595B56",
"p  c #575758",
"a  c #585758",
"s  c #575958",
"d  c #5A5C5B",
"f  c #566442",
"g  c #596747",
"h  c #576941",
"j  c #5B6C43",
"k  c #57614A",
"l  c #59644B",
"z  c #5D6B4B",
"x  c #5E7144",
"c  c #5D6552",
"v  c #5E6950",
"b  c #5E615E",
"n  c #606F45",
"m  c #616E4F",
"M  c #627445",
"N  c #667A46",
"B  c #64744A",
"V  c #667A49",
"C  c #6A7C4C",
"Z  c #626C54",
"A  c #60645D",
"S  c #646C5B",
"D  c #667155",
"F  c #697557",
"G  c #6C7C52",
"H  c #677158",
"J  c #6B755D",
"K  c #6E795A",
"L  c #717D5F",
"P  c #5E5F61",
"I  c #5F6260",
"U  c #626462",
"Y  c #666966",
"T  c #696C66",
"R  c #676768",
"E  c #676A68",
"W  c #6B6D6C",
"Q  c #6C7363",
"!  c #6F7960",
"~  c #6E716D",
"^  c #717C62",
"/  c #71746E",
"(  c #747B6C",
")  c #6F6F70",
"_  c #706F71",
"`  c #6F7070",
"'  c #747474",
"]  c #777876",
"[  c #797C76",
"{  c #777778",
"}  c #787779",
"|  c #777878",
" . c #7B7B7B",
".. c #6E824D",
"X. c #70834F",
"o. c #768C4D",
"O. c #6F8151",
"+. c #728452",
"@. c #768953",
"#. c #798D54",
"$. c #758658",
"%. c #7A8C59",
"&. c #7D9256",
"*. c #7D9158",
"=. c #7C866D",
"-. c #7E8A6A",
";. c #7C8373",
":. c #7F817E",
">. c #80896F",
",. c #859960",
"<. c #828977",
"1. c #80817F",
"2. c #7F7F80",
"3. c #807F80",
"4. c #7F8180",
"5. c #838383",
"6. c #878887",
"7. c #898B87",
"8. c #878789",
"9. c #888788",
"0. c #878888",
"q. c #8B8B8C",
"w. c #8F908F",
"e. c #90918F",
"r. c #8F8F90",
"t. c #908F91",
"y. c #8F9090",
"u. c #939394",
"i. c #969894",
"p. c #979798",
"a. c #989799",
"s. c #9B9B9B",
"d. c #9F9FA0",
"f. c #A19FA4",
"g. c #A2A2A2",
"h. c #A9A8A9",
/* pixels */
"u.9.y.u.u.e.w.u.q.9.8.8.5.8.5.5.8.5.8.q.8.5.q.8.q.u.u.q.6.3.8.e.u.q.q.q.t.U 3 y q.q.u.u.u.u.w.w.q.9.9.9.5.9.5.9.9.5.5.q.8.5.q.8.q.u.u.r.9.5.9.r.u.q.q.q.u.U 3 r ",
"9.s.f.i.s.g.s.s.i.i.u.u.u.u.q.u.u.i.e.q.u.u.t.a.s.s.s.f.s.u.q.d.s.s.u.u.3.d 5 a 8.s.s.i.s.g.s.s.i.a.u.i.u.u.q.u.u.a.r.r.u.u.q.a.s.s.s.s.s.u.r.s.s.s.u.i.1.d 5 y ",
"5.i.s.u.p.g.h.s.a.s.a.a.i.q.u.u.e.u.e.u.i.u.t.s.a.r.i.i.d.a.p.p.s.s.u. .) a 8 r 2.a.s.u.a.g.h.s.a.a.i.a.i.q.u.u.r.u.y.u.a.u.u.s.a.r.i.a.s.s.i.s.s.s.u. .) a 5 y ",
"5.u.q.' 5.6.8.8.2. . . . .' }  .' } { } 3. .3.' { {  .2.6.8.1.1.5.5.1.' _ a 5 y 4.u.r.' 5.9.8.8. .2. .{  .' { { ' { { { 2. . .{ }  . . .0.0.3. .5.5.2.' _ p 5 r ",
"5.t.i.5.9.q.8.5.5.5. .'  .' _ { ' ' { ' } 2.2.' ' {  . . .3. . .5.3.2.' _ d 8 r  .u.i.5.9.9.9.5.8.5. .' { ' ' { ' ' } { {  . .{ ' {  . .} 1. .} 5.3. .{ W d r r ",
"8.u.s.q.q.4.'  . . .' ' ' { { ' } ' ' { ) ' ' ' {  .5. .5.5./ E ' 2.1.} _ a 5 a 5.i.s.q.q.4.'  . . .' { ' { { ' { ' { { W { { ' {  .1.1.5.1._ T { 2.5. .' a 5 y ",
"5.a.g.9.9. .{ }  . .{ ' ' {  .' { { { { W _ ' _ } 3. .5.u.5.{ W ' 5.1. .{ d y a  .s.g.q.q.4.' | }  .{ ' ' {  .' ' { ' } W ) ' ' } 5. .5.u.5.{ W ' 5. . .{ d y p ",
"9.i.s.5. .' W { {  .8. .5.8.9. .{ ' E _ _ ) ' '  .{ ` { { E { } _ W 1.1._ d a d 6.p.s.5. .) ` ' }  .8.1.5.5.9. .{ ' E _ ' W ' '  .{ _ ' { W {  .) W 5. .W d a d ",
"5.q.u. .{ ~ '  .{ { 5. . .5.5. .2.{ ' W } _ ' ' ' |  .{ W W | 6. .{ 1. ._ d y a  .r.t. .| ` ` | { { 5. . .5.5. . .} / W ' _ ' { ' {  .{ W W  .5. .' 1.} _ d y a ",
"5.u.q.{ { { :.:.{  .{ W }  .{ { } ' W W { ' ' ' ' ' W ) ' ' '  . .5. .' ' d y d 5.u.t.' ] ] 4.:.{  .} W {  .{ } } ' ) W } _ ' ' ' ' W _ ' ' {  . .5.1.{ _ d y a ",
"5.u.4.E / W ~ ` ~ ` W Y {  .' } { { ' { ' { W W E W W ' 2. .' | ' W '  . .U y p 3.u.3.W ` W ~ ` ' / W Y {  .' } } { ' { ' } W W Y W W '  . .{ { ' E '  . .U y y ",
"5.r.4.' ' W W ~ ' ' { { {  . . .} } { { }  .}  .' ) W ' 2. .| :.W T ~  . .d 4 p 3.t.3._ ] W W ` _ ' '  .]  . . .}  .{ { }  .}  .' ~ W ' 3. . . ./ Y W  .2.d 5 y ",
"3.r.5.) ' E E '  . .} ] / W _ W W ) W W ~ '  . . . .} ' | ` ]  . .:.] ] ' p 4 p 1.t.5.W _ E T '  . .} { W ) ) W W ) W W _ { }  . .:.| '  .` ' [  .5.{ } ' y 5 r ",
"5.p.5.' ] E E ]  .:. .} ' _ ' _ W ) ' ) '  .5.5.5.5.9.3.| ' ~ T :.q.5. .W y y p 3.i.8.' } E T ]  .2. .} ' ) ' W ) W ' _ '  .5.5.5.5.0.4.] ] ` E  .q.5. .W y a y ",
"9.q.3._ ` W T ~ { ~ ' } ' ' { ' ) ' ' ' :.5.:. . .' {  . .| ~ ~ ]  . . .` y y p 8.u.1.) ' W T ~ ] W '  .' ' { ' ' ' { '  .5. . . .' ]  . . .~ ~ ]  .} :.) y r y ",
"5.5.E U U U Y U U I U U Y T U U Y Y Y T W T E U U b U T T W T E E Y Y ~ T s s p  .5.T U U U U U U b U U Y T U U Y Y Y T W T T Y U I I Y Y E W T E U T ~ Y d d y ",
"5.T b d b d b b d b d b b b d b b b I b I b b b b b b b b i b b b b b b T a a d 1.T A d d d b b b b d b b d b b b b b b I b U b d b b b b d d b b b b b T d p p ",
"b y y t 8 5 5 1 5 5 y y 8 8 8 5 8 8 t 5 8 8 y y 8 8 8 8 8 y y 8 8 8 q q p P R R b y y 5 q 5 1 5 5 5 y y y 5 5 5 8 8 8 8 8 5 y 8 y 5 8 8 8 y y 8 8 8 8 8 p P Y R ",
"b u p y u 4 < 1 < 8 d p i y s 5 4 8 y y 5 4 u u a u y y y u y y y u y a a U U W U p a u i 5 < 1 1 y b y d y d 5 5 8 y y 5 1 d u d y y q y u y y p u y u p U U R ",
"Y u d d I u d u y a U d d i b p u p p u d p b b b a y y u i y u i i y a d U U U A y i u b y u a 8 y b d d y d y y t u u d p b b P d p p u d u s d s u d P R R R ",
"6.8.5.8.9.q.9.8.5.q.u.q.5.5.5.8.q.U r y 6.9.6.q. .M B M $.$.C +.+...X.C X.%.G n j - Z 1.( V C G &.G  .r.( M +.%.%.j $ f 9.9.8.q.q.5.5.5.6.5.3.2.4.5.2.3.q.r.q.q.",
"u.s.u.u.q.u.s.d.u.s.s.s.s.i.p.u. .a 5 y 5.s.d.s.7.> = M C @.@.+.#.#.@.@.,.X.C B j > Z a.7.C o.@.&...:.f.;.X.%.*.,.O.h j 6.s.s.p.a.t.t.u.u.u.t.e.r.r.r.q.u.u.u.s.",
"5.5.8.r.r.i.d.g.s.g.g.a.a.u.e. ._ d 5 y  .p.s.u.u.( J z ; n %.+.+.+.....X.n - - D Z [ s.u.( L K K ! u.a.-.V C V O.j > j 5.u.s.i.t.q.q.u.u.t.t.t.u.u.u.r.r.u.d.i.",
"{ W '  . .5.6.u.q.9.5.5.5. . .' { d 4 q :.u.q./ 5.8.8.J O j +.@.C C C ..C f - - }  .1.{ '  . .}  .8.:.2.J C B x j h : f 5.u.q. .3.{ '  .}  .{  .|  . .' {  .2. .",
"' {  .{ ' 8.q.9.8.6.5.5.8. . .' ' a 3 a  .u.u.5.8.6.8.S $ j V C B j M M V ; ; % W  . .' W W _ ] ]  . .] / x j > B j - f 8.r.q. .1.' _ { } [ _ ' '  .' { ]  .{  .",
" .6.6. . . .8.5.8.6.1.1.1.8.1.' _ a r d 5.u.a.r.q. .{ k $ h j V j - ; n n - - > Y _ { ' ) n j S 4. .f * H ' S x V 7 2 p 5.r.q.` ' W R ' 3. .R R W { ] { ' }  .} ",
"9.6.5.5.9.8.1.] 1.q.5.6.8.5.5.{ ' a r y  .s.g.9.9.3.' k O - C C j % : n n ; + - Y ) ' _ ~ N M D u. .- = D 5.( V V 0 t p 5.q.r.{ ' ' W { 1.{ R )  . . . . . . .{ ",
" .5.6.e.u.i.u.6.1.8.5.6. .E  .' E d r a 9.i.s.5. .W W T z k z > % l z j M ; 9 w W ) _ ' / k g S ' T Z H U ) ~ x : w p d 8.u.2.Y W { ' ) W W ' ' {  .] } {  . .5.",
"1.1.u.u.u.i.p.q.} { 5.3.} '  .~ A y y d 3.q.t. . .W _ } { ) % O l  ./ n N Z _ R ' _ ' { ' _  .' W W ' 3.{ { ' = - w y a 5.u.5.W '  . .{ R W } _ ' _ _ { {  .9.w.",
"6.9.q.u.u.u.q.6.} ' ' ' {  .5.' U a a d 5.u.r.' { '  . .{ ' w o c  .W n ; m _ W } _ ' W ' E T R ' ' '  . .5.' j > w y d 2.i.q. .{ '  .' ) R _ { _ ' ' W ' 8.5.5.",
"9.q.q.8.6.q.5.5. .{ E R ' } 1. ._ a 5 d 3.u.3.W T j f S _ W Y d _  .T % - Z _ ' ' ' c > j n M J 2. .` { ~ W / [ ~ d y a 8.s.q.} ' E E  .3.} ' } } ' ' Y W  .' / ",
"1.5.9.8.9.e.w.5.5. .' ) / } 5. .W a y d 3.t.3.' ~ > > Z ' ' ' ' ' 3.~ - , Z ' } '  .H > M V @.^ 2. .{ 2.W Y W  . .d 3 p 9.s.8.{  .{ _ } 3. .{ ' } _ ' R W  .' ' ",
"] ` ' ]  .[ [ [ ` ` W W W ` ' { E p y u  .w.5.` W - = 0 c v ' | _ _ T w k A W T H J B ....C ..B c c z H ( 4.| | ` u 7 w 0.a.q.4.5.{  .{ ~ W ` W ' { ' ) ' ]  . .",
"|  .4.| ] W W ' ' W W E T T E ` _ d y d 5.u.8.' / - * $ = = ~ | _ _ _ ) W ) _ T , , V %.#.V M - o o + & ! r.4. .W g = f y.a.u.5. .{ 2.| W _ ' ` ' { ' ' ] :.8.8.",
":. .:.:.] ~ ~ ' :.` T W W W T ` W a y d 6.w.:.` ~ = $ $ - % ~  ._ ' ' ' ' _ / Q M M C +...x x h $ * - + H 2.] :.) k * g y.p.0.5. .]  .] { ' ` ' ' ' ) { '  .5.5.",
"T ~ ~ W E E E ~ E E E E I Y I T Y y y y [ :.E b U % + + $ O b U Y Y Y A Y l % ; j x M N j = = h O $ c b Y U Y ~ I w * j :.6.T U Y U T ~ E T E E I b U I U E E W ",
"I I I I I b I b I I I b I d b I W p r d :.E b b d - & * = $ i b b d d d P 0 = - $ : M x > - - - + $ b d b b b b E w + f :.W I Y U b U b b b b b d d b b U b b b ",
"t u u t y y y y t u u t t t t 5 r y y d d y 8 8 8 @ X + $ $ t y q 8 5 5 5 2 # # . X O $ o O o O $ $ 7 7 6 t 8 8 y k g c u 8 t 6 5 y 8 8 y y y 5 8 8 t y u u p y ",
"d d s d s s s s y u u u y y d 3 3 e r p d d u u d 4 3 # : x u s a y d 5 1 8 y y 5 < # = - > ; - f h & O 6 s y i s U U R u t t t 8 d 8 y y i a u y u u y b I I b ",
"U d b U P d d d I s s u p a d y y y p d b 8 u q i y 8 7 > m b d d u d y a y p y p p i $ % - > j j * $ O # t t y i u i b d d s s d I d s p u d U b b d y d b U d ",
"r.0.q.u.w.r.q.q.9.9.5.5.2.5.3.5.5.5.5.6.B j V M M ....F  .8.y.9.5.5.5.5.9.P 5 a 9.9.3.6.:.[ [ [  . . . .Z ; g M V n N B 3.5.9.5.q.t.e.9.5. .5.q.t.q.9.8.t.U 5 r ",
"9.s.d.a.s.g.d.s.a.i.u.i.u.u.r.u.u.a.t.e.$.&.&.&.....N K i.u.s.a.s.i.a.u.2.d 5 a 8.p.p.p.s.t.e.e.u.t.t.t.L , > N M G @.%.u.u.t.s.s.a.s.f.s.a.q.f.d.s.u.a.3.d 5 y ",
"5.i.d.y.p.g.h.d.a.s.a.i.u.r.u.u.r.t.u.q.V ..=.( ( ( <.u.d.g.g.s.a.u.r. ._ d 5 y 5.u.s.i.e.9.q.u.u.t.t.t.:.J J S z K +.$.u.u.t.s.i.t.i.a.d.s.i.a.s.s.t. ._ a 8 r ",
"5.u.r.` 5.9.5.8.2. . . .2.' { { ' } { { B j S  .2.5.q.u.9.9.5.5.5. .} ' ' d 3 r 5.e.q. .3.{ '  .{  .'  . .2. .' ' J C +. . .1.{ {  . . .6.6.3. .5.5.3._ _ y 5 r ",
"5.y.i.5.9.q.5.6.8.5. .'  .' '  .' ' } ' g - S } ' 5.q.0.5.9.4.5.8. . .' ' p 5 a q.e.9. .3.' ) } { { ' ' ' } ' / ) J C B ' 1. .' ' {  . .} 1. . .5.3.1.' ) a 8 r ",
"8.u.s.r.q.5.' |  . .' ' ' ' { ' } ' ' { ' [ 5. .] | 6.5.9.9.2.2. .8.3.' W p 5 d 1.r.r._ { R U ' 1. .R U W { ' B M Z W T W { { ' }  .3.5.5.1._ E ' 1.3.} ' a 8 y ",
" .s.d.q.9.2.{ ] ]  .{ { ' '  .' ' } { ] 5.5.5.5.9.8.2.{ 2.0.5.9.8.5.5. .W d 5 y 3.e.r.' ' _ W ' 1.{ R ) {  .{ C N F ' ' W ) ' _ } 5. .5.u.5.{ W ' 5.1. .{ d y y ",
"9.i.s.5.:.~ W ' {  .5.1.5.5.9.[ } ' W W  .5.8.q.u.u.u.9.4.5.5.8.( z H W W a y p 8.t.1.U W { ' ' W W ) ' { { / B N Q } 5.{ ) ' '  .} _ ' ' W {  ._ W 1.3.W d a d ",
"5.q.t. .| ` ` | | { 8. . .5.5. .2.{ ` W  .2.e.u.u.u.u.q.{ { 2.4.S = - S U y y d 5.e.5.W '  . .{ R R { ) ' _ W D V ^ 9.q. .) ' ' ' {  .{ W W } 5. .{ 1. ._ d a p ",
"8.u.q.{ ] ] 4.4.| | } E }  .{ { { ' ` W 8.8.e.u.u.u.e.5.{ ' ' ' F > f W U a a a 5.p.q.W Q / } ~ ) R _ ' ' _ ' n x =.5.:. .) ' ' ' ' W _ ' ' {  . .5. .{ _ d y a ",
"5.t.5.E ` W ~ ` ' ` ~ Y ]  .' } { { ' { 8.q.q.5.6.9.5.1.} { R W z M f / W p r d 8.s.<.x C @.@.^ 2.} ' { } _ _ A U { ~ ' ' { ) W Y E W `  . .{ { / W /  . .U y p ",
"5.r.5.' ] W W ` ' ` { { {  .}  .{  .{ {  .5.8.5.9.e.w.5.5. .) ) k > - ' W a r d 9.a.-.@.@.#.o.L 2. .' ' } _ ' R ~  .' ' {  .{  .' ' W ' 3. . . .~ Y ~  . .b 3 y ",
"3.r.5.W _ E T '  . .} { ' W ' W W ) ) W ' ' ' {  .} ' ' / ~ Z Z j % % W R a y d 6.u.>.@.O.F ! E ) ) ) ) / { ' ) ' {  . .) {  . . .:.| '  .` ' [  .:.| | ' y 3 y ",
"8.u.8.' } E T ]  . . .{ ' ~ ' W ) ` ` ' ]  .:.| ] ~ ~ ' { T x N M - - T ) d r d e.a.>.#.O.~ 2.' W ) _ ) ' ' ' ' {  .8.5.'  .5.5.:.5.9.5.] ] ` E :.q.5.| W p p y ",
"9.w.4.) ' W T ~ { / { { ' ' ' { ` ' | |  . . .:.] ~ ~ ~ ] E x x C > % T E d y d u.a.^ V x ~  .] _ ' ' / ' ' ) { '  .5.5. .4. . .:.' ]  . . .~ ~ ]  . .2.` y y y ",
":.5.T U U U U U U b I T U Y Y U Y T U U T ` ~ W Y - : : : - : j g d d E U y y y  .8.z - h : - A W U T R A P U A U T T W ~ T W U U b I E E E E E T U T ~ U d d y ",
"5.E b d d b b b d b d b b b d b b A I b d U b b b : : h j - - j f d b I T s t d :.W l = - * = k I b b b d d A d b b d I I I I b b d b b b b b b b d d A E d a a ",
"b y y 8 q 5 4 4 5 5 y y q 8 8 8 q 5 y 5 8 p y 0 f h = = : : = = 7 e t 5 t t y d u 8 # o O O $ $ l g 8 8 5 5 q w 0 6 6 w t 5 y t t t t 8 t t y 5 8 y y q p P U W ",
"b u s p u 4 < 4 4 5 d a u y u 5 4 5 y y y d 7 > , : : : : j j : 7 y y 4 3 5 r y y y 6 o O + - + : : y y p p q > = + * + 8 4 s s s y y y y u y y y u y y a U U R ",
"U u d d b d d p y d U d d u b y p p p a b d w > f * j j j x j j l d u y y p a a a y w % $ f h h x j a A d i i j x f - h d p b b U d y p s d u s d d a d P Y R R ",
"9.6.5.8.q.q.9.5.5.9.u.q.5.5.5.6.q.P e a q.q.5.q.0.4.4.6.5.5.5.4.5.5.2.2.9.q.9.q.9.8.4.5.6.7.5.6.5.q.w.q.5.3.5.6.6.U 5 a q.9.5.w.q.5.2.5.9.5.5.2.5.5. .5.q.q.q.q.",
"i.s.u.u.q.r.s.d.u.s.s.a.s.a.a.u. .d 5 y 6.a.a.a.p.y.y.y.u.u.y.r.r.r.r.q.u.i.a.s.u.s.i.u.q.u.s.d.u.s.d.a.d.p.p.u. .d 5 y 8.p.s.p.a.u.u.r.u.u.r.r.r.r.r.9.u.u.u.s.",
"5.5.9.q.u.i.g.g.s.g.d.s.a.u.y. .' d 4 y 5.u.s.a.u.q.w.u.u.u.u.r.u.u.r.r.q.u.s.i.5.5.9.r.u.i.d.g.d.g.d.s.s.t.t.2.' d 4 p 5.u.s.i.t.q.r.u.u.u.t.r.u.u.u.r.q.u.d.i.",
"{ W {  . .5.0.y.q.q.5.5.5. . .' { d 3 y 8.y.q. .4.| `  .{ } {  .|  . .{ {  .5. .{ W '  . .5.6.w.q.6.5.5.3. . .' ' d 3 y 8.u.q. .2.' '  .{ { {  .{  . .{ {  .5. .",
"/ {  . .' 5.e.9.8.8.1.5.8. . .' ' a 4 d q.r.q.} 3.' _ }  .} ' ' '  .{ { ]  .{  .' {  .} { 5.u.6.8.6.3.5.6.3. .' ' a 5 a 8.t.9. .5.' / } { } ' ' '  .{ { {  .]  .",
" .8.6.}  . .8.8.8.8. .5.1.8.1.' W a 5 d 5.q.q.' { E U ' 1.} R Y ) { { ' '  . .}  .8.6. .}  .8.5.8.6.1.5.1.5.3.' W a 8 d 5.t.q.' { E R ' 1.} R Y W { } ' '  . .} ",
"9.9.5.8.q.6.:.{ 4.q.5.9.8.8.5. .' a 8 a 3.e.t.{ ' ' W { 3.' R _ {  .3.}  . .]  .6.6.5.5.q.6. . .1.q.5.9.8.5.5.} ' a q p 3.q.t.' ' ' W { 1.{ R _  . .3.}  . .} } ",
" .5.6.w.u.u.u.5.:.8.5.9. .E } / T d r a 6.u.3.Y W } ' ' W W ' ' {  .{ } { {  .5. .5.6.w.u.i.u.6.1.5.5.8. .T  .' E a 8 a 8.u.5.Y W { ' _ W W ' ' { } { } { {  .5.",
" .1.u.u.u.u.p.q. .{ 2.5.| ' 4.~ d a y d 3.u.5.W {  . .{ R R  ._ ' ' _ ' { 4.0.q.1.5.e.i.u.i.i.9. .{ 3.5.} ' 1.~ b p y d 5.u.8.W {  . .{ R R  ._ ' ' ) { { :.9.q.",
"6.6.e.u.p.e.w.6.} ' ' ' {  .4.` U d a d 3.a.q. .{ '  ._ _ R _ } _ _ ' ) { 8.5.5.6.8.e.u.u.t.w.5.{ ' ' ' { } 5.~ U p p a 2.i.q. .{ '  ._ W R _ } _ _ ' W { 8.5.5.",
"9.w.q.5.6.q.5.1.{ { E W '  .4.| W p 5 d 8.s.e.{ ' E W  .3.} ' } } ' ' Y W ] ' ' 8.q.q.8.9.9.8.5.} { E E '  . . .) p 5 P 9.s.q.| ' E W  .5.} ' } { ' ' R W ] / ` ",
":.5.8.6.9.e.e.5.5. .' ` ` { 4.4.W d y d q.s.8.}  .' W  .3. .' { } _ ' E )  .' ]  .5.6.6.9.u.w.5.5. .' W ' } 8. .W d y d q.s.9.{  .' _ } 3.} } ' { ' ' E )  .{ ' ",
"{ ' ' ]  .| ] { ` ) W W W ` ' ] W p y a 0.i.w. .1.{ 1.' / ) _ W ` | ' ` ' { |  .' ] ` | ]  .] [ ' W W W W ` ` | W p t d 0.i.q. .1.{ 1.' ~ ) ` W ' { ' ) ' ]  . .",
"{  .1.} ] ~ W ( { W E W E T E ` ) d y d u.p.u.8.1.{  .{ W _ ' ' ' ] ' ' |  .6.0.|  .4.| ] W ~ ' ' W W W T T W ` ) d y d w.p.u.8.2.' 2.{ ) ` ' ` ' { ' ' |  .8.6.",
" . . .:.[ ~ ~ ' 4.` T W W W T ` W a y d u.i.6.5. .} 1.{ ' ' ' _ ] ' ~ ] '  .5.5. .:.:.:.| ~ ` '  .` W T W T W ` W d y P u.i.7.5. .{ 3.] ' ` ' ' ' ' ) { '  .5.5.",
"W ~ ~ ~ T E E ~ E E E I Y Y I T R y y u  .5.E U U U Y W T Y T T I b U U U T W W T ~ ~ W T Y T W E E T U U T I E R y e y :.6.E U U U Y T E Y E T I b U I U T W W ",
"b A b b I b b b I I b b b b d I E p e d :.~ U U U b b b P b I b d d b b b b b b I I I I b b U A I U b b b b d b E p e d 2.W U U U A U b b U I b d b b b I b b b ",
"y u y y y y y y t y u t 8 8 t 5 t y p a u 8 8 8 8 y 8 8 t y t 8 5 8 y 8 u u u p t u t t y y y 8 t y y y 8 8 y 5 t t p a d t 8 5 q y 8 5 8 y t 8 4 8 y t u u y p ",
"d d d d i d d u u u s s u y s 5 4 r y y y y p t y s y y y u s u u u u y d U P d d d b d d s d p u p u u u y s 5 3 t y y y y y 8 r d y y y u i u i u u y b I b I ",
"b u d U d s s d d s u y y u s t y r y p u p y y u b p s y p s b d d d p d b Y d I s s Y d a s d d u u y y u s t t y y p u p p y a d p d y p s b b d s u d b U d "
};
