/* XPM */
static char *result[] = {
/* columns rows colors chars-per-pixel */
"80 80 51 1 ",
"  c #464646",
". c #474947",
"X c #474748",
"o c #4C4D4C",
"O c #4E514F",
"+ c #4F4F50",
"@ c #504F50",
"# c #535453",
"$ c #575857",
"% c #575758",
"& c #585758",
"* c #575858",
"= c #5B5B5B",
"- c #5E615E",
"; c #5F5F60",
": c #605F60",
"> c #5F6260",
", c #626463",
"< c #666966",
"1 c #676768",
"2 c #686768",
"3 c #676868",
"4 c #6B6C6C",
"5 c #6E716E",
"6 c #6F6F70",
"7 c #706F71",
"8 c #6F7070",
"9 c #737374",
"0 c #777877",
"q c #777778",
"w c #787778",
"e c #777878",
"r c #7B7B7C",
"t c #7F817F",
"y c #7F7F80",
"u c #807F80",
"i c #7F8080",
"p c #838383",
"a c #878788",
"s c #878888",
"d c #8B8B8C",
"f c #8F908F",
"g c #8F8F90",
"h c #908F90",
"j c #8F9090",
"k c #939393",
"l c #989798",
"z c #9B9B9B",
"x c #9F9FA0",
"c c #A2A2A2",
"v c #A9A9A9",
/* pixels */
"prskfffhfauuusppapadpudpgkkgapahlkdfl<X$uyskkkffdsuuyappappdppdadkkfauafkkkfk2X#",
"ytsllvxzllfkklfkhlfhkkhlzlzzlkdczlklu*o&ryskkvxxllfkklfkklhhkhhlzzlxzkdxxzkku=@#",
"upskkxvzzk95udkkfkkdpusxzdllczllzckw7&o#wpakkcvzlk95ydkkhhkhpusxlfkzxzllzxkw5&@@",
"udd9ppupuw&&49qr9wq996rrrrrpsdprssp97&o@ufd0ppupu0=&49ww9ww997rrrrrpdduysau99&o#",
"rddpprpyyq,,799r99q97ww799rurrrqppr96*@#wdfuututu0<,799r79wq7wq970ruwyrwppu95=@@",
"allap-=&&&9qqrrqrrrr9r7,1qrrrq*$<yyr9*o&pzksu-=&&=9wwrr90rr09r7,20rwrw=&2yuw0#o#",
"pzcdp,===,rwwrr99rqr69949prplr3:7uyrw:#&uxcds,===,wwwwu0qrwr49927urpky2:5uuw0=#&",
"pkp<<49996==9pprqrqw76474,=24,<155ry7===uky<<59995==7pprqrqw97477,:<7-2255uu7===",
"ra8*=tpsyw+ 1pprrprq99497&:::=,490yr7=&&0a7=-upsyqo <ppryur999794=:,:=,49wyr7=#&",
"rdr<<tsprw*@,q699ww7949q9,,<44<5wpr07:#=rhw,<0ssyq%#,r4q9rw7966q9,:,44240pr97:#&",
"pkder<<0rrir2$*4<6q9337u99r2<4pd04597:#&ykfw0<<0rrpr2&*3,4q9336r90r2,4pa04599:#&",
"pdfer4<9rrya3;,649qw66rpw7q2:<pp9<50w=o#yffwt4<8rrup3,>64qw976ra07w<,2pa847w9=o#",
"pdp45<559888466q95440uutrwwqt5,5,--09#o#yfp45<456886394q9545ruprw000t5<5<--09#o@",
"plp69<<599947rqr0959ussurwyppt--=#=t9&#&ukp5944599945errq959ysapu0uppr--=#=t7#&#",
"djp485<5959e99998990rttr09wrt9<5,--r9#@=afu594<5q89e999e9909rtrr090rr0<5,=-r9###",
"ti3,,,<,3,<3<<<>,<,,<>,<,,4<,<45-=-<-$=#uu4>,,<-<,,4<<<>-,<,,,,,<<4<><55-$-4,&=#",
"p<-------=----------,->--------,=@=,,&&=t<--=----==--=------,,,-------->-O=,,*=&",
"-$OOO...oO##OoOoOOOOOo##O###O##O=4<=$,22-#@OOo.oOO$##oOoOO#oo.#OO###O##O=4,-&,12",
"-$$#*....#=#=#$o.o@#Oo$===*$#&##-2:==,,2-&$#$. ..O=$=$*o.@##o.=$*=*$#&##:<>==,12",
",$==>*=$@=,=-$-##==&=#--,,,====&=:==,<22,$==-==$#=,*=*=$*$$$*$,-,<,====&=-==:,1,",
"spppddsiwukfyuywu=@&sspks#@7dpauppppdfdddsusddsurpldpryrr;@&dspks#@7dppuppppdhdg",
"klkldkxd9rxzlfd04@@&alzzl#owzkkhkkhdkkklfzhkfhcs9ezlldsq6#+#allzl#oqzkkkkkhdkkhz",
"kldddlcs9wzlkdp97&o&pkfur::9aphdhkkdakczflfddlcs5rzlkdp67&o%pkkpr:=qapddkkkgdkcz",
"rqqqrpssyppuurw99=.#aky59,;24699urrq9upuu099tpssrpppprrq7=.$pky49,;2649qrrr97upu",
"rppq0pkpwuwwuuw97&o&skr70=,4950wwwq79wwrtuuwwphp0uwwuyr57&o&ahr79:,399qq0w999w0r",
"ipdpuwppsp$=5suw7=@=wa7#=97ruurr999&#<rqusfpurspsp&=5ay09*@=ra7$=99rurrw097=$2r0",
"sspdkpuwup590suuw=@#ra9=,w4wrw9rurr:,4r0appdkppwup79wspuw*@#ra9=:w7wrw9rrrw--5ww",
"rppsfffupu-,<,<-=:2,aku<7r9rw99w2=,4990rtpppdhdupp=,<,<==,2,ahu<9r9rwq9q2=:5590u",
"updsdffat0@O,,<o.442pkkwuyrr7777:$=wrrpsuudddffsu9@O,,2o.342pkkryyrr7497<#=wruus",
"ssdfkffuw5&=279==,2:pkzyrrrw944w,::49papssdfkffu05#=<79=*22,pklyyrrwq44w2=,40pps",
"pffdfkdr24wwuwuuw&o&sxlrw99ur07r4:,44ppppffdfkdr22rrrwyyr*.&sxlrw99uwq9w2=:72upp",
"rpaadkkr09uw00pu9=@=fzkyprwrrw994:,75rrurpaadfkuw9uwwwau9=@=fzkyuwqruw7q4:255uur",
"99990t99re5559r94##&sls000u0450t,#$4769q9900wr00009550t9<$#*sls900t055ru<#&55990",
"ert005<tt05545442=#=fzt090r945rt:X@69rpp00u00540t05444<44=#=fzp090r044wt=X@79wup",
"trtt0550e85<4<<84&#=kztpu0t09999:%&95rppttrt055005<444454$O=kzupt0r09999:#&95wpp",
"<555<<<<>>-<->-54#O#tp4<5,,44,,<&#&+o-4<<555<<4<,,,->>-5<###tp4<<<<52<,,=#=oO-54",
"--,----->---=-=<5&O=t5>,>>,>>,>,$#&##---->>->->>,------,4&@=t5><,------,#@$#@---",
"#$#O$$$O$#$##oOoOO&&=OOOOOOOO#OO&3449<$$###O$#$@O###OOOOO##=$OOoO#OO###o=4429<$#",
"-$--$*$$#$$$$#%. @##O##OO=O##&&&=32,54---===$==&####OO$..O@##O#OO&O##$&#=<2252,=",
">$-,==-=-$$$***###&&=&&$&>==#&&,,,,*,,>=-=-,-&==---#$-=###$==&$$=,$&$$=,,,,=,,,-",
"ptsfdfddssrrrapppppsurspdffdpypdkfddk,o#urafffdddprrypuppppsuuapsffdpupfhffdh2.#",
"rtsllvxxllkkkldkklhhlkklzzlxzkfcxzllu=@&rudklvxxllkkklgkklhkkkklzzzxzkfxczklu=o&",
"rpsflzvzlk96udkkdkkfppsxlfklczlkzxk04&@#rpdhkxczlk96udhkffhhpysxzfklczlkzxkw7&o#",
"ufdqupppur*&49qr9wq994rrrrrpdduudpy97&o#rfd9pppppe=*49qr9ww997rrrwupdduuspu97&o#",
"rdfppuuuuq<,699r790q7wq999rywyrwppu94&O#rddpprpyrr<,799r790q9q9999ru0urwauu96=o@",
"alkap==&**7qqrrqrrr09r7,29rrrw=#<yyw9=o&pllap-=***99wrr9rrr09r7,2wrwr0=#2uuw9&o&",
"pzcda--==,wwqrrq9rwr799<9prpky3,4pyrw:#&uxcdp,===,wwwrrq9rwr79939urpku2:5purw=##",
"pky<<49997==9pprwrqw77477-:24,,245uu5=&=pky2<49997==9pprwr9q97477-:25-<245rt9===",
"ws5=-tpsuro 1purrpr999694&:,=-<490yr7=&&qs8*-tpsuwo <uurrpr999797&:-:=,49wyr7=&&",
"ufr,,tppre*#<q999rq8949q9,,,43240pr07:#=rjr,,tspyw&#<r7q9rw6966q9,-24424wprw7:#&",
"pkdwt,<9rrtr3$*3,699416u79r424ps04599:@&ikdrr<<9rrpr3**3,697436y99r222pd04597:##",
"udfrt4<9rrtp3;:94qqq66rpw6q1,<ps8459q=o#pdf0r4<9wryp3>,84qwq67rpr5w2,<pa9<50w=o#",
"uhp444<59885466q95440uprrwq9r7>5<--09$X#rgp45<<58895388qq445wuprr009r5,5,--09#o@",
"akp5945599959qqre959usstywppsr--=#=r7$$&plp495559q886rerq959usppr0yast--=#=r9$&#",
"dft594<5959e999q99e9rttrw9qrr045,=,r9##*sjp69<<5989e999e59e9rrrr000t00<5>=>r9###",
"uu<,>,,,<,,4<<,>,,,,<>,,<<3<,<45-=-<,**#ti<,,,,,3,<3<<,>,,<,<><<,,4<,<55>--4-$=#",
"p<-=-=----=--=--,--->--------==,=#=,,=&=t4--=--------==>------,==-,--->,*#*<,&&&",
"-##OOo.o.O$##O.O+o#oOO###O###$#+=5<&=>,4-#OOO.o..O###OOoOO#OoO#####OO$OO=44*$,22",
"-$$$*.X..#=&=#=OX@##O.**==*$#$%#-2,==,,2-&&#$....#=$*#*o.o##O.$=*=*&#$##,2:**<,2",
",$==-=*$#*<*=*=#&#%&$$,:,,,==*======,2<<,&==-==$O=,===;#*$%%*$--,<,===&=====:<<<",
"sstpddsurpldprirr=@&dspkd#o5dppupappdfdaaauasddyrpkduryry=+%ddphd#+7gppypappdfdd",
"klkldhcs8rzzlddq6#@%sllll#.wzlkhhhhdkkklkzkkffxd9ezllgdq6@+%allzk#Xwxkkhkkhdkkkz",
"kkddhlcs8rllkdp97&o$plkpr:,9uugglkhdakczhkhdflcs9rzlkga77&o%pkkpy;;9uuhghkhgdkxl",
"rqq9rassrppiprr99=X#pkr79<=26799ryr9qypuyq99rpssrpppurr97=.$pky49,;1667qyyr99upu",
"rppqqpkuwyw0puw95#o&dhr69:,499wwwrq95rwrrupq0skuru00puw57&o&sfr79:-499wwwrq97rwr",
"ppksrrppsp=&5suw9=@=ra6#=97rurww997&#<rqrsfpuwppsp&&5suw9&@=rs7#=97ryyww997$#<rq",
"pspdkpp0ua590apuw=o#rs9=,w5wrw0ryrr::4rrsppdkpuwus590sptw=o&rs0=-w7wrw9rryr:=4rr",
"rpppdfdppu-,<-2==:2<ahu<7r9rw99w2=,499qruppaffdupu-,2-2:=:2,pky29r9rw99w2=,499wr",
"uussdfksr9@o,,<o.442phkwuurr5477,&&wrupsuusdfffau9#o-,2o.442pfkryyrr4759:#=wrups",
"saffkfdpw7&=458$&<2,ulzurwuw944w,::79pspssdfhffpw4&=455-&<3,plluyrrw944w,::79ppa",
"pffffkdr<40rr0ttr&.=sxlrw99ur99w4=,44upppfffhksw240rrwutr*.&szlrw99yrq9w4:,44upp",
"rpasdfkr09yr00st9&@=fzkuurwryw9q2,,55urttupsdkkuw9uwwwau9=O=dxkturwrrw992,,75yrr",
"00900009t05550t94##&sls000u047wu<@&5579009900t09w09580t84#@=sld9w0u055wu,#&4599w",
"0wuwt<<tt05<44<42=#=fzt09wr045ru: @99wup90t004<tuw44<5<54=#=fzt09wrw45ru: #55rpp",
"trrut45505<444454&O-kztpu0r09099-#$97wpptrtt0550r54<4<<54&@=fltpu0re9988-#&550pp",
"44544<44,,,,->-54#O#tp4<4,,5<,,,=#&Oo-44<554<<4<--<--<-44#O&tp444><4,<<<&&&@o-54",
"----,----,-----,5&O=t4>,<->>>,-,$O&#O-,--<-->>>>-,-----<5$@=y4-,,->>,>-<&O&#O---",
"###O####OO##OOOoOO#==OOOO#OOO#OO=2529<$####O##$OO$##OOOoOO#&&OOOOOOOO#OO&4749<$$",
"-===$$=$##-$O#$o @#####OO=#O#$-#:22<54---=--*=&$$#$&##$o.@#####OO&OO#$$$-22,54:=",
"-=-,-$==-$###$=O@##&&$##$=$$$#$-:,===,,--==-=**==$$##$$@####*$$#=-&=$$$>-,:*:,,:"
};
