/* XPM */
static char *result[] = {
/* columns rows colors chars-per-pixel */
"80 80 129 2 ",
"   c #43532E",
".  c #434B37",
"X  c #444C3A",
"o  c #455432",
"O  c #485735",
"+  c #4B5C35",
"@  c #47503C",
"#  c #49533D",
"$  c #4D5C39",
"%  c #515E3E",
"&  c #4E6136",
"*  c #4F6039",
"=  c #526637",
"-  c #53643C",
";  c #58673F",
":  c #56693D",
">  c #596B3E",
",  c #5E723F",
"<  c #494E43",
"1  c #47454A",
"2  c #4C4C4C",
"3  c #4D5543",
"4  c #4E5942",
"5  c #4F514E",
"6  c #515C44",
"7  c #51544E",
"8  c #535B4A",
"9  c #4F4F51",
"0  c #504F50",
"q  c #4F5150",
"w  c #545454",
"e  c #565A54",
"r  c #595C54",
"t  c #565658",
"y  c #585759",
"u  c #575958",
"i  c #5B5C5B",
"p  c #566443",
"a  c #596647",
"s  c #576840",
"d  c #5B6C42",
"f  c #57614A",
"g  c #5A644B",
"h  c #5D6A4C",
"j  c #5E7143",
"k  c #5D6552",
"l  c #5E6950",
"z  c #5E615D",
"x  c #606F44",
"c  c #616E4F",
"v  c #627445",
"b  c #667A46",
"n  c #64744B",
"m  c #667A4A",
"M  c #6A7C4C",
"N  c #626C54",
"B  c #60645D",
"V  c #646C5B",
"C  c #667155",
"Z  c #697557",
"A  c #6D7D52",
"S  c #677158",
"D  c #6B755D",
"F  c #6E795A",
"G  c #727D5F",
"H  c #5E5F61",
"J  c #5F6260",
"K  c #636563",
"L  c #666965",
"P  c #696C66",
"I  c #676669",
"U  c #68676A",
"Y  c #676A68",
"T  c #6B6D6C",
"R  c #6C7363",
"E  c #6F7960",
"W  c #6E716B",
"Q  c #717B62",
"!  c #71746E",
"~  c #747B6C",
"^  c #6F6E70",
"/  c #706F71",
"(  c #6F7070",
")  c #737374",
"_  c #767975",
"`  c #797C76",
"'  c #767678",
"]  c #787779",
"[  c #7B7B7C",
"{  c #6E824D",
"}  c #70834F",
"|  c #768B4E",
" . c #6E8051",
".. c #728452",
"X. c #768953",
"o. c #798D55",
"O. c #778958",
"+. c #7A8D59",
"@. c #7C9256",
"#. c #7D9159",
"$. c #7C866D",
"%. c #7E8A6A",
"&. c #7C8373",
"*. c #7E817D",
"=. c #80896F",
"-. c #859961",
";. c #828977",
":. c #80837C",
">. c #7F7E81",
",. c #807E83",
"<. c #7F8180",
"1. c #838384",
"2. c #878887",
"3. c #8A8D86",
"4. c #87868A",
"5. c #888789",
"6. c #878888",
"7. c #8B8B8B",
"8. c #8F908E",
"9. c #90908F",
"0. c #8F8E90",
"q. c #908F92",
"w. c #939393",
"e. c #969894",
"r. c #969698",
"t. c #98979A",
"y. c #9A9A9B",
"u. c #A19FA4",
"i. c #A1A1A1",
/* pixels */
"7.7.7.7.:.d b b X.o.M ..O.} } } } o.M x d - N 1.` b M } #.} [ q.~ b ..+.+.x = - 3.7.7.9.:.d b b X.+.M ..o.} } M X.+.A x x : N :.` M M } +.} ` q.~ b ..+.#.j = - ",
"2.y.i.r.3.: : d M O.X...X.o.| } -.A A b > : N t.3.M | | | } :.u.=.} O.+.-...s p 1.y.y.e.3.: = j A X.X...X.o.| | -.A A v > : C t.3.M | | | } :.u.=.} O.+.-. .p s ",
"[ e.y.9.w.~ D h - n +.A } A } } } x ; - Z c ~ y.w.~ G F F Q w.t.$.m n M A d s d [ y.y.w.w.~ D h - n +.A ..A } } { x - - S N ~ y.w.! G Z F Q w.y.$.M M n  .d s d ",
":.w.8.) 1.7.5.S + s ..X.A M M } M ; - % ] >.,.] ] [ ] ] ,.1.>.,.D M n v s ; s - [ e.7.) 1.7.5.S + : ..O.M M M A M ; = % ] [ ,.] ] [ [ ] ,.1.>.,.D M n v s p s - ",
"1.q.w.1.2.2.5.V % a n M b ; b x n ; ; - T [ ] ) / T / ] ) [ [ ` ~ j s s v d : 6 [ w.w.1.7.2.5.V % : n M b d v v b ; : - W [ [ ) / T ! _ ) [ ] _ ! j > > v j - $ ",
"1.w.y.7.7.[ ' 8 + p x M x - ; x x ; - : L ) ) ) W c x N ,.[ p $ S ) P j M 4 < e 1.e.r.7.7.[ ) f + p d M x - : x x - % ; B ] ) / ^ x d V 1.[ a * S ) L j b 4 2 w ",
"1.y.y.7.7.[ ] g + - M M ; = : v x ; $ - L T ) / T M , C q.` - - C <.~ b M 4 w w [ y.i.7.7.[ ' f + ; M M x % : v x ; $ - L ^ ) / R M , S w.` - = S 1._ b m 6 0 w ",
"7.w.y.1.[ W T P g p x d % r g d v ; 4 8 T / ! ) ! g a V ] P N S L ^ W d ; 8 t i 5.e.r.1.>.P ^ P g f d a % 8 g x v ; 4 8 T ^ / ) ) g g V ) U N V B W ! d > 6 y i ",
"1.7.w.] ] W ) ' ] ^ 6 + f [ ) x b N ^ T ) / ) ) ) ) ' / T T ' 1.' ) _ = : 4 t t [ 7.w.] ] W ) ] ' ) $ + g [ ) d b N / T ) / / ] ) ) ' ) T T ' 1.] ) ` - - 6 t w ",
"1.e.7.) ' ! [ [ ] ) 6   g [ T d : l / U ' / ) ! ! W U T ) ) ) ` ] 1._ d > 8 w u 1.w.9.) ] ! [ ` ) ) 6 o k [ T d ; N / T ] / / ^ W W P T ) ) ) [ ] :._ d : 8 w t ",
"1.q.1.U P a a V ^ ^ L i ^ [ P - - h ) ) ) ] B : d x v D [ [ ( ) ( T ( ` W i q t >.w.1.T P s s L ) T L i / [ P - ; c / / / ] N ; j j j Y [ ' ) ) ) P ! ] ! i w w ",
"1.7.:.) W d : k ) ) ) ) _ ,.W - , C ' ] ' ' S > j M X.Q >.[ [ [ W L T [ ' H 2 w <.0.<.( W d : k ) ) ) ) ) ,.T = , c ) ] ] [ Z ; j m X.O.>.>.] >.W L T [ [ y 1 0 ",
">.0.1.^ P ; = 6 k N ) ) ^ / T 8 p z T Y S R n {  .M m n N k k C ~ <.' _ ( u 4 8 [ 0.1.^ P s - 6 k N ! ) ^ ( U f p B T P S P n } { m { n l l l C _ <._ ] / r 6 8 ",
"1.w.1.) ) = $ + = = ! [ ^ ! ) T U ^ ) P , j b @.o.m v :   o & & E 0.<.] T a = p *.r.1.) ) * * + - - ^ [ ( ( ) T U T ) T d , b -.o.m j - o o + & E 0.1.] T f - = ",
"6.8.1.^ T - % $ % % W ] ^ ) ) ) ( ( ) R j v { ..{ j j : $ * - * L [ ` <.( f * p 1.9.*.( W : * O = % W ] ) ) ) ) ! / ) T v v m } { j j s $ * p $ S [ ` [ ^ 8 - - ",
"&.<.L K B % + + O $ z K L L L L L k * - d j v v d * - ; O + z z L L Y W L 4 - s _ 1.Y L z $ $ $ $ $ z L L L K L I g = - > d v b j * - s O O k J Y L U W I 4 = ; ",
"<.Y z i i * - * = $ u z z i i z z 6 = = * p j j : ; = - $ O z i i i i z U 6 $ % &.Y i z u p = $ % $ e z i i i z z 6 - - = : j j s ; - - $ $ z i z J i J P 6 + % ",
"z w q 5 5 @ @ O $ $ w q q 5 2 2 5 < # @ . X $ $ o O o O $ $ 4 6 3 w 7 7 e g a k z w q 5 5 # X O $ $ 5 w 7 2 5 2 5 < # X . . $ $ o o o o $ $ 4 6 3 q q 5 w r x k ",
"H e u e u 2 1 # : j e t e w u 2 1 2 w w 2 1 # = = s ; ; p s & O 4 t w e i H I I J u u e i 1 1 O : j e e t w t 2 1 2 w w 2 1 3 & - s : ; - s * O 4 e w w y K K I ",
"i w w 7 e w 5 4 s n i i i u i t e w e t e t e $ % - : x d * $ o # w w 7 r e r B i w e 7 e w 5 6 > N i i i i i t e w t e i t 8 $ = - : d d * $ o # 7 w w r r r z ",
"j j m j j { { Z ` 1.w.7.1.1.1.1.7.K 2 t 7.7.*.1.:.` ` ` [ ` [ [ N ; d b n j b n j d m v v M { Z ` 1.w.7.1.1.1.1.7.H 2 t 7.7.[ 2.*.] ~ ` [ [ [ ] N s d v n v m n ",
"X.#.#.+.} } b E r.r.y.y.y.e.r.w.[ y 2 w 1.y.t.t.t.q.8.8.w.q.0.q.D d d b v  .X.X.X.#.#.@.{ { b E r.e.y.r.y.e.r.w.[ y 2 w 1.y.y.e.t.w.w.w.w.w.7.0.D , > v v A X.X.",
"n  ...&.~ $.&.e.y.i.i.y.t.w.0.[ / i 2 w 1.w.y.e.8.7.7.w.w.9.8.q.` R D N k F X...n { $.$.~ $.:.e.i.i.i.r.e.w.0.[ ) y 2 w 1.w.y.e.w.7.8.w.w.w.q.q.*.E R S c Z ..X.",
"j j L [ [ 1.7.w.6.7.1.1.1.] ] ) ) i 1 w 1.w.7.` >.] ) ] ] [ ] [ [ >.[ ] ) D M  .j j B ' [ 1.7.w.7.5.1.1.1.[ ] ) ) i 1 w 1.0.7.[ [ ] ! ] ] ] ] [ ] [ [ ' ) D A A ",
"a - V ] ) 1.7.7.1.1.1.1.1.[ [ ) ) y 1 i 7.8.5.] ,.) ^ ] ] ] ) ) / [ ) ! T D M v s - P ] ) 1.w.1.1.5.:.1.5.>.[ ) ) y 1 r 7.8.5.[ 1.) ^ ] ] ] ) ) ( ] ) ( W E M v ",
"_ _ 1.[ _ ] 2.1.1.7.[ [ >.1.1.) T w 0 y >.0.7.) _ U L ) >.` I K T ] ) n v N U P ~ ] 1.] ] ] 1.1.1.5.>.>.:.1.>.) T t 0 r ,.0.7./ ) P L ) >.] I L W ] ) m j k T L ",
"1.2.<.1.7.1.1.] [ 7.1.7.5.5.1.] ! y 0 t :.0.8.] ) ! T _ >.] I / ] >._ M m S ' ) 1.1.1.1.7.1.:.] 1.7.1.2.1.5.,.] / y 0 t ,.8.8.] ) ) T ] >.] P T ] >._ m { Z ' ) ",
"[ <.6.7.w.w.w.1.1.1.1.5.~ h S W U e 0 t 5.w.[ K T ] ) / T T / ) ) ] ! n b R [ 1.` 1.1.7.w.e.w.1.[ 1.1.5.! h Z T T e 0 t 5.q.>.K T ) ) ) T T / ) ) ] ( m v R [ <.",
"[ <.w.w.w.e.e.7._ ) >.,.V = : B K w w y 1.9.1.^ ) [ [ ] I I ] / ) T T C { E 6.8.[ :.w.w.w.w.w.7.] ) :.1.N = - V B w w z :.8.1.^ ) [ [ ) L U ] ) ) ( ^ C { E 6.8.",
"2.6.9.w.w.0.7.1.] ) ) ) S > p P B t t y :.r.3.T T ! ` ^ T L / ] ) ) ) j j ~ 1.<.1.7.q.w.e.w.7.1.] ) ) ' Z > p T L t w y 1.r.3.T T ! ] ! T I ( ) ( ( ( j j ~ 1.<.",
"1.7.7.2.6.7.1.1.] ' L I h v s W ^ w 0 z 5.y.;.v M X...G ,.] / ] ' ) ) z L _ ) ) 5.7.7.1.5.5.1.1.] ' L U g v ; ^ ^ w 0 y 2.y.;.v M X.X.Q ,.' ) ] ' ) ) J L ] ( ( ",
"<.1.1.1.7.7.7.1.1.[ ) ^ g > ; ) ^ t 7 y 7.t.%.X.X.o.| G [ [ ] ) ' / ) U ^ _ ) ) [ 1.1.1.7.8.7.1.1.[ / ^ c : ; ! ^ t w y 5.t.%.X.X.o.| G >.] ) ) ' ) ) U ( ] ' ( ",
") ( ) ) ' &._ ) ( ^ N C s % = W ^ w w u 6.r.%.X. .Z E R ) T ( W ) ) ) ) ) ) ] [ ( ) ' _ ] ` _ ) ! ( z C d * * ! T e w u 6.r.$.X. .Z E Y W T ( W ) ) ) ) ) ) ` [ ",
"' *.<.' ' T W _ ) T j v v - % P ^ i w i 9.y.$.o. .U >.' T T ) W ) ) ) ) ' [ 1.7._ [ <.] ' T T ) ) Y j { j - 6 P ( u q i 9.t.;.o. .T >.' T ( ) ( ) ) ) ) ] [ 1.7.",
"<.*.*.<.' W ! ! _ Y j v b d % U U t w i w.y.E m n W ` ) ) ) ) ) ) ) ( ) ) [ 1.1.>.[ [ >.[ W W ! _ L d j j j 6 T T u q H w.t.D m n W &._ ) ( ) ( ) ) ^ ) ( *.1.<.",
"J T W W J p s s : : ; > g z i P K w q w *.<.l : s - - V Y K Y U K z K B L P P P Y W W W J s s : : : : j s z z J J w q t ` 2.h : s - p B T L Y Y J J J K L Y T Y ",
"J J J J z : = s s : - > 8 i i B T u 9 i *.W g * p * * g J z J z e z z z J z i J z J J i i : : s : : - s a z z J P w 0 i *.W g * - * = 8 H z B z i i z z J z H J ",
"7 e q 8 d : * * : : = - 6 0 7 2 q q t u e 5 <   o O $ * g g 5 2 2 5 q 6 8 4 3 3 q e q f s : - = : : = : 4 2 5 2 q w t u i q @ o o $ $ $ g g 5 2 5 5 5 8 4 4 3 4 ",
"e e 4 s j : : : : d d : 6 0 e 2 2 9 w w w e 3 O O $ * * : > w w e w w : : $ * * u u 4 : j : : : s d s = 6 q u 2 2 9 q w w w 4 O O $ - * : : w t w e w > s $ & * ",
"J z 6 s * * d > > j > d p r r 0 2 2 w w w 5 3 $ * * * d j : e K i e e d d * - - z u 6 d * * , > s j d , a e e 5 2 5 w w e 5 3 $ $ $ = : j : e K u e 8 d j * * : ",
"6.<.2.6.&.d j j X.+.M | X.} M M } X.A d d : N *.~ b M } #.} ` 7.~ j X.+.+.j * - 2.6.3.6.&.d v v X.X.M X.X.} A M ..X.F d d - N *.! b M } #.{ ` 7.~ v  .+.+.d = - ",
"6.i.i.t.3.s > j M O.X.A o.X.| | #...A n d : N t.3.M } X.| } *.u.$. .O.#.-. .s s 1.y.i.t.3.: : d M O.X.} X.X.| | #...A v j : c y.3.M } o.| } *.u.&...O.#.-. .s : ",
"*.e.y.w.q.$.F j - x -.A A } } } } v - - S N ~ y.w.~ G F F Q w.y.&.m m m A j d d ` e.y.w.w.~ D h ; x +.A } } } } { v ; - V N ~ y.w.~ G F G Q w.y.%.b A n A d s d ",
"<.w.0.( <.6.6.L + : A X.A M M A m : - - ] >.,.] ] [ ] ) ,.1.>.,.D m m j s - s * [ w.8.) 1.7.5.V O d ..X.A M M A M s = % ] [ ,.] ] >.' ] [ 1.,.,.D m m j s ; s - ",
"<.w.w.1.7.2.1.V % d n M v ; v v b ; ; - P [ [ ) ) T ) ` ) ` ] _ ~ j > > j j - p [ w.w.1.2.2.4.V % ; M M v x x v n ; ; - W [ [ ) ) P ) ) ' [ ] _ ~ j s s v d : % ",
"1.w.y.7.7.<.' f O ; x m x : ; x x - % ; L ) ) ) T x d B 1.*.f * S ( L j m 4 2 t 1.t.t.7.7.*.' f + a x n x - ; x x - - : V ) ) ) W c d N >.&.f * S ) L j b 6 2 w ",
"<.y.i.7.6.[ ' f O - M M x + % x x d + - L T ^ / R M v Z w.` - = S <._ b { 4 w w [ y.i.7.6.[ ' g + ; M M x + : x x ; $ - L ^ ) / R b , S r.` - = S ,.~ b m 6 w w ",
"7.e.y.<.<.T ^ L N 8 x d % g N x b % 4 8 T / ) ) ) g a B ) U N V L ( ! d : 4 t i 6.e.t.1.[ W T P g 8 d d % 8 c d m ; 3 8 T ^ ^ ) ) g h B ) U N C L ^ ~ d ; 4 y e ",
">.7.w.] ] W ) ] ' ( 6 + f [ ) x b N ^ T ' ^ ) ) ) ) ' ) T T ' 1.] ) _ - - 4 w t [ 7.w.` ] W ) ] ] ! 6 + g >.) d n N / U ' ^ ) ) ) ) ' ) T T ' ,.] ) ` = : 4 t w ",
"1.w.9.) ] ! [ ` ) ) 6 o k ] T d : k ^ U ) ^ ) W ) T P T / ) ) ] ` 1._ s > 8 w i 1.w.0.) ) ) [ ` ) ) 6   k [ P d ; N / T ] / ) T ) P L T ) ) ) [ ] 1.] a : 8 t t ",
"<.w.1.U P s s L ) T L i W [ P - : h ) ) ) ' k : d x v D >.[ ( ) ) P ) _ W i 9 t >.w.1.U P a s L ) T L i T [ P - : c / ) ) ) B : d v j S [ ' ) ) ( T ! _ W i q w ",
"1.0.1.( W d : k ' ) ) ) ) ,.P ; , C ' ' ' [ S d v M } G >.[ [ >.W L T [ [ i 2 w <.0.*.) W j : k ) ) ) ) ) 1.T - , c ) ] ] [ Z > j b | $.>.>.] >.W L T ` ' H 2 q ",
">.7.<.^ P s = 6 k k ) ' / T U f f k ^ Y S S n } { M { v V g h C _ <._ ] ( e 4 8 [ 0.1.^ Y : = 6 k N ) ) T ) P f p z ( U S S C } { m { n l g l C _ *.] _ ( k 4 8 ",
"1.w.6.' ( - * $ = = W [ ) ) ) T U ^ ( P j j M #.O.b v -   o & & E 0.1.] T f - : *.r.1.) ) * * $ = = ! ] ^ ) ( T U T ) P d , M #.o.m j - o O + & E 0.<.] U f : * ",
"6.9.<.( W p * $ - % W [ ( ) ) ) ( ( ) R v v M ..M d v : $ $ p $ L [ ` [ ^ f * p 1.9.1.^ W : * $ % % ! ] ) ) ) ) ) ) ! R v v M } { j j s $ * p * S [ [ *.^ f * p ",
"&.<.U J J * + O O $ z K L L L K I k = - d d v n j = - ; o $ k J L L Y W Y 4 = p &.<.L K J $ + + + # z L K L L K K g * ; > d v b j * - s O O k z U L Y T I 4 - s ",
"*.Y i z i - = * - $ i z i i i z H 6 - - = - v d p ; - = $ # r i z z z z Y 8 & * &.T i i i p & * = $ e i z i i i J 6 = = $ p v j : ; = * $ $ z i i z i z L 6 $ = ",
"z w 5 5 5 @ X $ * $ w q q 5 2 2 2 @ # # . X O $ o o o O $ = 6 6 3 5 5 5 e f f k i w q q 5 @ @ O $ $ w w w 5 2 2 2 3 O @ . X $ $ o O o O $ $ 4 6 3 5 7 7 t k g g ",
"z u u t u 1 1 # : d e w u q e 2 2 2 0 w 0 1 # = - > : ; - : = O 4 t e e u K K U z e u e i 2 1 # : j e i e w i 2 1 2 w w 5 1 # * = s ; ; ; s $ O 3 t t t u K I I ",
"i w e 8 u w 5 3 s n J i i u i e w t t t t t 8 = * - : j a = # o # q q w r r r z z w e w e 5 5 4 d h i e i t i w t t t t e w e * % - : x s - $ o # 7 7 7 e e r i ",
"j d m v j  .{ Z ` 1.9.7.1.<.1.1.7.H 2 y 7.7.*.1.*.` _ ` *.[ [ [ S ; a v n v n b d d m v v  .M Z ` 1.9.7.1.1.1.1.5.K 2 t 7.7.>.1.:.` ` ` [ [ [ ] V : d v n v n M ",
"X.@.#.@.{ { b F r.e.y.r.y.t.t.w.[ t 2 w 1.t.y.y.y.9.9.w.q.q.8.q.F > x v v A X.X.X.#.#.@.{ { b E r.e.y.t.y.e.r.w.[ y 2 w 1.y.t.e.t.q.q.8.w.q.q.0.D , d m v M ..X.",
"n  .O._ ~ $.*.e.i.i.i.t.t.9.9.[ ) i 2 w 1.w.y.e.0.7.7.w.q.8.q.q.&.R R S c A X...m  .F &.~ $.&.e.i.i.i.y.r.w.q.[ ) i 1 t 1.w.y.e.8.7.7.w.w.q.q.q.&.R D S k F X...",
"j d V >.[ 1.7.w.6.7.1.1.1.[ [ ) ) i 1 w 1.9.7.] >.' ) [ ] [ [ [ [ [ ' ' ) D M F j j L [ [ 1.7.w.7.6.1.1.1.[ ] / ) i 2 w 1.9.7.[ >.] / [ ] ` ] [ [ [ [ ] ' Z A  .",
"d p L _ ) 1.8.6.1.7.<.<.1.<.[ ) ( u 2 t 7.8.5.[ >.) ^ ] ] [ / ) ) ] ) W W E A v d p V ] ) 1.w.2.1.7.1.1.1.1.] ) ) t 1 y 7.8.7.] >.) ^ ] ] [ / ) ) ] ) W W E M n ",
"! _ 1.[ _ ] 2.1.1.5.>.>.<.1.>.) ^ w 2 i >.0.0.^ ] P K ) >.` I L T ' ) v v k P Y W ` 1.[ ) ' 1.1.1.1.[ 1.[ 1.:.) T t 7 e >.0.7.^ ) T K ) >.` I I T ' ) v j N P L ",
"1.2.<.1.7.1.<.' <.0.1.1.5.1.1.[ ) y 9 t :.0.8.) ) ) T ] [ ] I W ] <._ m { C ' ) 1.1.<.1.7.1.1.' 1.7.1.1.7.1.4.' ) i 0 y ,.8.8.] ) ! T ] >.] I T ) >._ m { Z ' ) ",
"[ <.2.7.w.e.w.1.<.1.1.7.~ h S T P t 7 t 5.q.>.K T ) ) / / T / ) ) ` W C b R [ <.[ <.6.7.w.e.0.1.<.1.1.5.! h S T U e 0 e 2.w.>.K T ] ) / T T ^ _ ' [ ( m v R [ >.",
"[ *.w.e.w.w.e.7.' _ <.<.N = : J J w w i 1.q.1./ ) [ [ ] I I ] ) ) ( ^ Z { Q 6.7.<.*.9.w.e.w.e.7.] ) >.1.N = : B K w w y 1.w.1.T ] [ [ _ L I ] / ) ( ^ C { Q 6.8.",
"7.1.8.w.e.0.7.1.[ ( ( ' S : s W K t w i >.r.3.T T ! ` ^ T I / ) ( ) ( j j ~ 1.<.5.6.w.w.w.9.8.1.' ) ) ) S > a T B t w y ,.e.7.W P ! ` / / K ^ ] ( ) ( j j ~ 1.<.",
"1.7.7.1.1.7.1.1.' ' Y Y h j s ( T t 2 z 5.y.;.v M X.| Q >.] ) ] ] ( ) z L _ ) ) 1.7.7.1.6.7.1.1.] ) I U h v : ! / t 2 i 1.y.;.v M X.X.Q [ ] ) ] ] ( ) z L _ ) ( ",
">.1.1.1.7.q.7.1.<.>.( ( h s p ~ T i 0 y 3.t.%.X.X.o.| G [ ] ] ) ] ( ) U ( ] ) ) [ 1.6.1.7.7.7.1.1.[ / ^ g : ; ! T t w i 7.y.%.X.X.o.| G [ ] ] ) ] ( ) U ( ] ) ) ",
") ) ' ) *._ _ _ ( T V N d * 6 W U w w i 6.r.%.X.A Z Q T ^ ^ ^ W ) ] ) ( ) ) ` [ ' ( ) ) ` _ ' _ ) W V N j * * W T t w u 6.r.$.X.A Z F P ( ^ ( T ) ) ) ) ) ) ] [ ",
"] ` 1.] ' T Y ) ) T d { j & & P ^ i w i 9.y.$.o.A W [ ) T W ! ^ ( ] ) ) ] <.1.2.' <.<._ ' T T _ ) U j b j * * Y ( i w i 9.t.$.o.../ [ ] W W ( ( ) ' ) ) ] *.1.6.",
">.[ [ [ *.P W ! _ Y d j { s 6 T ^ t q i w.t.E m v T ` ) ) ) ) ) ) ( ( _ ( [ 1.1.*.[ *.<.[ W W W _ P j v m d 6 Y T t w i w.t.Q b n R ] ] ) ) ) ( ) ) ^ ) ( [ 1.1.",
"Y W W W J s : s : : - j a r z Y K w w w ` 2.l - d ; - V P L L I J J J J L Y Y W Y T W ( J * s s : - s d f k z L L w 9 w ` 5.l - s - - B Y L Y Y z z K K L L W Y ",
"z J z J z * : d s : : s a u u J P t 9 i *.T g * - * * f i z J z u i z J J i J J z J J J z - : : d : : > p i z z U u 2 y :.T g = ; = = f H J J z i i z i J J J J ",
"5 w 5 f s > * = : : = : 4 5 5 2 q w t t e q 3   o $ $ $ g g 7 2 2 q 5 6 6 4 4 3 q e q 6 s : = - : : * : 4 q 5 2 2 w w t u w #   o O $ $ g g 5 2 2 5 5 f 4 4 3 3 ",
"r i 3 > j > > : : d d = 6 q e 2 2 0 w w w w 3 + o $ - * > : e t e e 7 d s + & * u i 4 > j : : : : d d - 4 q i 2 1 w w w w w 3 + o $ ; * : s w e w e 7 s s * * $ ",
"i u 4 d $ * d : : d d > f e e 5 2 2 w w e 5 3 $ $ * * : j s e i i e e d d * * : z u 4 : $ = d : : j > > f w w 5 5 5 w w t 7 3 O $ $ * - j s e z i u 8 d d * : - "
};
