/* XPM */
static char *result[] = {
/* columns rows colors chars-per-pixel */
"80 80 13 1 ",
"  c #5E5D8D",
". c #4E4D7B",
"X c #3D3C67",
"o c #0F0D5B",
"O c #2D2D2D",
"+ c #606060",
"@ c #201F4F",
"# c #302F58",
"$ c black",
"% c #34335C",
"& c #25244B",
"* c #201F45",
"= c #121227",
/* pixels */
"           ..                          ..                          ..           ",
"           ..                          ..                          ..           ",
"           ..                          ..                          ..           ",
"           ..                          ..                          ..           ",
"           ..                          ..                          ..           ",
"           ..                          ..                          ..           ",
"      .........................................................XX.........      ",
"      .........................................................XX.........      ",
"      .........................................................XX.........      ",
"      .........................................................XX.........      ",
"      ............................oooooooooooo.................XX.........      ",
"      ............................oooooooooooo.................XX.........      ",
"      ............................oooooooooooo.................XX.........      ",
"      ...........................oooooooooooooo................XX.........      ",
"      ...........................oooooooooooooo................XX.........      ",
"      ..........................oooooO+@@@Oooooo..........................      ",
"      ..........................ooo@@O+@@@O+@ooo..........................      ",
"      ..........................ooo@@O+@@@O+@ooo..........................      ",
"      .....................oooooO+@@@O+@@@O+@@@Oooooo.....................      ",
"      .....................oooooO+@@@O+@@@O+@@@Oooooo.....................      ",
"      .....................oooooO+@@@O+@@@O+@@@Oooooo.....................      ",
"      ..................ooooooooO+@@@O+@@@O+@@@Ooooooooo..................      ",
"      ..................ooooooooO+@@@O+@@@O+@@@Ooooooooo..................      ",
"      ..................oooooo@@O+@@@O+@@@O+@@@O+@oooooo..................      ",
"      ..................oooooo@@O+@@@O+@@@O+@@@O+@oooooo..................      ",
"........................oooooo@@O+@@@O+@@@O+@@@O+@oooooo........................",
"........................oooo@@@@O+@@@O+@@@O+@@@O+@@@oooo........................",
"      ..................oooo@@@@O+@@@O+@@@O+@@@O+@@@oooo..................      ",
"      ............##....oooo@@@@O+@@@O+@@@O+@@@O+@@@oooo..................      ",
"      ............##....oooo@@@@O+@@@O+@@@O+@@@O+@@@oooo..................      ",
"      ..................oooo@@@@O+@@@O+@@@O+@@@O+@@@oooo..................      ",
"      ............##....oooo++++++++++++++++++++++++oooo..................      ",
"      ............##....ooooOOOOO+OOOO+OOOO+OOOO+OOOoooo..................      ",
"      ............##....oooo@@@@O+@@@O+@@@O+@@@O+@@@oooo..................     .",
"      ............##....oooo@@@@O+@@@O+@@@O+@@@O+@@@oooo..................     .",
"      ............##....oooo@@@@O+@@@O+@@@O+@@@O+@@@oooo..................     .",
"      ............##....oooo@@@@O+@@@O+@@@O+@@@O+@@@oooo..................     .",
"      ............##....oooo@@@@O+@@@O+@@@O+@@@O+@@@oooo..................     .",
"      .##.##############oooo@@@@O+@@@O+@@@O+@@@O+@@@oooo..................     .",
"      .##.##############oooo@@@@O+@@@O+@@@O+@@@O+@@@oooo..................     .",
"      .......#..........oooo@@@@O+@@@O+@@@O+@@@O+@@@oooo..................     .",
"      .......#..........oooo@@@@O+@@@O+@@@O+@@@O+@@@oooo..................      ",
"      .......#..........oooo@@@@O+@@@O+@@@O+@@@O+@@@oooo..................      ",
"      .......#..........oooo@@@@O+@@@O+@@@O+@@@O+@@@oooo..................      ",
"      .......#..........oooo@@@@O+@@@O+@@@O+@@@O+@@@oooo..................      ",
"      .......#..........oooo@@@@O+@@@O+@@@O+@@@O+@@@oooo..................      ",
"      ..................oooo@@@@O+@@@O+@@@O+@@@O+@@@oooo..................      ",
"      .......#..........oooo@@@@O+@@@O+@@@O+@@@O+@@@oooo..................      ",
"      .......#..........oooo@@@@O+@@@O+@@@O+@@@O+@@@oooo..................      ",
"      ..................oooo@@@@O+@@@O+@@@O+@@@O+@@@oooo..................      ",
"      .......#..........oooo@@@@O+@@@O+@@@O+@@@O+@@@oooo..................      ",
"      .......#..........oooo@@@@O+@@@O+@@@O+@@@O+@@@oooo..................      ",
"      ....##############oooo@@@@O+@@@O+@@@O+@@@O+@@@oooo..................      ",
"..........##...#########oooo@@@@O+@@@O+@@@O+@@@O+@@@oooo........................",
"........................oooo@@@@O+@@@O+@@@O+@@@O+@@@oooo........................",
"      ..................oooooooooooooooooooooooooooooooo..................      ",
"      ..................oooooooooooooooooooooooooooooooo..................      ",
"      ..................oooooooooooooooooooooooooooooooo..................      ",
"      ..................oooooooooooooooooooooooooooooooo..................      ",
"      ...................$$$$$$$$$$$$$$$$$$$$$$$$$$$$$$$$.................      ",
"      ...................$$$$$$$$$$$$$$$$$$$$$$$$$$$$$$$$.................      ",
"      ....................................................................      ",
"      ....................................................................      ",
"            ..                          ..                         ..           ",
"            ..                          ..                         ..           ",
"            ..                          ..                         ..           ",
"            ..                          ..                         ..           ",
"            ..                          ..                         ..           ",
"            ..                          ..                         ..           ",
"%%%%%%%%%%%%%%%%%%%%%%%%%%%%%%%%%%%%%%%%%%%%%%%%%%%%%%%%%%%%%%%%%%%%%%%%%%%%%%%%",
"&&&&&&&&&&&&%%&&&&&&&&&&&&&&&&&&&&&&&&&&%%&&&&&&&&&&&&&&&&&&&&&&&&&%%&&&&&&&&&&&",
"&&&&&&&&&&&&%%&&&&&&&&&&&&&&&&&&&&&&&&&&%%&&&&&&&&&&&&&&&&&&&&&&&&&%%&&&&&&&&&&&",
"&&&&&&&&&&&&%%&&&&&&&&&&&&&&&&&&&&&&&&&&%%&&&&&&&&&&&&&&&&&&&&&&&&&%%&&&&&&&&&&&",
"&&&&&&&&&&&&%%&&&&&&&&&&&&&&&&&&&&&&&&&&%%&&&&&&&&&&&&&&&&&&&&&&&&&%%&&&&&&&&&&&",
"&&&&&&&&&&&&%%&&&&&&&&&&&&&&&&&&&&&&&&&&%%&&&&&&&&&&&&&&&&&&&&&&&&&%%&&&&&&&&&&&",
"&&&&&&&&&&&&%%&&&&&&&&&&&&&&&&&&&&&&&&&&%%&&&&&&&&&&&&&&&&&&&&&&&&&%%&&&&&&&&&&&",
"**************************==**************************==************************",
"**************************==**************************==************************",
"**************************==**************************==************************",
"**************************==**************************==************************"
};
