/* XPM */
static char *result[] = {
/* columns rows colors chars-per-pixel */
"80 80 94 2 ",
"   c #121227",
".  c #121A28",
"X  c #12212A",
"o  c #11322C",
"O  c #113A2E",
"+  c #115E34",
"@  c #156F3F",
"#  c #14743F",
"$  c #137C3F",
"%  c #201F45",
"&  c #1F2445",
"*  c #1E2B44",
"=  c #1D3344",
"-  c #1C3C43",
";  c #202245",
":  c #25244B",
">  c #242B4A",
",  c #223449",
"<  c #203D48",
"1  c #302F57",
"2  c #302F58",
"3  c #2F3F58",
"4  c #34335C",
"5  c #313B5A",
"6  c #1E4446",
"7  c #1C4C44",
"8  c #1C5345",
"9  c #175F40",
"0  c #1A5B43",
"q  c #204047",
"w  c #255B4F",
"e  c #2E4357",
"r  c #2B4C54",
"t  c #2F4058",
"y  c #295152",
"u  c #265850",
"i  c #166340",
"p  c #196443",
"a  c #176C41",
"s  c #186942",
"d  c #1E6B49",
"f  c #167441",
"g  c #1C7447",
"h  c #147B40",
"j  c #1A7846",
"k  c #1D7048",
"l  c #22634C",
"z  c #217F4F",
"x  c #2F6F5C",
"c  c #316E5E",
"v  c #2A7557",
"b  c #257B52",
"n  c #2D725A",
"m  c #2E7E5C",
"M  c #317C5F",
"N  c #3F5E6C",
"B  c #366763",
"V  c #386565",
"C  c #346A61",
"Z  c #3C6269",
"A  c #377765",
"S  c #387766",
"D  c #357962",
"F  c #3D746B",
"G  c #425B6F",
"H  c #4E4D7B",
"J  c #465673",
"K  c #495376",
"L  c #445871",
"P  c #4B5178",
"I  c #40726E",
"U  c #466D74",
"Y  c #486C77",
"T  c #4B6A7A",
"R  c #50677F",
"E  c #427070",
"W  c #13833F",
"Q  c #118C3E",
"!  c #10923D",
"~  c #168442",
"^  c #1A8747",
"/  c #158D42",
"(  c #198A45",
")  c #1D834A",
"_  c #1D8A4A",
"`  c #139040",
"'  c #20844E",
"]  c #258452",
"[  c #298157",
"{  c #2B8058",
"}  c #5E5D8D",
"|  c #536482",
" . c #586187",
".. c #596088",
/* pixels */
"} } } } } } } } } } } H H } } } } } } } } } } } } } } } } } } } } } } } } } } H H } } } } } } } } } } } } } } } } } } } } } } } } } } H H } } } } } } } } } } } ",
"} } } } } } } } } } } H H } } } } } } } } } } } } } } } } } } } } } } } } } } H H } } } } } } } } } } } } } } } } } } } } } } } } } } H H } } } } } } } } } } } ",
"} } } } } } } } } } } H H } } } } } } } } } } } } } } } } } } } } } } } } } } H H } } } } } } } } } } } } } } } } } } } } } } } } } } H H } } } } } } } } } } } ",
"} } } } } } } } } } } H H } } } } } } } } } } } } } } } } } } } } } } } } } } H H } } } } } } } } } } } } } } } } } } } } } } } } } } H H } } } } } } } } } } } ",
"} } } } } } } } } } } H H } } } } } } } } } } } } } } } } } } } } } } } } } } H H } } } } } } } } } } } } } } } } } } } } } } } } } } H H } } } } } } } } } } } ",
"} } } } } } } } } } } H H } } } } } } } } } } } } } } } } } } } } } } } } } } H H } } } } } } } } } } } } } } } } } } } } } } } } } } H H } } } } } } } } } } } ",
"} } } } } } H H H H H H H H H H H H H H H H H H H H H H H H H H H H H H H H H H H H H H H H H H H H H H H H H H H H H H H H H H H H H H H H H H H H } } } } } } ",
"} } } } } } H H H H H H H H H H H H H H H H H H H H H H H H H H H H H H H H H H H H H H H H H H H H H H H H H H H H H H H H H H H H H H H H H H H H } } } } } } ",
"} } } } } } H H H H H H H H H H H H H H H H H H H H H H H H H H H H H H H H H H H H H H H H H H H H H H H H H H H H H H H H H H H H H H H H H H H H } } } } } } ",
"} } } } } } H H H H H H H H H H H H H H H H H H H H H H H H H H H H H H H H H H H H H H H H H H H H H H H H H H H H H H H H H H H H H H H H H H H H } } } } } } ",
"} } } } } } H H H H H H H H H H H H H H H H H H H H H H H H H H H H H H H H H H H H H H H H H H H H H H H H H H H H H H H H H H H H H H H H H H H H } } } } } } ",
"} } } } } } H H H H H H H H H H H H H H H H H H H H H H H H H H H H H H H H H H H H H H H H H H H H H H H H H H H H H H H H H H H H H H H H H H H H } } } } } } ",
"} } } } } } H H H H H H H H H H H H H H H H H H H H H H H H H H H H H H H H H H H H H H H H H H H H H H H H H H H H H H H H H H H H H H H H H H H H } } } } } } ",
"} } } } } } H H H H H H H H H H H H H H H H H H H H H H H H H H H H H H H H H H H H H H H H H H H H H H H H H H 2 2 H H H H H H H H H H H H H H H H } } } } } } ",
"} } } } } } H H H H H H H H H H H H H H H H H H H H H H H H H H H H H H H H H H H H H H H H H H H H H H H H H H 2 2 H H H H H 2 H H H H H H H H H H } } } } } } ",
"} } } } } } H H H H H H H H H H H H H H H H H H H H H H H H H H H H H H H H H H H H H H H H H H H H H H H H H H 2 2 H H H H H 2 H H H H H H H H H H } } } } } } ",
"} } } } } } H H H H H H H H H H H H H H H H H H H H H H H H H H H H H H H H H H H H H H H H H H H H H H H H H H 2 2 H H H H H 2 H H H H H H H H H H } } } } } } ",
"} } } } } } H H H H H H H H H H H H H H H H H H H H H H H H H H H H H H H H H H H H H H H H H H H H H H H H H H 2 2 H H H H H 2 H H H H H H H H H H } } } } } } ",
"} } } } } } H H H H H H H H H H H H H H H H H H H H H H H H H H H H H H H H H H H H H H H H H H H H H H H H H H 2 2 H H H H H 2 H H H H H H H H H H } } } } } } ",
"} } } } } } H H H H H H H H H H H H H H H H H H H H H H H H H H H H H H H H H H H H H H H H H H H H H H H H H H 2 2 H H H H H 2 H H H H H H H H H H } } } } } } ",
"} } } } } } H H H H H H H H H H H H H H H H H H H H H H H H H H H H H H H H H H H H H H H H H H H H H H H H H H 2 2 2 2 2 2 2 2 2 2 H H H H H H H H } } } } } } ",
"} } } } } } H H H H H H H H H H H H H H H H H H H H H H H H H H H H H H H H H H H H H H H H H H H H H H H H H H 2 2 2 2 2 2 2 2 2 2 H H H H H H H H } } } } } } ",
"} } } } } } H H H H H H H H H H H H H H H H H H H H H H H H H H H H H H H H H H H H H H H H H H H H H H H H H H H H H H H H H H H 2 H H H H H H H H } } } } } } ",
"} } } } } } H H H H H H H H H H H H H H H H H H H H H H H H H H H H H H H H H H H H H H H H H H H H H H H H H H H H H H H H H H H 2 H H H H H H H H } } } } } } ",
"} } } } } } H H H H H H H H H H H H H H H H H H H H H H H H H H H H H H H H H H H H H H H H H H H H H H H H H H H H H H H H H H H 2 H H H H H H H H } } } } } } ",
"..H H H H H H H H H H H H H H H H H H H H H H H H H H H H H H H H H H H H H H H H H H H H H H H H H H H H H H H H H H H H H H H H 2 2 H H H H H H H H H H H H H ",
"H H H H H H H H H H H H H H H H H H H H H H H H H H 2 2 H H H H H H H H H H H H H H H H H H H H H H H H H H H H H H H H H H H H H : : H H H H H H H H H H H H H ",
"} } } } } } H H H H H H H H H H H H H H H H H H H H 2 2 H H H H H H H H H H H H H H H H H H H H H H H H H H H H H H H H H H H H H H ..H H H H H H H } } } } } } ",
"} } } } } } H H H H H H H H H H H H H H H H H H H H H H H H H H H H H H H H H H H H H H H H H H H H H H H H H H H H H H H H H H H H H H H H H H H H } } } } } } ",
"} } } } } } H H H H H H H H H H H H H H H H H H H H 2 2 H H H H H H H H H H H H H H H H H H H H H H H H H H H H H H H H H H H H H H H H H H H H H H } } } } } } ",
"} } } } } } H H H H H H H H H H H H H H H H H H H H 2 2 H H H H H H H H H H H H H H H H H H H H H H H H H H H H H H H H H H H H H H H H H H H H H H } } } } } } ",
"} } } } } } H H H H H H H H H H H H H H H H H H H H 2 2 H H H H H H H H H H H H H H H H H H H H H H H H H H H H H H H H H H H H H H H H H H H H H H } } } } } } ",
"} } } } } } H H H H H H H H H H H H H H H H H H H H 2 2 H H H H H H H H H H H H H H H H H H H H H H H H H H H H H H H H H H H H H H H H H H H H H H } } } } } } ",
"} } } } } } H H H H H H H H H H H H H H H H H H H H 2 2 H H H H H H H H H H H H H H H H H H H H H H H H H H H H H H H H H H H H H H H H H H H H H H } } } } } H ",
"} } } } } } H H H H H H H H H H H H H H H H H H H H 2 2 H H H H H H H H H H H H H H H H H H H H H H H H H H H H H H H H H H H H H H H H H H H H H H } } } } } H ",
"} } } } } } H H H H H H H H H H H H H H H H H H H H 2 2 H H H H H H H H H H H H H H H H H H H H H H H H H H H H H H H H H H H H H H H H H H H H H H } } } } } H ",
"} } } } } } H H H H H H H H H 2 2 H 2 2 2 2 2 2 2 2 2 2 2 2 2 2 2 2 2 H H H H H H H H H H H H H H H H H H H H H H H H H H H H H H H H H H H H H H H } } } } } H ",
"} } } } } } H H H H H H H H H 2 2 H 2 2 2 2 2 2 2 2 2 2 2 2 2 2 2 2 2 4 H H H H H H H H H H H H H H H H H H H H H H H H H H H H H H H H H H H H H H } } } } } H ",
"} } } } } } H H H H H H H H H H H H H H H 2 H H H H H H H H H H H H H H H H H H H H H H H H H H H H H H H H H H H H H H H H H H H H H H H H H H H H } } } } } H ",
"} } } } } } H H H H H H H H H H H H H H H 2 H H H H H H H H H H H H H H H H H H H H H H H H H H H H H H H H H H H H H H H H H H H H H H H H H H H H } } } } } H ",
"} } } } } } ..H H H H H H H H H H H H H H 2 H H H H H H H H H H H H H H H H H H H H H H H H H H H H H H H H H H H H H H H H H H H H H H H H H H H H } } } } } H ",
"} } } } } } H H H H H H H H H H H H H H H 2 H H H H H H H H H H H H H H H H H H H H H H H H H H H H H H H H H H H H H H H H H H H H H H H H H H H H } } } } } } ",
"} } } } } } H H H H H H H H H H H H H H H 2 H H H H H H H H H H H H H H H H H H H H H H H H H H H H H H H H H H H H H H H H H H H H H H H H H H H H } } } } } } ",
"} } } } } } H H H H H H H H H H H H H H H 2 H H H H H H H H H H H H H H H H H H H H H H H H H H H H H H H H H H H H H H H H H H H H H H H H H H H H } } } } } } ",
"} } } } } } H H H H H H H H H H H H H H H H H H H H H H H H H H H H H H H H H H H H H H H H H H H H H H H H H H H H H H H H H H H H H H H H H H H H } } } } } } ",
"} } } } } } H H H H H H H H H H H H H H H 2 H H H H H H H H H H H H H H H H H H H H H H H H H H H H H H H H H H H H H H H H H H H H H H H H H H H H } } } } } } ",
"} } } } } } H H H H H H H H H H H H H H H 2 H H H H H H H H H H H H H H H H H H H H H H H H H H H H H H H H H H H H H H H H H H H H H H H H H H H H } } } } } } ",
"} } } } } } H H H H H H H H H H H H H H H H H H H H H H H H H H H H H H H H H H H H H H H H H H H H H H H H H H H H H H H H H H H H H H H H H H H H } } } } } } ",
"} } } } } } H H H H H H H H H H H H H H H 2 H H H H H H H H H H H H H H H H H H H H H H H H H H H H H H H H H H H H H H H H H H H H H H H H H H H H } } } } } } ",
"} } } } } } H H H H H H H H H H H H H H H 2 H H H H H H H H H H H H H H H H H H H H H H H H H H H H H H H H H H H H H H H H H H H H H H H H H H H H } } } } } } ",
"} } } } } } H H H H H H H H H H H H 2 2 2 2 2 2 2 2 2 2 2 2 2 2 H H H H H H H H H H H H H H H H H H H H H H H H H H H H H H H H H H H H H H H H H H } } } } } } ",
"} } } } } } H H H H H H H H H H H H 2 2 H H H 2 2 2 2 2 2 2 2 2 2 2 2 2 H H H H H H H H H H H H H H H H H H H H H H H H H H H H H H H H H H H H H H } } } } } } ",
"} } } } } } H H H H H H H H H H H H H H H H H H H H H H H H H H H H H H H H H H H H H H H H H H H H H H H H H H H H H H H H H H H H H H H H H H H H } } } } } } ",
"H H H H H H H H H H H H H H H H H H H H H H H H H H H H H H H H H H H H H H H H H H H H H H H H H H H H H H H H H H H H H H H H H H H H H H H H H H H H H H H H ",
"H H H H H H H H H H H H H H H H H H H H H H H H H H H H H H H H H H H H H H H H H H H H H H H H H H H H H H H H H H H K J N H H H H H H H H H H H H H H H H H H ",
"} } } } } } H H H H H H H H H H H H H H H H H H H H H H H H H H H H H H H H H H H H H H H H H H H H H H H H H H H H K x g k N H H H H H H H H H H H } } } } } } ",
"} } } } } } H H H H H H H H H H H H H H H H H H H H H J Z Z N K H H H H H H H H H H H H H H H H H H H H H H H H H H J x ) / j Z N H H H H H H H H H } } } } } } ",
"} } } } } } H H H H H H H H H H H H H H H H H H H H H B ( ^ ) Z H H H H H H H H H H H H H H H H H H H H H H H H H H H J B ( ` ( V | H H H H H ..H  .} ..} } } } ",
"} } } } } } H H H H H H H H H H H H H H H H H H H H H N v ^ / v Z K H H H H H H H H H H H H H H H H H H H H H H H H H H J x ' ` C P V x V x x N H Z S F | ..} } ",
"} } } } } } H H H H H H H H H H H H H H H H H H H H H H H n ` ` ] J H H P H H H H H H H H H H H H H H H H H H H H H H H H H C / B N z ` ~ Q ` c N g ` ` M ..} } ",
"} } } } } } H H H H H H H H H H H H H H H H H H H H H H H N n ^ j J N v v v v C K H H H H H H H H H H H H H H N v v v v C K L C n b ~ ` ` g C x v ( _ A | } ..} ",
"} } } } } | L L K H H H H H H H H H H H H H H H K L L L L P K b b N n ! ! ! / v K H H H H H H H H H H H H H H B ^ / ! ! ) Z K H v ` ` ` ~ c | x / ~ m | } } ..} ",
"} } } } T m ] j N H H H H H H H H H H H H H H K n ' ) z ] Z K L B b ^ ! ! ( x G H H H H H H H H H H H H H H H K Z b ! ! / ) C H v ` ` z B N | l / n |  .} } } } ",
"} } } } T m _ Q n Y } } H H } } } } } } } } } | A ' ` ! ` { T  .Y _ ! ! ^ m R } H H } } } } } } } } } } } } } } } F ] / ! ! m } M ` ) B N } } F m | } ..} } } } ",
"} } } } } | D ! ( ] T } H H } } } } } } } } } } | E ( ! ! / ] T T ^ ! ` D | ..} ..H } } ..} } } } } } } } } } } } ..| ] ` ` D } D ( F K H } } |  ...} } } } } } ",
"} } } } } } T m _ _ T | B C S F U | } } } } } } } | S ] ! ! _ Y U _ _ M T } } } H H } T F F U ..} } } } } } } } } } | F [ ` { } F S | H H | F F F | } } } } } } ",
"} } } } } } } } m _ Y E ( ! ! ! _ T } } } } } } } } } S ` ! _ Y T ^ M } } } } } H H } n ` ` ] | } } } } } } } } } } } } Y _ D ..} } } ..P F ` ` _ Y } } } } } } ",
"} U m M M m U } T S S ] ` ! ! { E | } } } } } } } } } R F ] ( Y | F T } } } } } H N M ) / M U } } } } } } } } } } } } } | F | ..} } } J x ' ` b F  .} } } } } } ",
"..S ( ` ! ! m | ..| ] ! ! / ( U } } } } } } } } } } } } ..S ] T } } } | | | | | H C ` / ] | } } } } } } } } } } } } } } ..| | | | | ..Z ^ / _ F ..} } } } } } } ",
"4 e u j ! ! ~ j y e j ! ! g r 5 4 4 4 4 4 4 4 4 4 4 4 4 4 e r 5 4 4 y j j j j d 3 w ` d r 3 4 4 4 4 4 4 4 4 4 4 4 4 4 4 e k h j j k e r ~ g r t 4 4 4 4 4 4 4 4 ",
": : , 0 h Q ! Q 7 , f / j u : : : : : : : : : : : : : : : : : : : : 6 f ~ ! ! h u 0 g 6 * - 6 6 6 q , > = 6 6 = : : : : - p h ` ` ` 0 u k 8 : , 6 6 6 6 = : : : ",
": : > * 8 Q ! ! 8 , f f r 5 : : : : : : : : : : : : : : : : : : : : > = a ! ! Q ~ d = > , p ~ ~ ~ ( 7 , s ~ ( 0 : : : : : , 0 ` ! ` / g r > : 0 ~ ~ ~ ~ 0 : : : ",
": : : : , 0 j Q 8 > 8 7 5 4 : : : : : : : : : > q 8 8 6 : : : : : : : : 7 s ~ ! ` d : - 0 h ! ! h p - > 8 k / h 8 - : : : : - p h ! ! f e = 8 h ` ! ~ a 7 : : : ",
": : : : : : 0 ! 8 : : : 4 4 : : : : : : : : : , j ` ! p : : : : : : : : : = j ` ` l : p ! ! ! ! i : : : : q h ` ! 8 : : : : : : i ` ` j e 7 ` ` ! ! f - : : : : ",
": : : : : : , 8 < : : : 4 4 : : : : : : : : : > 6 p Q h p < > 8 p p 7 : : > 6 p / d : i ! ! ~ 0 < : : : : = 7 k ` 8 * 8 0 i 7 : q 0 ~ h e 8 ! ! / p 7 & : : : : ",
": : : : : : : : : : : : 4 4 : : : : : : : : : : : 6 f Q ` 0 6 f Q ~ 8 & : : : < k d : i ! Q p = : : : : : : : 6 ~ 8 6 f ` ~ 0 : : * i k e 7 ! Q f 6 : : : : : : ",
"; ; % % % % % % % % % % % % % % % % % % % % % % & & o + ! $ # Q $ 7 * % % % & & - * & 9 ~ 0 = & & % % % % %   X - 0 # W $ 7 = % % & = - & 7 ` i - & % % % % % % ",
"% % % % % % % % % % % % % % % % % % % % % % % % % %   O f W Q $ 0 * % % % % % % % % % 7 i = & % % % % % % %     % i Q $ + * % % % % % % % 6 a 6 % % % % % % % % ",
"% % % % % % % % % % % % % % % % % % % % % % % % % %   . = p W 7 * % % % % % % % % % % * * & % % % % % % % %     % 9 ~ 7 * & % % % % % % % & * & % % % % % % % % ",
"% % % % % % % % % % % % % % % % % % % % % % % % % %     % - + = % % % % % % % % % % % % % % % % % % % % % %     % 6 9 = % % % % % % % % % % & % % % % % % % % % "
};
