/* XPM */
static char *result[] = {
/* columns rows colors chars-per-pixel */
"80 80 8 1 ",
"  c #5E5D8D",
". c #4E4D7B",
"X c #302F58",
"o c #595884",
"O c #34335C",
"+ c #25244B",
"@ c #201F45",
"# c #121227",
/* pixels */
"           ..                          ..                          ..           ",
"           ..                          ..                          ..           ",
"           ..                          ..                          ..           ",
"           ..                          ..                          ..           ",
"           ..                          ..                          ..           ",
"           ..                          ..                          ..           ",
"      ....................................................................      ",
"      ....................................................................      ",
"      ....................................................................      ",
"      ..................................................XX................      ",
"      ..................................................XX................      ",
"      ....................................................................      ",
"      ..................................................XX................      ",
"      ..................................................XX................      ",
"      ..................................................XX................      ",
"      ..................................................XX................      ",
"      ..................................................XX................      ",
"      ..................................................XX................      ",
"      ..................................................XX................      ",
"      .......................................XX.XXXXXXXXXXXXXXXXX.........      ",
"      .......................................XX.XXXXXXXXXXXXXXXXXX........      ",
"      .............................................X...........XX.........      ",
"      .............................................X...........XX.........      ",
"      .............................................X...........XX.........      ",
"      .............................................X......................      ",
"...................................................X............................",
"...................................................X............................",
"      ....................................................................      ",
"      .............................................X......................      ",
"      .............................................X......................      ",
"      ....................................................................      ",
"      ..........oooooooooooooooooo.................X......................      ",
"      ..........oooooooooooooooooo.................X......................      ",
"      ..........oo..............XX..............XXXXXXXXXXXXXX............     .",
"      ..........oo..............XX..............XX...XXXXXXXXXXXXX........     .",
"      ..........oo..............XX........................................     .",
"      ..........oo..............XX........................................     .",
"      ..........oo..............XX........................................     .",
"      ..........oo..............XX........................................     .",
"      ..........oo..............XX........................................     .",
"      ..........oo..............XX........................................     .",
"      ..........oo..............XX........................................      ",
"      ..........oo..............XX........................................      ",
"      ..........oo..............XX........................................      ",
"      ..........oo..............XX........................................      ",
"      ..........oo..............XX........................................      ",
"      ..........oo..............XX........................................      ",
"      ..........oo..............XX........................................      ",
"      ..........oo..............XX........................................      ",
"      ..........XXXXXXXXXXXXXXXXXX........................................      ",
"      ..........XXXXXXXXXXXXXXXXXX........................................      ",
"      ....................................................................      ",
"      ....................................................................      ",
"................................................................................",
"................................................................................",
"      ....................................................................      ",
"      ....................................................................      ",
"      ....................................................................      ",
"      ....................................................................      ",
"      ....................................................................      ",
"      ....................................................................      ",
"      ....................................................................      ",
"      ....................................................................      ",
"            ..                          ..                         ..           ",
"            ..                          ..                         ..           ",
"            ..                          ..                         ..           ",
"            ..                          ..                         ..           ",
"            ..                          ..                         ..           ",
"            ..                          ..                         ..           ",
"OOOOOOOOOOOOOOOOOOOOOOOOOOOOOOOOOOOOOOOOOOOOOOOOOOOOOOOOOOOOOOOOOOOOOOOOOOOOOOOO",
"++++++++++++OO++++++++++++++++++++++++++OO+++++++++++++++++++++++++OO+++++++++++",
"++++++++++++OO++++++++++++++++++++++++++OO+++++++++++++++++++++++++OO+++++++++++",
"++++++++++++OO++++++++++++++++++++++++++OO+++++++++++++++++++++++++OO+++++++++++",
"++++++++++++OO++++++++++++++++++++++++++OO+++++++++++++++++++++++++OO+++++++++++",
"++++++++++++OO++++++++++++++++++++++++++OO+++++++++++++++++++++++++OO+++++++++++",
"++++++++++++OO++++++++++++++++++++++++++OO+++++++++++++++++++++++++OO+++++++++++",
"@@@@@@@@@@@@@@@@@@@@@@@@@@##@@@@@@@@@@@@@@@@@@@@@@@@@@##@@@@@@@@@@@@@@@@@@@@@@@@",
"@@@@@@@@@@@@@@@@@@@@@@@@@@##@@@@@@@@@@@@@@@@@@@@@@@@@@##@@@@@@@@@@@@@@@@@@@@@@@@",
"@@@@@@@@@@@@@@@@@@@@@@@@@@##@@@@@@@@@@@@@@@@@@@@@@@@@@##@@@@@@@@@@@@@@@@@@@@@@@@",
"@@@@@@@@@@@@@@@@@@@@@@@@@@##@@@@@@@@@@@@@@@@@@@@@@@@@@##@@@@@@@@@@@@@@@@@@@@@@@@"
};
