/* XPM */
static char *result[] = {
/* columns rows colors chars-per-pixel */
"80 80 135 2 ",
"   c #0E0B0B",
".  c #1D0505",
"X  c #150C05",
"o  c #180C04",
"O  c #130A0A",
"+  c #1F0F0F",
"@  c #1B130E",
"#  c #151312",
"$  c #1A1210",
"%  c #220303",
"&  c #250E0E",
"*  c #2B0D0C",
"=  c #330303",
"-  c #330808",
";  c #3D0808",
":  c #231204",
">  c #2A1F1D",
",  c #351E1E",
"<  c #2F2218",
"1  c #252423",
"2  c #3F2F25",
"3  c #392F2B",
"4  c #3E332F",
"5  c #3E3330",
"6  c #3F3937",
"7  c #3E3D3D",
"8  c #420707",
"9  c #410808",
"0  c #4C0F0F",
"q  c #530E0E",
"w  c #580E0E",
"e  c #4D1414",
"r  c #561211",
"t  c #591313",
"y  c #6E0C0B",
"u  c #770B0B",
"i  c #631413",
"p  c #691312",
"a  c #781514",
"s  c #462A17",
"d  c #5E3314",
"f  c #55341E",
"g  c #5B361B",
"h  c #5B391E",
"j  c #66350E",
"k  c #6B360C",
"l  c #6D201F",
"z  c #7B201F",
"x  c #7E2B1B",
"c  c #633613",
"v  c #653815",
"b  c #6B3A14",
"n  c #603719",
"m  c #653B1B",
"M  c #6D3D19",
"N  c #402D29",
"B  c #4F2C29",
"V  c #552B29",
"C  c #5B2E2C",
"Z  c #423026",
"A  c #4E3626",
"S  c #45352E",
"D  c #4A352C",
"F  c #4C3A2E",
"G  c #533522",
"H  c #553924",
"J  c #5A3B25",
"K  c #54312E",
"L  c #59302E",
"P  c #533B2C",
"I  c #5B3E2B",
"U  c #423632",
"Y  c #4B3431",
"T  c #423936",
"R  c #4A3932",
"E  c #413B39",
"W  c #4A3A39",
"Q  c #543534",
"!  c #5A3332",
"~  c #533C33",
"^  c #533E3D",
"/  c #652524",
"(  c #6A2726",
")  c #622927",
"_  c #6C2827",
"`  c #642E2C",
"'  c #6B2B2A",
"]  c #752625",
"[  c #7C2525",
"{  c #732927",
"}  c #7C2A25",
"|  c #732A29",
" . c #792929",
".. c #663F23",
"X. c #62302F",
"o. c #68302D",
"O. c #633030",
"+. c #6D401E",
"@. c #774117",
"#. c #73411A",
"$. c #7E491E",
"%. c #5D402C",
"&. c #4D4035",
"*. c #4C403F",
"=. c #63422A",
"-. c #6A4529",
";. c #734624",
":. c #7F4122",
">. c #754825",
",. c #794A24",
"<. c #454444",
"1. c #4A4544",
"2. c #524443",
"3. c gray32",
"4. c #850909",
"5. c #8B0B0B",
"6. c #950A09",
"7. c #8A1717",
"8. c #841D1D",
"9. c #8D1B1B",
"0. c #901C1C",
"q. c #84271D",
"w. c #8E221F",
"e. c #82281A",
"r. c #90231F",
"t. c #813F1F",
"y. c #842423",
"u. c #8C2121",
"i. c #802D24",
"p. c #902020",
"a. c #863721",
"s. c #824616",
"d. c #81491B",
"f. c #804320",
"g. c None",
/* pixels */
"U A b G U U U U U U U U U U U U U U U U U U U U U U U U U U U U U U U U U U U ..-.>.>.>.,.,.-.F S S S U U U U U U U U U U U U U U U U U U U U U U U U U U U U U ",
"S @.s.H U U U T U U U U U U U U U U U U U U U U U U U U U U U T U U U U U U T %.=.%.F P P J ,.>.m c c D F T U U U U U U U U U T U U U U U U U D U U U U U U U U ",
"J s.>.=.U U E 7 E U U U U U U U U E 7 E 6 T U U U U U U E 7 E 7 T U U U U U U R R h c c j j j v g H g v h T 7 U U U U 5 U U 7 7 7 T U U 5 U S h F F U 7 E U U U ",
"S J =.=.T E 7 7 7 7 U U U U U U U E 7 7 7 7 E U U U U U 7 7 7 7 7 U U U U U U H h H F R F S D S S T T T E 7 E T U U U U U 7 7 7 7 T U U U U S h #.b T 7 7 T U U ",
"g.g.g.g.g.Y ! W 7 7 7 g.g.g.g.g.U T 6 E 7 7 7 g.g.g.g.U Y L E 7 7 g.g.g.g.g.U U E 7 7 7 g.g.g.g.g.U T T 7 7 7 g.g.g.g.g.U T 7 7 7 g.g.g.g.g.g.U U D &.7 7 g.g.g.",
"g.g.g.g.g.U ` W 7 7 g.g.g.g.g.g.U U U 6 7 7 7 g.g.g.g.U Y ` W 7 7 g.g.g.g.g.U U E 7 7 7 g.g.g.g.g.U U U 7 7 7 g.g.g.g.g.U U 7 7 7 g.g.g.g.g.g.U T 5 7 7 7 g.g.g.",
"g.g.g.g.g.U U 7 7 7 7 g.g.g.g.g.U U 5 7 7 7 7 g.g.g.g.U U U E 7 7 g.g.g.g.g.U U 7 7 7 7 g.g.g.g.g.U U U 7 7 7 g.g.g.g.g.U U 6 7 7 g.g.g.g.g.g.U U T T 7 7 g.g.g.",
"g.g.g.g.g.U U E 7 7 7 g.g.g.g.g.U T 5 *.7 7 7 g.g.g.g.U U U 7 7 <.g.g.g.g.g.U U E 7 7 7 g.g.g.g.g.U U U 7 7 7 g.g.g.g.g.U U 7 7 7 g.g.g.g.g.g.U U U E 7 7 g.g.g.",
"g.g.g.g.g.U T 6 7 7 7 g.g.g.g.g.U U U 6 7 7 &.g.g.g.g.U Y Y W W o.g.g.g.g.g.U U E 7 7 7 g.g.g.g.g.5 D U 7 7 7 g.g.g.g.g.U U 7 7 7 g.g.g.g.g.g.U T 5 6 7 7 g.g.g.",
"U U U U U U 5 6 7 7 6 U U U U S D D D T &.&.h P R U U K ( ' |  .y.K U U U U U 5 6 7 7 7 U U U U U S d U 7 7 7 T U U U U U 5 6 7 7 7 U U U U U U U 4 7 7 7 E U U ",
"P R R U U 5   <.# 7 7 T U G g c j v o 1.@ $.$.>.=.Y Y l . 2.+ | Q U U U U U 5   <.# 7 E U U U U U S X <.# 7 7 T U U U U 5   <.# 7 T U U U U U U 4   <.# 7 T T U ",
",.>.;.=.U 3 1.3.7 7 7 U G c g S F f 2.3.&.&.F F R U Y l 2.3.T Q 7 T U U U U 3 1.3.7 7 6 U U U U U 2 *.3.7 7 7 U U U U U 3 <.3.7 7 6 U U U U U U 4 <.3.7 7 6 U U ",
"R R I -.I S # 7 1 7 E U S D S U U 4 $ 7 1 7 6 U U U Y ] * E , W 7 T U U U U 5 # 7 1 7 E U U U U U Z : E 1 7 7 T U U U U 4 # 7 1 7 6 T U U U U U 4 # 7 1 7 6 T U ",
"U U U U U U U 6 7 7 E U U U U U U U U 6 7 7 7 U U U U ) ' C | W E T U U U U U T 6 7 7 7 U U U U U D j ;.E 7 7 T U U U U 5 T E 7 7 T U U U U U U U U 6 7 7 E U U ",
"g.g.g.g.g.U T 7 7 7 g.g.g.g.g.g.U U U E 7 7 <.g.g.g.g.U Y ' O.E 7 g.g.g.g.g.U U 7 7 7 g.g.g.g.g.g.D b >.*.7 7 g.g.g.g.g.U T 7 7 7 g.g.g.g.g.g.U U U 7 7 7 g.g.g.",
"g.g.g.g.g.U U E 7 7 g.g.g.g.g.g.U U U E 7 7 E g.g.g.g.U K | W 7 7 g.g.g.g.g.U U 6 7 7 7 g.g.g.g.g.A b >.E 7 7 g.g.g.g.g.U U 6 7 7 g.g.g.g.g.g.U U U E 7 7 g.g.g.",
"g.g.g.g.g.U U E 7 7 g.g.g.g.g.g.E U U 6 7 7 7 g.g.g.g.U C ` E <.7 g.g.g.g.g.U U E 7 7 7 g.g.g.g.g.D v >.*.7 7 g.g.g.g.g.T U 7 7 7 g.g.g.g.g.g.U U U E 7 7 g.g.g.",
"g.g.g.g.g.U U E 7 7 g.g.g.g.g.g.U U U E 7 7 7 g.g.g.g.U U U E 7 7 g.g.g.g.g.U U 7 7 7 g.g.g.g.g.g.F c $.Q 7 7 g.g.g.g.g.U U E 7 7 g.g.g.g.g.g.U U U 7 7 7 g.g.g.",
"g.g.g.g.g.U U 6 7 7 g.g.g.g.g.g.U U U 6 7 7 7 g.g.g.g.U U U E 7 7 g.g.g.g.g.U U E 7 7 7 g.g.g.g.g.S b a.o.E 7 g.g.g.g.g.U U 7 7 7 g.g.g.g.g.g.U U T E 7 7 g.g.g.",
"g.g.g.g.g.U U E 7 7 g.g.g.g.g.g.U U U E 7 W <.g.g.g.g.U U U W 7 7 g.g.g.g.g.U U E 7 7 g.g.g.g.g.U S m f.| W 7 g.g.g.g.g.U U 7 7 7 g.g.g.g.g.g.U U Y R 7 7 7 U g.",
"F R U U U U 5 6 7 7 7 U U U U U U U 5 6 W O.! U U U U Y 5 Y ' W 7 U U U U U U 5 6 7 7 7 T U U U U S h t.6.X.E T U U U U U 4 7 7 7 6 U U U U U U K ) | E E E U U ",
">.-.P R U 5   <.# 7 6 U Y U U U U 5   <.# ' W U U U U 3   <.+ W 7 E U U U U 5   <.# 7 6 U U U U U S X r % u.Q E U U U U 4   <.# 7 E U U U U K ' / . 1.# 7 E U U ",
"P -.>.-.U 3 1.3.6 7 U p C S U S U 3 <.3.0 w W Y Y Y Y N 1.3.T W 7 U U U U U 3 <.3.7 7 7 U U U U U 3 1.3.0 u.[ Y U U U U 3 <.3.7 7 T U U U K y.u./ ^ 3.6 7 T U U ",
"U U R Y U 5 # 7 1 7 S y i Y U U U 5 $ q ; ' ' ] | [ [ ) $ 7 1 7 7 T U U U U 3 # 7 1 7 E U U U U U 4 @ U <  .y.' U U 5 S 4 # 7 1 7 E U U D ] y. .B & E 1 7 E U U ",
"U U U U U U U E 7 7 W | Q U U U S C [ y.[ | ! Y Y Y Y Y U E ! 7 7 T U U U U U U 7 7 7 E U U U U U U D j R W  .y.D U U U U U 7 7 7 6 U U S K L D U U 7 7 7 T T U ",
"U U U U U U U 7 7 7 Y | Y U U U U U C [  .O.E U U U U U U Y | W 7 U U U U U U U E 7 7 E U U U U U S F c R 7 Q [ C U U U U U 6 7 7 E T U U U U U U 5 6 7 7 6 U U ",
"g.g.g.g.g.U U T 7 7 g.g.g.g.g.g.U U Y  .o.W 7 g.g.g.g.U U Y | W 7 g.g.g.g.g.U U E 7 7 g.g.g.g.g.g.U S g H E E i.g.g.g.g.U U 7 7 7 g.g.g.g.g.g.U U T 7 7 7 g.g.g.",
"g.g.g.g.g.U U 7 7 7 g.g.g.g.g.g.U U L | *.7 7 g.g.g.g.U U U Q 7 7 g.g.g.g.g.U U 7 7 7 7 g.g.g.g.g.U S g J E 7 g.g.g.g.g.U U 7 7 7 g.g.g.g.g.g.U U U *.7 7 g.g.g.",
"g.g.g.g.g.U U E 7 7 g.g.g.g.g.g.U U K ! E 7 7 g.g.g.g.U U U W 7 7 g.g.g.g.g.U U E 7 7 7 g.g.g.g.g.U S g h &.7 g.g.g.g.g.U U 7 7 7 g.g.g.g.g.g.U U U &.7 7 g.g.g.",
"g.g.g.g.g.U U 6 7 7 g.g.g.g.g.g.U U U E 7 7 7 g.g.g.g.U U C O.7 7 g.g.g.g.g.U T E 7 7 7 g.g.g.g.g.U J h h E 7 g.g.g.g.g.U U E E 7 g.g.g.g.g.g.U U U 7 7 7 g.g.g.",
"g.g.g.g.g.U U T O.7 E U U U U U U U Y T E 7 7 U U U U U U C o.W 7 E U U U U U U E 7 7 6 U U U U U S M h n T 7 T U U U U U U W ' E E U U U U U U U 5 7 7 7 E U U ",
"U U U U U U S ' y.Q E E U U U U U C l O.! Q W W U U U U 5 Y ! 7 7 U U U U U U 5 7 7 7 E U U U U U F M G c E 7 E U U U V U U ( 5.W 6 Y U U R %.%.T 4 6 7 7 6 U U ",
"U U U U U 5 O W % | T U U U U U U U O 1.$ |  .L U U U 4   <.# 7 7 E U U U U 4   <.# 7 6 6 U U U U Z o 1.@ &.7 6 U S ` y.V O <.# E X.' Y R -.;.>.I   <.# 7 7 U U ",
"U U U U U 5 1.t 0 ] R U U U U U U 3 1.3.7 E R U U U U 3 1.3.6 7 7 U U U U U 3 <.3.7 7 6 U U U 6 U Z 1.3.T T 7 6 U U L y.u *.3.7 O.u.[ Y U U R =.H 1.3.7 7 T U U ",
"U U U U U 5 $ q 8 ) E U U U U U U 3 # 7 1 7 E T U U U 4 # E , E 7 T U U U U 5 # 7 1 7 7 U U U U U 4 @ T < T 7 T U U U L V $ 6 - y.u.Q U U U F %.J # 7 1 7 6 U U ",
"U U U U U 5 ` p.u.W 6 U U U U U U U U 7 7 7 E E U U U U T Y | E 7 U U U U U U U E 7 7 E U U U U U U U F J E 7 E U 5 U U U U Q y.! Q U U U U U P P S 7 7 7 T T T ",
"g.g.g.g.g.Y  .p.y.W g.g.g.g.g.g.U U U T 7 7 7 g.g.g.g.U U U ! 7 7 g.g.g.g.g.U U E 7 7 7 g.g.g.g.g.U U U E E 7 g.g.g.g.g.U Y  .y.W g.g.g.g.g.g.U U T E 7 7 g.g.g.",
"g.g.g.g.g.| p.y.[ W g.g.g.g.g.g.U U U T 7 7 7 g.g.g.g.U U 6 E *.7 g.g.g.g.g.U U 7 7 7 g.g.g.g.g.g.U U U E 7 7 g.g.g.g.g.U Y ' Q E g.g.g.g.g.g.U U U E 7 7 g.g.g.",
"g.g.g.g.g.u.p.y. .W g.g.g.g.g.g.U U U 7 7 7 7 g.g.g.g.U U U 7 *.7 g.g.g.g.g.U U E 7 7 7 g.g.g.g.g.U U U 7 7 7 g.g.g.g.g.| L [ O.<.g.g.g.g.g.g.U U T E 7 7 g.g.g.",
"g.g.g.g.[ p.u.p.y.Q 7 g.g.g.g.g.U U U T 7 7 7 g.g.g.g.S S U T T E g.g.g.g.g.U U E 7 7 E g.g.g.g.g.D Y U 7 7 W g.g.g.g.g.y. .y.' E g.g.g.g.g.g.5 U U E 7 7 g.g.g.",
"] y.[ [ u.r.7.9.0.{ ' ` Y U U U U U 5 6 7 7 7 U g c f d n v d n R 5 5 T U U U 4 6 7 7 6 T U U U ` [ ( C W O.|  . .L | u.y.8.6.y.W ' u.C U U U Y 5 5 6 7 7 T U U ",
"u.u.u.u.u.7.% t % [ y.u.C U U U U 5   <.# 7 6 Y f G c k o s # T *.6 U U U U 4   <.# 7 6 U U U U Y B O 1.$ ' O.[ y.y.y.u.8.. w % [ u.u.C Y K D S 5   <.# 6 U U U ",
"u.y.y.u.y.a w t 0 8.| L U U U U U 3 1.3.7 7 6 U U U D j s 3.7 7 7 T U U U U 3 1.3.7 7 7 U U U U Y 3 1.3.6 W Y y.w.p.u.6.4.t t e w.u.y.[ y.y.y.C 3 <.3.7 U U U U ",
"y.[ ` C C ] = w 8 9.K U U U U U U 3 # 7 1 T U U U U S G $ 6 1 6 T U U U U U 4 # 7 1 7 6 U U U U U 4 # 6 1 6 Y [ u.y.[ u.[ = w 9 y.[ ` [ y.u.y.` S # 6 1 U U U U ",
"g.g.g.g.g.y.u.7.0.9.` U U U U U U U U U 5 U U U U U U U U 5 U U U U U U U U U U 6 7 7 T U U U U U U U U U U U Y K L U K V [ 0.[ K Y U Y K L L Y U U U U U U U U ",
"g.g.g.g.g.y.u.u.u.y.g.g.g.g.g.g.U U U U U g.g.g.g.g.g.U U U U U g.g.g.g.g.g.U U U U T g.g.g.g.g.g.U U U U U g.g.g.g.g.g.K u.p.u.L g.g.g.g.g.g.U U 5 U U g.g.g.g.",
"g.g.g.g.u.[ u.p.u.y.g.g.g.g.g.g.U U U U U g.g.g.g.g.g.U U U U U g.g.g.g.g.g.U U U U U g.g.g.g.g.g.U U U U U g.g.g.g.g.w.{ u.p.p.[ g.g.g.g.g.g.g.U U U U g.g.g.g.",
"g.g.g.' u.u.y.u.u.w.u.K g.g.U U U U U U U U U g.g.U U U U U U U U U g.g.U U U U D S U U U g.g.U U U U U U U U U g.g.u.p.w.p.p.p.u.y.] g.g.U U U U U U U U U g.g.",
"g.g.g.g.y.u.[ u.u.r.u.g.g.g.g.U U S S U U U g.g.g.g.U U U U U S U g.g.g.g.U U G j G U U g.g.g.g.R =.R U U U U g.g.g.g.w.p.p.u.r.u.y.g.g.g.g.U U U S =...F g.g.g.",
"g.g.g.g.g.u.u.u.r.r.e.g.g.g.g.g.S g A S U g.g.g.g.g.g.U U U S S g.g.g.g.g.g.D c k g U g.g.g.g.g.g.>.=.S U U g.g.g.g.g.p.p.} [ y.y.g.g.g.g.g.g.U U R ;.#.g.g.g.g.",
"g.g.g.g.g.y.u.9.r.x g.g.g.g.g.g.U D S U U g.g.g.g.g.g.U U g j g g.g.g.g.g.g.U S D S U g.g.g.g.g.g.P ,.J U U g.g.g.g.g.g.} } y.y.y.g.g.g.g.g.g.U S D M -.g.g.g.g.",
"g.g.g.g.g.p.u.u.q.g.g.g.g.g.g.g.U U U U g.g.g.g.g.g.g.g.D c c g.g.g.g.g.g.g.g.U U U g.g.g.g.g.g.g.g.;.#.S g.g.g.g.g.g.g.g.u.u.u.p.g.g.g.g.g.g.g.U f c g.g.g.g.g.",
"g.g.g.g.g.g.[ u.C g.g.g.g.g.g.g.g.U U U g.g.g.g.g.g.g.g.U S S g.g.g.g.g.g.g.g.U L U g.g.g.g.g.g.g.g.g v S g.g.g.g.g.g.g.g.y.r.} g.g.g.g.g.g.g.g.D g A g.g.g.g.g.",
"g.g.g.g.g.g.{ y.g.g.g.g.g.g.g.g.g.g.U g.g.g.g.g.g.g.g.g.g.U g.g.g.g.g.g.g.g.g.y.y.g.g.g.g.g.g.g.g.g.g.g g.g.g.g.g.g.g.g.g.{ y.g.g.g.g.g.g.g.g.g.g.S g.g.g.g.g.g.",
"g.g.g.g.g.g.g.` g.g.g.g.g.g.g.g.g.g.U g.g.g.g.g.g.g.g.g.g.U g.g.g.g.g.g.g.g.g.g.y.g.g.g.g.g.g.g.g.g.g.U g.g.g.g.g.g.g.g.g.g.Y g.g.g.g.g.g.g.g.g.g.U g.g.g.g.g.g.",
"g.g.g.g.g.g.g.g.g.g.g.g.g.g.g.g.g.g.g.g.g.g.g.g.g.g.g.g.g.g.g.g.g.g.g.g.g.g.g.g.g.g.g.g.g.g.g.g.g.g.g.g.g.g.g.g.g.g.g.g.g.g.g.g.g.g.g.g.g.g.g.g.g.g.g.g.g.g.g.g.",
"g.g.g.g.g.g.g.g.g.g.g.g.g.g.g.g.g.g.g.g.g.g.g.g.g.g.g.g.g.g.g.g.g.g.g.g.g.g.g.g.g.g.g.g.g.g.g.g.g.g.g.g.g.g.g.g.g.g.g.g.g.g.g.g.g.g.g.g.g.g.g.g.g.g.g.g.g.g.g.g.",
"g.g.g.g.g.g.g.g.g.g.g.g.g.g.g.g.g.g.g.g.g.g.g.g.g.g.g.g.g.g.g.g.g.g.g.g.g.g.g.g.g.g.g.g.g.g.g.g.g.g.g.g.g.g.g.g.g.g.g.g.g.g.g.g.g.g.g.g.g.g.g.g.g.g.g.g.g.g.g.g.",
"g.g.g.g.g.g.g.g.g.g.g.g.g.g.g.g.g.g.g.g.g.g.g.g.g.g.g.g.g.g.g.g.g.g.g.g.g.g.g.g.g.g.g.g.g.g.g.g.g.g.g.g.g.g.g.g.g.g.g.g.g.g.g.g.g.g.g.g.g.g.g.g.g.g.g.g.g.g.g.g.",
"g.g.g.g.g.g.g.g.g.g.g.g.g.g.g.g.g.g.g.g.g.g.g.g.g.g.g.g.g.g.g.g.g.g.g.g.g.g.g.g.g.g.g.g.g.g.g.g.g.g.g.g.g.g.g.g.g.g.g.g.g.g.g.g.g.g.g.g.g.g.g.g.g.g.g.g.g.g.g.g.",
"g.g.g.g.g.g.g.g.g.g.g.g.g.g.g.g.g.g.g.g.g.g.g.g.g.g.g.g.g.g.g.g.g.g.g.g.g.g.g.g.g.g.g.g.g.g.g.g.g.g.g.g.g.g.g.g.g.g.g.g.g.g.g.g.g.g.g.g.g.g.g.g.g.g.g.g.g.g.g.g.",
"g.g.g.g.g.g.g.g.g.g.g.g.g.g.g.g.g.g.g.g.g.g.g.g.g.g.g.g.g.g.g.g.g.g.g.g.g.g.g.g.g.g.g.g.g.g.g.g.g.g.g.g.g.g.g.g.g.g.g.g.g.g.g.g.g.g.g.g.g.g.g.g.g.g.g.g.g.g.g.g.",
"g.g.g.g.g.g.g.g.g.g.g.g.g.g.g.g.g.g.g.g.g.g.g.g.g.g.g.g.g.g.g.g.g.g.g.g.g.g.g.g.g.g.g.g.g.g.g.g.g.g.g.g.g.g.g.g.g.g.g.g.g.g.g.g.g.g.g.g.g.g.g.g.g.g.g.g.g.g.g.g.",
"g.g.g.g.g.g.g.g.g.g.g.g.g.g.g.g.g.g.g.g.g.g.g.g.g.g.g.g.g.g.g.g.g.g.g.g.g.g.g.g.g.g.g.g.g.g.g.g.g.g.g.g.g.g.g.g.g.g.g.g.g.g.g.g.g.g.g.g.g.g.g.g.g.g.g.g.g.g.g.g.",
"g.g.g.g.g.g.g.g.g.g.g.g.g.g.g.g.g.g.g.g.g.g.g.g.g.g.g.g.g.g.g.g.g.g.g.g.g.g.g.g.g.g.g.g.g.g.g.g.g.g.g.g.g.g.g.g.g.g.g.g.g.g.g.g.g.g.g.g.g.g.g.g.g.g.g.g.g.g.g.g.",
"g.g.g.g.g.g.g.g.g.g.g.g.g.g.g.g.g.g.g.g.g.g.g.g.g.g.g.g.g.g.g.g.g.g.g.g.g.g.g.g.g.g.g.g.g.g.g.g.g.g.g.g.g.g.g.g.g.g.g.g.g.g.g.g.g.g.g.g.g.g.g.g.g.g.g.g.g.g.g.g.",
"g.g.g.g.g.g.g.g.g.g.g.g.g.g.g.g.g.g.g.g.g.g.g.g.g.g.g.g.g.g.g.g.g.g.g.g.g.g.g.g.g.g.g.g.g.g.g.g.g.g.g.g.g.g.g.g.g.g.g.g.g.g.g.g.g.g.g.g.g.g.g.g.g.g.g.g.g.g.g.g.",
"g.g.g.g.g.g.g.g.g.g.g.g.g.g.g.g.g.g.g.g.g.g.g.g.g.g.g.g.g.g.g.g.g.g.g.g.g.g.g.g.g.g.g.g.g.g.g.g.g.g.g.g.g.g.g.g.g.g.g.g.g.g.g.g.g.g.g.g.g.g.g.g.g.g.g.g.g.g.g.g.",
"g.g.g.g.g.g.g.g.g.g.g.g.g.g.g.g.g.g.g.g.g.g.g.g.g.g.g.g.g.g.g.g.g.g.g.g.g.g.g.g.g.g.g.g.g.g.g.g.g.g.g.g.g.g.g.g.g.g.g.g.g.g.g.g.g.g.g.g.g.g.g.g.g.g.g.g.g.g.g.g.",
"g.g.g.g.g.g.g.g.g.g.g.g.g.g.g.g.g.g.g.g.g.g.g.g.g.g.g.g.g.g.g.g.g.g.g.g.g.g.g.g.g.g.g.g.g.g.g.g.g.g.g.g.g.g.g.g.g.g.g.g.g.g.g.g.g.g.g.g.g.g.g.g.g.g.g.g.g.g.g.g.",
"g.g.g.g.g.g.g.g.g.g.g.g.g.g.g.g.g.g.g.g.g.g.g.g.g.g.g.g.g.g.g.g.g.g.g.g.g.g.g.g.g.g.g.g.g.g.g.g.g.g.g.g.g.g.g.g.g.g.g.g.g.g.g.g.g.g.g.g.g.g.g.g.g.g.g.g.g.g.g.g.",
"g.g.g.g.g.g.g.g.g.g.g.g.g.g.g.g.g.g.g.g.g.g.g.g.g.g.g.g.g.g.g.g.g.g.g.g.g.g.g.g.g.g.g.g.g.g.g.g.g.g.g.g.g.g.g.g.g.g.g.g.g.g.g.g.g.g.g.g.g.g.g.g.g.g.g.g.g.g.g.g.",
"g.g.g.g.g.g.g.g.g.g.g.g.g.g.g.g.g.g.g.g.g.g.g.g.g.g.g.g.g.g.g.g.g.g.g.g.g.g.g.g.g.g.g.g.g.g.g.g.g.g.g.g.g.g.g.g.g.g.g.g.g.g.g.g.g.g.g.g.g.g.g.g.g.g.g.g.g.g.g.g.",
"g.g.g.g.g.g.g.g.g.g.g.g.g.g.g.g.g.g.g.g.g.g.g.g.g.g.g.g.g.g.g.g.g.g.g.g.g.g.g.g.g.g.g.g.g.g.g.g.g.g.g.g.g.g.g.g.g.g.g.g.g.g.g.g.g.g.g.g.g.g.g.g.g.g.g.g.g.g.g.g.",
"g.g.g.g.g.g.g.g.g.g.g.g.g.g.g.g.g.g.g.g.g.g.g.g.g.g.g.g.g.g.g.g.g.g.g.g.g.g.g.g.g.g.g.g.g.g.g.g.g.g.g.g.g.g.g.g.g.g.g.g.g.g.g.g.g.g.g.g.g.g.g.g.g.g.g.g.g.g.g.g.",
"g.g.g.g.g.g.g.g.g.g.g.g.g.g.g.g.g.g.g.g.g.g.g.g.g.g.g.g.g.g.g.g.g.g.g.g.g.g.g.g.g.g.g.g.g.g.g.g.g.g.g.g.g.g.g.g.g.g.g.g.g.g.g.g.g.g.g.g.g.g.g.g.g.g.g.g.g.g.g.g.",
"g.g.g.g.g.g.g.g.g.g.g.g.g.g.g.g.g.g.g.g.g.g.g.g.g.g.g.g.g.g.g.g.g.g.g.g.g.g.g.g.g.g.g.g.g.g.g.g.g.g.g.g.g.g.g.g.g.g.g.g.g.g.g.g.g.g.g.g.g.g.g.g.g.g.g.g.g.g.g.g.",
"g.g.g.g.g.g.g.g.g.g.g.g.g.g.g.g.g.g.g.g.g.g.g.g.g.g.g.g.g.g.g.g.g.g.g.g.g.g.g.g.g.g.g.g.g.g.g.g.g.g.g.g.g.g.g.g.g.g.g.g.g.g.g.g.g.g.g.g.g.g.g.g.g.g.g.g.g.g.g.g.",
"g.g.g.g.g.g.g.g.g.g.g.g.g.g.g.g.g.g.g.g.g.g.g.g.g.g.g.g.g.g.g.g.g.g.g.g.g.g.g.g.g.g.g.g.g.g.g.g.g.g.g.g.g.g.g.g.g.g.g.g.g.g.g.g.g.g.g.g.g.g.g.g.g.g.g.g.g.g.g.g.",
"g.g.g.g.g.g.g.g.g.g.g.g.g.g.g.g.g.g.g.g.g.g.g.g.g.g.g.g.g.g.g.g.g.g.g.g.g.g.g.g.g.g.g.g.g.g.g.g.g.g.g.g.g.g.g.g.g.g.g.g.g.g.g.g.g.g.g.g.g.g.g.g.g.g.g.g.g.g.g.g."
};
