/* XPM */
static char *result[] = {
/* columns rows colors chars-per-pixel */
"80 80 103 2 ",
"   c #0E0B0B",
".  c #180B03",
"X  c #130A0A",
"o  c #19120D",
"O  c #151212",
"+  c #1A1210",
"@  c #220303",
"#  c #330303",
"$  c #330808",
"%  c #351E1E",
"&  c #2F2218",
"*  c #252322",
"=  c #392F2B",
"-  c #3D322E",
";  c #3E3330",
":  c #3F3937",
">  c #3E3D3D",
",  c #420707",
"<  c #410808",
"1  c #4D0F0F",
"2  c #530E0E",
"3  c #580E0E",
"4  c #4D1414",
"5  c #591313",
"6  c #770B0B",
"7  c #781514",
"8  c #462A17",
"9  c #5F3314",
"0  c #56351E",
"q  c #5B361B",
"w  c #5A391E",
"e  c #66350E",
"r  c #6C360C",
"t  c #7B201F",
"y  c #7E2B1B",
"u  c #623614",
"i  c #643815",
"p  c #6C3B14",
"a  c #603719",
"s  c #653B1B",
"d  c #6D3D19",
"f  c #552B29",
"g  c #5B2E2B",
"h  c #423026",
"j  c #4E3626",
"k  c #46362E",
"l  c #4A362C",
"z  c #4C3A2E",
"x  c #533521",
"c  c #543925",
"v  c #5A3B25",
"b  c #54312E",
"n  c #59302D",
"m  c #523B2B",
"M  c #5B3E2A",
"N  c #423632",
"B  c #4B3431",
"V  c #423935",
"C  c #4A3933",
"Z  c #413B39",
"A  c #4A3A3A",
"S  c #553534",
"D  c #5B3433",
"F  c #6A2726",
"G  c #642D2C",
"H  c #6B2B2A",
"J  c #762626",
"K  c #7C2524",
"L  c #732926",
"P  c #7C2A25",
"I  c #722A29",
"U  c #663F23",
"Y  c #623030",
"T  c #6D401E",
"R  c #774117",
"E  c #73411A",
"W  c #5D402C",
"Q  c #4C403F",
"!  c #63422A",
"~  c #6A4429",
"^  c #734624",
"/  c #754826",
"(  c #7A4A24",
")  c #454444",
"_  c #494545",
"`  c gray32",
"'  c #850909",
"]  c #8B0B0B",
"[  c #970A0A",
"{  c #8A1717",
"}  c #841D1D",
"|  c #8D1A1A",
" . c #901C1C",
".. c #84271D",
"X. c #8E221F",
"o. c #82281A",
"O. c #90231F",
"+. c #842323",
"@. c #8C2121",
"#. c #802D24",
"$. c #902020",
"%. c #824616",
"&. c None",
/* pixels */
"N j p x N N N N N N N N N N N N N N N N N N N N N N N N N N N N N N N N N N N M ~ / / ( ( ( ~ z k k k N = - Q - Q - = - Q k k k N N N N N N N N N N N N N N N N ",
"k R %.c N N N V N N N N N N N N N N N N N N N N N N N N N V N V N N N N N N V U ! W z m c W ( ( s 9 9 z Q ; = k k - Q ; - - k : V N N N N N N l N N N N N N N N ",
"v R ^ ! N N Z > Z N N N N N N N N Z > Z V V N N N N N N Z > Z Z V N N N N N N A C w u r e e r i q 0 q i w Q : - ; k ; k k : > > > N N N N N k q z z : : Z N N N ",
"N v ~ ! V Z > > > > N N N N N N V > > Z > > V N N N ; N > > > > > N N N N N N c q v C N k k k k N N : Q Z > > Q Q = Q = : > > > > : N N N N k w E p N > > Z N N ",
"&.&.&.&.&.N V > > > > &.&.&.&.&.N N N V > > > &.&.&.&.V N S D > > &.&.&.&.&.N V Z > > > &.&.&.&.&.N z c m : > &.&.&.&.&.: : > Q Z &.&.&.&.&.&.N N k Q > > &.&.&.",
"&.&.&.&.&.N V V Y > Z V V N N N N N B A Z > > V N V N N N g Y A > V N N N N N V > > > > V N N N N z T w 9 Q : : N N N N ; k C G Z Z V V N N N ; N N : > > : N N ",
"N N N N N N N H +.S Z N N N N N N g F Y D S A B N N N N ; B D > > V N N N N N N : > > Z N N N N N z p c 9 : > : N N k b N N F ' A Z B N N C W W V - Z > > : V N ",
"N N N N N k   A @ J V N N N N N N N X _ O I J g N N N ;   ) O > > V N N N N =   ) O > : N N N N N h . _ o Q > : N N G +.f   ) o Z g I N z ~ / ( W   ) O > : V N ",
"N N N N V ; _ 5 1 J V V N N N N N = ) ` : Z A N N N N = _ ` Z Z > V N N N N = _ ` : > : V N N N V h Q ` N Z > V N N n +.6 A ` > Y @.J B N C C ! c _ ` > > V V N ",
"N N N N N ; + 2 , g V V N N N N N - O > * > Z V N N N - O Z % Z > V N N N N - O > * > : N N N N k ; o Z & Z > V N N N n g o > $ +.+.n N N N C W M O > * > : N N ",
"N N N N N N G @.@.A V V N N N N N N V Z > > > V N N N N V B I Z > V N N N N N N > > > > N N N N V N N k w Z > Z N N N N N N S +.Y S V V N N N m m N > > > : V N ",
"&.&.&.&.&.B K $.+.A &.&.&.&.&.&.N N N : > > > &.&.&.&.N N N S > > &.&.&.&.&.N N > > > > &.&.&.&.&.N ; : : Q > &.&.&.&.&.N A J +.A &.&.&.&.&.&.N N N Z > > &.&.&.",
"&.&.&.&.&.J @.+.K A &.&.&.&.&.&.N N V : > > > &.&.&.&.N N N Z Q > &.&.&.&.&.N V Z > > &.&.&.&.&.&.N N V Z > > &.&.&.&.&.k B H S > &.&.&.&.&.&.N N N Z Q > &.&.&.",
"&.&.&.&.&.@.@.@.P A &.&.&.&.&.&.N N N : > > > &.&.&.&.N N N > > > &.&.&.&.&.N N : > > > &.&.&.&.&.N N N > > > &.&.&.&.&.H g K Y Z &.&.&.&.&.&.N N V > > > &.&.&.",
"&.&.&.&.J $.@.$.+.S > &.&.&.&.&.N N ; : > ) Z &.&.&.&.k C N V V Z &.&.&.&.&.N N Z > > > &.&.&.&.&.l z N Z > A &.&.&.&.&.+.J +.H A &.&.&.&.&.&.N N : : > > &.&.&.",
"J +.J +.+.$.{ | @.I H G B N N N N V ; > > > Z N q u 0 q a i a a C V N N N N N ; : > > > Z V N N H J F n A Y I J J D J @.+.@.[ +.A H +.g N N : k N ; : > > V N N ",
"@.$.@.@.O.{ . 3 @ K +.+.g N N N N -   ) O > : N 0 x u r . 8 O Z Z V N N N N -   ) O > V N N N N S l X Q + H D J +.+.K $.} @ 5 @ +.+.@.G B S l N -   ) O Z V N N ",
"@.@.+.@.+.7 3 5 1 } J g N N N N N = ) ` > > ; V N N l e 8 ` : > > ; N N N N = _ ` > > : N N N N N = _ ` : A S +.$.$.$.[ ' 5 5 4 @.@.+.J +.+.+.g = _ ` : N N N N ",
"K J H n g t # 3 , | n N N N N N N - o : * V V V N N k x o : * : V V N N N N - O > * > Z N N N N N - + : * V B J @.+.K +.K # 3 < +.K H K +.@.+.G k O > * N N N N ",
"&.&.&.&.&.+.@. . .@.G N N N N N N N N N N N N N N N N N N N N V N N N N N N N N : > > Z N N N N N N N N N N N B f n N n b +. .K b l N B f n n B N N N ; N N N N ",
"&.&.&.&.&.+.+.@.@.+.&.&.&.&.&.&.N N N N N &.&.&.&.&.&.N N N N N &.&.&.&.&.&.N N ; V : &.&.&.&.&.&.V N N N N &.&.&.&.&.&.b +. .@.n &.&.&.&.&.&.N ; N N N &.&.&.&.",
"&.&.&.&.+.+.@.$.@.+.&.&.&.&.&.&.N N N N N &.&.&.&.&.&.N N N N N &.&.&.&.&.&.N N V N N &.&.&.&.&.&.N N N N N &.&.&.&.&.O.L @.$.$.J &.&.&.&.&.&.&.N N N V &.&.&.&.",
"&.&.&.H @.@.+.@.@.X.@.n &.&.N N N N N N N N N &.&.N N N N k N N N N &.&.N N N N j k N N N &.&.N N N N N N N N N &.&.@.@.| O.$.$.@.+.J &.&.N N N N N N N N N &.&.",
"&.&.&.&.+.$.K +.X.X.@.&.&.&.&.N N k N N N N &.&.&.&.N N N ; N N N &.&.&.&.N N j e x N N &.&.&.&.C ! z N N N N &.&.&.&.@.$.@.$.@.@.K &.&.&.&.N N N N U U l &.&.&.",
"&.&.&.&.&.@.@.@.$.O.o.&.&.&.&.&.k 0 j k N &.&.&.&.&.&.N N N l k &.&.&.&.&.&.l e r 0 N &.&.&.&.&.&./ ! z N N &.&.&.&.&.$.$.#.P +.+.&.&.&.&.&.&.N N l ^ E &.&.&.&.",
"&.&.&.&.&.+.@.$.$.y &.&.&.&.&.&.k j k N N &.&.&.&.&.&.N N 0 r 0 &.&.&.&.&.&.N k l k N &.&.&.&.&.&.m ( M N N &.&.&.&.&.&.P #.K +.+.&.&.&.&.&.&.N N m E U &.&.&.&.",
"&.&.&.&.&.$.@.| ..&.&.&.&.&.&.&.N N N N &.&.&.&.&.&.&.&.l e u &.&.&.&.&.&.&.&.N N N &.&.&.&.&.&.&.&.T E z &.&.&.&.&.&.&.&.@.@.@.$.&.&.&.&.&.&.&.N 0 u &.&.&.&.&.",
"&.&.&.&.&.&.P @.n &.&.&.&.&.&.&.&.N N N &.&.&.&.&.&.&.&.N k k &.&.&.&.&.&.&.&.N n N &.&.&.&.&.&.&.&.0 a l &.&.&.&.&.&.&.&.@.O.K &.&.&.&.&.&.&.&.k q j &.&.&.&.&.",
"&.&.&.&.&.&.I +.&.&.&.&.&.&.&.&.&.&.N &.&.&.&.&.&.&.&.&.&.N &.&.&.&.&.&.&.&.&.+.@.&.&.&.&.&.&.&.&.&.&.q &.&.&.&.&.&.&.&.&.J +.&.&.&.&.&.&.&.&.&.&.k &.&.&.&.&.&.",
"&.&.&.&.&.&.&.G &.&.&.&.&.&.&.&.&.&.N &.&.&.&.&.&.&.&.&.&.N &.&.&.&.&.&.&.&.&.&.+.&.&.&.&.&.&.&.&.&.&.N &.&.&.&.&.&.&.&.&.&.B &.&.&.&.&.&.&.&.&.&.N &.&.&.&.&.&.",
"&.&.&.&.&.&.&.&.&.&.&.&.&.&.&.&.&.&.&.&.&.&.&.&.&.&.&.&.&.&.&.&.&.&.&.&.&.&.&.&.&.&.&.&.&.&.&.&.&.&.&.&.&.&.&.&.&.&.&.&.&.&.&.&.&.&.&.&.&.&.&.&.&.&.&.&.&.&.&.&.",
"&.&.&.&.&.&.&.&.&.&.&.&.&.&.&.&.&.&.&.&.&.&.&.&.&.&.&.&.&.&.&.&.&.&.&.&.&.&.&.&.&.&.&.&.&.&.&.&.&.&.&.&.&.&.&.&.&.&.&.&.&.&.&.&.&.&.&.&.&.&.&.&.&.&.&.&.&.&.&.&.",
"&.&.&.&.&.&.&.&.&.&.&.&.&.&.&.&.&.&.&.&.&.&.&.&.&.&.&.&.&.&.&.&.&.&.&.&.&.&.&.&.&.&.&.&.&.&.&.&.&.&.&.&.&.&.&.&.&.&.&.&.&.&.&.&.&.&.&.&.&.&.&.&.&.&.&.&.&.&.&.&.",
"&.&.&.&.&.&.&.&.&.&.&.&.&.&.&.&.&.&.&.&.&.&.&.&.&.&.&.&.&.&.&.&.&.&.&.&.&.&.&.&.&.&.&.&.&.&.&.&.&.&.&.&.&.&.&.&.&.&.&.&.&.&.&.&.&.&.&.&.&.&.&.&.&.&.&.&.&.&.&.&.",
"&.&.&.&.&.&.&.&.&.&.&.&.&.&.&.&.&.&.&.&.&.&.&.&.&.&.&.&.&.&.&.&.&.&.&.&.&.&.&.&.&.&.&.&.&.&.&.&.&.&.&.&.&.&.&.&.&.&.&.&.&.&.&.&.&.&.&.&.&.&.&.&.&.&.&.&.&.&.&.&.",
"&.&.&.&.&.&.&.&.&.&.&.&.&.&.&.&.&.&.&.&.&.&.&.&.&.&.&.&.&.&.&.&.&.&.&.&.&.&.&.&.&.&.&.&.&.&.&.&.&.&.&.&.&.&.&.&.&.&.&.&.&.&.&.&.&.&.&.&.&.&.&.&.&.&.&.&.&.&.&.&.",
"&.&.&.&.&.&.&.&.&.&.&.&.&.&.&.&.&.&.&.&.&.&.&.&.&.&.&.&.&.&.&.&.&.&.&.&.&.&.&.&.&.&.&.&.&.&.&.&.&.&.&.&.&.&.&.&.&.&.&.&.&.&.&.&.&.&.&.&.&.&.&.&.&.&.&.&.&.&.&.&.",
"&.&.&.&.&.&.&.&.&.&.&.&.&.&.&.&.&.&.&.&.&.&.&.&.&.&.&.&.&.&.&.&.&.&.&.&.&.&.&.&.&.&.&.&.&.&.&.&.&.&.&.&.&.&.&.&.&.&.&.&.&.&.&.&.&.&.&.&.&.&.&.&.&.&.&.&.&.&.&.&.",
"&.&.&.&.&.&.&.&.&.&.&.&.&.&.&.&.&.&.&.&.&.&.&.&.&.&.&.&.&.&.&.&.&.&.&.&.&.&.&.&.&.&.&.&.&.&.&.&.&.&.&.&.&.&.&.&.&.&.&.&.&.&.&.&.&.&.&.&.&.&.&.&.&.&.&.&.&.&.&.&.",
"&.&.&.&.&.&.&.&.&.&.&.&.&.&.&.&.&.&.&.&.&.&.&.&.&.&.&.&.&.&.&.&.&.&.&.&.&.&.&.&.&.&.&.&.&.&.&.&.&.&.&.&.&.&.&.&.&.&.&.&.&.&.&.&.&.&.&.&.&.&.&.&.&.&.&.&.&.&.&.&.",
"&.&.&.&.&.&.&.&.&.&.&.&.&.&.&.&.&.&.&.&.&.&.&.&.&.&.&.&.&.&.&.&.&.&.&.&.&.&.&.&.&.&.&.&.&.&.&.&.&.&.&.&.&.&.&.&.&.&.&.&.&.&.&.&.&.&.&.&.&.&.&.&.&.&.&.&.&.&.&.&.",
"&.&.&.&.&.&.&.&.&.&.&.&.&.&.&.&.&.&.&.&.&.&.&.&.&.&.&.&.&.&.&.&.&.&.&.&.&.&.&.&.&.&.&.&.&.&.&.&.&.&.&.&.&.&.&.&.&.&.&.&.&.&.&.&.&.&.&.&.&.&.&.&.&.&.&.&.&.&.&.&.",
"&.&.&.&.&.&.&.&.&.&.&.&.&.&.&.&.&.&.&.&.&.&.&.&.&.&.&.&.&.&.&.&.&.&.&.&.&.&.&.&.&.&.&.&.&.&.&.&.&.&.&.&.&.&.&.&.&.&.&.&.&.&.&.&.&.&.&.&.&.&.&.&.&.&.&.&.&.&.&.&.",
"&.&.&.&.&.&.&.&.&.&.&.&.&.&.&.&.&.&.&.&.&.&.&.&.&.&.&.&.&.&.&.&.&.&.&.&.&.&.&.&.&.&.&.&.&.&.&.&.&.&.&.&.&.&.&.&.&.&.&.&.&.&.&.&.&.&.&.&.&.&.&.&.&.&.&.&.&.&.&.&.",
"&.&.&.&.&.&.&.&.&.&.&.&.&.&.&.&.&.&.&.&.&.&.&.&.&.&.&.&.&.&.&.&.&.&.&.&.&.&.&.&.&.&.&.&.&.&.&.&.&.&.&.&.&.&.&.&.&.&.&.&.&.&.&.&.&.&.&.&.&.&.&.&.&.&.&.&.&.&.&.&.",
"&.&.&.&.&.&.&.&.&.&.&.&.&.&.&.&.&.&.&.&.&.&.&.&.&.&.&.&.&.&.&.&.&.&.&.&.&.&.&.&.&.&.&.&.&.&.&.&.&.&.&.&.&.&.&.&.&.&.&.&.&.&.&.&.&.&.&.&.&.&.&.&.&.&.&.&.&.&.&.&.",
"&.&.&.&.&.&.&.&.&.&.&.&.&.&.&.&.&.&.&.&.&.&.&.&.&.&.&.&.&.&.&.&.&.&.&.&.&.&.&.&.&.&.&.&.&.&.&.&.&.&.&.&.&.&.&.&.&.&.&.&.&.&.&.&.&.&.&.&.&.&.&.&.&.&.&.&.&.&.&.&.",
"&.&.&.&.&.&.&.&.&.&.&.&.&.&.&.&.&.&.&.&.&.&.&.&.&.&.&.&.&.&.&.&.&.&.&.&.&.&.&.&.&.&.&.&.&.&.&.&.&.&.&.&.&.&.&.&.&.&.&.&.&.&.&.&.&.&.&.&.&.&.&.&.&.&.&.&.&.&.&.&.",
"&.&.&.&.&.&.&.&.&.&.&.&.&.&.&.&.&.&.&.&.&.&.&.&.&.&.&.&.&.&.&.&.&.&.&.&.&.&.&.&.&.&.&.&.&.&.&.&.&.&.&.&.&.&.&.&.&.&.&.&.&.&.&.&.&.&.&.&.&.&.&.&.&.&.&.&.&.&.&.&.",
"&.&.&.&.&.&.&.&.&.&.&.&.&.&.&.&.&.&.&.&.&.&.&.&.&.&.&.&.&.&.&.&.&.&.&.&.&.&.&.&.&.&.&.&.&.&.&.&.&.&.&.&.&.&.&.&.&.&.&.&.&.&.&.&.&.&.&.&.&.&.&.&.&.&.&.&.&.&.&.&.",
"&.&.&.&.&.&.&.&.&.&.&.&.&.&.&.&.&.&.&.&.&.&.&.&.&.&.&.&.&.&.&.&.&.&.&.&.&.&.&.&.&.&.&.&.&.&.&.&.&.&.&.&.&.&.&.&.&.&.&.&.&.&.&.&.&.&.&.&.&.&.&.&.&.&.&.&.&.&.&.&.",
"&.&.&.&.&.&.&.&.&.&.&.&.&.&.&.&.&.&.&.&.&.&.&.&.&.&.&.&.&.&.&.&.&.&.&.&.&.&.&.&.&.&.&.&.&.&.&.&.&.&.&.&.&.&.&.&.&.&.&.&.&.&.&.&.&.&.&.&.&.&.&.&.&.&.&.&.&.&.&.&.",
"&.&.&.&.&.&.&.&.&.&.&.&.&.&.&.&.&.&.&.&.&.&.&.&.&.&.&.&.&.&.&.&.&.&.&.&.&.&.&.&.&.&.&.&.&.&.&.&.&.&.&.&.&.&.&.&.&.&.&.&.&.&.&.&.&.&.&.&.&.&.&.&.&.&.&.&.&.&.&.&.",
"&.&.&.&.&.&.&.&.&.&.&.&.&.&.&.&.&.&.&.&.&.&.&.&.&.&.&.&.&.&.&.&.&.&.&.&.&.&.&.&.&.&.&.&.&.&.&.&.&.&.&.&.&.&.&.&.&.&.&.&.&.&.&.&.&.&.&.&.&.&.&.&.&.&.&.&.&.&.&.&.",
"&.&.&.&.&.&.&.&.&.&.&.&.&.&.&.&.&.&.&.&.&.&.&.&.&.&.&.&.&.&.&.&.&.&.&.&.&.&.&.&.&.&.&.&.&.&.&.&.&.&.&.&.&.&.&.&.&.&.&.&.&.&.&.&.&.&.&.&.&.&.&.&.&.&.&.&.&.&.&.&.",
"&.&.&.&.&.&.&.&.&.&.&.&.&.&.&.&.&.&.&.&.&.&.&.&.&.&.&.&.&.&.&.&.&.&.&.&.&.&.&.&.&.&.&.&.&.&.&.&.&.&.&.&.&.&.&.&.&.&.&.&.&.&.&.&.&.&.&.&.&.&.&.&.&.&.&.&.&.&.&.&.",
"&.&.&.&.&.&.&.&.&.&.&.&.&.&.&.&.&.&.&.&.&.&.&.&.&.&.&.&.&.&.&.&.&.&.&.&.&.&.&.&.&.&.&.&.&.&.&.&.&.&.&.&.&.&.&.&.&.&.&.&.&.&.&.&.&.&.&.&.&.&.&.&.&.&.&.&.&.&.&.&.",
"&.&.&.&.&.&.&.&.&.&.&.&.&.&.&.&.&.&.&.&.&.&.&.&.&.&.&.&.&.&.&.&.&.&.&.&.&.&.&.&.&.&.&.&.&.&.&.&.&.&.&.&.&.&.&.&.&.&.&.&.&.&.&.&.&.&.&.&.&.&.&.&.&.&.&.&.&.&.&.&.",
"&.&.&.&.&.&.&.&.&.&.&.&.&.&.&.&.&.&.&.&.&.&.&.&.&.&.&.&.&.&.&.&.&.&.&.&.&.&.&.&.&.&.&.&.&.&.&.&.&.&.&.&.&.&.&.&.&.&.&.&.&.&.&.&.&.&.&.&.&.&.&.&.&.&.&.&.&.&.&.&.",
"&.&.&.&.&.&.&.&.&.&.&.&.&.&.&.&.&.&.&.&.&.&.&.&.&.&.&.&.&.&.&.&.&.&.&.&.&.&.&.&.&.&.&.&.&.&.&.&.&.&.&.&.&.&.&.&.&.&.&.&.&.&.&.&.&.&.&.&.&.&.&.&.&.&.&.&.&.&.&.&.",
"&.&.&.&.&.&.&.&.&.&.&.&.&.&.&.&.&.&.&.&.&.&.&.&.&.&.&.&.&.&.&.&.&.&.&.&.&.&.&.&.&.&.&.&.&.&.&.&.&.&.&.&.&.&.&.&.&.&.&.&.&.&.&.&.&.&.&.&.&.&.&.&.&.&.&.&.&.&.&.&.",
"&.&.&.&.&.&.&.&.&.&.&.&.&.&.&.&.&.&.&.&.&.&.&.&.&.&.&.&.&.&.&.&.&.&.&.&.&.&.&.&.&.&.&.&.&.&.&.&.&.&.&.&.&.&.&.&.&.&.&.&.&.&.&.&.&.&.&.&.&.&.&.&.&.&.&.&.&.&.&.&.",
"&.&.&.&.&.&.&.&.&.&.&.&.&.&.&.&.&.&.&.&.&.&.&.&.&.&.&.&.&.&.&.&.&.&.&.&.&.&.&.&.&.&.&.&.&.&.&.&.&.&.&.&.&.&.&.&.&.&.&.&.&.&.&.&.&.&.&.&.&.&.&.&.&.&.&.&.&.&.&.&.",
"&.&.&.&.&.&.&.&.&.&.&.&.&.&.&.&.&.&.&.&.&.&.&.&.&.&.&.&.&.&.&.&.&.&.&.&.&.&.&.&.&.&.&.&.&.&.&.&.&.&.&.&.&.&.&.&.&.&.&.&.&.&.&.&.&.&.&.&.&.&.&.&.&.&.&.&.&.&.&.&.",
"&.&.&.&.&.&.&.&.&.&.&.&.&.&.&.&.&.&.&.&.&.&.&.&.&.&.&.&.&.&.&.&.&.&.&.&.&.&.&.&.&.&.&.&.&.&.&.&.&.&.&.&.&.&.&.&.&.&.&.&.&.&.&.&.&.&.&.&.&.&.&.&.&.&.&.&.&.&.&.&.",
"&.&.&.&.&.&.&.&.&.&.&.&.&.&.&.&.&.&.&.&.&.&.&.&.&.&.&.&.&.&.&.&.&.&.&.&.&.&.&.&.&.&.&.&.&.&.&.&.&.&.&.&.&.&.&.&.&.&.&.&.&.&.&.&.&.&.&.&.&.&.&.&.&.&.&.&.&.&.&.&.",
"&.&.&.&.&.&.&.&.&.&.&.&.&.&.&.&.&.&.&.&.&.&.&.&.&.&.&.&.&.&.&.&.&.&.&.&.&.&.&.&.&.&.&.&.&.&.&.&.&.&.&.&.&.&.&.&.&.&.&.&.&.&.&.&.&.&.&.&.&.&.&.&.&.&.&.&.&.&.&.&.",
"&.&.&.&.&.&.&.&.&.&.&.&.&.&.&.&.&.&.&.&.&.&.&.&.&.&.&.&.&.&.&.&.&.&.&.&.&.&.&.&.&.&.&.&.&.&.&.&.&.&.&.&.&.&.&.&.&.&.&.&.&.&.&.&.&.&.&.&.&.&.&.&.&.&.&.&.&.&.&.&.",
"&.&.&.&.&.&.&.&.&.&.&.&.&.&.&.&.&.&.&.&.&.&.&.&.&.&.&.&.&.&.&.&.&.&.&.&.&.&.&.&.&.&.&.&.&.&.&.&.&.&.&.&.&.&.&.&.&.&.&.&.&.&.&.&.&.&.&.&.&.&.&.&.&.&.&.&.&.&.&.&.",
"&.&.&.&.&.&.&.&.&.&.&.&.&.&.&.&.&.&.&.&.&.&.&.&.&.&.&.&.&.&.&.&.&.&.&.&.&.&.&.&.&.&.&.&.&.&.&.&.&.&.&.&.&.&.&.&.&.&.&.&.&.&.&.&.&.&.&.&.&.&.&.&.&.&.&.&.&.&.&.&.",
"&.&.&.&.&.&.&.&.&.&.&.&.&.&.&.&.&.&.&.&.&.&.&.&.&.&.&.&.&.&.&.&.&.&.&.&.&.&.&.&.&.&.&.&.&.&.&.&.&.&.&.&.&.&.&.&.&.&.&.&.&.&.&.&.&.&.&.&.&.&.&.&.&.&.&.&.&.&.&.&.",
"&.&.&.&.&.&.&.&.&.&.&.&.&.&.&.&.&.&.&.&.&.&.&.&.&.&.&.&.&.&.&.&.&.&.&.&.&.&.&.&.&.&.&.&.&.&.&.&.&.&.&.&.&.&.&.&.&.&.&.&.&.&.&.&.&.&.&.&.&.&.&.&.&.&.&.&.&.&.&.&.",
"&.&.&.&.&.&.&.&.&.&.&.&.&.&.&.&.&.&.&.&.&.&.&.&.&.&.&.&.&.&.&.&.&.&.&.&.&.&.&.&.&.&.&.&.&.&.&.&.&.&.&.&.&.&.&.&.&.&.&.&.&.&.&.&.&.&.&.&.&.&.&.&.&.&.&.&.&.&.&.&.",
"&.&.&.&.&.&.&.&.&.&.&.&.&.&.&.&.&.&.&.&.&.&.&.&.&.&.&.&.&.&.&.&.&.&.&.&.&.&.&.&.&.&.&.&.&.&.&.&.&.&.&.&.&.&.&.&.&.&.&.&.&.&.&.&.&.&.&.&.&.&.&.&.&.&.&.&.&.&.&.&.",
"&.&.&.&.&.&.&.&.&.&.&.&.&.&.&.&.&.&.&.&.&.&.&.&.&.&.&.&.&.&.&.&.&.&.&.&.&.&.&.&.&.&.&.&.&.&.&.&.&.&.&.&.&.&.&.&.&.&.&.&.&.&.&.&.&.&.&.&.&.&.&.&.&.&.&.&.&.&.&.&.",
"&.&.&.&.&.&.&.&.&.&.&.&.&.&.&.&.&.&.&.&.&.&.&.&.&.&.&.&.&.&.&.&.&.&.&.&.&.&.&.&.&.&.&.&.&.&.&.&.&.&.&.&.&.&.&.&.&.&.&.&.&.&.&.&.&.&.&.&.&.&.&.&.&.&.&.&.&.&.&.&.",
"&.&.&.&.&.&.&.&.&.&.&.&.&.&.&.&.&.&.&.&.&.&.&.&.&.&.&.&.&.&.&.&.&.&.&.&.&.&.&.&.&.&.&.&.&.&.&.&.&.&.&.&.&.&.&.&.&.&.&.&.&.&.&.&.&.&.&.&.&.&.&.&.&.&.&.&.&.&.&.&.",
"&.&.&.&.&.&.&.&.&.&.&.&.&.&.&.&.&.&.&.&.&.&.&.&.&.&.&.&.&.&.&.&.&.&.&.&.&.&.&.&.&.&.&.&.&.&.&.&.&.&.&.&.&.&.&.&.&.&.&.&.&.&.&.&.&.&.&.&.&.&.&.&.&.&.&.&.&.&.&.&.",
"&.&.&.&.&.&.&.&.&.&.&.&.&.&.&.&.&.&.&.&.&.&.&.&.&.&.&.&.&.&.&.&.&.&.&.&.&.&.&.&.&.&.&.&.&.&.&.&.&.&.&.&.&.&.&.&.&.&.&.&.&.&.&.&.&.&.&.&.&.&.&.&.&.&.&.&.&.&.&.&.",
"&.&.&.&.&.&.&.&.&.&.&.&.&.&.&.&.&.&.&.&.&.&.&.&.&.&.&.&.&.&.&.&.&.&.&.&.&.&.&.&.&.&.&.&.&.&.&.&.&.&.&.&.&.&.&.&.&.&.&.&.&.&.&.&.&.&.&.&.&.&.&.&.&.&.&.&.&.&.&.&."
};
