/* XPM */
static char *result[] = {
/* columns rows colors chars-per-pixel */
"80 80 126 2 ",
"   c #0E0B0B",
".  c #1D0202",
"X  c #140C06",
"o  c #180B03",
"O  c #130A0A",
"+  c #19120E",
"@  c #151312",
"#  c #1A1210",
"$  c #220303",
"%  c #250E0E",
"&  c #330303",
"*  c #330808",
"=  c #3D0808",
"-  c #2A1F1D",
";  c #351E1E",
":  c #2F2218",
">  c #252323",
",  c #392F2B",
"<  c #3E322E",
"1  c #3E3330",
"2  c #3F3937",
"3  c #3E3D3D",
"4  c #420707",
"5  c #410808",
"6  c #4C0F0F",
"7  c #530E0E",
"8  c #580E0E",
"9  c #4D1414",
"0  c #561211",
"q  c #591313",
"w  c #6E0C0B",
"e  c #770B0B",
"r  c #631413",
"t  c #691312",
"y  c #781514",
"u  c #462A17",
"i  c #5F3314",
"p  c #56351E",
"a  c #5B361B",
"s  c #5A381D",
"d  c #66350E",
"f  c #6C360C",
"g  c #7B201F",
"h  c #7E2B1B",
"j  c #633614",
"k  c #643816",
"l  c #6B3A14",
"z  c #603719",
"x  c #653B1B",
"c  c #6D3D19",
"v  c #402D29",
"b  c #4F2C29",
"n  c #552B29",
"m  c #5B2E2C",
"M  c #423026",
"N  c #4E3626",
"B  c #46362E",
"V  c #4A352C",
"C  c #4C3A2E",
"Z  c #533521",
"A  c #553924",
"S  c #5A3A24",
"D  c #54312E",
"F  c #59302D",
"G  c #533B2C",
"H  c #5B3E2A",
"J  c #423632",
"K  c #4B3431",
"L  c #423935",
"P  c #4A3933",
"I  c #413B39",
"U  c #4A3A3A",
"Y  c #543534",
"T  c #5A3332",
"R  c #543834",
"E  c #533E3D",
"W  c #652524",
"Q  c #6A2726",
"!  c #622927",
"~  c #692826",
"^  c #642E2C",
"/  c #6B2B2A",
"(  c #762626",
")  c #7C2525",
"_  c #732927",
"`  c #7C2A25",
"'  c #732A29",
"]  c #7A2928",
"[  c #663F23",
"{  c #63302F",
"}  c #68302D",
"|  c #633030",
" . c #6D401E",
".. c #774117",
"X. c #73411A",
"o. c #5D402C",
"O. c #4C403F",
"+. c #63422A",
"@. c #6A4429",
"#. c #734624",
"$. c #7F4122",
"%. c #744826",
"&. c #7A4A24",
"*. c #454444",
"=. c #494545",
"-. c gray32",
";. c #850909",
":. c #8B0B0B",
">. c #950A09",
",. c #8A1717",
"<. c #841D1D",
"1. c #8D1B1B",
"2. c #901C1C",
"3. c #84271D",
"4. c #8E221F",
"5. c #82281A",
"6. c #90231F",
"7. c #813F1F",
"8. c #842423",
"9. c #8C2121",
"0. c #802D24",
"q. c #902020",
"w. c #863721",
"e. c #824616",
"r. c #804320",
"t. c None",
/* pixels */
"J N l Z J J J J J J J J J J J J J J J J J J J J J J J J J J J J J J J J J J J [ @.%.%.&.&.&.@.V B B B J 1 J J 1 J J J J J J J J J J J J J J J J J J J J J J J J ",
"B ..e.A J J J L J J J J J J J J J J L J J J J J J J J 1 J L J J J J J J J J P H +.o.C G A o.&.&.x i i V C 1 L B J J J J J J J L J J J J J J J B J J J J J J J J ",
"S ..#.+.J J I 3 I J J J J J J J J I I I L L J J J J J J I 3 3 I I J J J J J J U P s z d d d d k a p s k a O.3 J J J 1 J J J 3 3 3 L J J J J B a C C J 3 L L J J ",
"J S @.+.J I 3 3 3 3 J J J J J J L 3 3 3 3 3 L J J J J J 3 3 3 3 3 J J J J J J A a A C P B V V B B L 2 O.I 3 3 L J J L J J 3 3 3 3 L J J J J B s  .l P 3 3 L J L ",
"t.t.t.t.t.J I 3 3 3 3 t.t.t.t.t.J L L 3 3 3 3 t.t.t.t.J K | U 3 3 t.t.t.t.t.J J I 3 3 3 t.t.t.t.t.B A +.I 3 3 t.t.t.t.t.J L 3 3 3 t.t.t.t.t.t.J B B 2 3 3 t.t.t.",
"t.t.t.t.t.J J I 3 3 t.t.t.t.t.t.J J J L 3 3 3 t.t.t.t.J m ^ U 3 3 t.t.t.t.t.J J I 3 3 3 t.t.t.t.t.B l &.O.3 3 t.t.t.t.t.J J 3 3 3 t.t.t.t.t.t.J J J 2 3 3 t.t.t.",
"t.t.t.t.t.J J I 3 3 t.t.t.t.t.t.J J L I 3 3 3 t.t.t.t.J J J I 3 3 t.t.t.t.t.J J 3 3 3 t.t.t.t.t.t.V k $.R 3 3 t.t.t.t.t.J J 2 3 3 t.t.t.t.t.t.J J 2 2 3 3 t.t.t.",
"t.t.t.t.t.J J I 3 3 t.t.t.t.t.t.J J J 3 3 3 3 t.t.t.t.J J J 3 3 3 t.t.t.t.t.J J I 3 3 3 t.t.t.t.t.B l w.} I 3 t.t.t.t.t.J J 3 3 3 t.t.t.t.t.t.J J J O.3 3 t.t.t.",
"t.t.t.t.t.J J 2 3 3 t.t.t.t.t.t.J J J L 3 I I t.t.t.t.J J 2 U 3 3 t.t.t.t.t.J J 2 3 3 t.t.t.t.t.J B x r.] I 3 t.t.t.t.t.J J 3 3 3 t.t.t.t.t.t.J J K U *.3 2 J t.",
"G P J J J J 1 2 3 3 I J J J J J J J < 2 U | Y J J J J J < K ' U 3 I J J J J J 1 2 3 3 I L J J J J B z r.>.| I L J J J J J 1 3 3 3 2 J J J J J J V W _ I 3 3 J J ",
"%.@.R P J 1   *.@ 3 3 J K J J J J <   *.# ' U J J J J <   *.# U 3 J J J J J 1   *.@ 3 3 J J J J J B X 0 $ 9.Y L J J J J 1   *.@ 3 2 J J J J C / Q . =.@ 3 L L J ",
"R @.%.@.J , =.-.3 3 J t ! J J J J , *.-.6 8 U K K K K v =.-.L U 3 I J J J J , =.-.3 3 I J J J J J , =.-.6 9.] J J J J J , *.-.2 3 2 J J J D 8.9.W E -.2 3 2 J J ",
"1 J C P J 1 @ 3 > 3 K w r J J J J J # 7 = / / _ ( ( ) W # 3 > 3 3 J J J J J 1 @ 3 > 3 I L J J J J , # P : ' 9./ J J J J < @ 3 > 3 2 J J K ( 9.( b % 2 > 3 L L J ",
"J J J J J J J I 3 3 U _ Y J J J J m ) 8.( _ T K K K K K J J T 3 3 L J J J J J J 2 3 3 2 J J J J J J V d L U ] 8.C J J J 1 L 3 3 3 L L J J D m K J K I 3 3 2 J J ",
"J J J J J J J 2 3 3 P _ K J J J J J F 8.' | U 2 J J J J J K ] I 3 L J J J J J J 2 3 3 2 J J J J J J V j P O.Y ' F J J J J J 3 3 3 I J J J J J J J L I 3 3 I L L ",
"t.t.t.t.t.J J 3 3 3 t.t.t.t.t.t.J J K ] ^ U I t.t.t.t.J J P ' I 3 t.t.t.t.t.J J 3 3 3 t.t.t.t.t.t.J B i A I I 8.t.t.t.t.J J 2 3 3 t.t.t.t.t.t.J J J 3 3 3 t.t.t.",
"t.t.t.t.t.J J I 3 3 t.t.t.t.t.t.J J m _ U 3 3 t.t.t.t.J J J Y 3 3 t.t.t.t.t.J J 3 3 3 3 t.t.t.t.t.J B a s 2 3 t.t.t.t.t.J L 3 3 3 t.t.t.t.t.t.J J J 3 3 3 t.t.t.",
"t.t.t.t.t.J J 3 3 3 t.t.t.t.t.t.J J K T 3 3 3 t.t.t.t.J J J U *.3 t.t.t.t.t.J J I 3 3 3 t.t.t.t.t.J B s s 2 3 t.t.t.t.t.J J 3 3 3 t.t.t.t.t.t.J J J I 3 3 t.t.t.",
"t.t.t.t.t.J J I 3 3 t.t.t.t.t.t.J J J L 3 3 3 t.t.t.t.J J m | I 3 t.t.t.t.t.J J 3 3 3 3 t.t.t.t.t.B A a s O.3 t.t.t.t.t.J J L I 3 t.t.t.t.t.t.J J J I 3 3 t.t.t.",
"t.t.t.t.t.J J L | 3 3 J J J J J J J K U 3 3 I L J J J J J F ^ U 3 I J J J J J J I 3 3 2 J J J J J C c S i O.3 2 O.1 L B J J U / U I L J J J J J J J 3 3 3 L L 1 ",
"J J J J J J B / 8.Y L J J J J J J n Q ^ T E U K J J J J < K Y I 3 L J J J J J 1 2 3 3 3 L J J J J C l A k O.3 2 J J J D J J ~ :.U I K J J V o.o.J B 2 3 3 3 2 B ",
"J J J J J < O U $ ( U J J J J J J J O O.# ' ] m J J J B   *.@ *.3 J J J J J <   =.@ 3 2 J J J J B V o =.+ 2 2 2 J B ^ 8.n O =.@ I F _ J P @.@.&.o.  *.@ 3 2 J J ",
"J J J 1 J , =.q 6 ( L J J J J J J , =.-.3 I U J J J J , =.-.U I 3 2 J J J J , *.-.3 3 3 J J J J J , O.-.2 L 2 2 J J F 8.e U -.2 } 9.` B J P R +.A =.-.2 3 2 L J ",
"J J J J J 1 @ 0 5 ! I J J J J J J < @ 3 > 3 I J J J J < @ I > U 3 J J J J J < @ 3 > 3 2 J J J J J < + L : O.3 2 J J L F n @ 3 * 8.8.F J J J J o.S @ 3 > 3 2 J J ",
"J J J J J J ^ 9.9.U I J J J J J J J J L 3 3 3 I J J J J J K ' I 3 J J J J J J J I 3 3 I J J J J J J J J S I 3 I J J J J J J Y 8.T Y J J J J J G G J I 3 3 I J J ",
"t.t.t.t.t.K ) 9.8.U t.t.t.t.t.t.J J J I 3 3 3 t.t.t.t.J J J T I 3 t.t.t.t.t.J J 3 3 3 3 t.t.t.t.t.J J J L 3 3 t.t.t.t.t.J K ] 8.E t.t.t.t.t.t.J J L I 3 3 t.t.t.",
"t.t.t.t.t.' 9.9.) U t.t.t.t.t.t.J J J 3 3 3 3 t.t.t.t.J 1 L I 3 3 t.t.t.t.t.J J I 3 3 t.t.t.t.t.t.J J L I 3 3 t.t.t.t.t.J K ^ Y 3 t.t.t.t.t.t.J J J 3 3 3 t.t.t.",
"t.t.t.t.t.9.9.9.] U t.t.t.t.t.t.J J J L 3 3 3 t.t.t.t.J 1 2 O.3 3 t.t.t.t.t.J J 3 3 3 3 t.t.t.t.t.J J L I 3 3 t.t.t.t.t._ m ] } I t.t.t.t.t.t.J J L I 3 3 t.t.t.",
"t.t.t.t.( q.9.9.9.Y 3 t.t.t.t.t.J J J I 3 3 3 t.t.t.t.B J J L P I t.t.t.t.t.J J 2 3 3 3 t.t.t.t.t.C K J I 3 U t.t.t.t.t.8.) 8./ I t.t.t.t.t.t.J J J 3 3 3 t.t.t.",
"( ) ( 8.9.q.,.1.1.' ^ / K J J J J J 1 2 3 3 I J a z a z z k z k P I J J J J J 1 2 3 3 3 J J J J / ) Q m U | ' ] ] n _ q.8.8.>.8.K / 9.T J J J J J B 2 3 3 L J J ",
"9.q.9.9.9.,.$ 0 $ ) 8.8.m J J J J <   *.@ 3 2 J Z Z j f o u O I I L J J J J 1   *.@ I I J J J J K b O O.# / | ] ) 8.) q.8.. q $ ) 8.9.^ K D B J 1   *.@ I J J J ",
"9.9.8.9.8.y 0 q 0 <._ n J J J J J , *.-.3 3 2 J J J N i u -.3 3 3 L J J J J , =.-.3 3 I L J J J J , =.-.2 I K 9.q.q.q.>.;.q q 0 q.4.) ) 8.8.8.m , =.-.2 J J J J ",
"8.( ^ F Y y & 8 4 1.F J J J J J J < @ 2 > L J J J J B Z @ 2 > 2 L J J J J J < @ 3 > 3 2 L J J J J < @ 2 > L K ) 4.8.) 8.g & 8 = 8.( / ) 8.9.8.^ < @ 2 > J J J J ",
"t.t.t.t.t.8.q.1.2.9.^ J J J J J J J J J J J J J J J J J J J J J J J J J J J J J L 3 3 L J J J J J J J J J J J J F n J F D 8.2.) F K J V D m F K J J J J J J J J ",
"t.t.t.t.t.8.9.9.9.8.t.t.t.t.t.t.J J J J J t.t.t.t.t.t.J J J J J t.t.t.t.t.t.J J J 2 L t.t.t.t.t.t.J J J J J t.t.t.t.t.t.F 9.q.9.F t.t.t.t.t.t.J J J J J t.t.t.t.",
"t.t.t.t.9.) 9.9.4.8.t.t.t.t.t.t.J J J J J t.t.t.t.t.t.J J J J J t.t.t.t.t.t.J J J J J t.t.t.t.t.t.J J J J J t.t.t.t.t.4./ 9.q.q.( t.t.t.t.t.t.t.J J J J t.t.t.t.",
"t.t.t./ 9.9.8.9.4.4.9.n t.t.J J J J J J J J J t.t.J J J J J J J J J t.t.J J J J N B J J J t.t.J J J J J J J J J t.t.9.9.4.q.q.q.9.8.( t.t.J J J J J B B J J t.t.",
"t.t.t.t.8.q.) 9.4.4.9.t.t.t.t.J J B B J J J t.t.t.t.J J 1 J J J J t.t.t.t.J J N d p J J t.t.t.t.P +.V J J J J t.t.t.t.6.6.4.2.9.4.) t.t.t.t.J J J B +.[ C t.t.t.",
"t.t.t.t.t.q.9.9.q.9.5.t.t.t.t.t.B p N J J t.t.t.t.t.t.J J J V B t.t.t.t.t.t.V d f p J t.t.t.t.t.t.%.@.P J J t.t.t.t.t.q.q.` ) 8.8.t.t.t.t.t.t.J J P #...t.t.t.t.",
"t.t.t.t.t.0.9.q.q.h t.t.t.t.t.t.J N B J J t.t.t.t.t.t.J B p f s t.t.t.t.t.t.J B V B J t.t.t.t.t.t.H %.S J J t.t.t.t.t.t.` ` 8.8.8.t.t.t.t.t.t.J J N c [ t.t.t.t.",
"t.t.t.t.t.q.9.9.3.t.t.t.t.t.t.t.J J J J t.t.t.t.t.t.t.t.B d z t.t.t.t.t.t.t.t.J J J t.t.t.t.t.t.t.t. .X.V t.t.t.t.t.t.t.t.9.9.9.q.t.t.t.t.t.t.t.J p z t.t.t.t.t.",
"t.t.t.t.t.t.( 9.m t.t.t.t.t.t.t.t.J J J t.t.t.t.t.t.t.t.J B B t.t.t.t.t.t.t.t.J F J t.t.t.t.t.t.t.t.p k V t.t.t.t.t.t.t.t.0.2.0.t.t.t.t.t.t.t.t.V s Z t.t.t.t.t.",
"t.t.t.t.t.t._ 9.t.t.t.t.t.t.t.t.t.t.J t.t.t.t.t.t.t.t.t.t.J t.t.t.t.t.t.t.t.t.8.9.t.t.t.t.t.t.t.t.t.t.s t.t.t.t.t.t.t.t.t.( 8.t.t.t.t.t.t.t.t.t.t.B t.t.t.t.t.t.",
"t.t.t.t.t.t.t.m t.t.t.t.t.t.t.t.t.t.J t.t.t.t.t.t.t.t.t.t.J t.t.t.t.t.t.t.t.t.t.8.t.t.t.t.t.t.t.t.t.t.J t.t.t.t.t.t.t.t.t.t.K t.t.t.t.t.t.t.t.t.t.J t.t.t.t.t.t.",
"t.t.t.t.t.t.t.t.t.t.t.t.t.t.t.t.t.t.t.t.t.t.t.t.t.t.t.t.t.t.t.t.t.t.t.t.t.t.t.t.t.t.t.t.t.t.t.t.t.t.t.t.t.t.t.t.t.t.t.t.t.t.t.t.t.t.t.t.t.t.t.t.t.t.t.t.t.t.t.t.",
"t.t.t.t.t.t.t.t.t.t.t.t.t.t.t.t.t.t.t.t.t.t.t.t.t.t.t.t.t.t.t.t.t.t.t.t.t.t.t.t.t.t.t.t.t.t.t.t.t.t.t.t.t.t.t.t.t.t.t.t.t.t.t.t.t.t.t.t.t.t.t.t.t.t.t.t.t.t.t.t.",
"t.t.t.t.t.t.t.t.t.t.t.t.t.t.t.t.t.t.t.t.t.t.t.t.t.t.t.t.t.t.t.t.t.t.t.t.t.t.t.t.t.t.t.t.t.t.t.t.t.t.t.t.t.t.t.t.t.t.t.t.t.t.t.t.t.t.t.t.t.t.t.t.t.t.t.t.t.t.t.t.",
"t.t.t.t.t.t.t.t.t.t.t.t.t.t.t.t.t.t.t.t.t.t.t.t.t.t.t.t.t.t.t.t.t.t.t.t.t.t.t.t.t.t.t.t.t.t.t.t.t.t.t.t.t.t.t.t.t.t.t.t.t.t.t.t.t.t.t.t.t.t.t.t.t.t.t.t.t.t.t.t.",
"t.t.t.t.t.t.t.t.t.t.t.t.t.t.t.t.t.t.t.t.t.t.t.t.t.t.t.t.t.t.t.t.t.t.t.t.t.t.t.t.t.t.t.t.t.t.t.t.t.t.t.t.t.t.t.t.t.t.t.t.t.t.t.t.t.t.t.t.t.t.t.t.t.t.t.t.t.t.t.t.",
"t.t.t.t.t.t.t.t.t.t.t.t.t.t.t.t.t.t.t.t.t.t.t.t.t.t.t.t.t.t.t.t.t.t.t.t.t.t.t.t.t.t.t.t.t.t.t.t.t.t.t.t.t.t.t.t.t.t.t.t.t.t.t.t.t.t.t.t.t.t.t.t.t.t.t.t.t.t.t.t.",
"t.t.t.t.t.t.t.t.t.t.t.t.t.t.t.t.t.t.t.t.t.t.t.t.t.t.t.t.t.t.t.t.t.t.t.t.t.t.t.t.t.t.t.t.t.t.t.t.t.t.t.t.t.t.t.t.t.t.t.t.t.t.t.t.t.t.t.t.t.t.t.t.t.t.t.t.t.t.t.t.",
"t.t.t.t.t.t.t.t.t.t.t.t.t.t.t.t.t.t.t.t.t.t.t.t.t.t.t.t.t.t.t.t.t.t.t.t.t.t.t.t.t.t.t.t.t.t.t.t.t.t.t.t.t.t.t.t.t.t.t.t.t.t.t.t.t.t.t.t.t.t.t.t.t.t.t.t.t.t.t.t.",
"t.t.t.t.t.t.t.t.t.t.t.t.t.t.t.t.t.t.t.t.t.t.t.t.t.t.t.t.t.t.t.t.t.t.t.t.t.t.t.t.t.t.t.t.t.t.t.t.t.t.t.t.t.t.t.t.t.t.t.t.t.t.t.t.t.t.t.t.t.t.t.t.t.t.t.t.t.t.t.t.",
"t.t.t.t.t.t.t.t.t.t.t.t.t.t.t.t.t.t.t.t.t.t.t.t.t.t.t.t.t.t.t.t.t.t.t.t.t.t.t.t.t.t.t.t.t.t.t.t.t.t.t.t.t.t.t.t.t.t.t.t.t.t.t.t.t.t.t.t.t.t.t.t.t.t.t.t.t.t.t.t.",
"t.t.t.t.t.t.t.t.t.t.t.t.t.t.t.t.t.t.t.t.t.t.t.t.t.t.t.t.t.t.t.t.t.t.t.t.t.t.t.t.t.t.t.t.t.t.t.t.t.t.t.t.t.t.t.t.t.t.t.t.t.t.t.t.t.t.t.t.t.t.t.t.t.t.t.t.t.t.t.t.",
"t.t.t.t.t.t.t.t.t.t.t.t.t.t.t.t.t.t.t.t.t.t.t.t.t.t.t.t.t.t.t.t.t.t.t.t.t.t.t.t.t.t.t.t.t.t.t.t.t.t.t.t.t.t.t.t.t.t.t.t.t.t.t.t.t.t.t.t.t.t.t.t.t.t.t.t.t.t.t.t.",
"t.t.t.t.t.t.t.t.t.t.t.t.t.t.t.t.t.t.t.t.t.t.t.t.t.t.t.t.t.t.t.t.t.t.t.t.t.t.t.t.t.t.t.t.t.t.t.t.t.t.t.t.t.t.t.t.t.t.t.t.t.t.t.t.t.t.t.t.t.t.t.t.t.t.t.t.t.t.t.t.",
"t.t.t.t.t.t.t.t.t.t.t.t.t.t.t.t.t.t.t.t.t.t.t.t.t.t.t.t.t.t.t.t.t.t.t.t.t.t.t.t.t.t.t.t.t.t.t.t.t.t.t.t.t.t.t.t.t.t.t.t.t.t.t.t.t.t.t.t.t.t.t.t.t.t.t.t.t.t.t.t.",
"t.t.t.t.t.t.t.t.t.t.t.t.t.t.t.t.t.t.t.t.t.t.t.t.t.t.t.t.t.t.t.t.t.t.t.t.t.t.t.t.t.t.t.t.t.t.t.t.t.t.t.t.t.t.t.t.t.t.t.t.t.t.t.t.t.t.t.t.t.t.t.t.t.t.t.t.t.t.t.t.",
"t.t.t.t.t.t.t.t.t.t.t.t.t.t.t.t.t.t.t.t.t.t.t.t.t.t.t.t.t.t.t.t.t.t.t.t.t.t.t.t.t.t.t.t.t.t.t.t.t.t.t.t.t.t.t.t.t.t.t.t.t.t.t.t.t.t.t.t.t.t.t.t.t.t.t.t.t.t.t.t.",
"t.t.t.t.t.t.t.t.t.t.t.t.t.t.t.t.t.t.t.t.t.t.t.t.t.t.t.t.t.t.t.t.t.t.t.t.t.t.t.t.t.t.t.t.t.t.t.t.t.t.t.t.t.t.t.t.t.t.t.t.t.t.t.t.t.t.t.t.t.t.t.t.t.t.t.t.t.t.t.t.",
"t.t.t.t.t.t.t.t.t.t.t.t.t.t.t.t.t.t.t.t.t.t.t.t.t.t.t.t.t.t.t.t.t.t.t.t.t.t.t.t.t.t.t.t.t.t.t.t.t.t.t.t.t.t.t.t.t.t.t.t.t.t.t.t.t.t.t.t.t.t.t.t.t.t.t.t.t.t.t.t.",
"t.t.t.t.t.t.t.t.t.t.t.t.t.t.t.t.t.t.t.t.t.t.t.t.t.t.t.t.t.t.t.t.t.t.t.t.t.t.t.t.t.t.t.t.t.t.t.t.t.t.t.t.t.t.t.t.t.t.t.t.t.t.t.t.t.t.t.t.t.t.t.t.t.t.t.t.t.t.t.t.",
"t.t.t.t.t.t.t.t.t.t.t.t.t.t.t.t.t.t.t.t.t.t.t.t.t.t.t.t.t.t.t.t.t.t.t.t.t.t.t.t.t.t.t.t.t.t.t.t.t.t.t.t.t.t.t.t.t.t.t.t.t.t.t.t.t.t.t.t.t.t.t.t.t.t.t.t.t.t.t.t.",
"t.t.t.t.t.t.t.t.t.t.t.t.t.t.t.t.t.t.t.t.t.t.t.t.t.t.t.t.t.t.t.t.t.t.t.t.t.t.t.t.t.t.t.t.t.t.t.t.t.t.t.t.t.t.t.t.t.t.t.t.t.t.t.t.t.t.t.t.t.t.t.t.t.t.t.t.t.t.t.t.",
"t.t.t.t.t.t.t.t.t.t.t.t.t.t.t.t.t.t.t.t.t.t.t.t.t.t.t.t.t.t.t.t.t.t.t.t.t.t.t.t.t.t.t.t.t.t.t.t.t.t.t.t.t.t.t.t.t.t.t.t.t.t.t.t.t.t.t.t.t.t.t.t.t.t.t.t.t.t.t.t.",
"t.t.t.t.t.t.t.t.t.t.t.t.t.t.t.t.t.t.t.t.t.t.t.t.t.t.t.t.t.t.t.t.t.t.t.t.t.t.t.t.t.t.t.t.t.t.t.t.t.t.t.t.t.t.t.t.t.t.t.t.t.t.t.t.t.t.t.t.t.t.t.t.t.t.t.t.t.t.t.t.",
"t.t.t.t.t.t.t.t.t.t.t.t.t.t.t.t.t.t.t.t.t.t.t.t.t.t.t.t.t.t.t.t.t.t.t.t.t.t.t.t.t.t.t.t.t.t.t.t.t.t.t.t.t.t.t.t.t.t.t.t.t.t.t.t.t.t.t.t.t.t.t.t.t.t.t.t.t.t.t.t.",
"t.t.t.t.t.t.t.t.t.t.t.t.t.t.t.t.t.t.t.t.t.t.t.t.t.t.t.t.t.t.t.t.t.t.t.t.t.t.t.t.t.t.t.t.t.t.t.t.t.t.t.t.t.t.t.t.t.t.t.t.t.t.t.t.t.t.t.t.t.t.t.t.t.t.t.t.t.t.t.t.",
"t.t.t.t.t.t.t.t.t.t.t.t.t.t.t.t.t.t.t.t.t.t.t.t.t.t.t.t.t.t.t.t.t.t.t.t.t.t.t.t.t.t.t.t.t.t.t.t.t.t.t.t.t.t.t.t.t.t.t.t.t.t.t.t.t.t.t.t.t.t.t.t.t.t.t.t.t.t.t.t.",
"t.t.t.t.t.t.t.t.t.t.t.t.t.t.t.t.t.t.t.t.t.t.t.t.t.t.t.t.t.t.t.t.t.t.t.t.t.t.t.t.t.t.t.t.t.t.t.t.t.t.t.t.t.t.t.t.t.t.t.t.t.t.t.t.t.t.t.t.t.t.t.t.t.t.t.t.t.t.t.t.",
"t.t.t.t.t.t.t.t.t.t.t.t.t.t.t.t.t.t.t.t.t.t.t.t.t.t.t.t.t.t.t.t.t.t.t.t.t.t.t.t.t.t.t.t.t.t.t.t.t.t.t.t.t.t.t.t.t.t.t.t.t.t.t.t.t.t.t.t.t.t.t.t.t.t.t.t.t.t.t.t.",
"t.t.t.t.t.t.t.t.t.t.t.t.t.t.t.t.t.t.t.t.t.t.t.t.t.t.t.t.t.t.t.t.t.t.t.t.t.t.t.t.t.t.t.t.t.t.t.t.t.t.t.t.t.t.t.t.t.t.t.t.t.t.t.t.t.t.t.t.t.t.t.t.t.t.t.t.t.t.t.t.",
"t.t.t.t.t.t.t.t.t.t.t.t.t.t.t.t.t.t.t.t.t.t.t.t.t.t.t.t.t.t.t.t.t.t.t.t.t.t.t.t.t.t.t.t.t.t.t.t.t.t.t.t.t.t.t.t.t.t.t.t.t.t.t.t.t.t.t.t.t.t.t.t.t.t.t.t.t.t.t.t.",
"t.t.t.t.t.t.t.t.t.t.t.t.t.t.t.t.t.t.t.t.t.t.t.t.t.t.t.t.t.t.t.t.t.t.t.t.t.t.t.t.t.t.t.t.t.t.t.t.t.t.t.t.t.t.t.t.t.t.t.t.t.t.t.t.t.t.t.t.t.t.t.t.t.t.t.t.t.t.t.t.",
"t.t.t.t.t.t.t.t.t.t.t.t.t.t.t.t.t.t.t.t.t.t.t.t.t.t.t.t.t.t.t.t.t.t.t.t.t.t.t.t.t.t.t.t.t.t.t.t.t.t.t.t.t.t.t.t.t.t.t.t.t.t.t.t.t.t.t.t.t.t.t.t.t.t.t.t.t.t.t.t.",
"t.t.t.t.t.t.t.t.t.t.t.t.t.t.t.t.t.t.t.t.t.t.t.t.t.t.t.t.t.t.t.t.t.t.t.t.t.t.t.t.t.t.t.t.t.t.t.t.t.t.t.t.t.t.t.t.t.t.t.t.t.t.t.t.t.t.t.t.t.t.t.t.t.t.t.t.t.t.t.t.",
"t.t.t.t.t.t.t.t.t.t.t.t.t.t.t.t.t.t.t.t.t.t.t.t.t.t.t.t.t.t.t.t.t.t.t.t.t.t.t.t.t.t.t.t.t.t.t.t.t.t.t.t.t.t.t.t.t.t.t.t.t.t.t.t.t.t.t.t.t.t.t.t.t.t.t.t.t.t.t.t.",
"t.t.t.t.t.t.t.t.t.t.t.t.t.t.t.t.t.t.t.t.t.t.t.t.t.t.t.t.t.t.t.t.t.t.t.t.t.t.t.t.t.t.t.t.t.t.t.t.t.t.t.t.t.t.t.t.t.t.t.t.t.t.t.t.t.t.t.t.t.t.t.t.t.t.t.t.t.t.t.t.",
"t.t.t.t.t.t.t.t.t.t.t.t.t.t.t.t.t.t.t.t.t.t.t.t.t.t.t.t.t.t.t.t.t.t.t.t.t.t.t.t.t.t.t.t.t.t.t.t.t.t.t.t.t.t.t.t.t.t.t.t.t.t.t.t.t.t.t.t.t.t.t.t.t.t.t.t.t.t.t.t."
};
