/* XPM */
static char *result[] = {
/* columns rows colors chars-per-pixel */
"80 80 88 1 ",
"  c #0E0B0B",
". c #180801",
"X c #140A09",
"o c #161212",
"O c #1B1210",
"+ c #220303",
"@ c #330303",
"# c #252321",
"$ c #392F2B",
"% c #3E332F",
"& c #3F3532",
"* c #3E3D3C",
"= c #420707",
"- c #410808",
"; c #4E0E0E",
": c #580E0E",
"> c #4D1414",
", c #591212",
"< c #781514",
"1 c #781A1A",
"2 c #462A17",
"3 c #5F3314",
"4 c #56351E",
"5 c #5A361B",
"6 c #5A391E",
"7 c #66350E",
"8 c #6C360C",
"9 c #7B201F",
"0 c #7E2B1B",
"q c #633613",
"w c #663814",
"e c #6C3B14",
"r c #653B1B",
"t c #5B2E2C",
"y c #4E3626",
"u c #46362E",
"i c #4A362C",
"p c #4C3B2F",
"a c #533521",
"s c #563923",
"d c #593B25",
"f c #54312E",
"g c #58302D",
"h c #523A2B",
"j c #5C3E2A",
"k c #423632",
"l c #4B3431",
"z c #413936",
"x c #493931",
"c c #413B39",
"v c #493939",
"b c #533535",
"n c #5F3232",
"m c #642D2B",
"M c #692B2A",
"N c #772726",
"B c #7C2524",
"V c #722926",
"C c #7D2A24",
"Z c #712A29",
"A c #663F23",
"S c #603131",
"D c #6D401E",
"F c #774117",
"G c #73411A",
"H c #63422A",
"J c #6A4529",
"K c #744623",
"L c #754826",
"P c #7A4A24",
"I c #454444",
"U c #494545",
"Y c gray32",
"T c #850909",
"R c #970C0B",
"E c #851B1B",
"W c #8E1A1A",
"Q c #901C1C",
"! c #84271D",
"~ c #8E221F",
"^ c #82281A",
"/ c #90231F",
"( c #842423",
") c #8C2121",
"_ c #802D24",
"` c #902020",
"' c #824616",
"] c None",
/* pixels */
"kyeykkkkkkkkkkkkkkkkkkkkkkkkkkkkkkkkkkkHJLLPPPJpiuukkkkkkkkkkkkkkkkkkkkkkkkkkkkk",
"uF'skkkckkkkkkkkkkzkkkkkkkkkkzkkzkkkkkkHHjphhjLLr3qiuzzkkkkkkkk&kkkkkkkukkkkkkkk",
"s'KAkk**czkkkkkkkc*czzkkkkkkc*c*zkkkkkkxx6q77q8w5s6wdvckkkkkkz***ckkkku5xxkcckkk",
"kjHHkc***ckkkkkkk**c**ckkkkk*****kkkkkkh5spuiuiiuzccc**zkkkkz****&k&kkk6Gex**&kk",
"N(N()gtmMmmMkkkkkk&***ck5354sss6x&kkkkkk****kkkkMmtlvbSZNtZ`Mm1VvM(tkkkkku&***kk",
"~)~)~E+,+B((tkkkk% Io*ckaaq8.2oc*kkkkk% Io**kkkkfiXUOMSBB(B`E+,+B()mibik% Io*zkk",
"))()(<:,;EZtkkkkk$IY**zkkki32Y&**zkkkk$UY**ckkkkk$UY&vb(```RT,,>``(B()(t$UY&kkkk",
"(NmggN@:=)tkkkkkk%o*#*kkkklaO*#*zkkkkk%o*#*ckkkkk$O*#zkB`(B(9@,-(BmB()(m%o*#kkkk",
"]]]]]()WW)mkkkkk&kkkkkkkkkkkkkkkzkkkkkkkz**zkkkkkkkkkkkxgglffBWCglklfgglkkkkkkkk",
"]]]]]()))(]]]]]]kkkkk]]]]]]kkkkk]]]]]]kkkzz]]]]]]kkkkk]]]]]]f)`)g]]]]]]kkkkk]]]]",
"]]]])B)))(]]]]]]kkkkk]]]]]]kkkkk]]]]]]kkkkz]]]]]]kkkkk]]]]]~V)`)N]]]]]]]kkkk]]]]",
"]]]M))())``b]]kkkkkkkkk]]kkkkkk&kk]]kkkuyukkk]]kkkkkkkkk]])))```)(N]]kkkkkkukk]]",
"]]]]()B)~/)]]]]kkuukkk]]]]kkkkkkk]]]]kky74kk]]]]xHxkkkk]]]])````)B]]]]kkkkHJi]]]",
"]]]]])))/~^]]]]]i5ykk]]]]]]kkkiu]]]]]]iq84k]]]]]]PJkkk]]]]]``_BB(]]]]]]kkiGF]]]]",
"]]]]](``/0]]]]]]kiukk]]]]]]kk584]]]]]]kuiuk]]]]]]jKjkk]]]]]]CC(((]]]]]]kkyGH]]]]",
"]]]]]Q(`!]]]]]]]kkkk]]]]]]]]iqq]]]]]]]]kkk]]]]]]]]rGp]]]]]]]]))``]]]]]]]k4q]]]]]",
"]]]]]]B)t]]]]]]]]kkk]]]]]]]]kuu]]]]]]]]kgk]]]]]]]]swi]]]]]]]](`B]]]]]]]]u5h]]]]]",
"]]]]]]V(]]]]]]]]]]k]]]]]]]]]]k]]]]]]]]]()]]]]]]]]]]5]]]]]]]]]N(]]]]]]]]]]u]]]]]]",
"]]]]]]]m]]]]]]]]]]k]]]]]]]]]]k]]]]]]]]]](]]]]]]]]]]k]]]]]]]]]]l]]]]]]]]]]k]]]]]]",
"]]]]]]]]]]]]]]]]]]]]]]]]]]]]]]]]]]]]]]]]]]]]]]]]]]]]]]]]]]]]]]]]]]]]]]]]]]]]]]]]",
"]]]]]]]]]]]]]]]]]]]]]]]]]]]]]]]]]]]]]]]]]]]]]]]]]]]]]]]]]]]]]]]]]]]]]]]]]]]]]]]]",
"]]]]]]]]]]]]]]]]]]]]]]]]]]]]]]]]]]]]]]]]]]]]]]]]]]]]]]]]]]]]]]]]]]]]]]]]]]]]]]]]",
"]]]]]]]]]]]]]]]]]]]]]]]]]]]]]]]]]]]]]]]]]]]]]]]]]]]]]]]]]]]]]]]]]]]]]]]]]]]]]]]]",
"]]]]]]]]]]]]]]]]]]]]]]]]]]]]]]]]]]]]]]]]]]]]]]]]]]]]]]]]]]]]]]]]]]]]]]]]]]]]]]]]",
"]]]]]]]]]]]]]]]]]]]]]]]]]]]]]]]]]]]]]]]]]]]]]]]]]]]]]]]]]]]]]]]]]]]]]]]]]]]]]]]]",
"]]]]]]]]]]]]]]]]]]]]]]]]]]]]]]]]]]]]]]]]]]]]]]]]]]]]]]]]]]]]]]]]]]]]]]]]]]]]]]]]",
"]]]]]]]]]]]]]]]]]]]]]]]]]]]]]]]]]]]]]]]]]]]]]]]]]]]]]]]]]]]]]]]]]]]]]]]]]]]]]]]]",
"]]]]]]]]]]]]]]]]]]]]]]]]]]]]]]]]]]]]]]]]]]]]]]]]]]]]]]]]]]]]]]]]]]]]]]]]]]]]]]]]",
"]]]]]]]]]]]]]]]]]]]]]]]]]]]]]]]]]]]]]]]]]]]]]]]]]]]]]]]]]]]]]]]]]]]]]]]]]]]]]]]]",
"]]]]]]]]]]]]]]]]]]]]]]]]]]]]]]]]]]]]]]]]]]]]]]]]]]]]]]]]]]]]]]]]]]]]]]]]]]]]]]]]",
"]]]]]]]]]]]]]]]]]]]]]]]]]]]]]]]]]]]]]]]]]]]]]]]]]]]]]]]]]]]]]]]]]]]]]]]]]]]]]]]]",
"]]]]]]]]]]]]]]]]]]]]]]]]]]]]]]]]]]]]]]]]]]]]]]]]]]]]]]]]]]]]]]]]]]]]]]]]]]]]]]]]",
"]]]]]]]]]]]]]]]]]]]]]]]]]]]]]]]]]]]]]]]]]]]]]]]]]]]]]]]]]]]]]]]]]]]]]]]]]]]]]]]]",
"]]]]]]]]]]]]]]]]]]]]]]]]]]]]]]]]]]]]]]]]]]]]]]]]]]]]]]]]]]]]]]]]]]]]]]]]]]]]]]]]",
"]]]]]]]]]]]]]]]]]]]]]]]]]]]]]]]]]]]]]]]]]]]]]]]]]]]]]]]]]]]]]]]]]]]]]]]]]]]]]]]]",
"]]]]]]]]]]]]]]]]]]]]]]]]]]]]]]]]]]]]]]]]]]]]]]]]]]]]]]]]]]]]]]]]]]]]]]]]]]]]]]]]",
"]]]]]]]]]]]]]]]]]]]]]]]]]]]]]]]]]]]]]]]]]]]]]]]]]]]]]]]]]]]]]]]]]]]]]]]]]]]]]]]]",
"]]]]]]]]]]]]]]]]]]]]]]]]]]]]]]]]]]]]]]]]]]]]]]]]]]]]]]]]]]]]]]]]]]]]]]]]]]]]]]]]",
"]]]]]]]]]]]]]]]]]]]]]]]]]]]]]]]]]]]]]]]]]]]]]]]]]]]]]]]]]]]]]]]]]]]]]]]]]]]]]]]]",
"]]]]]]]]]]]]]]]]]]]]]]]]]]]]]]]]]]]]]]]]]]]]]]]]]]]]]]]]]]]]]]]]]]]]]]]]]]]]]]]]",
"]]]]]]]]]]]]]]]]]]]]]]]]]]]]]]]]]]]]]]]]]]]]]]]]]]]]]]]]]]]]]]]]]]]]]]]]]]]]]]]]",
"]]]]]]]]]]]]]]]]]]]]]]]]]]]]]]]]]]]]]]]]]]]]]]]]]]]]]]]]]]]]]]]]]]]]]]]]]]]]]]]]",
"]]]]]]]]]]]]]]]]]]]]]]]]]]]]]]]]]]]]]]]]]]]]]]]]]]]]]]]]]]]]]]]]]]]]]]]]]]]]]]]]",
"]]]]]]]]]]]]]]]]]]]]]]]]]]]]]]]]]]]]]]]]]]]]]]]]]]]]]]]]]]]]]]]]]]]]]]]]]]]]]]]]",
"]]]]]]]]]]]]]]]]]]]]]]]]]]]]]]]]]]]]]]]]]]]]]]]]]]]]]]]]]]]]]]]]]]]]]]]]]]]]]]]]",
"]]]]]]]]]]]]]]]]]]]]]]]]]]]]]]]]]]]]]]]]]]]]]]]]]]]]]]]]]]]]]]]]]]]]]]]]]]]]]]]]",
"]]]]]]]]]]]]]]]]]]]]]]]]]]]]]]]]]]]]]]]]]]]]]]]]]]]]]]]]]]]]]]]]]]]]]]]]]]]]]]]]",
"]]]]]]]]]]]]]]]]]]]]]]]]]]]]]]]]]]]]]]]]]]]]]]]]]]]]]]]]]]]]]]]]]]]]]]]]]]]]]]]]",
"]]]]]]]]]]]]]]]]]]]]]]]]]]]]]]]]]]]]]]]]]]]]]]]]]]]]]]]]]]]]]]]]]]]]]]]]]]]]]]]]",
"]]]]]]]]]]]]]]]]]]]]]]]]]]]]]]]]]]]]]]]]]]]]]]]]]]]]]]]]]]]]]]]]]]]]]]]]]]]]]]]]",
"]]]]]]]]]]]]]]]]]]]]]]]]]]]]]]]]]]]]]]]]]]]]]]]]]]]]]]]]]]]]]]]]]]]]]]]]]]]]]]]]",
"]]]]]]]]]]]]]]]]]]]]]]]]]]]]]]]]]]]]]]]]]]]]]]]]]]]]]]]]]]]]]]]]]]]]]]]]]]]]]]]]",
"]]]]]]]]]]]]]]]]]]]]]]]]]]]]]]]]]]]]]]]]]]]]]]]]]]]]]]]]]]]]]]]]]]]]]]]]]]]]]]]]",
"]]]]]]]]]]]]]]]]]]]]]]]]]]]]]]]]]]]]]]]]]]]]]]]]]]]]]]]]]]]]]]]]]]]]]]]]]]]]]]]]",
"]]]]]]]]]]]]]]]]]]]]]]]]]]]]]]]]]]]]]]]]]]]]]]]]]]]]]]]]]]]]]]]]]]]]]]]]]]]]]]]]",
"]]]]]]]]]]]]]]]]]]]]]]]]]]]]]]]]]]]]]]]]]]]]]]]]]]]]]]]]]]]]]]]]]]]]]]]]]]]]]]]]",
"]]]]]]]]]]]]]]]]]]]]]]]]]]]]]]]]]]]]]]]]]]]]]]]]]]]]]]]]]]]]]]]]]]]]]]]]]]]]]]]]",
"]]]]]]]]]]]]]]]]]]]]]]]]]]]]]]]]]]]]]]]]]]]]]]]]]]]]]]]]]]]]]]]]]]]]]]]]]]]]]]]]",
"]]]]]]]]]]]]]]]]]]]]]]]]]]]]]]]]]]]]]]]]]]]]]]]]]]]]]]]]]]]]]]]]]]]]]]]]]]]]]]]]",
"]]]]]]]]]]]]]]]]]]]]]]]]]]]]]]]]]]]]]]]]]]]]]]]]]]]]]]]]]]]]]]]]]]]]]]]]]]]]]]]]",
"]]]]]]]]]]]]]]]]]]]]]]]]]]]]]]]]]]]]]]]]]]]]]]]]]]]]]]]]]]]]]]]]]]]]]]]]]]]]]]]]",
"]]]]]]]]]]]]]]]]]]]]]]]]]]]]]]]]]]]]]]]]]]]]]]]]]]]]]]]]]]]]]]]]]]]]]]]]]]]]]]]]",
"]]]]]]]]]]]]]]]]]]]]]]]]]]]]]]]]]]]]]]]]]]]]]]]]]]]]]]]]]]]]]]]]]]]]]]]]]]]]]]]]",
"]]]]]]]]]]]]]]]]]]]]]]]]]]]]]]]]]]]]]]]]]]]]]]]]]]]]]]]]]]]]]]]]]]]]]]]]]]]]]]]]",
"]]]]]]]]]]]]]]]]]]]]]]]]]]]]]]]]]]]]]]]]]]]]]]]]]]]]]]]]]]]]]]]]]]]]]]]]]]]]]]]]",
"]]]]]]]]]]]]]]]]]]]]]]]]]]]]]]]]]]]]]]]]]]]]]]]]]]]]]]]]]]]]]]]]]]]]]]]]]]]]]]]]",
"]]]]]]]]]]]]]]]]]]]]]]]]]]]]]]]]]]]]]]]]]]]]]]]]]]]]]]]]]]]]]]]]]]]]]]]]]]]]]]]]",
"]]]]]]]]]]]]]]]]]]]]]]]]]]]]]]]]]]]]]]]]]]]]]]]]]]]]]]]]]]]]]]]]]]]]]]]]]]]]]]]]",
"]]]]]]]]]]]]]]]]]]]]]]]]]]]]]]]]]]]]]]]]]]]]]]]]]]]]]]]]]]]]]]]]]]]]]]]]]]]]]]]]",
"]]]]]]]]]]]]]]]]]]]]]]]]]]]]]]]]]]]]]]]]]]]]]]]]]]]]]]]]]]]]]]]]]]]]]]]]]]]]]]]]",
"]]]]]]]]]]]]]]]]]]]]]]]]]]]]]]]]]]]]]]]]]]]]]]]]]]]]]]]]]]]]]]]]]]]]]]]]]]]]]]]]",
"]]]]]]]]]]]]]]]]]]]]]]]]]]]]]]]]]]]]]]]]]]]]]]]]]]]]]]]]]]]]]]]]]]]]]]]]]]]]]]]]",
"]]]]]]]]]]]]]]]]]]]]]]]]]]]]]]]]]]]]]]]]]]]]]]]]]]]]]]]]]]]]]]]]]]]]]]]]]]]]]]]]",
"]]]]]]]]]]]]]]]]]]]]]]]]]]]]]]]]]]]]]]]]]]]]]]]]]]]]]]]]]]]]]]]]]]]]]]]]]]]]]]]]",
"]]]]]]]]]]]]]]]]]]]]]]]]]]]]]]]]]]]]]]]]]]]]]]]]]]]]]]]]]]]]]]]]]]]]]]]]]]]]]]]]",
"]]]]]]]]]]]]]]]]]]]]]]]]]]]]]]]]]]]]]]]]]]]]]]]]]]]]]]]]]]]]]]]]]]]]]]]]]]]]]]]]",
"]]]]]]]]]]]]]]]]]]]]]]]]]]]]]]]]]]]]]]]]]]]]]]]]]]]]]]]]]]]]]]]]]]]]]]]]]]]]]]]]",
"]]]]]]]]]]]]]]]]]]]]]]]]]]]]]]]]]]]]]]]]]]]]]]]]]]]]]]]]]]]]]]]]]]]]]]]]]]]]]]]]",
"]]]]]]]]]]]]]]]]]]]]]]]]]]]]]]]]]]]]]]]]]]]]]]]]]]]]]]]]]]]]]]]]]]]]]]]]]]]]]]]]",
"]]]]]]]]]]]]]]]]]]]]]]]]]]]]]]]]]]]]]]]]]]]]]]]]]]]]]]]]]]]]]]]]]]]]]]]]]]]]]]]]"
};
