/* XPM */
static char *result[] = {
/* columns rows colors chars-per-pixel */
"80 80 155 2 ",
"   c #0E0B0B",
".  c #1D0505",
"X  c #150C05",
"o  c #180C04",
"O  c #150B09",
"+  c #1C0C0C",
"@  c #1B130E",
"#  c #151312",
"$  c #1A1210",
"%  c #220303",
"&  c #250E0E",
"*  c #2B0D0C",
"=  c #320303",
"-  c #330808",
";  c #3D0808",
":  c #231204",
">  c #211710",
",  c #271E17",
"<  c #231E1C",
"1  c #2A1F1D",
"2  c #371312",
"3  c #351E1E",
"4  c #2F2218",
"5  c #252423",
"6  c #2C2221",
"7  c #2C2B2A",
"8  c #302A26",
"9  c #3F2F25",
"0  c #302C2C",
"q  c #392F2B",
"w  c #3E332F",
"e  c gray19",
"r  c #3E3430",
"t  c #3F3937",
"y  c #3E3D3D",
"u  c #420707",
"i  c #410808",
"p  c #4C0F0F",
"a  c #530E0E",
"s  c #580E0E",
"d  c #4D1414",
"f  c #4E1F1F",
"g  c #561211",
"h  c #591313",
"j  c #571818",
"k  c #591C1C",
"l  c #6E0C0B",
"z  c #770B0B",
"x  c #631413",
"c  c #691312",
"v  c #781514",
"b  c #462A17",
"n  c #5E3314",
"m  c #55341E",
"M  c #5B361B",
"N  c #5B391E",
"B  c #67350E",
"V  c #6B360C",
"C  c #6D201F",
"Z  c #7B201F",
"A  c #7E2B1B",
"S  c #633613",
"D  c #653815",
"F  c #6B3A14",
"G  c #603719",
"H  c #653B1B",
"J  c #6D3D19",
"K  c #402D29",
"L  c #4B2E2A",
"P  c #542725",
"I  c #592926",
"U  c #552C29",
"Y  c #5C2E2C",
"T  c #423026",
"R  c #4E3626",
"E  c #45352E",
"W  c #4A352C",
"Q  c #4C3A2E",
"!  c #533522",
"~  c #553924",
"^  c #5A3B25",
"/  c #54312E",
"(  c #59302D",
")  c #523B2C",
"_  c #5B3E2B",
"`  c #423632",
"'  c #4B3431",
"]  c #413936",
"[  c #4A3932",
"{  c #413B39",
"}  c #493A39",
"|  c #543534",
" . c #5B3333",
".. c #533C33",
"X. c #533E3D",
"o. c #652523",
"O. c #6A2726",
"+. c #622927",
"@. c #6C2827",
"#. c #632D2C",
"$. c #6B2B2A",
"%. c #752625",
"&. c #7C2525",
"*. c #732927",
"=. c #7C2A25",
"-. c #732A29",
";. c #792929",
":. c #653F22",
">. c #63302F",
",. c #68302D",
"<. c #633030",
"1. c #6D401E",
"2. c #774117",
"3. c #73411A",
"4. c #7E491E",
"5. c #5D402C",
"6. c #4D4035",
"7. c #4A403C",
"8. c #554436",
"9. c #5C4331",
"0. c #63422A",
"q. c #6A4529",
"w. c #6F492C",
"e. c #724625",
"r. c #7F4122",
"t. c #754825",
"y. c #794A25",
"u. c #734A2A",
"i. c #644730",
"p. c #454444",
"a. c #4A4544",
"s. c #4F4944",
"d. c #524443",
"f. c gray32",
"g. c #850909",
"h. c #8B0B0B",
"j. c #950B0B",
"k. c #8A1717",
"l. c #841D1D",
"z. c #8C1C1C",
"x. c #901C1C",
"c. c #84271D",
"v. c #8E221F",
"b. c #82281A",
"n. c #90231F",
"m. c #813F1F",
"M. c #842423",
"N. c #8C2121",
"B. c #802D24",
"V. c #902020",
"C. c #863721",
"Z. c #824616",
"A. c #81491B",
"S. c #804320",
"D. c None",
/* pixels */
"` R F ! ` ` ` ` ` ` ` ` ` ` ` ` ` ` ` ` ` ` ` ` ` ` ` ` ` ` ` ` ` ` ` ` ` ` ` :.q.e.e.y.y.y.q.) E E E ` ` ` ` ` ` ` ` ` ` ` ` ` ` ` ` ` ` ` ` ` ` ` ` ` ` ` ` ` ",
"E 2.Z.~ ` ` ` ] ` ` ` ` ` ` ` ` ` ` ` ` ' ] ` ` ` ` ` ` ` ] ` ] ` ` ` ` ` ` ] :.0.5.Q ) ~ 5.e.e.H S n Q E { ` ` ` ` ` ` ` r ` ] ] ` ` ` ` ` ` E ` ` ` ` ` ` ` ` ",
"^ Z.t.0.` ` y y { ] ] ` ` ` ` ` ` { y { r { ] ` ` ` ` ` { y { { ] ] ` ` ` ` ] ' [ N S B B B B F M m N F N { t ` ` ` ` ` ` ` y y t ] ` ` ` ` E M Q Q ` 7.t ] ` ` ",
"E ^ 0.0.` t y y y { ] ` ` ` ` ` ] y y { y y ] ] ` ` ` ` y y y y t ] ` ` ` ` ` ) N ~ [ W E Q E E E ` { { t 7.y ` ` ` ` ` ` y y y y { ] ` ` ` E N 1.F ` y { t ` ` ",
"` ` ` [ ` ` 7 y e y { ` E ` ` ` ` E , 7.0 y { ] ` ` ` I 2 f 0 { y ] ` ` ` ` w < y 7 y y ` ` ` ` ` r 5 t e y y { ` ` ` ` r 6 y 7 y t ` ` ` ` ] E n @ { 7 y t r ] ",
"` ` ` ` ` ` ` y y y { ] ` r ` ` ` ` Q ` { y { { ` ` ` I j.N.} y y ] ` ` ` ` ` ` { y y { ` ` ` ` ` ` ` ` t y y { ` ` ` ` ` ` y y y { ` ` ` ` ` W B W { y y t t 6.",
"D.D.D.D.D.` ` y y y y D.D.D.D.D.` ` ] t p.y y D.D.D.D.Y N.M.} y y D.D.D.D.D.` ` t y y D.D.D.D.D.D.` ` ` y y y D.D.D.D.D.` ] t y y D.D.D.D.D.D.W S E t y y D.D.D.",
"D.D.D.D.D.` ] y y y y D.D.D.D.D.` ` ] t y y y D.D.D.D.( M.;.{ y y D.D.D.D.D.` ] { y y y D.D.D.D.D.` ` ` y y y D.D.D.D.D.` ` y y y D.D.D.D.D.D.` E ` { y y D.D.D.",
"D.D.D.D.D.` ] y y y y D.D.D.D.D.` ` ` ] y y y D.D.D.D./ M.;.} y y D.D.D.D.D.` ` { y y y D.D.D.D.D.` ` ` y y y D.D.D.D.D.` ` t y y D.D.D.D.D.D.` ` ` t y y D.D.D.",
"D.D.D.D.D.] r y y y y D.D.D.D.D.` ` ` t y y y D.D.D.D.` $.$.{ y y D.D.D.D.D.` ` t y y y D.D.D.D.D.` ` ` y y y D.D.D.D.D.` ` y y y D.D.D.D.D.D.` ` t t y y D.D.D.",
"D.D.D.D.D.` ] y y y y D.D.D.D.D.` ` ] t y y y D.D.D.D.` #.$.{ y y D.D.D.D.D.` ] y y y y D.D.D.D.D.` ` ] { y y D.D.D.D.D.` ` y y y D.D.D.D.D.D.` ` ` y y y D.D.D.",
"D.D.D.D.D.` r y y y D.D.D.D.D.D.` ` ` { y y y D.D.D.D.` Y #.{ y y D.D.D.D.D.` ` { y y y D.D.D.D.D.` ` ` y y y D.D.D.D.D.` ` { y y D.D.D.D.D.D.` ` ] 7.y y D.D.D.",
"D.D.D.D.D.] ] y { { D.D.D.D.D.D.` ` ` t y y y D.D.D.D.` ] ' y y y D.D.D.D.D.` ` { y y D.D.D.D.D.D.` ` ` y y y D.D.D.D.D.` [ 9.7.y D.D.D.D.D.D.` ` ` t y y D.D.D.",
"` ` ` ` ] r E  .$. .] ` { ] ` ] ` ] r t y y { ` ` ` ` ` r r t y y ] ` ` ` ` ` L { y y t ] ] ` ` ` ` w ` 7.7.y { ` ` ` r ` Q w.7.y t ` ` ` ` ` ` ` w t y y { ` ` ",
"` ` ` ` ` L O | . ;.} ` ` ` ` ` ] r   p.# y { ] ` ` ` w   p.# y y ] ` ` ` ` U O p.# y y ` ` ` ` ` w   a.@ u.i.6.Q [ Q Q W X a.# y { ` ` ` ` E r r   a.# y t ` ` ",
"` ` ` ` ] P j k ' ;.' ` ` ` ` ` r q p.f.y y t ` ` ` ` q p.f.y y y ] ` ` / $.o.a.f.y y t ` ` ` ` ` q a.f.t 8.u.y.y.e.e.e.0.a.f.y y t ` ` ` ` t t q p.f.y y { ] ` ",
"` ` ` ` ` L = } 6 } { ` ` ` ` ` ` w # y 5 y { ] ` ` ` w @ } 5 y { ] ` Y %.@.L $ y 5 y t ` ` ` ` ` w # t 5 y y [ [ Q [ Q E # t 5 y t ` ` ` ` ` ` w # t 5 y t ` ` ",
"` ` ` ` ` #.j. .p.y { ` ` ` ` ` ` ` ` t y y { ` ` ` ` ` ' %.} y y ] ` ` ' ' ` ` y y y { ` ` ` ` ` t ` ` 7.y y ] ` ` ` ` t ` t y y { ` ` ` ` ` ` ` ` y y y { ` ` ",
"D.D.D.D.D.Y z.| y y D.D.D.D.D.D.` ` ` { y y y D.D.D.D.` ' @.] y y D.D.D.D.D.` ` { y y y D.D.D.D.D.` ` ` y y y D.D.D.D.D.` ` y y y D.D.D.D.D.D.` E t { y y D.D.D.",
"D.D.D.D.D.` #.} y y D.D.D.D.D.D.` ` ` t y y y D.D.D.D.` ' #.} y y D.D.D.D.D.` ] { y y y D.D.D.D.D.` ` ` y y y D.D.D.D.D.` { t y y D.D.D.D.D.D.` r t 7.y y D.D.D.",
"D.D.D.D.D.` ] { y y y D.D.D.D.D.` ` ` t y y y D.D.D.D.` ] ` y y y D.D.D.D.D.` ` t y y y D.D.D.D.D.` ` ` y y y D.D.D.D.D.` ` t y y D.D.D.D.D.D.` ` ` t y y D.D.D.",
"D.D.D.D.D.` ] y y y y D.D.D.D.D.` ` ` { y y y D.D.D.D.] ` ] y y { D.D.D.D.D.` ` { y y y D.D.D.D.D.` ` ` y y y D.D.D.D.D.` ` y y y D.D.D.D.D.D.` ` ` y y y D.D.D.",
"D.D.D.D.D.` ` t y y y D.D.D.D.D.` ` ] { y y p.D.D.D.D.` ' ' } } $.D.D.D.D.D.` ] { y y y D.D.D.D.D.` E ` y y y D.D.D.D.D.` ` t y y D.D.D.D.D.D.` ` ` t y y D.D.D.",
"` ` ` ` ` ] r t y y { ` ` ` ` W W W E [ [ 8.N ) [ ` ` / %.O.-.-.M. .` ] ` ` ` r y y y y ` ` ` ` ` E n ` t y y { ` ` ` ` ` t y y y { ` ` ` ` ` ` ` r t y y 7.] ` ",
"Q [ Q [ ` E   p.# y t r ` ! M n B S X 7.@ A.A.t.0.` W %.. d.$ -.| { ` ` ` ` w   p.# y t ] ` ` ` ` T o p.# y y ] ` ` ` ` w   p.# y t ` ` ` ` ` ` r   p.# y ] ` ` ",
"y.t.q.0.` q p.f.y y t ] ! B m W Q m s.f.t 6.6.[ [ ` W C d.f.'  .{ ] ` ` ` ` q p.f.t y y ` ` ` ` ` T 7.f.t y y t ` ` ` ` w p.f.t y { ` ` ` ` ` ` q p.f.t y { ` ` ",
"Q .._ 0._ E # y 5 y y ] E W E ] E w $ 7.5 y { ] ` ` | %.* { 3 { y ] ` ` ` ` w # y 5 y { ] ` ` r ` T : { 5 y y ] ` ` ` ` w # y 5 y t ` ` ` ` ` ` r # y 5 y t ` ` ",
"` ` ` ` ` ` ` { y y { ` ` ` ` ] E t t t y y { ] ` ` E +.$. .-.} y ] ` ` ` ` ` ` y y y { ` ` ` ` ` Q F q.{ y y ] ` ` ` ` r r y y y { ` ` ` ` ` ` ` t { y y t ] ] ",
"D.D.D.D.D.` ` t y y D.D.D.D.D.D.r ` ] { y y y D.D.D.D.` / $.<.} y D.D.D.D.D.` ` y y y D.D.D.D.D.D.E V y.7.y y D.D.D.D.D.` ` t y y D.D.D.D.D.D.` ` ` t y y D.D.D.",
"D.D.D.D.D.` ] { y y D.D.D.D.D.D.` ` ] t y y y D.D.D.D.` ' *.} y y D.D.D.D.D.` ` { y y y D.D.D.D.D.Q F y.7.y y D.D.D.D.D.` ` y y y D.D.D.D.D.D.` ` ` t y y D.D.D.",
"D.D.D.D.D.` ` t y y D.D.D.D.D.D.` ` ` t y y y D.D.D.D.` Y #.] y y D.D.D.D.D.` ] t y y y D.D.D.D.D.W F e.} y y D.D.D.D.D.` ` y y y D.D.D.D.D.D.` ` ] y y y D.D.D.",
"D.D.D.D.D.` ` { y y D.D.D.D.D.D.` ` ` t y y y D.D.D.D.` ` [ { y y D.D.D.D.D.` ` { y y D.D.D.D.D.D.W S 4.[ 7.y D.D.D.D.D.` ] { y y D.D.D.D.D.D.` ` ] { y y D.D.D.",
"D.D.D.D.D.` ] { y y D.D.D.D.D.D.` ` ` t y y y D.D.D.D.` ` ] y y y D.D.D.D.D.` ] { y y y D.D.D.D.D.W D C.<.{ y D.D.D.D.D.` ` { y y D.D.D.D.D.D.` ` ` t y y D.D.D.",
"D.D.D.D.D.` ` t y y D.D.D.D.D.D.` ` ` y y } { D.D.D.D.] ` ] } y y D.D.D.D.D.` ` y y y D.D.D.D.D.` E D S.;.} y D.D.D.D.D.` ] { y y D.D.D.D.D.D.` ` [ } y y { ] D.",
") [ ` ` ] ` r t y y t r ` ` ` ` ` ` r t } <. .` ] ] ' r w ' -.} y ] ` ` ` ` ` r t y y y ] ` ` ` ` E G S.j.<.{ ] ` ` ] ` ] r t y y t ` ` ` ` ` [ | O.%.} y t ` ` ",
"e.q.) [ ` w   p.# y t L [ ` ` ` ` w O p.$ $.} ] ` ` ] K   p.$ } y ] ` ` ` ` w   p.# y t ] ` ` ` ` E O g % N.| ] ` ` ` ` r   p.# y t ` ` ` ` W $.o.. p.# y t ` ` ",
"..q.e.q.' q p.f.y y ] x +.[ ` ` ` q a.f.p s } ' ' L ' K p.f.` } y ] ` ` ` ` q a.f.y y t ` ` ` ` ` q a.f.p v.;.[ ` ` ` ` q p.f.y y ] ] ` ` U M.N.o.X.f.t y t ` ` ",
"` ` Q ` ` w # y 5 y ' l x ` ` ` ` w $ p ; $.$.%.%.;.;.o.$ y 5 y y r ` ` ` ` w # y 5 y t ` ` ` ` ` w @ E 4 ;.M.$.` ` ` ` w # y 5 y t ` ` ' ;.M.;.L & y 5 y t ] ` ",
"` ` ` ` ` ` ] { y y } %.U ] ` ] ` Y &.N.%.-. .' ' [ W ' ` ]  .y y ] ` ` ` ` ` ` y y y t ` ` ` ` ` ` W B ] } M.&.' ` ` ` ` ] t y y t ` ` ` ( ( W ' ' t y y t ] ` ",
"` ` ` ` ` ` ] { y { } $.' ` ` { ` `  .&.;.#.] ] ` r ' ` ] ' ;.} y ] ` ` ` ` ` ` { y y t ` ` ` ` r ` W S [ y | ;.U ` ` ` ` r y y y t ` ` ` ` ` ` ` ` t y y t ] ` ",
"D.D.D.D.D.` ` { y y D.D.D.D.D.D.` ` ' %.$.} y D.D.D.D.` ` [ -.y y D.D.D.D.D.` ] { y y D.D.D.D.D.D.` E M ~ y { M.D.D.D.D.` ` { y y D.D.D.D.D.D.` ` ] { y y D.D.D.",
"D.D.D.D.D.` ] t y y D.D.D.D.D.D.` ` ( -.} y y D.D.D.D.` r ' | y y D.D.D.D.D.` ` { y y y D.D.D.D.D.` E M ^ { y D.D.D.D.D.` ] t y y D.D.D.D.D.D.` ` ] y y y D.D.D.",
"D.D.D.D.D.` ` { y y D.D.D.D.D.D.` ` /  .p.y y D.D.D.D.` ] ] ` y y D.D.D.D.D.` ` y y y y D.D.D.D.D.` W M N { y D.D.D.D.D.` ] y y y D.D.D.D.D.D.` ` ` t y y D.D.D.",
"D.D.D.D.D.` ` { y y D.D.D.D.D.D.` ` r { y y y D.D.D.D.` ` Y <.} y D.D.D.D.D.` ` { y y y D.D.D.D.D.[ ~ M M 7.y D.D.D.D.D.` ] { { y D.D.D.D.D.D.` ` ` { y y D.D.D.",
"D.D.D.D.D.` ` { <.y y ] ` ` ` ] ` ` | ` y p.t t ` ` ` ` '  .,.y y ] ` ` ` ` ` ] { y y y r ] ` ` ` W 1.N S 7.y t ` ` ` ` ` ] ' $.{ { ] ` ` ` ` ` ` ] t y y { ` ` ",
"` ` ` ` ` ` ` @.N.| { ` ` ` ` ' ` Y O.#. .| ` ' ` ] ` ` r '  .{ y ] ` ` ` ` ` r t y y y ] ` ` ` ` Q F ~ S { y t ` ` ` / ` E O.h.} { ' ` ` E 5.5.` E t y y t ] ` ",
"` ` ` ` r r O } % %.` r ` ` ` ` ` K   p.# -.;.<.' r ` r   p.# y y ] ` ` ` E w   p.# y t ` ` ` ` ` T X p.+ { y ] ` ' #.M.U   p.# { <.@.[ Q 0.u.t.5.  p.# y t ` ` ",
"` ` ` ` ] w a.h p %.} ` ` ` ` ` ` q a.f.y { { ' ` ` ` q p.f.t p.y ] ` ` ` ` q p.f.y y t ` ` ` ` ` T s.f.] { y t ` r Y M.z 7.f.y <.N.&.W ` [ Q 5.~ a.f.y y ] ] ` ",
"` ` ` ` ` w $ a u I } ] ` ` ` ` ` w # y 5 y y ] ` ` ` q $ t 3 { t ] ` ` ` ` w # y 5 y t ` ` ` ` ` w @ { 4 { { t ` ` ` ( U $ { - M.M. .` ` ` ` 0._ $ y 5 y t ` ` ",
"` ` ` ` ` ` #.N.M.| { ] ` ` ` ` ` ` ` ] y y { ] ` ` ` ` ` ' -.{ y ] ` ` ` ` ` ` y y y { ` ` ` ` ` ` ` E ^ { 7.t ` ` ` ` ` `  .M. .' ` ` ` ` ] _ ) ` { y y { ` ` ",
"D.D.D.D.D.' &.V.M.7.D.D.D.D.D.D.` ` ] t y y y D.D.D.D.` ` `  .y y D.D.D.D.D.` ` { y y y D.D.D.D.D.` ` ] { y y D.D.D.D.D.] ' ;.M.| D.D.D.D.D.D.` ` ] { y y D.D.D.",
"D.D.D.D.D.;.V.M.M.{ D.D.D.D.D.D.` ` ` { y y y D.D.D.D.` ` t { y y D.D.D.D.D.` ] { y { D.D.D.D.D.D.` ` ` y y y D.D.D.D.D.` ' #.| p.D.D.D.D.D.D.` ` ] t y y D.D.D.",
"D.D.D.D.D.N.N.N.;.} D.D.D.D.D.D.` ` ` t y y y D.D.D.D.` ` ] 7.y y D.D.D.D.D.` ` y y y y D.D.D.D.D.` ` ] t y y D.D.D.D.D.@.( M.<.y D.D.D.D.D.D.` ` ` t y y D.D.D.",
"D.D.D.D.;.N.N.N.M.| y D.D.D.D.D.` ` ` t y y y D.D.D.D.E ` ` [ { 7.D.D.D.D.D.` ` { y y y D.D.D.D.D.W W ` y y } D.D.D.D.D.M.&.M.,.{ D.D.D.D.D.D.` ` ` t y y D.D.D.",
"%.M.;.M.N.V.k.z.x.;.#.$.` ` ` ` ` ` r y y y t ` M S M G S S G G Q ] ] ` ` ` ] r y y y { ` ` ` ` $.&.o.Y } ,.-.;.%.( -.N.M.z.j.M.' $.M.Y ` ` ` ` ` w t y y ] ] ` ",
"N.V.v.z.N.k.. s % %.M.N.Y ` ` ` ] r   p.# y { E ! ! S V o b $ ` { ] ` ` ` ` r   p.# y t ` ` ` ` | W O a.$ $.<.&.M.M.M.N.l.% h % &.M.N.#.' / ' ` `   p.# { { ` ` ",
"z.v.M.N.B.v h h a l.-.Y ` ` ` ` ` q p.f.t y ] ] E ` W n b f.t y y ` ` ` ` ` q p.f.t y t ] ] ` ` ` w p.f.t } | M.N.V.v.j.g.h h g N.N.M.&.M.N.M.I w p.f.t ` ` ` ` ",
"&.;.#.(  .v = s u z.( ` ` ` ` ` ` w # t 5 t ` ` ` ` W ! # t 5 t ] ` ` ` ` ` w $ y 5 y t ] ` ` ` ` r # t 5 ] ` &.N.M.&.M.Z = s ; l.;.$.;.M.N.M.#.w # t 5 ` ` ` ` ",
"D.D.D.D.D.M.N.x.x.N.#.` ` ` ` ` ` ` ` ` ` ` ` ` ` ` ` ` ` ` ` ` ] ` ` ` ` ` ` ` ] y y ] ` ` ` ` ` ` r ` ` ` ` [ ( ( ` ( / M.x.;.( [ ` ' U ( ( [ ` ` ` ` ` ` ` ` ",
"D.D.D.D.D.M.N.N.N.l.D.D.D.D.D.D.` ` ` ` ` D.D.D.D.D.D.` ` ` ` ` D.D.D.D.D.D.` ` ` ] ] D.D.D.D.D.D.` ` ` ` ` D.D.D.D.D.D./ N.V.N.( D.D.D.D.D.D.` ` ` ` ` D.D.D.D.",
"D.D.D.D.N.&.N.N.N.M.D.D.D.D.D.D.` ` ` ` ` D.D.D.D.D.D.` ` ` ` ` D.D.D.D.D.D.` ` ` ` ` D.D.D.D.D.D.` ` ` ` ` D.D.D.D.D.n.*.N.N.V.;.D.D.D.D.D.D.D.` ` E r D.D.D.D.",
"D.D.D.@.N.N.M.N.N.v.N./ D.D.` ` ` ` ` ` ` ` ` D.D.` ` ` ` ` ` ` ` ` D.D.` ` ` ` R E ` ` ` D.D.` ` ` ` ` ` ` ` ` D.D.N.V.v.N.V.V.N.M.%.D.D.` ` ` ` ` ` ` ` ` D.D.",
"D.D.D.D.M.N.&.N.v.v.N.D.D.D.D.` ` E E ` ` ` D.D.D.D.` ` ` ` ` ` ` D.D.D.D.` ` R B m ` ` D.D.D.D.[ 0.Q ` ` ` ` D.D.D.D.N.V.N.N.x.V.&.D.D.D.D.` ` ` ` 0.:.W D.D.D.",
"D.D.D.D.D.N.N.N.n.v.b.D.D.D.D.D.E M R ` ` D.D.D.D.D.D.` ` ` W E D.D.D.D.D.D.W B V m ` D.D.D.D.D.D.t.q.` ` ` D.D.D.D.D.V.V.=.&.M.M.D.D.D.D.D.D.` ` W e.2.D.D.D.D.",
"D.D.D.D.D.M.N.V.n.b.D.D.D.D.D.D.` R E ` ` D.D.D.D.D.D.` ` M V m D.D.D.D.D.D.` E W E ` D.D.D.D.D.D._ t.^ ` ` D.D.D.D.D.D.=.B.M.M.M.D.D.D.D.D.D.` ` ) 3.:.D.D.D.D.",
"D.D.D.D.D.V.N.N.c.D.D.D.D.D.D.D.` ` ` ` D.D.D.D.D.D.D.D.W S S D.D.D.D.D.D.D.D.` ` ` D.D.D.D.D.D.D.D.J e.Q D.D.D.D.D.D.D.D.N.N.N.V.D.D.D.D.D.D.D.` m S D.D.D.D.D.",
"D.D.D.D.D.D.&.N.( D.D.D.D.D.D.D.D.` ` ` D.D.D.D.D.D.D.D.` E E D.D.D.D.D.D.D.D.` ( ` D.D.D.D.D.D.D.D.M S W D.D.D.D.D.D.D.D.N.N.=.D.D.D.D.D.D.D.D.W M R D.D.D.D.D.",
"D.D.D.D.D.D.*.M.D.D.D.D.D.D.D.D.D.D.` D.D.D.D.D.D.D.D.D.D.` D.D.D.D.D.D.D.D.D.M.N.D.D.D.D.D.D.D.D.D.D.M D.D.D.D.D.D.D.D.D.*.M.D.D.D.D.D.D.D.D.D.D.E D.D.D.D.D.D.",
"D.D.D.D.D.D.D.#.D.D.D.D.D.D.D.D.D.D.` D.D.D.D.D.D.D.D.D.D.` D.D.D.D.D.D.D.D.D.D.M.D.D.D.D.D.D.D.D.D.D.` D.D.D.D.D.D.D.D.D.D.' D.D.D.D.D.D.D.D.D.D.` D.D.D.D.D.D.",
"D.D.D.D.D.D.D.D.D.D.D.D.D.D.D.D.D.D.D.D.D.D.D.D.D.D.D.D.D.D.D.D.D.D.D.D.D.D.D.D.D.D.D.D.D.D.D.D.D.D.D.D.D.D.D.D.D.D.D.D.D.D.D.D.D.D.D.D.D.D.D.D.D.D.D.D.D.D.D.D.",
"D.D.D.D.D.D.D.D.D.D.D.D.D.D.D.D.D.D.D.D.D.D.D.D.D.D.D.D.D.D.D.D.D.D.D.D.D.D.D.D.D.D.D.D.D.D.D.D.D.D.D.D.D.D.D.D.D.D.D.D.D.D.D.D.D.D.D.D.D.D.D.D.D.D.D.D.D.D.D.D.",
"D.D.D.D.D.D.D.D.D.D.D.D.D.D.D.D.D.D.D.D.D.D.D.D.D.D.D.D.D.D.D.D.D.D.D.D.D.D.D.D.D.D.D.D.D.D.D.D.D.D.D.D.D.D.D.D.D.D.D.D.D.D.D.D.D.D.D.D.D.D.D.D.D.D.D.D.D.D.D.D.",
"D.D.D.D.D.D.D.D.D.D.D.D.D.D.D.D.D.D.D.D.D.D.D.D.D.D.D.D.D.D.D.D.D.D.D.D.D.D.D.D.D.D.D.D.D.D.D.D.D.D.D.D.D.D.D.D.D.D.D.D.D.D.D.D.D.D.D.D.D.D.D.D.D.D.D.D.D.D.D.D.",
"D.D.D.D.D.D.D.D.D.D.D.D.D.D.D.D.D.D.D.D.D.D.D.D.D.D.D.D.D.D.D.D.D.D.D.D.D.D.D.D.D.D.D.D.D.D.D.D.D.D.D.D.D.D.D.D.D.D.D.D.D.D.D.D.D.D.D.D.D.D.D.D.D.D.D.D.D.D.D.D.",
"D.D.D.D.D.D.D.D.D.D.D.D.D.D.D.D.D.D.D.D.D.D.D.D.D.D.D.D.D.D.D.D.D.D.D.D.D.D.D.D.D.D.D.D.D.D.D.D.D.D.D.D.D.D.D.D.D.D.D.D.D.D.D.D.D.D.D.D.D.D.D.D.D.D.D.D.D.D.D.D.",
"D.D.D.D.D.D.D.D.D.D.D.D.D.D.D.D.D.D.D.D.D.D.D.D.D.D.D.D.D.D.D.D.D.D.D.D.D.D.D.D.D.D.D.D.D.D.D.D.D.D.D.D.D.D.D.D.D.D.D.D.D.D.D.D.D.D.D.D.D.D.D.D.D.D.D.D.D.D.D.D.",
"D.D.D.D.D.D.D.D.D.D.D.D.D.D.D.D.D.D.D.D.D.D.D.D.D.D.D.D.D.D.D.D.D.D.D.D.D.D.D.D.D.D.D.D.D.D.D.D.D.D.D.D.D.D.D.D.D.D.D.D.D.D.D.D.D.D.D.D.D.D.D.D.D.D.D.D.D.D.D.D.",
"D.D.D.D.D.D.D.D.D.D.D.D.D.D.D.D.D.D.D.D.D.D.D.D.D.D.D.D.D.D.D.D.D.D.D.D.D.D.D.D.D.D.D.D.D.D.D.D.D.D.D.D.D.D.D.D.D.D.D.D.D.D.D.D.D.D.D.D.D.D.D.D.D.D.D.D.D.D.D.D.",
"D.D.D.D.D.D.D.D.D.D.D.D.D.D.D.D.D.D.D.D.D.D.D.D.D.D.D.D.D.D.D.D.D.D.D.D.D.D.D.D.D.D.D.D.D.D.D.D.D.D.D.D.D.D.D.D.D.D.D.D.D.D.D.D.D.D.D.D.D.D.D.D.D.D.D.D.D.D.D.D.",
"D.D.D.D.D.D.D.D.D.D.D.D.D.D.D.D.D.D.D.D.D.D.D.D.D.D.D.D.D.D.D.D.D.D.D.D.D.D.D.D.D.D.D.D.D.D.D.D.D.D.D.D.D.D.D.D.D.D.D.D.D.D.D.D.D.D.D.D.D.D.D.D.D.D.D.D.D.D.D.D."
};
