/* XPM */
static char *result[] = {
/* columns rows colors chars-per-pixel */
"80 80 151 2 ",
"   c #0E0B0B",
".  c #1D0505",
"X  c #150C05",
"o  c #180C04",
"O  c #150B09",
"+  c #1C0C0C",
"@  c #1A130E",
"#  c #151312",
"$  c #1A1210",
"%  c #220303",
"&  c #250E0E",
"*  c #2B0D0C",
"=  c #320303",
"-  c #330808",
";  c #3D0808",
":  c #231204",
">  c #22170E",
",  c #2A1F1D",
"<  c #351E1E",
"1  c #2F2218",
"2  c #252423",
"3  c #2D2321",
"4  c #3F2F25",
"5  c #392F2B",
"6  c #3E332F",
"7  c #3E3330",
"8  c #3F3937",
"9  c #3E3D3D",
"0  c #420707",
"q  c #410808",
"w  c #4C0F0F",
"e  c #530E0E",
"r  c #580E0E",
"t  c #4D1414",
"y  c #561212",
"u  c #591313",
"i  c #571818",
"p  c #591C1C",
"a  c #6E0C0B",
"s  c #770B0B",
"d  c #631413",
"f  c #691312",
"g  c #781514",
"h  c #7A1C1C",
"j  c #462A17",
"k  c #542E11",
"l  c #5D3313",
"z  c #55341E",
"x  c #5B361B",
"c  c #5B391E",
"v  c #67350E",
"b  c #6B360C",
"n  c #6D201F",
"m  c #7B201F",
"M  c #7E2B1B",
"N  c #633613",
"B  c #653815",
"V  c #6B3A14",
"C  c #603719",
"Z  c #653B1B",
"A  c #6D3D19",
"S  c #402D29",
"D  c #4B2E2A",
"F  c #542725",
"G  c #532C2A",
"H  c #5C2E2C",
"J  c #423026",
"K  c #4E3626",
"L  c #45352E",
"P  c #4A352C",
"I  c #4D3A2D",
"U  c #533522",
"Y  c #553924",
"T  c #5A3B25",
"R  c #54312E",
"E  c #59302D",
"W  c #523B2C",
"Q  c #5B3E2B",
"!  c #423632",
"~  c #4B3431",
"^  c #413936",
"/  c #4A3932",
"(  c #413B39",
")  c #493A39",
"_  c #543534",
"`  c #5B3333",
"'  c #533C33",
"]  c #523D3D",
"[  c #642423",
"{  c #6A2726",
"}  c #622927",
"|  c #6C2827",
" . c #642D2C",
".. c #6B2B2A",
"X. c #752625",
"o. c #7C2525",
"O. c #742927",
"+. c #7C2A25",
"@. c #732A29",
"#. c #792929",
"$. c #653F22",
"%. c #63302F",
"&. c #68302D",
"*. c #633030",
"=. c #6D401E",
"-. c #774117",
";. c #74411A",
":. c #79441A",
">. c #7E491E",
",. c #5D402C",
"<. c #4D4035",
"1. c #4A403B",
"2. c #554436",
"3. c #5C4331",
"4. c #674327",
"5. c #6E4425",
"6. c #64422A",
"7. c #6A4429",
"8. c #6F492C",
"9. c #724625",
"0. c #7F4122",
"q. c #754825",
"w. c #794A25",
"e. c #734A2A",
"r. c #644730",
"t. c #454444",
"y. c #494645",
"u. c #4F4944",
"i. c #524443",
"p. c #525252",
"a. c #850909",
"s. c #8B0B0B",
"d. c #950B0B",
"f. c #8A1717",
"g. c #851D1D",
"h. c #8C1C1C",
"j. c #901C1C",
"k. c #84271D",
"l. c #8E221F",
"z. c #82281A",
"x. c #90231F",
"c. c #813F1F",
"v. c #842423",
"b. c #8C2121",
"n. c #802D24",
"m. c #902020",
"M. c #863721",
"N. c #824616",
"B. c #81491B",
"V. c #804320",
"C. c None",
/* pixels */
"! K V U ! ! ! ! ! ! ! ! ! ! ! ! ! ! ! ! ! ! ! ! ! ! ! ! ! ! ! ! ! ! ! ! ! ! ! $.7.9.9.w.w.w.7.I P L L ! ! ! ! ! ! ! ! ! ! ! ! ! ! ! ! ! ! ! ! ! ! ! ! ! ! ! ! ! ",
"L -.N.Y ! ! ! ^ ! ! ! ! ! ! ! ! ! ! ! ! ! ! ! ! ! ! ! ! ! ^ ! ! ! ! ! ! ! ! ^ *.6.,.I W Y ,.q.q.Z l l I P ^ ^ ! ! ! ! ! ! ! ! ! ^ ! ! ! ! ! ^ L ! ! ! ! ! ! ! ! ",
"T :.q.6.! ^ 9 9 ( ! ! ! ! ! ! ! ! ( 9 ^ ^ ^ ! ! ! ! ! ! ( 9 ( ^ ^ ! ! ! ! ! ^ / / c N v v N b N x Y c N c ^ 9 ! ! ! ! ! ! ! 9 9 9 ! ! ! ! ! L l <.I ! 9 ^ ! ! ^ ",
"! T 4.6.^ ( 9 9 ( 9 ! ! ! ! ! ! ^ 9 9 9 9 ( ^ ^ ! ! ! ! 9 9 9 9 9 ! ! ! ! ! ^ Y c Y / / P L I L L ! ^ 1.( ( 9 ^ ! ! ! ! ! 9 9 9 9 ( ! ! ! ! L c -.V ^ 9 9 ^ ! ^ ",
"C.C.C.C.C.! ( 9 9 9 C.C.C.C.C.C.! 9 9 ( 9 9 9 C.C.C.C.! ^ 9 9 9 9 C.C.C.C.C.! ^ ( ( 9 9 C.C.C.C.C.! ^ 9 9 9 9 C.C.C.C.C.! 9 9 9 9 9 C.C.C.C.C./ 5.-.^ 9 9 C.C.C.",
"C.C.C.C.C.! ^ 9 9 9 9 C.C.C.C.C.! ! ! 8 9 9 9 C.C.C.C.! ! ^ 9 9 9 C.C.C.C.C.! ! ^ 9 9 9 C.C.C.C.C.! ! ^ 9 9 9 C.C.C.C.C.! ! ^ 9 9 9 C.C.C.C.C.P 5.-./ 9 9 C.C.C.",
"C.C.C.C.C.! ! 9 9 9 9 C.C.C.C.C.! ! ! 9 9 9 9 C.C.C.C.! ! ^ 9 9 9 C.C.C.C.C.! ! ^ 9 9 9 C.C.C.C.C.! ! ! ( 9 9 C.C.C.C.C.! ! ^ 9 9 t.C.C.C.C.C./ 5.:.K 9 9 C.C.C.",
"C.C.C.C.C.! ! ( 9 9 9 C.C.C.C.C.! ! ! t.9 9 9 C.C.C.C.! ! ! 9 9 9 C.C.C.C.C.! ! ^ 9 9 9 C.C.C.C.C.! ! ! 9 9 9 C.C.C.C.C.! ! ^ 9 9 9 C.C.C.C.C.I ;.=./ 9 9 C.C.C.",
"C.C.C.C.C.! ! 9 9 9 9 C.C.C.C.C.! ! ! 8 9 9 9 C.C.C.C.! ! ^ 9 9 9 C.C.C.C.C.! ! ^ 9 9 9 C.C.C.C.C.! ! ^ 9 9 9 C.C.C.C.C.! ! ( 9 9 9 C.C.C.C.C.W :.5.( 9 9 C.C.C.",
"C.C.C.C.C.! ! 9 9 9 9 C.C.C.C.C.! ! ! 9 9 9 9 C.C.C.C.! ! ^ ( 9 9 C.C.C.C.C.! ! 9 9 9 9 C.C.C.C.C.! ! ! 9 9 9 C.C.C.C.C.! ! 9 9 9 C.C.C.C.C.C.I :.4.9 9 9 C.C.C.",
"C.C.C.C.C.! ! 9 9 9 t.C.C.C.C.C.! ! ! 8 9 9 9 C.C.C.C.! ! ! 9 9 t.C.C.C.C.C.! ^ ( 9 9 9 C.C.C.C.C.! ! ^ ( 9 9 C.C.C.C.C.! ! ^ 9 9 C.C.C.C.C.C.I :.4.( 9 9 C.C.C.",
"C.C.C.C.C.! ! 9 9 9 9 C.C.C.C.C.! ! ! 8 9 9 9 C.C.C.C.! ! ^ ( 9 9 C.C.C.C.C.! 7 9 9 9 9 C.C.C.C.C.! ! ! 9 9 9 C.C.C.C.C.! ! 9 9 9 C.C.C.C.C.C.I -.4.1.9 9 C.C.C.",
"! ! ! ! ! ! 7 9 9 9 9 ! ^ ! ! ! ! ! 6 8 9 9 9 _ ........G ~ ( 9 9 8 ! ! ! ! L 6 9 9 9 9 7 ! ! ! ! ! 6 ! 9 9 9 7 ! ! ! ! ! 7 9 9 9 ^ ! ! ! ! ! L N K ^ 9 9 9 ! ! ",
"! ! ! ! ! 7   t.# 9 9 ! ^ ! ! ! ! 6   t.# 9 ! _ o.v.b.g.% ) $ 9 9 8 ! ! ! ! 6   t.$ 9 8 ! ! ! ! ! 6   t.# 9 9 8 ! ! ! ! 6   t.# 9 8 ! ! ! ! ! I l   t.# 9 ^ ! ! ",
"! ! ! ! 7 5 t.p.9 9 9 ! ! ! ! ! ! 6 t.p.9 9 ^ ! ! R @.h ] p.^ ) 9 ! ! ! ! ! 6 t.p.8 9 8 ! ! ! ! ! 5 t.p.9 9 9 ! ! ! ! ! 5 t.p.9 9 8 ! ! ! ! ! L k y.p.9 9 8 ! ! ",
"! ! ! ! ! 7 # 9 2 9 ( ! ! ! ! ! ! 6 > 1.3 9 ^ ! ! ! ! [ = i 3 9 9 ! ! ! ! ! 6 # 9 2 9 9 ! ! ! ! ! 6 $ 9 2 9 9 8 ! ! 7 L 6 # 9 2 9 8 ! ! ! ! 7 L l # 9 2 9 8 ! ! ",
"! ! ! ! ! ! ^ 9 9 9 9 ^ ! ! ! ! ! ! ' ^ ) 9 9 ^ ! ! ! H d.h.) 9 9 ^ ! ! ! ! ! ! 9 9 9 ( ! ! ! ! ! ! ! ! 9 9 9 ^ ! ! ! ! ! ^ 9 9 9 ^ ! ! ! ! ! I v P 9 9 9 1.8 ! ",
"C.C.C.C.C.! ! 9 9 t.9 C.C.C.C.C.! ! ! 9 9 9 9 C.C.C.C.H b.v.) 9 9 C.C.C.C.C.! ! ^ 9 9 C.C.C.C.C.C.! ! ! 9 9 9 C.C.C.C.C.! ! ^ 9 9 C.C.C.C.C.C.I l L 8 9 9 C.C.C.",
"C.C.C.C.C.! ^ 9 9 9 9 C.C.C.C.C.! ! ! ^ 9 9 9 C.C.C.C.G v.#.^ 9 9 C.C.C.C.C.! ^ ( 9 9 9 C.C.C.C.C.! ! ! ( 9 9 C.C.C.C.C.! ! 9 9 9 C.C.C.C.C.C.! L ! ( 9 9 C.C.C.",
"C.C.C.C.C.! ! 9 9 9 9 C.C.C.C.C.! ! ! ( 9 9 9 C.C.C.C._ v.@.^ 9 9 C.C.C.C.C.! ! 9 9 9 9 C.C.C.C.C.! ! ! 9 9 9 C.C.C.C.C.! ! 9 9 9 C.C.C.C.C.C.! ! ! 9 9 9 C.C.C.",
"C.C.C.C.C.! ^ 9 9 9 9 C.C.C.C.C.! ! ! 8 9 9 9 C.C.C.C.! ....) 9 9 C.C.C.C.C.! ! ^ 9 9 9 C.C.C.C.C.! ! ! 9 9 9 C.C.C.C.C.! ! 9 9 9 C.C.C.C.C.C.! ! ! 8 9 9 C.C.C.",
"C.C.C.C.C.! ! 9 9 9 9 C.C.C.C.C.! ! ! ^ 9 9 9 C.C.C.C.!  ...( 9 9 C.C.C.C.C.! ! 9 9 9 9 C.C.C.C.C.! ! ^ 9 9 9 C.C.C.C.C.! ! 9 9 9 C.C.C.C.C.C.! ! ^ 9 9 9 C.C.C.",
"C.C.C.C.C.! ^ 9 9 9 C.C.C.C.C.C.! ! ! 9 9 9 9 C.C.C.C.!  . .( 9 9 C.C.C.C.C.! ! ( 9 9 9 C.C.C.C.C.! ! ! ( 9 9 C.C.C.C.C.! ! ^ ( 9 C.C.C.C.C.C.! ! ! 1.9 9 C.C.C.",
"C.C.C.C.C.! ! 9 ) 9 C.C.C.C.C.C.! ! 8 9 9 t.9 C.C.C.C.! ! ! ^ 9 9 C.C.C.C.C.! ^ ( 9 9 C.C.C.C.C.C.! ! ! 9 9 9 C.C.C.C.C.! ! 2.1.9 C.C.C.C.C.C.! ! ! 8 9 9 C.C.C.",
"! ! ! ! ! ! L _ } *.( ! ! ! ! ! ! ! 7 8 9 9 9 ! ! ! ! ! 7 8 9 9 9 ^ ! ! ! ! ! D 8 9 9 8 ! ! ! ! ! ! 6 8 1.1.1.^ ! ! ! ! ! I 9.1.9 9 ! ! ! ! ! ! 8 6 8 9 9 9 ! ! ",
"! ! ! ! ! L . _ . #.) ! ! ! ! ! ! 6   t.# 9 9 ! ! ! ! 6   t.# 9 9 ^ ! ! ! ! G O t.# 9 9 ! ! ! ! ! 6   1.@ 8.r./ W / P / L @ y.# 9 ^ ! ! ! ! ! ! 6   t.# 9 ^ ! ! ",
"! ! ! ! ! F i p ! #.~ ! ! ! ! ! ! 5 t.p.8 9 ( ^ ! ! ! 5 y.p.9 9 9 ^ ! ! _ ..[ y.p.9 9 8 ! ! ! ! ! 6 y.p.9 2.8.q.w.9.9.9.4.u.p.8 9 8 ^ ! ! ! ! ! 5 y.p.9 9 ^ ^ ! ",
"! ! ! ! ! D = ) < ) ^ ! ! ! ! ! ! 6 $ 9 2 9 9 ! ! ! ! 5 + ) 2 9 9 ^ ! H X...D + 9 2 9 ( ! ! ! ! 7 6 # 9 2 9 1./ / / / / J # 9 2 9 ^ ! ! ! ! ! ! 6 # 9 2 9 8 ! ! ",
"! ! ! ! !  .d.` 9 9 ( ^ ! ! ! ! ! ! ! ^ 9 9 ( ^ ! ! ! ! ~ O.! 9 9 ^ ! ! ~ ~ ! ! 8 9 9 8 ! ! ! ! ! ! ! ! 9 9 9 ^ ! ! ! ! 8 ! 8 9 9 ^ ! ! ! ! ! ! ! ! 8 9 9 ( ! ! ",
"C.C.C.C.C.H b._ 9 9 C.C.C.C.C.C.! ! ! 8 9 9 9 C.C.C.C.! ~ ..) 9 9 C.C.C.C.C.! ! 9 9 9 9 C.C.C.C.C.! ! ! ( 9 9 C.C.C.C.C.! ! 9 9 9 C.C.C.C.C.C.! ! ! 9 9 9 C.C.C.",
"C.C.C.C.C.!  .) 9 9 C.C.C.C.C.C.! ! ! 9 9 9 9 C.C.C.C.! ~  .) 9 9 C.C.C.C.C.! ! 8 9 9 9 C.C.C.C.C.! ! ! 9 9 9 C.C.C.C.C.! ^ 8 9 9 C.C.C.C.C.C.! ! 7 8 9 9 C.C.C.",
"C.C.C.C.C.! ! ( 9 9 9 C.C.C.C.C.! ! ! 8 9 9 9 C.C.C.C.! ! ! 9 9 9 C.C.C.C.C.! ! 9 t.9 9 C.C.C.C.C.! ! ! 9 9 9 C.C.C.C.C.! ! 9 9 9 C.C.C.C.C.C.! ! 8 1.9 9 C.C.C.",
"C.C.C.C.C.! ! ^ 9 9 9 C.C.C.C.C.! ! ! ^ 9 9 9 C.C.C.C.8 ! 8 9 9 ( C.C.C.C.C.! ! 9 9 9 9 C.C.C.C.C.! ! ! 9 9 9 C.C.C.C.C.! ! 9 9 9 C.C.C.C.C.C.! ! ! ( 9 9 C.C.C.",
"C.C.C.C.C.! ! 9 9 9 9 C.C.C.C.C.! ! ! ^ 9 9 1.C.C.C.C.! D ) ) ) &.C.C.C.C.C.! ! 8 9 9 9 C.C.C.C.C.! L ^ 9 9 9 C.C.C.C.C.! ! 9 9 9 C.C.C.C.C.C.! ! ! 9 9 9 C.C.C.",
"! ! ! ! ! ! 7 9 9 9 9 ! ! ! L L I I I ^ 1.<.Z W / ! ! R | | @.#.v._ ! ! ! ! ! 7 8 9 9 9 ! ! ! ! ! L l ! 9 9 9 ! ! ! ! ! ! 7 8 9 9 8 ! ! ! ! ! ! ! 7 8 9 9 9 ! ! ",
"' I / ! ! 7   t.# 9 ^ ^ ! U x N v N @ 1.@ B.>.w.4.! ~ @.. ] $ @._ ) ! ! ! ! 7   t.# 9 8 ! ! ! ! ! J X t.# 9 9 8 ! ! ! ! 6   t.# 9 8 ! ! ! ! ! ! 6   t.# 9 ^ ^ ! ",
"w.w.8.6.! 5 y.p.9 9 9 8 U N x P I z 1.p.( <./ / / ! P n i.p.~ ` ( ! ! ! ! ! 5 t.p.9 9 8 ! ! ! ! ! J 1.p.9 9 9 ! ! ! ! ! 6 t.p.9 9 ^ ! ! ! ! ! ! 6 t.p.9 9 8 ! ! ",
"P / W 4.Q L # ( 2 9 8 ! ! P L ! 6 6 # 1.2 9 ( ^ ! ! ~ m * ^ < ) 9 ^ ! ! ! ! 6 $ 9 2 9 9 ! ! ! ! ! J : ^ 2 9 9 8 ! ! ! ! 6 # 9 2 9 9 ! ! ! ! ! ! 6 # 9 2 9 8 ! ! ",
"! ! ! ! ! ! ^ ( 9 9 9 ! ! ! ! ^ ! ! ! 9 9 9 ^ ! ! ! !  ..._ @.) 9 ^ ! ! ! ! ! ! ^ 9 9 ^ ^ ! ! ! ! P v 9.1.9 9 8 ! ! ! ! ! ! 8 9 9 ^ ! ! ! ! ! ! ! ! 9 9 9 8 ! ! ",
"C.C.C.C.C.! ! ^ 9 9 C.C.C.C.C.C.! ! ! 8 9 9 9 C.C.C.C.! ~ ..*.( 9 C.C.C.C.C.! ! 9 9 9 C.C.C.C.C.C.I V q.1.9 9 C.C.C.C.C.! 7 9 9 9 C.C.C.C.C.C.! ! ! ^ 9 9 C.C.C.",
"C.C.C.C.C.! ! ( 9 9 C.C.C.C.C.C.! ! ! 9 9 9 9 C.C.C.C.! _ X.) 9 9 C.C.C.C.C.! ! ^ 9 9 9 C.C.C.C.C.P V w.1.9 9 C.C.C.C.C.! ! 9 9 9 C.C.C.C.C.C.! ! ! ( 9 9 C.C.C.",
"C.C.C.C.C.! ! ( 9 9 C.C.C.C.C.C.! ! ! ^ 9 9 9 C.C.C.C.! H  .) 9 9 C.C.C.C.C.! ! 9 9 9 9 C.C.C.C.C.P B w.) 9 9 C.C.C.C.C.! ! 9 9 9 C.C.C.C.C.C.! ! ^ ( 9 9 C.C.C.",
"C.C.C.C.C.! ! ^ 9 9 C.C.C.C.C.C.! L 7 ^ 9 9 9 C.C.C.C.! ! ! ( 9 9 C.C.C.C.C.! ! ( 9 9 C.C.C.C.C.C.L B V.' 9 9 C.C.C.C.C.! ! ^ 9 9 C.C.C.C.C.C.! ! ! 9 9 9 C.C.C.",
"C.C.C.C.C.! ! ( 9 9 C.C.C.C.C.C.! ! ^ 9 9 9 9 C.C.C.C.! ! ! 9 9 9 C.C.C.C.C.! ! 9 9 9 9 C.C.C.C.C.P Z M.&.( 9 C.C.C.C.C.! ! 9 9 9 C.C.C.C.C.C.! ! ! ( 9 9 C.C.C.",
"C.C.C.C.C.! ! ( 9 9 C.C.C.C.C.C.! ! ! 9 9 ) 9 C.C.C.C.! ! 8 ) 9 9 C.C.C.C.C.! ! ( 9 9 C.C.C.C.C.! L B V.#.) 9 C.C.C.C.C.! ! 9 9 9 C.C.C.C.C.C.! ! ~ / 9 9 9 ! C.",
"W / ! ! ! ! 7 9 9 9 9 ^ ! ! ! ! ! ! 6 8 ) *._ ! ! ! ! ! 6 ~ @.) 9 ^ ! ! ! ! ! 7 9 9 9 9 ! ! ! ! ! L C V.d.*.9 ^ ! ! ! ! ! 6 9 9 9 9 ! ! ! ! ! ! P ..@.) 9 8 ! ! ",
"e.7.W / ! 7   t.# 9 ^ P ~ ! ! ! ! 5   t.$ @.) ! ! ! ^ S   t.$ ) 9 ^ ! ! ! ! 6   t.# 9 8 ! ! ! ! ! L X y % b._ ^ ! ! ! ! 7   t.$ 9 ^ ! ! ! ! P | [ . y.# 9 ^ ! ! ",
"W 4.9.7.! 5 y.p.8 9 ! f } ! ! ! ! 5 y.p.w r ) ~ ~ R ~ S t.p.^ ) 9 ^ ! ! ! ! 5 y.p.8 9 9 ! ! ! ! ! 5 y.p.w j.#.! ! ! ^ 7 5 t.p.8 9 8 ^ ! ! H v.b.[ ] p.9 9 9 ! ! ",
"! ! / ~ ! 7 $ 9 2 9 ~ a d ! ! ! ! S $ w ; ....@.X.X.o.} $ 9 2 9 9 ^ ! ! ! ! 7 # 9 2 9 ^ ! ! ! ! ! 6 $ ! 1 #.v...^ ! ! ! 6 $ 9 2 9 9 ! ! P #.b.#.D & 9 2 9 ^ ^ ! ",
"! ! ! ! ! ! ! 9 9 9 ! O._ ! ! ! ! E o.b.o.@.` ~ ~ ~ ~ ~ ! ! ` 9 9 ! ! ! ! ! ! ! 9 9 9 9 ! ! ! ! ! ! P v ! ) v.o.~ ! ! ! ! ! 9 9 9 ^ ! ! ! R H ~ ! ~ ^ 9 9 8 ! ! ",
"! ! ! ! ! ! ! ^ 9 9 ) O.~ ! ! ! ! ! E o.@.*.) ^ ! ! ! ! ! ~ #.( 9 ! ! ! ! ! ! ^ ^ 9 9 ( ! ! ! ! ! ! P v / 9 _ #.E ! ! ! ! ! 9 9 9 ^ ^ ^ ! ! ! ! ! ^ ^ 9 9 ( ! ! ",
"C.C.C.C.C.! ! 9 9 9 C.C.C.C.C.C.! ! ~ X.&.) 9 C.C.C.C.! ! ) @.) 9 C.C.C.C.C.! ! ^ 9 9 C.C.C.C.C.C.7 P x Y 9 ) n.C.C.C.C.! L 9 9 9 C.C.C.C.C.C.! ! ! 9 9 9 C.C.C.",
"C.C.C.C.C.! ! ( 9 9 C.C.C.C.C.C.! ! E @.) 9 9 C.C.C.C.! ! ! _ 9 9 C.C.C.C.C.! ! 9 9 9 9 C.C.C.C.C.! L x c ( 9 C.C.C.C.C.! ! 9 9 9 C.C.C.C.C.C.! ! ! ( 9 9 C.C.C.",
"C.C.C.C.C.! ^ ( 9 9 C.C.C.C.C.C.! ! R ` 1.9 9 C.C.C.C.! ! ! ) 9 9 C.C.C.C.C.! ! ^ 9 9 9 C.C.C.C.C.! P c c ( 9 C.C.C.C.C.! ! 9 9 9 C.C.C.C.C.C.! ! ! 9 9 9 C.C.C.",
"C.C.C.C.C.! ! ^ 9 9 C.C.C.C.C.C.! ! ! ( 9 9 9 C.C.C.C.! ! H  .9 9 C.C.C.C.C.! ! 9 9 9 9 C.C.C.C.C.! Y c c 1.9 C.C.C.C.C.! ! 9 ^ ( C.C.C.C.C.C.! ! ! ( 9 9 C.C.C.",
"C.C.C.C.C.! ! ^  .t.9 ! ! ! ! ! ! ! ~ ) 9 9 9 ! ! ! ! ! ! ` &.) 9 ^ ! ! ! ! ! ! ( 9 9 9 ! ! ! ! ! P =.c B ^ 9 8 ! ! ! ! ! ! ) | ^ 9 ! ! ! ! ! ! ! ! ( 9 9 ( ^ ! ",
"! ! ! ! ! ! ! ..v._ 9 ! ! ! ! ! ! H {  .` _ ) ~ ! ! ! ! 7 ~ ` 9 9 ^ ! ! ! ! ! 7 8 9 9 8 7 ! ! ! 6 I =.Y B ^ 9 ^ ! ! ! R ! ! { s.) ^ ~ ! ! P Q Q ! 6 9 9 9 9 ! ! ",
"! ! ! ! ! 7 O ) % X.) ! ! ! ! ! ! ! O 1.$ ..X.*.! ! ! !   t.# 9 9 ^ ! ! ! ! 7   t.# 9 9 ! ! ! ! ! K o y.@ ^ 9 ^ ! !  .v.F O t.$ 9 %...~ / 7.e.q.T   t.# 9 ^ ! ! ",
"! ! ! ! ! 5 y.i w X.) ! ! ! ! ! ! 5 y.p.9 9 ) ! ! ! ! 5 y.p.9 9 9 ^ ! ! ! ! 5 t.p.9 9 ( ^ ! ! ! ! J 1.p.! 1.9 ^ ! ! H v.s 1.p.9 *.b.o.~ ! ! I 6.Y y.p.8 9 ^ ^ ! ",
"! ! ! ! ! 5 $ e q H ! ! ! ! ! ! 7 7 $ 9 2 9 ( ! ! ! ! 5 # 9 < ) 9 ! ! ! ! ! 7 $ 9 2 9 ^ ! ! ! ! ! 6 # 9 1 ^ 9 ^ ! ! ! E G + 9 - v.b.R ! ! ! / ,.Q $ 9 2 9 9 ! ! ",
"! ! ! ! ! !  .b.b.) ^ ! ! ! ! ! ! ! ! ^ 9 9 ^ ^ ! ! ! ! ! ~ @.) 9 ^ ! ! ! ! ! ! ( 9 9 9 ! ! ! ! ! ! ! L c ( 9 ^ ! ! ! ! ! ! ` v.` _ ! ! ! ! L 2.W ! ) 9 9 ^ ^ ! ",
"C.C.C.C.C.~ o.m.v.) C.C.C.C.C.C.! ! ! 9 9 9 9 C.C.C.C.! ! ! ` 9 9 C.C.C.C.C.! ! ( 9 9 9 C.C.C.C.C.! ! ! ( 9 9 C.C.C.C.C.! ! #.v.) C.C.C.C.C.C.! ! ! 9 9 9 C.C.C.",
"C.C.C.C.C.@.b.b.o.) C.C.C.C.C.C.! ! ^ ( 9 9 9 C.C.C.C.! ! ! ( 9 9 C.C.C.C.C.! ! 9 9 9 C.C.C.C.C.C.! ! ! ( 9 9 C.C.C.C.C.! ~ &._ t.C.C.C.C.C.C.! ! ! ( 9 9 C.C.C.",
"C.C.C.C.C.b.b.b.#.) C.C.C.C.C.C.! ! ^ ( 9 9 ( C.C.C.C.! ! ^ ( 9 9 C.C.C.C.C.! ! ( 9 9 9 C.C.C.C.C.! ! 8 9 9 9 C.C.C.C.C.@.` o.*.( C.C.C.C.C.C.! ! ! 9 9 9 C.C.C.",
"C.C.C.C.#.m.b.b.b._ 9 C.C.C.C.C.! ! ! 9 9 9 9 C.C.C.C.L ! ! ^ ) 9 C.C.C.C.C.! ! 9 9 9 9 C.C.C.C.C.R ~ ! 9 9 ) C.C.C.C.C.v.#.v...1.C.C.C.C.C.C.! ! ! 9 9 9 C.C.C.",
"#.v.#.v.v.j.f.h.h.@. ...! ! ! ! ! ! 6 8 9 9 9 ! x N x N C B l B P ^ ! ! ! ! ! 6 8 9 9 ^ ! ! ! ! ..#.{ ` ~ &.@.X.X.H @.b.v.g.d.v.) ..v.H ! ! ! ! 7 7 8 9 9 ^ ! ! ",
"l.h.b.b.m.f.% y % o.v.b.H ! ! ! ! 6   t.# 9 ^ ! U U N b X j # 1.( ^ ! ! ! ! 6   t.# 9 9 ! ! ! ! R P O 1.$ &.*.#.v.v.o.b.g.% r % v.v.b. .~ R ~ ! 7   t.# ^ ! ! ! ",
"b.v.v.b.v.g y u w g.@.G ~ ! ! ! ! 5 y.p.9 9 ^ ! L ! P l j p.8 9 9 ! ! ! ! ! 6 t.p.9 9 ^ ! ! ! ! ! 5 t.p.9 ) _ v.m.m.x.d.a.y u y b.b.v.#.v.b.v.H 5 t.p.8 ! ! ! ! ",
"v.#...R H o.= r 0 h.H ! ! ! ! ! ! 6 + 9 2 8 ! ! ! ! L U # 9 1 9 ^ ! ! ! ! ! 6 $ 9 2 9 ^ ^ ! ! ! 7 7 $ 9 2 ^ ~ o.b.b.o.b.m = r 0 b.#.{ #.v.b.v. .L # 9 2 ! ! ! ! ",
"C.C.C.C.C.v.b.f.j.l. .! ! ! ! ! ! ! ! ! ! 7 ! ! ! ! ! ! L 7 7 8 ! ! ! ! ! ! ! ! 8 9 9 ^ ! ! ! ! ! ! ! ! S ! ! ~ R R ! R R v.j.o.R P ! ~ R H H ! ! ! L 7 ! ! ! ! ",
"C.C.C.C.C.v.b.b.b.v.C.C.C.C.C.C.! ! ! ! ! C.C.C.C.C.C.! ! ! ! ! C.C.C.C.C.C.! ! 7 ^ 8 C.C.C.C.C.C.! ! ! ! ! C.C.C.C.C.C.G b.m.b.G C.C.C.C.C.C.! ! ! ! ! C.C.C.C.",
"C.C.C.C.b.o.b.j.b.v.C.C.C.C.C.C.! ! ! ! ! C.C.C.C.C.C.! ! ! ! ! C.C.C.C.C.C.! ! ! ! ! C.C.C.C.C.C.! ! ! ! ! C.C.C.C.C.x...b.m.m.#.C.C.C.C.C.C.C.! ! ! ! C.C.C.C.",
"C.C.C...b.b.v.b.b.l.b.R C.C.! ! ! ! ! ! ! ! ! C.C.! ! ! ! ! ! ! ! ! C.C.! ! ! ! K P ! ! ! C.C.! ! ! ! ! ! ! ! ! C.C.b.b.l.m.m.m.b.v.#.C.C.! ! ! ! ! ! P ! ! C.C.",
"C.C.C.C.v.m.o.b.l.l.b.C.C.C.C.! ! L L ! ! ! C.C.C.C.! ! ! ! ! ! ! C.C.C.C.! ! K v U ! ! C.C.C.C./ 6./ ! ! ! ! C.C.C.C.l.x.b.b.m.b.o.C.C.C.C.! ! ! ! 6.4.K C.C.C.",
"C.C.C.C.C.b.b.b.m.l.z.C.C.C.C.C.P z K ! ! C.C.C.C.C.C.! ! ! P L C.C.C.C.C.C.P v b z ! C.C.C.C.C.C.9.7.! ! ! C.C.C.C.C.m.x.n.o.o.v.C.C.C.C.C.C.! ! / ;.;.C.C.C.C.",
"C.C.C.C.C.v.b.b.x.M C.C.C.C.C.C.! K L ! ! C.C.C.C.C.C.! ! x b z C.C.C.C.C.C.! L K L ! C.C.C.C.C.C.Q w.T ! ! C.C.C.C.C.C.+.+.v.b.v.C.C.C.C.C.C.! ! K ;.$.C.C.C.C.",
"C.C.C.C.C.m.l.h.k.C.C.C.C.C.C.C.! ! ! ! C.C.C.C.C.C.C.C.P N l C.C.C.C.C.C.C.C.! ! ! C.C.C.C.C.C.C.C.A 9.L C.C.C.C.C.C.C.C.b.b.b.m.C.C.C.C.C.C.C.! z C C.C.C.C.C.",
"C.C.C.C.C.C.#.b.E C.C.C.C.C.C.C.C.! ! ! C.C.C.C.C.C.C.C.L L L C.C.C.C.C.C.C.C.! R ! C.C.C.C.C.C.C.C.x B P C.C.C.C.C.C.C.C.v.x.+.C.C.C.C.C.C.C.C.P x K C.C.C.C.C.",
"C.C.C.C.C.C.O.v.C.C.C.C.C.C.C.C.C.C.! C.C.C.C.C.C.C.C.C.C.! C.C.C.C.C.C.C.C.C.v.v.C.C.C.C.C.C.C.C.C.C.x C.C.C.C.C.C.C.C.C.O.v.C.C.C.C.C.C.C.C.C.C.L C.C.C.C.C.C.",
"C.C.C.C.C.C.C. .C.C.C.C.C.C.C.C.C.C.! C.C.C.C.C.C.C.C.C.C.! C.C.C.C.C.C.C.C.C.C.v.C.C.C.C.C.C.C.C.C.C.! C.C.C.C.C.C.C.C.C.C.~ C.C.C.C.C.C.C.C.C.C.! C.C.C.C.C.C."
};
