/* XPM */
static char *result[] = {
/* columns rows colors chars-per-pixel */
"80 80 203 2 ",
"   c #060504",
".  c #0B0605",
"X  c #0C0807",
"o  c #0D0A0A",
"O  c #120707",
"+  c #140807",
"@  c #130D0C",
"#  c #1B0B0B",
"$  c #16100F",
"%  c #1A100F",
"&  c #161211",
"*  c #1C1413",
"=  c #1D1817",
"-  c #1E1A19",
";  c #230E0E",
":  c #2A0F0F",
">  c #24100F",
",  c #221514",
"<  c #2B1312",
"1  c #221817",
"2  c #2B1817",
"3  c #241B1A",
"4  c #2A1E1C",
"5  c #331413",
"6  c #3B1615",
"7  c #351817",
"8  c #331C1B",
"9  c #3C1B1A",
"0  c #27201F",
"q  c #2B211E",
"w  c #32211F",
"e  c #3A211F",
"r  c #262322",
"t  c #2D2422",
"y  c #2E2827",
"u  c #2D2B2A",
"i  c #332523",
"p  c #3B2523",
"a  c #342926",
"s  c #3B2A26",
"d  c #342C2A",
"f  c #3B2D2A",
"g  c #37302E",
"h  c #3C302E",
"j  c #353332",
"k  c #3C3432",
"l  c #3E3837",
"z  c #3D3A3A",
"x  c #411717",
"c  c #441B1A",
"v  c #4B1C1C",
"b  c #531E1E",
"n  c #591F1F",
"m  c #43201F",
"M  c #4B201F",
"N  c #442322",
"B  c #4C2121",
"V  c #402926",
"C  c #422E2B",
"Z  c #4C2C2B",
"A  c #542322",
"S  c #5C2222",
"D  c #532B2A",
"F  c #5B2D2D",
"G  c #562827",
"H  c #43312E",
"J  c #49322F",
"K  c #50312F",
"L  c #433532",
"P  c #4B3632",
"I  c #433936",
"U  c #4C3935",
"Y  c #443C3A",
"T  c #4B3D3B",
"R  c #513A36",
"E  c #543E3A",
"W  c #5A3E3A",
"Q  c #573332",
"!  c #632424",
"~  c #6B2626",
"^  c #652B2B",
"/  c #6B2929",
"(  c #732B2A",
")  c #7B2D2D",
"_  c #702727",
"`  c #643937",
"'  c #7D3333",
"]  c #773837",
"[  c #42403F",
"{  c #4C413F",
"}  c #53413D",
"|  c #5A423D",
" . c #7B403E",
".. c #454342",
"X. c #4D4442",
"o. c #494847",
"O. c #4D4B4A",
"+. c #524543",
"@. c #5C4641",
"#. c #544946",
"$. c #5C4946",
"%. c #544C4A",
"&. c #5A4D4B",
"*. c #53504F",
"=. c #5C514E",
"-. c #555352",
";. c #5C5453",
":. c #595857",
">. c #5C5B5A",
",. c #634642",
"<. c #634A45",
"1. c #634E49",
"2. c #6A4E4B",
"3. c #6E4B47",
"4. c #65514C",
"5. c #6B514C",
"6. c #70554F",
"7. c #625552",
"8. c #6D5652",
"9. c #655956",
"0. c #6A5955",
"q. c #645D5B",
"w. c #6A5D5B",
"e. c #725651",
"r. c #765A54",
"t. c #795D57",
"y. c #725D59",
"u. c #7B5E58",
"i. c #7D5453",
"p. c #784F4F",
"a. c #62605F",
"s. c #6D615E",
"d. c #70625F",
"f. c #7E615B",
"g. c #656362",
"h. c #6B6563",
"j. c #6B6867",
"k. c #6D6A6A",
"l. c #726563",
"z. c #756966",
"x. c #736D6C",
"c. c #7A6D6A",
"v. c #786866",
"b. c #71706F",
"n. c #7D716E",
"m. c #757373",
"M. c #7B7574",
"N. c #7C7A7A",
"B. c #7B7877",
"V. c #832F2F",
"C. c #833131",
"Z. c #8B3333",
"A. c #8C3939",
"S. c #943A3A",
"D. c #805B55",
"F. c #80635D",
"G. c #816562",
"H. c #866963",
"J. c #8A6D66",
"K. c #896F6D",
"L. c #81726E",
"P. c #8E716A",
"I. c #92746D",
"U. c #827673",
"Y. c #857976",
"T. c #837D7C",
"R. c #897D7A",
"E. c #887975",
"W. c #9B7C74",
"Q. c #977971",
"!. c #8C817E",
"~. c #81807F",
"^. c #91827E",
"/. c #A2847C",
"(. c #858383",
"). c #8A8585",
"_. c #8D8A8A",
"`. c #898887",
"'. c #928683",
"]. c #938886",
"[. c #928D8D",
"{. c #9A8E8B",
"}. c #9C918E",
"|. c #91908F",
" X c #949392",
".X c #9B9593",
"XX c #9A9897",
"oX c #9C9A9A",
"OX c #A88A82",
"+X c #A19693",
"@X c #A49D9B",
"#X c #A69B99",
"$X c #A6A09E",
"%X c #A4A2A2",
"&X c #ACA4A2",
"*X c #ACAAAA",
"=X c #B3ADAC",
"-X c #B2A8A6",
";X c #B4B2B1",
":X c #BBB4B2",
">X c #BCBABA",
",X c #C0B7B4",
"<X c #C9C3C2",
/* pixels */
"* * 1 = 1 1 1 1 1 1 3 3 3 - 1 - 1 1 3 3 3 * 3 3 3 4 t i q 2 6 5 a a d f f d s i 3 r 4 4 t p ! i a s f f a d a a a h h H L H k L L I I { U U @.$.$.4.4.=.$.4.$.1.",
"* * 3 t -.[ d u j Y Y y 1 * * , * 3 3 = 3 3 3 4 4 t t t 1 x 5 O f s f f f h d t q q q q q S B i d a d d f g f f h h H L L L L L L T J U U I { } | #.@.1.$.$.4.&.",
"* d >.g.a.m.b.k.k.~.~.>...* * t h d.;.7.9.T &.&.T d q q i p R U P 5.<.r.e.5.u.R J 1 q 4 q 5.).j.b.B.B.).N.N.m.k d P h y r y d g h g D [ [ I k h a 4.#.} { w.f.}.",
"* :.m.(.B.g.:.a.j.B.m.a.:.$ I =.w.7.v.v.l.7.7.;.X.t 3 4 e b 8 i | 8.e.t.f.u.F.| U , 1 1 v _.XX X X Xm.:.g.b.>.j g C g a d k g g k h l L L l d g - - | { f 9.5.i.",
"* :.b.:.g.N.b.g.m.m.m.g.>.$ &.s.w.} Y %.e } 7.#.Y r 1 M _ ~ R ,.R | t.f.5.f.f.| J i * * @.XXoXoXoXoXN.j.b.-.O.j X.h H g k I k Y g k I [ Y k t r   @ C U h k 7.!.",
"1 ;.j.B.N.B.a.g.g.b.m.-.:.x &.w.c.n.l.0.c =.=.#.X.t 8 S N p f U J U <.| r.F.f.R P i * 5 T.oXoXoX(.(.a.:.>.g.~.g.r y y L I I Y k Y l Y { X.k d 1 & = h } h } 4.u.",
"1 I z [ [ ..o.o.o...O...-.$ &.7.w.q.T &.T &.X.{ f 3 8 v C R P R <.U 6.2.5.r.| ,.J p 5 ! m. X X$XXX(.B.k.-...g.-.j 3 y g k k k Y Y Y #.#.+.+.Y X.t d L I =.n.c. .",
"1 r j ..z z j ....z O...g , i X.+.I k a r d t 0 t t 7 a V J J V q C R | | <.| | P i n 4 k.g.a.g.b.k.g.g.o.[ ..j q y y t t r t d d g Y Y k d - d z i { #.l I #.+.",
"1 4 3 r * @ * * & * * 0 $ 3 4 i h h g a - 0 0 a q 0 M e s w w 2 2 w P f U R | | R 0 6 0 m.a.:.:.:.*.>.j.:.:.O.k 0 d i a t t 0 a d d g g f r 3 d g f } 7.$.&.+.T ",
"3 3 3 1 4 3 4 3 3 0 q 0 4 0 q 3 = % $ $ $ $ @ $ 6 ! ( 1 , , $ @ o > q w a s e f 1 2 q w q 3 k k r 1 , 1 3 3 3 0 a p f d d i a a p a f U L f a L f E 1.1.1.+.T @.",
"1 4 3 4 r w t 3 4 4 4 y i q q 0 0 0 1 % $ $ $ $ , M 2 , * $ > $ $ % 0 w d w q 1 0 m M w i i q q t 0 a a d f i f f f f h f C h L P I I } +.T T E } 4.0.y.4.y.y.4.",
"3 1 3 a p | W C P C Z W P W W R J P q = * $ , 2 < , , m 2 , 1 , = = 0 w w t i q q ^ m u Y { +.} Y h a a l.R.{.[.R.).!.{.].}.'.-X,X).P ` ) X.oX_.%X(.*X_.~.`.XX_.",
"3 3 3 s P C s R R s p C W W | @.| R H 2 * 1 S Z.V.G c t t 0 - * = 1 f { #.X.&.[ G K { 9.R.'.!.^ y.&.a #.+X#X+X'.Y.R.c.-X}.=X{.,X-X#XL E ` _.=X;X*X`. XoX X|.XX`.",
"q q i p V s 4 i V E C h P i E P R J : p 1 9 ( D H h z j z z u 0 q q I { { &.&.0.( | #.w.L.R.^.U.$.X.t #.z.Y.}.].R.!.}.#X$X+X,X<X,X&XE.I T |.*X*X%X;XXX_.|._._.m.",
"q q a s p i s s P P P J H J P R H J H w , ! ! V z ..o.%.o.u 0 0 q a [ { a.9.0.^ | #.d.s.L.U.n.c...a q $.T.).'.U.!.R.{.{.-X#X,X+X+X].Y.H T ).*X>X*X>X%X_.oXXX(.N.",
"3 3 p s s V C H J W R R W E C p C f H 2 ; V.! p O.O.*.-.*.u t 0 w g { #.=.9.s.~ +.=.7.c.!.c.s.n.L L 3 ;.z.c.].n.M.z.L.E.+X{.#X#X).n.c.L } ).*X<X%X;X~.B.`.|._.%X",
"1 3 i s V U H P V R R J J p f p w w a < 6 5 I f z O.k.a.o.j z 0 y +.h.7.h.z.2.,.l.l.z.c.;.q.w.X.g 3 t $.z.M.c.s.;.w.=.w.!.'.K.{.+Xn.9.I } ;X$XoXA.p.j.B.).~.XX*X",
"3 * 4 a s V i H H 4 4 4 4 4 w w q q > 5 6 2 l z z a.k.:.a.z t 0 a { =.w.z.` _ y.c.w.q.0.l.Y L d g 1 y t 7.9.7.=.=.l.!.Y.n.).}.{.}.}.q P T !. X.XS.A.9.g.-.[ *.-.",
"3 1 4 , 2 1 2 4 4 4 5 , 1 4 2 3 2 2 > 6 c 7 t a z k 0 g u 0 q w i Y $.{ @.G ,.0.=.#.+.#.+.I f 3 = t t t t 4 a a a g d a d a q 4 q 0 a U U T =.v.).1.X.z j Y k I ",
"1 1 q 3 1 , * 1 1 3 4 3 1 i 1 i a q 6 x 6 q i a w q d 0 q q w q 4 1 Y a s C f r 1 1 * 3 1 4 t 4 t a a p d a a t a d f i a s ( P U | } R I P H T P f a a d a a L ",
"1 4 r 0 q q q t i i t q t s q q w 6 > > 2 d h h k w i q 0 q t t 0 3 1 = < < 3 1 3 4 t t a t i a a d f f d g k L g s f h U 8.D.3.J.W.F.F.OX/./.r.,.q d p 5 d h X.",
"u j O...z ..y 3 3 3 4 q 3 s i 6 n v w H @.} | } #.| q q q { =.#.=.$.7.5 @.+.&.#.9.&.i i a Y [ Y L I Y g k Y I g 0 t a h K.I.I.J.I.P.J.W.^.OXW.5.~ c , * , f X.w.",
"..k u [ j u r * * = 1 t i a b ~ b 7 J } 8.$.4.4.P H i 3 s #.=.=.9.w.N v L.l.w.w.&.f +.r f #.X.Y { Y k L g y d d 0 t t h 5.i.H.H.F.F.W.W.P.` ] ( ( ! ; ; c D Q 1.",
"..u u j ..u r - * 1 3 w P J ~ ) ! w { 8.8.4.@.1.U P 3 0 k { 7.4.=.0.v W U.U.w.w.=.f &.4 L #.X.I g Y g Y a t j g = 0 s } i.J.P.J.D.F.I./.3.! ( ( ~ S 5 5 v ! F +.",
"z u u j z ..u r o & = 3 s ) Z.V.M U | =.1.8.8.{ h P q = { L { =.9.A N d.s.E.L.7.+.L +.4 L I f X.Y l z g j j u r & - h } r.P.J.I.H.OX/.W.A A n ~ n b x n ! ~ ^ Z ",
"z j u u j [ z r & & * t Z.S.V.S | h H p 4.4.$.| P f q * { { #.=.,.n Y 9.=.Q +.I X.I k t f t r I r 1 h t 1 * = @ & - I | r.| | H.H.W.f.6.2 9 b _ n n 5 x c ! ! b ",
"j r z r u r r r @ @ & 4 V.Z.7 4 w q i h f R U f a f @ % I h d s ( N a T +.+.+.+.E E t t f f d i 3 1 * o o @ @ * 0 f } | R R | J R | H < w 5 b ! n x x v x b n x ",
"r - & & - u r o o @ @ ; S ! # $ q q 2 a i a 1 1 w % % = 3 g q ! ! t L k } { P n a t 4 f J h h r r 3 0 3 i d f f h T I { U { H h i 3 * @ 6 c 6 x n : : v b 5 x : ",
"= & & & o & @ & $ @ < 5 5 : @ $ * , , 3 0 q q 0 0 = * 1 q 2 n M 0 8 0 r 3 3 0 a f f k s i a I s a f T L I R I U } } @.{ T I a a a i 1 @ ; + ; 5 ; ; : : : 6 b 5 ",
"& & & = = = - * * 5 v : o o $ $ $ = [ +.#.s.7.s.7.&.=.&.} A P $ 4 t a k X.T T X.+.#.X.X.T L k r P L h #.j.g.q.:.m.b.j.k.a.a.f h a a 4 < ; ; : : 5 5 5 b b : 5 : ",
"& = - - = = - = * v c - o o & @ % h I X.4.s.w.=.9.9.&.7.D Q 7.d * g k Y { { X.+.k Y g k Y l d 4 t s ;.^ k.k.k.g.k.m.B.B.>.O.o.s I a e v x b n x : x : x 6 5 x x ",
"- - - - = r # * : 5 < * o & * * = L I =.=.7.w.7.c.9.0.d.! D { w * d H Y l Y { Y Y k d I k k t r 3 a N.e.k.m.l.5.m.m.b.j.*...o.t } V Z v n n _ ! v b x 5 x x n b ",
"= 3 = - 3 * # 6 6 > o - $ $ , 3 1 T Y +.&.c.z.l.h.z.l.F F X.T 0 1 d g I { I Y k l Y d j y r r = 4 I M.M.m.b.~.M.N.N.N.m.j.O...u } U | c ! S ~ ~ ~ ~ ! ! ! _ ! ! ",
"= * 3 = 0 1 5 x < & & - o o * 3 1 h g X.&.;.9.s.w.w.A S w.T X.y = d { I d k l d h d d d d d y * 3 L j.=.M.m.m.b.N.N.N.N.m.N.>.a H P U M ! ( ( ) ( ! ! S b ) _ ) ",
"= = = & $ < x + . X & $ o $ $ * * 1 3 u g h L k h 9 ( N X.{ T Y * 0 f f r d r y g y r 3 3 * & = 0 f =.O.O.O.>.b.N.N.N.N.k.g.>.0 f R } H m b _ ( ~ ! ~ ~ ~ ! ! n ",
"* o @ o + 5 ; o o o o @ @ o $ = * 1 3 q t g a a g 6 H Y L L L , 1 4 r r 3 - 1 * & * * * & & & = i d f [ ..*.*.%.*.*.-.>.:.>.*.3 ' ( P H m V ! / ( _ S ( V.V.~ b ",
"= & o @ # : + @ $ * $ $ @ $ 1 1 * 1 t i 0 1 * * : , 1 3 3 = 3 q i d s t i i i t q i 0 0 4 e y i s f f L f i q 0 0 q j ^ ) N t ) A.G q e e w w e s e w M ! ) ! < ",
"%.k * ; ; + # * 1 q a t 3 1 4 3 3 q t i i 0 2 < 3 y t y y r 0 t t a d a d d d L h f f f i a i f f h h h f f f f a y a ( S.Z.i s a i f q , 2 * , q 3 % 1 4 w 8 4 ",
"0.h.p 5 5 # = 1 3 J U h H f q 3 4 q i g a 3 2 5 q Y =.;.j.a.j.g.o.%.O.X.Y s s f H I 7.I h L T #.=.h.w.w.=.{ f a a a a ) Z.) q t q q g w q q 1 0 q 1 3 0 q e w i ",
"l.&.7 c J , 3 a h J f f f 4 f f C P 1.P e < < 2 a >.k.a.-.>.O.g.:.x.-.>.:.j i L L 9.x.q.#.;.7.%.h.U.9.7.[ T { 0 a t %.$.+.%.+.} =.=.{ L P I g $.0 2 1 q q %.M.B.",
"q.p c s #.* 4 L L L U f P U U P Y @.U p m 0 , t z g.m.b.-.O.o.:.g.a.:.-.[ z = h { 7.7.;.l.s.x.w.;.h.U.l.w.s.Y d q I W W #.Y I =.{ 7.C.C.k k &.d.%.% * q { M.N.N.",
"&.c c +.{ % f P P P f H H a t P @.$.C e 0 2 2 q Y g.a.j.g.&.k.g.k.*.a.:.z j 1 a &.X.%.%.z.s.M.c.w.9.n.M.M.x.;.a q =.&.w.w.w.v.v.&.#.] 5.{ L s.d.{ 0 7 q a.~.~.~.",
"6 b 9 +.Y * f s q i f i f H J H U H 9 s q 3 @ 1 z j.k.B.B.j.b.k.o.-.:.j.z k 3 t +.C 7.h.x.9.;.9.h.z.z.x.v.w.&.h 3 K +...X.&.l.l.d.{ #.7.{ { #.s.{ % = 0 a.v.i.!.",
"c c p k l % q 3 4 3 , i a f i d d : 4 q t 3 @ * d k.m.g.>.-.>.g.g.j.*.[ z Y 3 t h Y &.w.h.q.s.P $.c.n.n.;.%.*.k 6 i h H L T 9.#.s.} I =.4.&.=.a.a 0 % = ;.r.'  .",
"9 8 k k d * 3 3 , , * , , , , , 5 , 4 q 3 q % 3 0 :.q.-.-.*.*.o.[ j ..z ..r * a y Y X.=.7.#.{ Z T ;.W 9.&.X.+.: e 0 I d a g S a a g I f [ { I =.k q - 0 y s.O.F ",
"; @ @ & & , 3 * @ o @ @ @ * + ; : 2 , & 2 , 1 q 4 t C Y z z z z z y j k t = 3 y 3 3 , * * 3 0 3 3 3 x u y 3 = 1 t i e t g p S a q n m $ - 0 w g h - 0 q y a j y ",
"> * % @ * 1 1 * * o o @ & + ; ; # O * % % * 3 0 8 t q 4 = - - - 3 = = 1 1 3 t t 3 0 2 1 3 t y 4 = 3 0 1 3 4 i q i d q 3 * % i 0 0 S b * 0 = 0 q h * % q w a q 3 ",
"* * * & & * , * @ o . @ 5 6 9 9 7 4 a f f a i q i i 0 t 4 - = = = & & & 1 0 = & 1 3 t q a a f k k I Y s.z.h.:.#.h.m.j.*.4 0 4 4 q 0 q $ = % % 0 q f P } 5.H i w ",
"4 8 i w e w s $ % * % 5 m c x m U E H U T T a i i q 1 @ o & & & & = o - 0 y r & * = 1 1 7 a a.`.`.~._.|.|. Xk.D [. XXX~.*.3 3 a s w w w C e e J J | | | | P C s ",
"4 , 2 4 w w 1 $ & % 2 x c x m m f U } U p f 1 4 * 4 1 o = o & & & = & & 3 0 q c < & - 3 3 Y :.$X Xm.B._.|.[.c Z %X*X%X%Xg.t d h C P h } H w C } | | | | | J C q ",
", 2 1 w w q % $ % 1 * < 6 6 5 e L i 4 f 2 4 3 i & 1 1 o & & @ & o o o & - 0 0 0 = & * 1 q [ a.B.m.N.`.m.|.e } (.|.*X`.:.-.h i i L , % , P G } C | } | } J H q a ",
"2 4 4 4 1 % % $ & = 1 a w s h f s L f s 4 4 a 4 o * 3 * & = & & = & $ o & = = & & & * q 1 l -.j.k.g.g.g.-.-.b.N.b.k.m.j.b.h 3 q h w , 0 q e e H s s w s H s q s ",
"* % $ @ % @ @ $ % = % , q q q 1 4 a q 1 4 i * o & * * 1 = r - - & & @ o o $ & $ * 1 3 1 q q I :.-.:.:.j.b.g.x.m.g.-.*.Y = 1 i h h s w w s f I I a a h h s h a q ",
", @ @ @ @ $ % , , , = * 1 1 , 0 3 1 , * % * o o @ * * 1 d 3 = * $ * < & $ & & $ * 3 q 1 q 3 3 [ j * 0 Y X.k ..X.j t 3 - 1 0 a a h s h k ;.&.#.$.s.| w.7.7.{ s 3 ",
"1 2 4 , % % , , w w q , % $ + o = L X.#.{ +.=.w.s.0.w.&.&.w.: 5 * % = f H J V U P R | P f q 3 q 4 t u g g ..&.#.%.Y X.h - 3 , 1 L I I s.9.s.9.9.n.c.z.w.{ h [ % ",
"2 q 2 4 , 2 % q w q % 0 @ & % { X.&.7.&.> 7.w.0.w.w.7.l.c.l.I @ 1 3 C E U H J U H U R | C q 2 0 3 1 3 d j +.k #...&.z r 3 3 & h s.7.L.L.a.f.n.9.} s.z.=.a } { @ ",
"w 3 4 2 2 w q w s s , * o o a { #.7.;.w.l.l.w.7.l.l.v.v.U.w.k @ $ $ 2.,.| ,.<.} P < U C p 4 2 $ * r 3 r k +.k X.+.&.j L g a = y v.0.9.s.n.^.+.7.s.s.&.c.d.#.&.@ ",
"4 2 2 4 4 w w w w q , * $ % { { #.&.T y.l.8 $.9.d.v.c.l.&.+.k @ * 1 <.u.r.e.5.N 5 2 R U f w q @ 3 r t d d i r Y %.$.#.r a u 1 t d.d.=.} 4.s.} s.d.s.d.L.=.{ } o ",
"2 1 2 1 1 , * , * > % % % & { { &.+.T T s 5 I { &.$.&.+.X.+.d @ * f 2.6.5.R 2 7 p P P P f J w $ * d & = t y k g Y r d a d a 3 a #.I +.L { #.{ [ I | d I } { l X ",
"% % @ % % % % $ @ % * @ 1 ; > a k f l d a 5 : { #.#.T $.&.{ = * 3 q <.R H 5 5 J W P a 8 2 4 2 * * * - - 3 r r 0 3 a y 3 0 0 7 A e I I I k I H } l h g f h g . o ",
"@ @ o @ + & @ @ $ $ @ % 0 % , * & @ o # , < 5 8 f d * @ # 1 , 3 1 = f p < V J J P C i 4 , * * 3 1 * & @ & * O & 0 q 1 q a i 9 B 9 L f f f h i h * % * $ X o . o ",
"@ $ @ @ & % @ & % * % 1 1 1 , 0 * @ @ @ @ 5 < ; o @ & * 1 q 1 q 1 3 % # 5 % % % 3 2 1 , * * , , 1 * * * 1 3 & * q i q 0 i L H 9 C { { } 9.c.q.%.#.$ % @ o X . o ",
"o @ @ $ % * * * 1 % - 0 q w w a i I L t p < < , * 1 X.k ;.N.~.(.q.x.x.p e , 0 1 4 1 0 t t i 8 4 r 1 1 t t 8 , # 3 3 4 #.7.9.h.d.l.l.z.d.c.z.9.{ { t $ @ $ $ j g ",
"d f g 1 = * * 1 1 0 q q q w w s i U C E 5 < : , * ~.g.m.a.B.B.N.#.j.L _.N.[ , 3 3 Y.M.c.C w.9.;.q.&.%.&.7.9.%.% * 1 w.c.l.c.z.U.E.c.c.z.U.U.w.L h 0 A 5 = m.|._.",
"0 y q 0 - $ % * q 2 q q q w q H a a L U > < > > h b.q.m.N.N.`.`.~.(.oX[.j.:.& * X.].#X$.c.%.{ ;.q.q.} l.M.Y.&.d * y Y.L.9.s.q.K.l.Y.Y.n.Y.K.Y.;.L - m ; ;.x.~.`.",
"w [ g g - @ * 1 3 q , 3 0 e q w s w s s > : > > *.~.m.k.g.m.q. X X[.[.[.`.-.& 3 Y.T.w.!.x.=.+.=.w.w.s.T.$X+Xs.k ; ;.v.q.0.;.v.U.U.R.R.U.l.w.c.%.[ - @ + a.|. X|.",
"1 0 0 g 0 @ * w q , q > % * s H 1 1 1 % : < # % O.`.;.b.l ; %.h.M.9.N.~.~.O.& - z.7.h.w.z.=.#.7.=.q.s.].U.Y.Y.k , s.7.&.n.l.l.R.R.Y.U.l.s.s.s.#.&.q @ 0 a.N.`. X",
"q 3 u k 0 $ * , , $ 1 q % 0 q s C q % % < 5 % % z [ +.g.> N.N.~.(.(.-.j.N.*.* 3 w =.Y I ..k d Y X.%.;.w.U.n.w.r @ I Y { 7.s.=.s.7.Y &.X.&.9.I #.7.% w [ { >.:.%.",
"0 q d g 1 @ % $ X @ @ @ @ 1 , % % 1 $ # < < > > 3 z L k.:.g.o.o.O.O.:.-.O.k , 3 3 %.h d h r 3 u d g #.&.+.q.s.@ % * #.{ $.&.=.#...I a d i t r h = w h w 0 k O.{ ",
"3 - = q 1 & % 1 @ @ X % $ * * $ 1 % , + < < > > % z t ..[ r Y o...o.*.[ O.1 = , 3 { g r y t d y d d I q.{ >.;.o % * 0 r t 0 0 & O % & @ & , 1 1 0 f w q q = 0 * ",
"0 & @ o $ - = 1 1 % $ * % % 1 1 = @ , @ + + ; + @ $ $ @ @ $ $ # % * % % $ 1 * 3 4 3 * * 4 , = @ o . . o o . . $ @ $ @ , * = 3 1 , * i 3 a 3 a i w w 0 q q a , 0 ",
"$ & $ 1 % % * % $ 3 1 1 w i t 4 * $ %   + # # # # @ O % # + # O = 3 3 3 1 1 - 3 3 = 4 0 d q t 1 & $ @ $ $ $ $ $ * t j ;.z 1 4 4 3 1 q R 1.W W 1.} | | 6.<.| } , ",
"@ X X X   o o & & X   o   X 4 i O * O . . . $ , 3 @ $ . @ 3 = @ @ * , < * * & @ o & & & & & & - * % $ *.-.O.>.a.g.k.>.b.b.(.k.0 3 0 P R 5.,.4.| | 5.| ,.| <.} s ",
"X X o   o   o o o & & &     , # O O # ; # ; # ; 2 $ # # g , * = @ & : < & @ & & & & o o o & &   - 1 j O.O.j.k.>.m.a.g.~.-.-.j.1 t R 2.@.R | R 5.2.R R <.| | R e ",
"o o X o o   o @ @ o   o . . + # ; O $ ; ; ; $ # + ; ; # t 3 1 @ @ * : , & & & & & o &   & & @ o 3 3 :.q.I M.~.~.a.m.b.a.k.[ >.1 t P 2.2.<.E <.5.e.<.} f J | w q ",
"o o o o X X o @ & o o X . O + # ; O # ; ; : ; : ; : ; + . % . . O @ ; * * ; @ & = & - & = = = o 4 8 O.i q.[.>.k._.(.a.m.m.>.O.* 3 R e.e.<.2.E 5.r.| J w C U w 1 ",
"o o o X o X o $ o o + X . + # + # O # ; ; ; : ; ; ; ; ; # * . . @ @ * = # * @ & - - - - = - & * 4 4 k -.~.(.:.m.m.`.N.(._.a.a.& 3 R ,.8.@.@.U <.r.5.U e s f q 0 ",
"                  X + + . # + O # # # ; ; ; # ; ; # ; ; # . * @ o O O & = & & @ & & - & @ @ o @ 1 w g [ ..j -.*.-.>.>.-.a.g.g.; , q W P W | ,.E <.| e s s P e 1 ",
"            X   o + + # + + + ; # ; # # O # O O # O # # # O O # # # # # o o o o o o & o O @ # @ 4 4 4 k ..z g...:.*.O.O.>.g.= @ * = q 4 V a p i w , q q q e q % ",
"X o $ o @ @ o   . + # + # + O . . . O O # O O O # # O O . . . O # : < < < # # # % & = = : 2 5 5 q 3 1 3 - , = % & & = 1 * & , * * * 1 * * * 4 * * = 1 q q 1 0 0 "
};
