/* XPM */
static char *result[] = {
/* columns rows colors chars-per-pixel */
"80 80 57 1 ",
"  c #00FF1D",
". c #31AB13",
"X c #6F3F07",
"o c #1ECB17",
"O c #1CCF18",
"+ c #5A630B",
"@ c #418E10",
"# c #940000",
"$ c #29B915",
"% c #26BE16",
"& c #782F05",
"* c #418F10",
"= c #703E07",
"- c #25BF16",
"; c #0AEE1B",
": c #645209",
"> c #30AC14",
", c #4A7F0E",
"< c #5D5F0B",
"1 c #861703",
"2 c #14DD19",
"3 c #60590A",
"4 c #35A313",
"5 c #773206",
"6 c #27BB15",
"7 c #6D4308",
"8 c #763306",
"9 c #438C10",
"0 c #18D518",
"q c #7A2C05",
"w c #0FE51A",
"e c #8D0B01",
"r c #1BD118",
"t c #3B9911",
"y c #645309",
"u c #61570A",
"i c #871603",
"p c #34A613",
"a c #62560A",
"s c #881402",
"d c #5B620B",
"f c #0FE61A",
"g c #7C2905",
"h c #2DB214",
"j c #52720D",
"k c #7B2B05",
"l c #08F11B",
"z c #59660C",
"x c #5D5E0B",
"c c #891302",
"v c #10E31A",
"b c #5A640B",
"n c #4C7C0E",
"m c #841903",
"M c #11E21A",
"N c #14DC19",
"B c #20C717",
/* pixels */
"                                                                                ",
"                                                                                ",
"                                                                                ",
"                                                                                ",
"                                                                                ",
"                                                                                ",
"                                                                                ",
"                                                                                ",
"                                                                                ",
"                                                                                ",
"                                                                                ",
"                                                                                ",
"                                                                                ",
"                                                                                ",
"                                                                                ",
"                                                                                ",
"                                                                                ",
"             .XXXXXXXXXXXXXXXXXXXXXXXXo            OXXX+                        ",
"             @########################$            %###&                        ",
"             @########################$            %###&                        ",
"             @########################$            %###&                        ",
"             *###=--------------------;            %###&                        ",
"             @###:                                 %###&                        ",
"             @###:                                 %###&                        ",
"             @###:                                 %###&                        ",
"             @###:                                 %###&                        ",
"             @###:                                 %###&                        ",
"             @###:                              >,,<###1,,,2                    ",
"             @###:                              3###4  5###6                    ",
"             @###:                              3###4  5###6                    ",
"             @###:                              3###4  5###6                    ",
"             @###:                              3###4  5###6                    ",
"             @###:                              3###4  5###6                    ",
"             @###:                              3###4  5###6                    ",
"             @###:                              3###4  5###6                    ",
"             @###:                              3###4  5###6                    ",
"             @###:                              3###4  5###6                    ",
"             *###=----------------o          ---7###4  8###9--0                 ",
"             @####################q         w###e,,,r  t,,y###u                 ",
"             @####################q         w###i         p###a                 ",
"             @####################q         w###i         p###a                 ",
"             *###sXXXXXXXXXXXXXXXXd         w###i         p###a                 ",
"             @###:                          w###i         p###a                 ",
"             @###:                          w###i         p###a                 ",
"             @###:                          w###i         p###a                 ",
"             @###:                          w###i         p###a                 ",
"             @###:                          w###i         p###a                 ",
"             @###:                          w###i         p###a                 ",
"             @###:                          f####XXXXXXXXXg###u                 ",
"             @###:                          w#################a                 ",
"             @###:                          w#################a                 ",
"             @###:                       h,,j#################k,,,l             ",
"             @###:                       z###x----------------c###v             ",
"             @###:                       b###n                m###M             ",
"             @###:                       b###n                m###M             ",
"             @###:                       b###n                m###M             ",
"             @###:                       b###n                m###M             ",
"             @###:                       b###n                m###M             ",
"             *###g,,,,,,,,,,,,,,,,,,,,N  b###n                m###M             ",
"             @########################$  b###n                m###M             ",
"             @########################$  b###n                m###M             ",
"             @########################$  b###n                m###M             ",
"             B,,,,,,,,,,,,,,,,,,,,,,,,N  h,,,%                9,,,l             ",
"                                                                                ",
"                                                                                ",
"                                                                                ",
"                                                                                ",
"                                                                                ",
"                                                                                ",
"                                                                                ",
"                                                                                ",
"                                                                                ",
"                                                                                ",
"                                                                                ",
"                                                                                ",
"                                                                                ",
"                                                                                ",
"                                                                                ",
"                                                                                ",
"                                                                                "
};
