/* XPM */
static char *result[] = {
/* columns rows colors chars-per-pixel */
"80 80 83 1 ",
"  c #00FF1D",
". c #36A212",
"X c #6F3F07",
"o c #2FAE14",
"O c #48830F",
"+ c #1ECC17",
"@ c #940000",
"# c #3F9211",
"$ c #60590A",
"% c #27BB15",
"& c #45870F",
"* c #4A7F0E",
"= c #6E4107",
"- c #694908",
"; c #3D9611",
": c #08F21C",
"> c #7A2C05",
", c #5E5D0B",
"< c #31AB13",
"1 c #8B0F02",
"2 c #2DB214",
"3 c #25BF16",
"4 c #399D12",
"5 c #792E05",
"6 c #0FE61A",
"7 c #8A1102",
"8 c #4B7D0E",
"9 c #61570A",
"0 c #0BEC1B",
"q c #1BD018",
"w c #0FE51A",
"e c #871603",
"r c #34A613",
"t c #62560A",
"y c #418F10",
"u c #881402",
"i c #14DD19",
"p c #8A1002",
"a c #28BA15",
"s c #59660C",
"d c #821F04",
"f c #655109",
"g c #26BD15",
"h c #10E31A",
"j c #418E10",
"k c #645209",
"l c #6D4308",
"z c #29B915",
"x c #5A640B",
"c c #4C7C0E",
"v c #841903",
"b c #11E21A",
"n c #645309",
"m c #36A112",
"M c #14DC19",
"N c #7C2905",
"B c #05F61C",
"V c #10E41A",
"C c #3F9311",
"Z c #753406",
"A c #7F2404",
"S c #5B620B",
"D c #1AD218",
"F c #802204",
"G c #0AEE1B",
"H c #06F41C",
"J c #773206",
"K c #4B7E0E",
"L c #20C717",
"P c #0AED1B",
"I c #1BD118",
"U c #52720D",
"Y c #861703",
"T c #33A713",
"R c #7B2B05",
"E c #08F11B",
"W c #4F760D",
"Q c #57680C",
"! c #792D05",
"~ c #8D0B01",
"^ c #24C116",
"/ c #1FC917",
"( c #30AC14",
/* pixels */
"                                                                                ",
"                                                                                ",
"                                                                                ",
"                                                                                ",
"                                                                                ",
"                                                                                ",
"                                                                                ",
"                                                                                ",
"                                                                                ",
"                                                                                ",
"                                                                                ",
"                                                                                ",
"                                                                                ",
"                                                                                ",
"                                                                                ",
"                                                                                ",
"                                                                                ",
"                    .XXXXXXXXXXo                OXXXXXXXXXX+                    ",
"                    O@@@@@@@@@@#                $@@@@@@@@@@%                    ",
"                    O@@@@@@@@@@#                $@@@@@@@@@@%                    ",
"                 &**=@@@@@@@@@@-**;         :***>@@@@@@@@@@,**<                 ",
"                 1@@@2333333334@@@5         6@@@73333333338@@@9                 ",
"                 1@@@0        q@@@>         w@@@e         r@@@t                 ",
"                 1@@@0        q@@@>         w@@@e         r@@@t                 ",
"             y@@@uXXX:        iXXXp@@@a  s@@@dXXf         gXXX@@@@h             ",
"             j@@@k                l@@@z  x@@@c                v@@@b             ",
"             j@@@k                l@@@z  x@@@c                v@@@b             ",
"             j@@@k                l@@@z  x@@@c                v@@@b             ",
"             j@@@k                l@@@z  x@@@c                v@@@b             ",
"             j@@@k                l@@@z  x@@@c                v@@@b             ",
"             j@@@k                l@@@z  x@@@c                v@@@b             ",
"             y@@@n                m***M  x@@@c                v@@@b             ",
"             j@@@k                       x@@@c                v@@@b             ",
"             j@@@k                       x@@@c                v@@@b             ",
"             y@@@N***B                   x@@@c                v@@@b             ",
"                 1@@@0                   x@@@c                v@@@b             ",
"                 1@@@0                   x@@@c                v@@@b             ",
"                 1@@@2333333333V         x@@@c                v@@@b             ",
"                 &**=@@@@@@@@@@C         x@@@c                v@@@b             ",
"                    O@@@@@@@@@@#         x@@@c                v@@@b             ",
"                    O@@@@@@@@@@#         x@@@c                v@@@b             ",
"                    .XXXXXXXXXZAXXS      x@@@c                v@@@b             ",
"                              q@@@>      x@@@c                v@@@b             ",
"                              q@@@>      x@@@c                v@@@b             ",
"                              D@@@F333G  x@@@c                v@@@b             ",
"                              H333J@@@a  x@@@c                v@@@b             ",
"                                  l@@@z  x@@@c                v@@@b             ",
"                                  l@@@z  x@@@c                v@@@b             ",
"             <XXXK                l@@@a  x@@@c                v@@@b             ",
"             j@@@k                l@@@z  x@@@c                v@@@b             ",
"             j@@@k                l@@@z  x@@@c                v@@@b             ",
"             j@@@k                l@@@z  x@@@c                v@@@b             ",
"             j@@@k                l@@@z  x@@@c                v@@@b             ",
"             j@@@k                l@@@z  x@@@c                v@@@b             ",
"             j@@@k                l@@@z  x@@@c                v@@@b             ",
"             L***@@@@P        I@@@e***M  2**U@@@Y         T@@@R***E             ",
"                 1@@@0        q@@@>         w@@@e         r@@@t                 ",
"                 1@@@0        q@@@>         w@@@e         r@@@t                 ",
"                 1@@@W********Q@@@!         w@@@~*********n@@@9                 ",
"                    O@@@@@@@@@@#                $@@@@@@@@@@%                    ",
"                    O@@@@@@@@@@#                $@@@@@@@@@@%                    ",
"                    O@@@@@@@@@@#                $@@@@@@@@@@%                    ",
"                    ^**********/                (**********i                    ",
"                                                                                ",
"                                                                                ",
"                                                                                ",
"                                                                                ",
"                                                                                ",
"                                                                                ",
"                                                                                ",
"                                                                                ",
"                                                                                ",
"                                                                                ",
"                                                                                ",
"                                                                                ",
"                                                                                ",
"                                                                                ",
"                                                                                ",
"                                                                                ",
"                                                                                "
};
