/* XPM */
static char *result[] = {
/* columns rows colors chars-per-pixel */
"80 80 56 1 ",
"  c #00FF1D",
". c #31AB13",
"X c #6F3F07",
"o c #4B7E0E",
"O c #52720D",
"+ c #1ECB17",
"@ c #438C10",
"# c #0CEA1B",
"$ c #418E10",
"% c #940000",
"& c #645209",
"* c #6D4308",
"= c #29B915",
"- c #5A640B",
"; c #11E21A",
": c #418F10",
"> c #645309",
", c #06F41C",
"< c #4A7F0E",
"1 c #48820F",
"2 c #0DE81A",
"3 c #910501",
"4 c #59660C",
"5 c #5D5E0B",
"6 c #25BF16",
"7 c #4C7C0E",
"8 c #24C116",
"9 c #50740D",
"0 c #1FC917",
"q c #48830F",
"w c #4E790E",
"e c #5E5C0A",
"r c #3F9211",
"t c #18D518",
"y c #62560A",
"u c #821F04",
"i c #49810F",
"p c #861803",
"a c #812004",
"s c #713B07",
"d c #3A9B12",
"f c #46860F",
"g c #753406",
"h c #7F2404",
"j c #831C03",
"k c #8B0F02",
"l c #0BEC1B",
"z c #1BD018",
"x c #7A2C05",
"c c #59650B",
"v c #703E07",
"b c #08F11B",
"n c #45870F",
"m c #05F61C",
"M c #3D9611",
"N c #2DB214",
/* pixels */
"                                                                                ",
"                                                                                ",
"                                                                                ",
"                                                                                ",
"                                                                                ",
"                                                                                ",
"                                                                                ",
"                                                                                ",
"                                                                                ",
"                                                                                ",
"                                                                                ",
"                                                                                ",
"                                                                                ",
"                                                                                ",
"                                                                                ",
"                                                                                ",
"                                                                                ",
"             .XXXo                OXXX+  @XXXXXXXXXXXXXXXXXXXXXXXX#             ",
"             $%%%&                *%%%=  -%%%%%%%%%%%%%%%%%%%%%%%%;             ",
"             $%%%&                *%%%=  -%%%%%%%%%%%%%%%%%%%%%%%%;             ",
"             :%%%>     ,<<<1      *%%%=  -%%%%%%%%%%%%%%%%%%%%%%%%;             ",
"             $%%%&     2%%%3      *%%%=  4%%%566666666666666666666              ",
"             $%%%&     2%%%3      *%%%=  -%%%7                                  ",
"             $%%%&     2%%%3      *%%%=  -%%%7                                  ",
"             $%%%&     2%%%3      *%%%=  -%%%7                                  ",
"             $%%%&     2%%%3      *%%%=  -%%%7                                  ",
"             $%%%&     2%%%3      *%%%=  -%%%7                                  ",
"             $%%%&     2%%%3      *%%%=  -%%%7                                  ",
"             $%%%&     2%%%3      *%%%=  -%%%7                                  ",
"             $%%%&     2%%%3      *%%%=  -%%%7                                  ",
"             $%%%&     2%%%3      *%%%=  -%%%7                                  ",
"             $%%%&     2%%%3      *%%%=  -%%%7                                  ",
"             $%%%&     2%%%3      *%%%=  -%%%7                                  ",
"             $%%%&     2%%%3      *%%%=  -%%%7                                  ",
"             :%%%>  8<<9%%%%<<<0  *%%%=  -%%%7                                  ",
"             $%%%&  q%%%w  e%%%r  *%%%=  -%%%7                                  ",
"             $%%%&  q%%%w  e%%%r  *%%%=  -%%%7                                  ",
"             $%%%&  q%%%w  e%%%r  *%%%=  4%%%56666666666666666t                 ",
"             $%%%&  q%%%w  e%%%r  *%%%=  -%%%%%%%%%%%%%%%%%%%%y                 ",
"             $%%%&  q%%%w  e%%%r  *%%%=  -%%%%%%%%%%%%%%%%%%%%y                 ",
"             $%%%&  q%%%w  e%%%r  *%%%=  -%%%%%%%%%%%%%%%%%%%%y                 ",
"             $%%%&  q%%%w  e%%%r  *%%%=  4%%%uXXXXXXXXXXXXXXXXi                 ",
"             $%%%&  q%%%w  e%%%r  *%%%=  -%%%7                                  ",
"             $%%%&  q%%%w  e%%%r  *%%%=  -%%%7                                  ",
"             $%%%&  q%%%w  e%%%r  *%%%=  -%%%7                                  ",
"             $%%%&  q%%%w  e%%%r  *%%%=  -%%%7                                  ",
"             $%%%&  q%%%w  e%%%r  *%%%=  -%%%7                                  ",
"             $%%%&  q%%%w  e%%%r  *%%%=  -%%%7                                  ",
"             .XXXpXXasXXd  fXXghXXjXXX+  -%%%7                                  ",
"                 k%%%l        z%%%x      -%%%7                                  ",
"                 k%%%l        z%%%x      -%%%7                                  ",
"                 k%%%l        z%%%x      -%%%7                                  ",
"                 k%%%l        z%%%x      -%%%7                                  ",
"                 k%%%l        z%%%x      -%%%7                                  ",
"                 k%%%l        z%%%x      -%%%7                                  ",
"                 k%%%l        z%%%x      -%%%7                                  ",
"                 k%%%l        z%%%x      -%%%7                                  ",
"                 k%%%l        z%%%x      -%%%7                                  ",
"                 k%%%l        z%%%x      c%%%v<<<<<<<<<<<<<<<<<<<<b             ",
"                 k%%%l        z%%%x      -%%%%%%%%%%%%%%%%%%%%%%%%;             ",
"                 k%%%l        z%%%x      -%%%%%%%%%%%%%%%%%%%%%%%%;             ",
"                 k%%%l        z%%%x      -%%%%%%%%%%%%%%%%%%%%%%%%;             ",
"                 n<<<m        2<<<M      N<<<<<<<<<<<<<<<<<<<<<<<<b             ",
"                                                                                ",
"                                                                                ",
"                                                                                ",
"                                                                                ",
"                                                                                ",
"                                                                                ",
"                                                                                ",
"                                                                                ",
"                                                                                ",
"                                                                                ",
"                                                                                ",
"                                                                                ",
"                                                                                ",
"                                                                                ",
"                                                                                ",
"                                                                                ",
"                                                                                "
};
