/* XPM */
static char *result[] = {
/* columns rows colors chars-per-pixel */
"80 80 72 1 ",
"  c #00FF1D",
". c #31AB13",
"X c #6F3F07",
"o c #4B7E0E",
"O c #52720D",
"+ c #1ECB17",
"@ c #48830F",
"# c #1ECC17",
"$ c #418E10",
"% c #940000",
"& c #645209",
"* c #6D4308",
"= c #29B915",
"- c #60590A",
"; c #27BB15",
": c #08F21C",
"> c #4A7F0E",
", c #7A2C05",
"< c #5E5D0B",
"1 c #0FE61A",
"2 c #8A1102",
"3 c #25BF16",
"4 c #4B7D0E",
"5 c #61570A",
"6 c #0FE51A",
"7 c #871603",
"8 c #34A613",
"9 c #62560A",
"0 c #0BEC1B",
"q c #59660C",
"w c #821F04",
"e c #655109",
"r c #26BD15",
"t c #10E31A",
"y c #5A640B",
"u c #4C7C0E",
"i c #841903",
"p c #11E21A",
"a c #418F10",
"s c #7C2905",
"d c #6E4107",
"f c #4E790E",
"g c #645309",
"h c #5F5B0A",
"j c #24C116",
"k c #28BA15",
"l c #50740D",
"z c #0DE81A",
"x c #910501",
"c c #0CEA1B",
"v c #10E41A",
"b c #6B4608",
"n c #3F9311",
"m c #5E5C0A",
"M c #3F9211",
"N c #694908",
"B c #802104",
"V c #17D718",
"C c #399D12",
"Z c #1BD018",
"A c #2DB214",
"S c #861703",
"D c #33A713",
"F c #7B2B05",
"G c #08F11B",
"H c #8D0B01",
"J c #20C717",
"K c #32A913",
"L c #36A112",
"P c #14DC19",
"I c #30AC14",
"U c #14DD19",
/* pixels */
"                                                                                ",
"                                                                                ",
"                                                                                ",
"                                                                                ",
"                                                                                ",
"                                                                                ",
"                                                                                ",
"                                                                                ",
"                                                                                ",
"                                                                                ",
"                                                                                ",
"                                                                                ",
"                                                                                ",
"                                                                                ",
"                                                                                ",
"                                                                                ",
"                                                                                ",
"             .XXXo                OXXX+         @XXXXXXXXXX#                    ",
"             $%%%&                *%%%=         -%%%%%%%%%%;                    ",
"             $%%%&                *%%%=         -%%%%%%%%%%;                    ",
"             $%%%&                *%%%=     :>>>,%%%%%%%%%%<>>.                 ",
"             $%%%&                *%%%=     1%%%23333333334%%%5                 ",
"             $%%%&                *%%%=     6%%%7         8%%%9                 ",
"             $%%%&                *%%%=     6%%%7         8%%%9                 ",
"             $%%%%%%%0            *%%%=  q%%%wXXe         rXXX%%%%t             ",
"             $%%%%%%%0            *%%%=  y%%%u                i%%%p             ",
"             $%%%%%%%0            *%%%=  y%%%u                i%%%p             ",
"             $%%%%%%%0            *%%%=  y%%%u                i%%%p             ",
"             $%%%%%%%0            *%%%=  y%%%u                i%%%p             ",
"             $%%%%%%%0            *%%%=  y%%%u                i%%%p             ",
"             $%%%%%%%0            *%%%=  y%%%u                i%%%p             ",
"             a%%%s>>d%%%f         *%%%=  y%%%u                i%%%p             ",
"             $%%%&  @%%%f         *%%%=  y%%%u                i%%%p             ",
"             $%%%&  @%%%f         *%%%=  y%%%u                i%%%p             ",
"             $%%%&  @%%%f         *%%%=  y%%%u                i%%%p             ",
"             $%%%&  @%%%f         *%%%=  y%%%u                i%%%p             ",
"             $%%%&  @%%%f         *%%%=  y%%%u                i%%%p             ",
"             a%%%g  @%%%h33j      *%%%k  y%%%u                i%%%p             ",
"             a%%%g  j>>l%%%%      *%%%=  y%%%u                i%%%p             ",
"             $%%%&     z%%%x      *%%%=  y%%%u                i%%%p             ",
"             $%%%&     z%%%x      *%%%=  y%%%u                i%%%p             ",
"             $%%%&     z%%%x      *%%%=  y%%%u                i%%%p             ",
"             $%%%&     z%%%x      *%%%=  y%%%u                i%%%p             ",
"             $%%%&     z%%%x      *%%%=  y%%%u                i%%%p             ",
"             a%%%g     c%%%%333v  *%%%k  y%%%u                i%%%p             ",
"             a%%%g      333b%%%n  *%%%k  y%%%u                i%%%p             ",
"             $%%%&         m%%%M  *%%%=  y%%%u                i%%%p             ",
"             $%%%&         m%%%M  *%%%=  y%%%u                i%%%p             ",
"             $%%%&         m%%%M  *%%%=  y%%%u                i%%%p             ",
"             $%%%&         m%%%M  *%%%=  y%%%u                i%%%p             ",
"             $%%%&         m%%%M  *%%%=  y%%%u                i%%%p             ",
"             a%%%g         <%%%N>>B%%%=  y%%%u                i%%%p             ",
"             a%%%g         V33C%%%%%%%k  y%%%u                i%%%p             ",
"             $%%%&            Z%%%%%%%=  y%%%u                i%%%p             ",
"             $%%%&            Z%%%%%%%=  y%%%u                i%%%p             ",
"             $%%%&            Z%%%%%%%=  A>>O%%%S         D%%%F>>>G             ",
"             $%%%&            Z%%%%%%%=     6%%%7         8%%%9                 ",
"             $%%%&            Z%%%%%%%=     6%%%7         8%%%9                 ",
"             $%%%&            Z%%%%%%%=     6%%%H>>>>>>>>>g%%%5                 ",
"             $%%%&                *%%%=         -%%%%%%%%%%;                    ",
"             $%%%&                *%%%=         -%%%%%%%%%%;                    ",
"             $%%%&                *%%%=         -%%%%%%%%%%;                    ",
"             J>>>K                L>>>P         I>>>>>>>>>>U                    ",
"                                                                                ",
"                                                                                ",
"                                                                                ",
"                                                                                ",
"                                                                                ",
"                                                                                ",
"                                                                                ",
"                                                                                ",
"                                                                                ",
"                                                                                ",
"                                                                                ",
"                                                                                ",
"                                                                                ",
"                                                                                ",
"                                                                                ",
"                                                                                ",
"                                                                                "
};
